<svg width="345" height="97" viewBox="0 0 345 97" fill="none" xmlns="http://www.w3.org/2000/svg">
<g filter="url(#filter0_d)">
<mask id="mask0" mask-type="alpha" maskUnits="userSpaceOnUse" x="0" y="0" width="345" height="89">
<rect width="345" height="89" rx="14" fill="#474747"/>
</mask>
<g mask="url(#mask0)">
<path d="M293.277 65.9237L279.294 79.9941L310.732 111.63L324.715 97.5598L293.277 65.9237Z" fill="#0093FF" stroke="white" stroke-width="6" stroke-miterlimit="10"/>
<path d="M310.73 113.071C310.352 113.071 309.974 112.945 309.596 112.564L278.235 81.0052C277.605 80.3715 277.605 79.4843 278.235 78.8505L292.215 64.7819C292.845 64.1482 293.852 64.1482 294.356 64.7819L325.718 96.3412C326.347 96.975 326.347 97.8622 325.718 98.4959L311.737 112.691C311.485 112.945 311.107 113.071 310.73 113.071ZM281.383 79.9912L310.73 109.396L322.569 97.4819L293.223 68.0773L281.383 79.9912Z" fill="#474747" stroke="white" stroke-width="6" stroke-miterlimit="10"/>
<path d="M253.274 32.7598L246.239 39.8398L282.664 76.4948L289.699 69.4147L253.274 32.7598Z" fill="#92ABC0" stroke="white" stroke-width="6" stroke-miterlimit="10"/>
<path d="M282.769 78.0902C282.391 78.0902 282.013 77.9635 281.635 77.5832L245.236 40.9542C244.606 40.3205 244.606 39.4332 245.236 38.7995L252.289 31.7019C252.919 31.0681 253.8 31.0681 254.43 31.7019L290.83 68.3309C291.081 68.5844 291.333 68.9646 291.333 69.4716C291.333 69.9786 291.207 70.2321 290.83 70.6123L283.776 77.71C283.524 77.8367 283.147 78.0902 282.769 78.0902ZM248.384 39.8135L282.643 74.2879L287.555 69.3449L253.296 34.8705L248.384 39.8135Z" fill="#474747" stroke="white" stroke-width="6" stroke-miterlimit="10"/>
<path d="M227.064 42.0953L219.405 49.8027L230.894 61.3638L238.553 53.6564L227.064 42.0953Z" fill="#92ABC0" stroke="white" stroke-width="6" stroke-miterlimit="10"/>
<path d="M230.877 62.8806C230.499 62.8806 230.122 62.7538 229.744 62.3736L218.282 50.8399C217.653 50.2061 217.653 49.3189 218.282 48.6852L225.965 40.9538C226.595 40.3201 227.603 40.3201 228.106 40.9538L239.568 52.4875C239.82 52.741 240.072 53.1213 240.072 53.6282C240.072 54.1352 239.946 54.3887 239.568 54.7689L231.885 62.5003C231.633 62.7538 231.255 62.8806 230.877 62.8806ZM221.557 49.8259L230.877 59.205L236.293 53.755L226.973 44.3759L221.557 49.8259Z" fill="#474747" stroke="white" stroke-width="6" stroke-miterlimit="10"/>
<path d="M235.018 38.2063L229.052 44.2109L236.354 51.5598L242.321 45.5552L235.018 38.2063Z" fill="#92ABC0" stroke="white" stroke-width="6" stroke-miterlimit="10"/>
<path d="M236.419 53.1208C236.041 53.1208 235.663 52.9941 235.286 52.6139L227.98 45.2627C227.351 44.629 227.351 43.7418 227.98 43.108L233.9 37.1511C234.53 36.5174 235.412 36.5174 236.041 37.1511L243.346 44.5022C243.976 45.136 243.976 46.0232 243.346 46.6569L237.427 52.6139C237.175 52.9941 236.797 53.1208 236.419 53.1208ZM231.255 44.2487L236.419 49.4453L240.198 45.6429L235.034 40.4464L231.255 44.2487Z" fill="#474747" stroke="white" stroke-width="6" stroke-miterlimit="10"/>
<path d="M251.659 17.2529L249.896 19.0273L232.893 36.1377L243.094 46.404C246.873 50.2063 252.793 50.2063 256.571 46.404L260.098 42.8552C263.876 39.0528 263.876 33.0959 260.098 29.2935L259.342 28.5331L270.552 17.2529C265.262 12.0563 256.949 12.0563 251.659 17.2529Z" fill="#92ABC0" stroke="white" stroke-width="6" stroke-miterlimit="10"/>
<path d="M249.896 50.8398C247.125 50.8398 244.228 49.6991 242.087 47.5445L231.885 37.2782C231.633 37.0247 231.381 36.6445 231.381 36.1375C231.381 35.6305 231.507 35.377 231.885 34.9968L250.651 16.1119C256.445 10.2817 265.891 10.2817 271.685 16.1119C271.937 16.4922 272.063 16.8724 272.063 17.2526C272.063 17.6329 271.937 18.0131 271.559 18.3933L261.483 28.5329C263.372 30.5608 264.506 33.3491 264.506 36.1375C264.506 39.0526 263.372 41.841 261.231 43.9957L257.705 47.5445C255.564 49.6991 252.793 50.8398 249.896 50.8398ZM235.034 36.1375L244.228 45.3898C247.377 48.5584 252.415 48.5584 255.564 45.3898L259.09 41.841C260.602 40.3201 261.483 38.2922 261.483 36.1375C261.483 33.9829 260.602 31.955 259.09 30.434L258.208 29.5468C257.957 29.2933 257.705 28.9131 257.705 28.4061C257.705 28.0259 257.831 27.6457 258.208 27.2654L268.284 17.1259C263.624 13.577 256.949 13.8305 252.793 18.1398L235.034 36.1375Z" fill="#474747" stroke="white" stroke-width="6" stroke-miterlimit="10"/>
<path d="M230.751 104.073C226.973 100.27 227.225 94.1867 231.255 90.7646L282.391 46.9111L287.555 52.1076L243.976 103.439C240.575 107.495 234.404 107.748 230.751 104.073Z" fill="#92ABC0" stroke="white" stroke-width="6" stroke-miterlimit="10"/>
<path d="M237.049 108.256C234.278 108.256 231.507 107.115 229.618 105.087C227.603 103.059 226.469 100.144 226.595 97.1022C226.721 94.1871 228.106 91.3987 230.248 89.4975L281.383 45.644C282.013 45.1371 282.895 45.1371 283.398 45.7708L288.562 50.9673C289.066 51.4743 289.192 52.4882 288.688 52.9952L245.11 104.453C243.22 106.735 240.45 108.002 237.553 108.129C237.427 108.256 237.175 108.256 237.049 108.256ZM282.265 48.9394L232.263 91.7789C230.625 93.1731 229.744 95.0743 229.618 97.2289C229.492 99.3836 230.374 101.411 231.759 102.932C233.144 104.453 235.286 105.214 237.427 105.087C239.568 104.96 241.457 104.073 242.843 102.425L285.54 52.108L282.265 48.9394Z" fill="#474747" stroke="white" stroke-width="6" stroke-miterlimit="10"/>
<path d="M315.894 36.1385L310.352 30.5618L302.165 38.8001L295.49 32.0827L303.676 23.8443L298.135 18.2676L285.917 28.4071C279.494 33.7304 278.99 43.4897 284.91 49.4467C290.83 55.4036 300.654 54.8967 305.944 48.4327L315.894 36.1385Z" fill="#92ABC0" stroke="white" stroke-width="6" stroke-miterlimit="10"/>
<path d="M294.986 55.1497C290.83 55.1497 286.799 53.502 283.902 50.5869C280.754 47.4183 279.116 43.109 279.368 38.673C279.62 34.2369 281.635 30.0544 285.036 27.266L297.253 17.1265C297.883 16.6195 298.764 16.6195 299.268 17.2532L304.81 22.8299C305.44 23.4637 305.44 24.3509 304.81 24.9846L297.757 32.0823L302.291 36.6451L309.344 29.5474C309.974 28.9137 310.856 28.9137 311.485 29.5474L317.027 35.1241C317.531 35.6311 317.657 36.5183 317.153 37.152L307.077 49.4462C304.306 52.8683 300.15 55.023 295.742 55.1497C295.49 55.1497 295.238 55.1497 294.986 55.1497ZM298.009 20.2951L286.925 29.5474C284.154 31.8288 282.517 35.1241 282.265 38.7997C282.139 42.3485 283.398 45.8974 285.917 48.4323C288.436 50.9671 291.963 52.3613 295.49 52.1078C299.016 51.9811 302.417 50.2067 304.684 47.4183L313.878 36.2648L310.478 32.8427L303.425 39.9404C302.795 40.5741 301.913 40.5741 301.283 39.9404L294.608 33.223C294.356 32.9695 294.104 32.5892 294.104 32.0823C294.104 31.5753 294.23 31.3218 294.608 30.9416L301.661 23.8439L298.009 20.2951Z" fill="#474747" stroke="white" stroke-width="6" stroke-miterlimit="10"/>
<path d="M237.553 102.932C236.041 102.932 234.656 102.425 233.522 101.284C231.255 99.003 231.255 95.3274 233.522 93.046C235.789 90.7646 239.442 90.7646 241.709 93.046C243.976 95.3274 243.976 99.003 241.709 101.284C240.575 102.298 239.064 102.932 237.553 102.932ZM237.553 94.3135C236.923 94.3135 236.167 94.5669 235.663 95.0739C234.656 96.0879 234.656 97.8623 235.663 98.8762C236.671 99.8902 238.434 99.8902 239.442 98.8762C240.45 97.8623 240.45 96.0879 239.442 95.0739C238.938 94.6937 238.308 94.3135 237.553 94.3135Z" fill="#474747" stroke="white" stroke-width="6" stroke-miterlimit="10"/>
<path d="M293.277 65.9237L279.294 79.9941L310.732 111.63L324.715 97.5598L293.277 65.9237Z" fill="#0093FF"/>
<path d="M310.73 113.071C310.352 113.071 309.974 112.945 309.596 112.564L278.235 81.0052C277.605 80.3715 277.605 79.4843 278.235 78.8505L292.215 64.7819C292.845 64.1482 293.852 64.1482 294.356 64.7819L325.718 96.3412C326.347 96.975 326.347 97.8622 325.718 98.4959L311.737 112.691C311.485 112.945 311.107 113.071 310.73 113.071ZM281.383 79.9912L310.73 109.396L322.569 97.4819L293.223 68.0773L281.383 79.9912Z" fill="#474747"/>
<path d="M253.274 32.7598L246.239 39.8398L282.664 76.4948L289.699 69.4147L253.274 32.7598Z" fill="#92ABC0"/>
<path d="M282.769 78.0902C282.391 78.0902 282.013 77.9635 281.635 77.5832L245.236 40.9542C244.606 40.3205 244.606 39.4332 245.236 38.7995L252.289 31.7019C252.919 31.0681 253.8 31.0681 254.43 31.7019L290.83 68.3309C291.081 68.5844 291.333 68.9646 291.333 69.4716C291.333 69.9786 291.207 70.2321 290.83 70.6123L283.776 77.71C283.524 77.8367 283.147 78.0902 282.769 78.0902ZM248.384 39.8135L282.643 74.2879L287.555 69.3449L253.296 34.8705L248.384 39.8135Z" fill="#474747"/>
<path d="M227.064 42.0953L219.405 49.8027L230.894 61.3638L238.553 53.6564L227.064 42.0953Z" fill="#92ABC0"/>
<path d="M230.877 62.8806C230.499 62.8806 230.122 62.7538 229.744 62.3736L218.282 50.8399C217.653 50.2061 217.653 49.3189 218.282 48.6852L225.965 40.9538C226.595 40.3201 227.603 40.3201 228.106 40.9538L239.568 52.4875C239.82 52.741 240.072 53.1213 240.072 53.6282C240.072 54.1352 239.946 54.3887 239.568 54.7689L231.885 62.5003C231.633 62.7538 231.255 62.8806 230.877 62.8806ZM221.557 49.8259L230.877 59.205L236.293 53.755L226.973 44.3759L221.557 49.8259Z" fill="#474747"/>
<path d="M235.018 38.2063L229.052 44.2109L236.354 51.5598L242.321 45.5552L235.018 38.2063Z" fill="#92ABC0"/>
<path d="M236.419 53.1208C236.041 53.1208 235.663 52.9941 235.286 52.6139L227.98 45.2627C227.351 44.629 227.351 43.7418 227.98 43.108L233.9 37.1511C234.53 36.5174 235.412 36.5174 236.041 37.1511L243.346 44.5022C243.976 45.136 243.976 46.0232 243.346 46.6569L237.427 52.6139C237.175 52.9941 236.797 53.1208 236.419 53.1208ZM231.255 44.2487L236.419 49.4453L240.198 45.6429L235.034 40.4464L231.255 44.2487Z" fill="#474747"/>
<path d="M251.659 17.2529L249.896 19.0273L232.893 36.1377L243.094 46.404C246.873 50.2063 252.793 50.2063 256.571 46.404L260.098 42.8552C263.876 39.0528 263.876 33.0959 260.098 29.2935L259.342 28.5331L270.552 17.2529C265.262 12.0563 256.949 12.0563 251.659 17.2529Z" fill="#92ABC0"/>
<path d="M249.896 50.8398C247.125 50.8398 244.228 49.6991 242.087 47.5445L231.885 37.2782C231.633 37.0247 231.381 36.6445 231.381 36.1375C231.381 35.6305 231.507 35.377 231.885 34.9968L250.651 16.1119C256.445 10.2817 265.891 10.2817 271.685 16.1119C271.937 16.4922 272.063 16.8724 272.063 17.2526C272.063 17.6329 271.937 18.0131 271.559 18.3933L261.483 28.5329C263.372 30.5608 264.506 33.3491 264.506 36.1375C264.506 39.0526 263.372 41.841 261.231 43.9957L257.705 47.5445C255.564 49.6991 252.793 50.8398 249.896 50.8398ZM235.034 36.1375L244.228 45.3898C247.377 48.5584 252.415 48.5584 255.564 45.3898L259.09 41.841C260.602 40.3201 261.483 38.2922 261.483 36.1375C261.483 33.9829 260.602 31.955 259.09 30.434L258.208 29.5468C257.957 29.2933 257.705 28.9131 257.705 28.4061C257.705 28.0259 257.831 27.6457 258.208 27.2654L268.284 17.1259C263.624 13.577 256.949 13.8305 252.793 18.1398L235.034 36.1375Z" fill="#474747"/>
<path d="M230.751 104.073C226.973 100.27 227.225 94.1867 231.255 90.7646L282.391 46.9111L287.555 52.1076L243.976 103.439C240.575 107.495 234.404 107.748 230.751 104.073Z" fill="#92ABC0"/>
<path d="M237.049 108.256C234.278 108.256 231.507 107.115 229.618 105.087C227.603 103.059 226.469 100.144 226.595 97.1022C226.721 94.1871 228.106 91.3987 230.248 89.4975L281.383 45.644C282.013 45.1371 282.895 45.1371 283.398 45.7708L288.562 50.9673C289.066 51.4743 289.192 52.4882 288.688 52.9952L245.11 104.453C243.22 106.735 240.45 108.002 237.553 108.129C237.427 108.256 237.175 108.256 237.049 108.256ZM282.265 48.9394L232.263 91.7789C230.625 93.1731 229.744 95.0743 229.618 97.2289C229.492 99.3836 230.374 101.411 231.759 102.932C233.144 104.453 235.286 105.214 237.427 105.087C239.568 104.96 241.457 104.073 242.843 102.425L285.54 52.108L282.265 48.9394Z" fill="#474747"/>
<path d="M315.894 36.1385L310.352 30.5618L302.165 38.8001L295.49 32.0827L303.676 23.8443L298.135 18.2676L285.917 28.4071C279.494 33.7304 278.99 43.4897 284.91 49.4467C290.83 55.4036 300.654 54.8967 305.944 48.4327L315.894 36.1385Z" fill="#92ABC0"/>
<path d="M294.986 55.1497C290.83 55.1497 286.799 53.502 283.902 50.5869C280.754 47.4183 279.116 43.109 279.368 38.673C279.62 34.2369 281.635 30.0544 285.036 27.266L297.253 17.1265C297.883 16.6195 298.764 16.6195 299.268 17.2532L304.81 22.8299C305.44 23.4637 305.44 24.3509 304.81 24.9846L297.757 32.0823L302.291 36.6451L309.344 29.5474C309.974 28.9137 310.856 28.9137 311.485 29.5474L317.027 35.1241C317.531 35.6311 317.657 36.5183 317.153 37.152L307.077 49.4462C304.306 52.8683 300.15 55.023 295.742 55.1497C295.49 55.1497 295.238 55.1497 294.986 55.1497ZM298.009 20.2951L286.925 29.5474C284.154 31.8288 282.517 35.1241 282.265 38.7997C282.139 42.3485 283.398 45.8974 285.917 48.4323C288.436 50.9671 291.963 52.3613 295.49 52.1078C299.016 51.9811 302.417 50.2067 304.684 47.4183L313.878 36.2648L310.478 32.8427L303.425 39.9404C302.795 40.5741 301.913 40.5741 301.283 39.9404L294.608 33.223C294.356 32.9695 294.104 32.5892 294.104 32.0823C294.104 31.5753 294.23 31.3218 294.608 30.9416L301.661 23.8439L298.009 20.2951Z" fill="#474747"/>
</g>
</g>
<defs>
<filter id="filter0_d" x="210" y="8" width="124" height="89" filterUnits="userSpaceOnUse" color-interpolation-filters="sRGB">
<feFlood flood-opacity="0" result="BackgroundImageFix"/>
<feColorMatrix in="SourceAlpha" type="matrix" values="0 0 0 0 0 0 0 0 0 0 0 0 0 0 0 0 0 0 127 0" result="hardAlpha"/>
<feOffset dy="4"/>
<feGaussianBlur stdDeviation="2"/>
<feComposite in2="hardAlpha" operator="out"/>
<feColorMatrix type="matrix" values="0 0 0 0 0 0 0 0 0 0 0 0 0 0 0 0 0 0 0.25 0"/>
<feBlend mode="normal" in2="BackgroundImageFix" result="effect1_dropShadow"/>
<feBlend mode="normal" in="SourceGraphic" in2="effect1_dropShadow" result="shape"/>
</filter>
</defs>
</svg>
