<svg width="109" height="32" viewBox="0 0 109 32" fill="none" xmlns="http://www.w3.org/2000/svg">
<rect width="109" height="32" rx="16" fill="#00BEE6"/>
<path d="M92.4857 12.2855L94.7143 14.5141M85.8 21.1998H88.1334L95.7168 13.6164C96.0262 13.307 96.2 12.8873 96.2 12.4497C96.2 12.0121 96.0262 11.5925 95.7168 11.2831C95.4073 10.9736 94.9877 10.7998 94.5501 10.7998C94.1125 10.7998 93.6928 10.9736 93.3834 11.2831L85.8 18.8665V21.1998Z" stroke="white" stroke-linecap="round" stroke-linejoin="round"/>
<path d="M14.0376 12.288V13.08H18.0816C17.8776 15.636 16.4376 17.7 13.5456 19.08L14.0736 19.884C17.6496 18.132 19.0776 15.396 19.0776 12.288H14.0376ZM21.2496 11.124V21.888H22.2336V11.124H21.2496ZM25.5207 19.476H32.0247V21.792H33.0087V18.672H25.5207V19.476ZM29.8167 17.04V15.912H33.1767V15.144H26.6607V14.016H32.9487V11.4H25.6647V12.168H31.9767V13.284H25.6887V15.912H28.8207V17.04H24.4287V17.844H34.1967V17.04H29.8167ZM38.6358 18.672C37.6638 18.672 36.9558 17.976 36.9558 17.016C36.9558 16.044 37.6638 15.348 38.6358 15.348C39.6198 15.348 40.3278 16.044 40.3278 17.016C40.3278 17.976 39.6198 18.672 38.6358 18.672ZM38.6358 14.532C37.1238 14.532 36.0318 15.564 36.0318 17.016C36.0318 18.48 37.1238 19.488 38.6358 19.488C40.1718 19.488 41.2638 18.48 41.2638 17.016C41.2638 15.564 40.1718 14.532 38.6358 14.532ZM39.1158 11.256H38.1318V12.852H35.4198V13.644H41.7678V12.852H39.1158V11.256ZM45.5358 15.552H43.7718V11.136H42.7878V21.888H43.7718V16.38H45.5358V15.552ZM47.8868 15.888H51.7028V12.12H46.8908V12.924H50.7428V15.096H46.9148V19.308H47.7428C49.6868 19.308 51.0548 19.248 52.6748 18.96L52.5788 18.144C51.0308 18.42 49.7228 18.492 47.8868 18.492V15.888ZM54.3908 11.112V15.264H52.3388V16.068H54.3908V21.9H55.3748V11.112H54.3908ZM58.1339 12.276V13.092H62.0819C61.8539 15.636 60.3779 17.7 57.6299 19.08L58.1699 19.848C61.6499 18.108 63.0539 15.336 63.0539 12.276H58.1339ZM67.5659 15.492H65.8379V11.124H64.8539V21.888H65.8379V16.308H67.5659V15.492ZM69.2329 12.288V13.08H73.2769C73.0729 15.636 71.6329 17.7 68.7409 19.08L69.2689 19.884C72.8449 18.132 74.2729 15.396 74.2729 12.288H69.2329ZM76.4449 11.124V21.888H77.4289V11.124H76.4449Z" fill="white"/>
</svg>
