<svg width="345" height="345" viewBox="0 0 345 345" fill="none" xmlns="http://www.w3.org/2000/svg">
<path d="M345 0H0V345H345V0Z" fill="#92C1FF"/>
<path d="M35.8 200.9L49.9 196.5L47.3 188.2L52 186.7L54.8 195.7C55.3 197.3 55.3 198.5 54.7 199.5C54.1 200.4 53.2 201.1 51.9 201.5L37.4 206L35.8 200.9Z" fill="#474747" stroke="white" stroke-width="14" stroke-miterlimit="10" stroke-linejoin="round"/>
<path d="M50.9 177.5C51.1 179 51 180.5 50.6 181.8C50.1 183.1 49.4 184.2 48.3 185.1C47.2 186 45.9 186.5 44.4 186.8C43 187 41.7 186.9 40.4 186.4C39.1 185.9 38.1 185.2 37.2 184.1C36.3 183.1 35.8 181.8 35.5 180.3C35.3 178.7 35.4 177.3 35.9 176.1C36.4 174.9 37.2 173.9 38.2 173.2C39.2 172.5 40.4 172 41.7 171.8L43 171.6L44.7 182.4L43.7 181.8C44.4 181.7 44.9 181.5 45.4 181.1C45.8 180.8 46.2 180.3 46.4 179.8C46.6 179.3 46.6 178.7 46.5 178.1C46.4 177.4 46.1 176.8 45.7 176.3C45.3 175.8 44.8 175.5 44.2 175.3L45.6 171C47 171.4 48.2 172.1 49.2 173.2C50.1 174.5 50.7 175.9 50.9 177.5ZM41.9 181.8L41.2 177.2C40.9 177.3 40.7 177.5 40.5 177.7C40.3 177.9 40.1 178.2 40 178.6C39.9 178.9 39.9 179.3 39.9 179.7C40 180.1 40.1 180.5 40.3 180.8C40.5 181.1 40.7 181.3 41 181.5C41.4 181.6 41.6 181.7 41.9 181.8Z" fill="#474747" stroke="white" stroke-width="14" stroke-miterlimit="10" stroke-linejoin="round"/>
<path d="M49.7 160.3C49.7 161.9 49.5 163.2 48.9 164.2C48.3 165.2 47.6 166 46.6 166.6C45.6 167.1 44.5 167.4 43.2 167.4L31.2 167.6L31.1 162.4L42.9 162.2C43.6 162.2 44.1 162 44.5 161.6C44.9 161.2 45 160.7 45 160C45 159.6 44.9 159.2 44.8 158.7C44.7 158.2 44.5 157.8 44.3 157.4L48.9 157.3C49.1 157.7 49.3 158.1 49.4 158.7C49.6 159.3 49.7 159.8 49.7 160.3ZM39 157.5L39.3 170L34.9 170.1L34.6 157.6L39 157.5Z" fill="#474747" stroke="white" stroke-width="14" stroke-miterlimit="10" stroke-linejoin="round"/>
<path d="M35.3 149.2C35.2 149.8 35.1 150.3 34.7 150.7C34.4 151.2 34 151.5 33.4 151.7C32.9 151.9 32.4 152 31.8 152C31.2 151.9 30.7 151.8 30.3 151.4C29.9 151.1 29.5 150.7 29.3 150.1C29.1 149.6 29 149.1 29 148.5C29.1 147.9 29.2 147.4 29.6 147C29.9 146.6 30.3 146.2 30.8 146C31.3 145.8 31.8 145.7 32.4 145.7C33 145.8 33.5 145.9 33.9 146.3C34.4 146.6 34.7 147 34.9 147.5C35.2 148 35.3 148.6 35.3 149.2ZM39.1 149.4L38.8 152.8L32 150.5L33.8 146.2L39.1 149.4Z" fill="#474747" stroke="white" stroke-width="14" stroke-miterlimit="10" stroke-linejoin="round"/>
<path d="M52 138.5C51.7 140.1 51.1 141.4 50.3 142.4C49.5 143.4 48.5 144 47.3 144.4L46 140.3C46.5 140.1 46.9 139.9 47.2 139.5C47.5 139.1 47.7 138.6 47.9 138C48 137.6 48 137.3 48 137.1C48 136.9 47.9 136.7 47.8 136.5C47.7 136.3 47.6 136.3 47.4 136.2C47.1 136.1 46.9 136.3 46.7 136.6C46.5 136.9 46.3 137.4 46.1 137.9C45.9 138.5 45.6 139 45.4 139.7C45.1 140.3 44.8 140.9 44.4 141.4C44 141.9 43.4 142.3 42.8 142.5C42.2 142.7 41.4 142.8 40.5 142.6C39.6 142.4 38.8 142 38.2 141.4C37.6 140.8 37.1 139.9 36.9 138.9C36.7 137.9 36.7 136.7 36.9 135.4C37.1 134.3 37.5 133.3 38 132.6C38.5 131.9 39 131.3 39.6 130.9C40.2 130.5 40.8 130.2 41.4 130L42.8 134.1C42.3 134.2 41.9 134.4 41.6 134.8C41.3 135.2 41.1 135.6 41 136.1C41 136.3 40.9 136.6 41 136.7C41 136.9 41.1 137 41.2 137.1C41.3 137.2 41.4 137.3 41.6 137.3C41.9 137.4 42.1 137.2 42.4 136.9C42.6 136.6 42.8 136.1 43.1 135.6C43.3 135 43.6 134.5 43.8 133.8C44.1 133.2 44.4 132.6 44.9 132.1C45.3 131.6 45.8 131.2 46.5 131C47.1 130.7 47.9 130.7 48.8 130.9C49.8 131.1 50.6 131.6 51.2 132.3C51.8 133 52.2 133.9 52.4 135C52.3 136.3 52.3 137.4 52 138.5Z" fill="#474747" stroke="white" stroke-width="14" stroke-miterlimit="10" stroke-linejoin="round"/>
<path d="M65 119.399C64.3 121.099 63.3 122.299 62.1 123.199C60.9 124.099 59.5 124.499 57.9 124.599L57.5 119.699C58 119.699 58.6 119.499 59.2 119.299C59.8 118.999 60.3 118.499 60.6 117.699C60.9 117.099 61 116.499 60.9 115.899C60.8 115.299 60.6 114.799 60.2 114.299C59.8 113.799 59.2 113.399 58.5 113.099L57.2 112.499L57.6 111.599C57.9 111.699 58.3 111.999 58.6 112.499C58.9 112.899 59.1 113.499 59.1 114.199C59.1 114.899 58.9 115.799 58.5 116.799C58 117.999 57.2 118.999 56.1 119.799C55.1 120.599 53.9 120.999 52.6 121.199C51.3 121.399 50 121.099 48.6 120.499C47.3 119.899 46.3 119.099 45.5 117.999C44.7 116.899 44.3 115.599 44.1 114.299C44 112.899 44.2 111.499 44.8 110.099C45.4 108.699 46.3 107.499 47.4 106.699C48.5 105.899 49.7 105.399 51 105.199C52.3 104.999 53.7 105.199 55.1 105.899L60.4 108.199C62 108.899 63.3 109.899 64.1 111.099C65 112.299 65.5 113.599 65.7 115.099C65.9 116.399 65.6 117.899 65 119.399ZM54.2 114.199C54.4 113.699 54.5 113.199 54.5 112.799C54.5 112.299 54.3 111.899 54 111.499C53.7 111.099 53.3 110.799 52.9 110.599C52.4 110.399 52 110.299 51.5 110.399C51 110.499 50.6 110.599 50.3 110.899C49.9 111.199 49.6 111.599 49.4 112.099C49.2 112.599 49.1 112.999 49.1 113.499C49.1 113.999 49.3 114.399 49.5 114.799C49.8 115.199 50.1 115.499 50.6 115.699C51.1 115.899 51.6 115.999 52 115.899C52.5 115.799 52.9 115.699 53.3 115.399C53.7 115.099 54 114.699 54.2 114.199Z" fill="#474747" stroke="white" stroke-width="14" stroke-miterlimit="10" stroke-linejoin="round"/>
<path d="M67.3 100.8C66.5 102.1 65.5 103 64.2 103.7C63 104.3 61.7 104.6 60.3 104.6C58.9 104.6 57.6 104.2 56.4 103.4C55.2 102.6 54.3 101.6 53.7 100.4C53.1 99.1999 52.8 97.8999 52.9 96.4999C53 95.0999 53.4 93.7999 54.2 92.4999C55 91.1999 56 90.2999 57.3 89.5999C58.5 88.9999 59.8 88.5999 61.2 88.6999C62.6 88.6999 63.8 89.0999 65 89.8999C66.2 90.6999 67.1 91.6999 67.7 92.8999C68.3 94.0999 68.6 95.3999 68.5 96.7999C68.5 98.1999 68.1 99.4999 67.3 100.8ZM63.1 98.0999C63.4 97.5999 63.6 97.0999 63.6 96.6999C63.6 96.2999 63.5 95.7999 63.3 95.2999C63.1 94.8999 62.7 94.4999 62.3 94.2999C61.9 93.9999 61.4 93.8999 60.9 93.7999C60.4 93.6999 60 93.8999 59.5 94.0999C59.1 94.2999 58.7 94.5999 58.4 95.0999C58.1 95.5999 58 95.9999 57.9 96.4999C57.9 96.9999 58 97.3999 58.2 97.8999C58.4 98.2999 58.8 98.6999 59.2 98.9999C59.6 99.2999 60.1 99.3999 60.6 99.4999C61.1 99.4999 61.5 99.3999 62 99.1999C62.5 98.8999 62.8 98.5999 63.1 98.0999Z" fill="#474747" stroke="white" stroke-width="14" stroke-miterlimit="10" stroke-linejoin="round"/>
<path d="M83.5 80.8996C82.4 81.9996 81.3 82.7996 80.1 83.0996C79 83.3996 77.9 83.3996 76.8 83.0996C75.7 82.7996 74.7 82.0996 73.8 81.1996L65.2 72.7996L69 68.9996L77.5 77.2996C78 77.7996 78.5 77.9996 79.1 77.9996C79.7 77.9996 80.2 77.6996 80.6 77.1996C80.9 76.8996 81.1 76.5996 81.4 76.1996C81.7 75.7996 81.9 75.3996 82 74.9996L85.3 78.1996C85.2 78.5996 85 78.9996 84.6 79.4996C84.2 80.0996 83.9 80.4996 83.5 80.8996ZM78 71.1996L69.2 80.0996L66.1 76.9996L74.9 68.0996L78 71.1996Z" fill="#474747" stroke="white" stroke-width="14" stroke-miterlimit="10" stroke-linejoin="round"/>
<path d="M92.7 72.8994C91.5 73.7994 90.2 74.3994 88.8 74.5994C87.4 74.7994 86.1 74.5994 84.8 74.0994C83.5 73.5994 82.4 72.7994 81.6 71.6994C80.7 70.5994 80.2 69.2994 80.1 67.9994C79.9 66.5994 80.1 65.2994 80.6 63.9994C81.1 62.6994 82 61.5994 83.2 60.6994C84.4 59.7994 85.7 59.1994 87.1 58.9994C88.5 58.7994 89.8 58.9994 91.1 59.3994C92.4 59.7994 93.4 60.6994 94.3 61.7994C95.2 62.8994 95.7 64.1994 95.9 65.4994C96.1 66.8994 95.9 68.1994 95.4 69.4994C94.8 70.8994 93.9 71.9994 92.7 72.8994ZM89.7 69.0994C90.1 68.7994 90.5 68.3994 90.6 67.8994C90.8 67.3994 90.8 66.9994 90.7 66.4994C90.6 65.9994 90.4 65.5994 90.1 65.1994C89.8 64.7994 89.4 64.4994 88.9 64.2994C88.5 63.9994 88.1 63.9994 87.6 63.9994C87.1 64.0994 86.7 64.1994 86.2 64.5994C85.8 64.8994 85.5 65.2994 85.3 65.7994C85.1 66.2994 85.1 66.6994 85.2 67.1994C85.3 67.6994 85.5 68.0994 85.8 68.4994C86.1 68.8994 86.5 69.1994 86.9 69.3994C87.3 69.5994 87.8 69.6994 88.3 69.5994C88.8 69.5994 89.2 69.3994 89.7 69.0994Z" fill="#474747" stroke="white" stroke-width="14" stroke-miterlimit="10" stroke-linejoin="round"/>
<path d="M109.7 69.7C108.1 70.6 106.6 71 105.1 70.9C103.6 70.8 102.2 70.4 100.9 69.4L103.6 65.2C104 65.5 104.6 65.7 105.2 65.9C105.8 66 106.5 65.9 107.3 65.5C107.9 65.2 108.3 64.8 108.6 64.3C108.9 63.8 109 63.3 109 62.6C109 62 108.8 61.3 108.4 60.7L107.7 59.5L108.5 59C108.7 59.3 108.8 59.8 108.7 60.3C108.7 60.8 108.5 61.4 108.1 62C107.7 62.6 107 63.2 106.1 63.7C104.9 64.4 103.7 64.7 102.4 64.6C101.1 64.6 99.9 64.2 98.8 63.6C97.7 62.9 96.8 62 96 60.7C95.3 59.5 95 58.2 95.1 56.8C95.2 55.4 95.5 54.2 96.3 53C97 51.8 98 50.8 99.4 50.1C100.8 49.3 102.1 49 103.5 49C104.9 49 106.1 49.3 107.3 50C108.5 50.7 109.4 51.7 110.1 53L112.9 58C113.7 59.5 114.2 61 114.2 62.5C114.2 64 113.8 65.4 113 66.6C112.2 67.8 111.1 68.9 109.7 69.7ZM104.2 59.1C104.7 58.8 105 58.5 105.3 58.1C105.6 57.7 105.7 57.3 105.7 56.8C105.7 56.3 105.6 55.9 105.3 55.4C105 54.9 104.7 54.6 104.3 54.4C103.9 54.2 103.5 54.1 103 54.1C102.5 54.1 102.1 54.2 101.6 54.5C101.2 54.7 100.8 55.1 100.5 55.5C100.2 55.9 100.1 56.3 100.1 56.8C100.1 57.3 100.2 57.7 100.4 58.2C100.7 58.7 101 59 101.4 59.2C101.8 59.4 102.3 59.6 102.7 59.5C103.3 59.4 103.8 59.3 104.2 59.1Z" fill="#474747" stroke="white" stroke-width="14" stroke-miterlimit="10" stroke-linejoin="round"/>
<path d="M122.9 56.1999C121.4 56.6999 120 56.8999 118.6 56.6999C117.2 56.4999 116 55.9999 114.9 55.0999C113.8 54.1999 113 53.0999 112.5 51.5999C112 50.2999 111.9 48.9999 112.1 47.5999C112.3 46.2999 112.8 45.0999 113.7 43.9999C114.6 42.8999 115.7 42.0999 117.1 41.5999C118.6 40.9999 120 40.8999 121.3 41.1999C122.6 41.4999 123.7 42 124.6 42.9C125.5 43.8 126.2 44.7999 126.7 45.9999L127.2 47.1999L116.9 50.9999L117.3 49.9C117.5 50.5 117.9 51 118.3 51.4C118.7 51.7999 119.2 51.9999 119.7 52.0999C120.2 52.1999 120.8 52.0999 121.4 51.9C122.1 51.7 122.6 51.2999 123 50.7999C123.4 50.2999 123.6 49.6999 123.6 49.0999L128.1 49.5999C128 51.0999 127.5 52.3999 126.6 53.4999C125.7 54.6999 124.5 55.5999 122.9 56.1999ZM116.9 48.1999L121.3 46.5999C121.1 46.3999 120.9 46.1999 120.6 45.9999C120.3 45.7999 120 45.7999 119.7 45.6999C119.4 45.6999 119 45.7 118.6 45.9C118.2 45.9999 117.9 46.1999 117.6 46.4999C117.3 46.7999 117.2 46.9999 117 47.2999C117 47.5999 116.9 47.8999 116.9 48.1999Z" fill="#474747" stroke="white" stroke-width="14" stroke-miterlimit="10" stroke-linejoin="round"/>
<path d="M140.1 40.3996L127.9 43.1996L126.9 38.8996L139.1 36.0996L140.1 40.3996ZM139.5 51.4996C138 51.7996 136.6 51.8996 135.5 51.4996C134.4 51.1996 133.4 50.5996 132.7 49.6996C132 48.7996 131.5 47.7996 131.2 46.4996L128.5 34.7996L133.6 33.5996L136.2 45.1996C136.4 45.8996 136.7 46.3996 137.1 46.5996C137.6 46.8996 138.1 46.8996 138.8 46.7996C139.2 46.6996 139.6 46.5996 140 46.3996C140.5 46.1996 140.8 45.9996 141.1 45.6996L142.1 50.1996C141.8 50.4996 141.4 50.6996 140.8 50.9996C140.5 51.1996 140 51.3996 139.5 51.4996Z" fill="#474747" stroke="white" stroke-width="14" stroke-miterlimit="10" stroke-linejoin="round"/>
<path d="M149.9 49.4998L144.7 49.8998L143 28.6998L148.2 28.2998L149.1 38.8998L146.7 39.0998C146.6 38.2998 146.8 37.5998 147.3 36.8998C147.8 36.1998 148.5 35.5998 149.3 35.0998C150.2 34.5998 151.1 34.2998 152.2 34.1998C153.7 34.0998 155 34.2998 156.1 34.7998C157.2 35.2998 158 36.0998 158.6 37.1998C159.2 38.2998 159.6 39.5998 159.7 41.1998L160.3 48.6998L155.1 49.0998L154.5 42.0998C154.5 41.5998 154.3 41.0998 154.1 40.5998C153.9 40.0998 153.6 39.7998 153.2 39.4998C152.8 39.1998 152.4 39.0998 151.8 39.1998C151.3 39.1998 150.8 39.3998 150.4 39.6998C150 39.9998 149.7 40.3998 149.6 40.8998C149.4 41.3998 149.4 41.8998 149.4 42.4998L149.9 49.4998Z" fill="#474747" stroke="white" stroke-width="14" stroke-miterlimit="10" stroke-linejoin="round"/>
<path d="M169.9 49.6998C168.3 49.5998 167 49.1998 165.8 48.3998C164.6 47.6998 163.7 46.6998 163.1 45.3998C162.5 44.1998 162.2 42.7998 162.4 41.1998C162.5 39.7998 162.9 38.4998 163.7 37.3998C164.4 36.2998 165.4 35.3998 166.6 34.7998C167.8 34.1998 169.2 33.8998 170.7 34.0998C172.3 34.1998 173.6 34.6998 174.7 35.4998C175.8 36.2998 176.5 37.2998 177 38.3998C177.5 39.5998 177.7 40.7998 177.6 42.0998L177.5 43.3998L166.6 42.5998L167.4 41.6998C167.4 42.3998 167.4 42.8998 167.7 43.4998C167.9 43.9998 168.3 44.3998 168.7 44.6998C169.1 44.9998 169.7 45.1998 170.3 45.1998C171 45.2998 171.6 45.0998 172.2 44.7998C172.8 44.4998 173.2 44.0998 173.5 43.4998L177.4 45.7998C176.7 47.0998 175.7 48.0998 174.4 48.7998C173.1 49.4998 171.5 49.7998 169.9 49.6998ZM167.7 39.9998L172.4 40.3998C172.3 40.0998 172.2 39.8998 172 39.5998C171.8 39.2998 171.6 39.0998 171.3 38.9998C171 38.7998 170.6 38.6998 170.2 38.6998C169.8 38.6998 169.4 38.6998 169.1 38.7998C168.8 38.8998 168.5 39.0998 168.2 39.2998C167.9 39.4998 167.9 39.6998 167.7 39.9998Z" fill="#474747" stroke="white" stroke-width="14" stroke-miterlimit="10" stroke-linejoin="round"/>
<path d="M184.1 51.3996L178.9 50.3996L180.5 42.4996C180.8 41.1996 181.2 40.0996 181.9 39.1996C182.6 38.2996 183.5 37.5996 184.6 37.1996C185.7 36.7996 187.1 36.6996 188.6 36.9996C189.1 37.0996 189.6 37.1996 190 37.3996C190.4 37.5996 190.9 37.7996 191.2 37.9996L190.2 42.9996C189.9 42.6996 189.6 42.4996 189.2 42.3996C188.8 42.2996 188.4 42.0996 188.1 41.9996C187.4 41.8996 186.9 41.8996 186.4 42.1996C185.9 42.4996 185.6 42.9996 185.5 43.6996L184.1 51.3996Z" fill="#474747" stroke="white" stroke-width="14" stroke-miterlimit="10" stroke-linejoin="round"/>
<path d="M193 54C192.2 53.8 191.6 53.3 191.2 52.5C190.8 51.8 190.7 51 190.9 50.2C191.1 49.4 191.6 48.8 192.4 48.4C193.2 48 193.9 47.9 194.7 48.1C195.5 48.3 196.1 48.8 196.5 49.6C196.9 50.3 197 51.1 196.8 51.9C196.6 52.7 196.1 53.3 195.3 53.7C194.5 54.1 193.8 54.2 193 54ZM196.2 34L201.4 35.5L197.8 47.8L192.6 46.3L196.2 34Z" fill="#474747" stroke="white" stroke-width="14" stroke-miterlimit="10" stroke-linejoin="round"/>
<path d="M35.8 200.9L49.9 196.5L47.3 188.2L52 186.7L54.8 195.7C55.3 197.3 55.3 198.5 54.7 199.5C54.1 200.4 53.2 201.1 51.9 201.5L37.4 206L35.8 200.9Z" fill="#474747"/>
<path d="M50.9 177.5C51.1 179 51 180.5 50.6 181.8C50.1 183.1 49.4 184.2 48.3 185.1C47.2 186 45.9 186.5 44.4 186.8C43 187 41.7 186.9 40.4 186.4C39.1 185.9 38.1 185.2 37.2 184.1C36.3 183.1 35.8 181.8 35.5 180.3C35.3 178.7 35.4 177.3 35.9 176.1C36.4 174.9 37.2 173.9 38.2 173.2C39.2 172.5 40.4 172 41.7 171.8L43 171.6L44.7 182.4L43.7 181.8C44.4 181.7 44.9 181.5 45.4 181.1C45.8 180.8 46.2 180.3 46.4 179.8C46.6 179.3 46.6 178.7 46.5 178.1C46.4 177.4 46.1 176.8 45.7 176.3C45.3 175.8 44.8 175.5 44.2 175.3L45.6 171C47 171.4 48.2 172.1 49.2 173.2C50.1 174.5 50.7 175.9 50.9 177.5ZM41.9 181.8L41.2 177.2C40.9 177.3 40.7 177.5 40.5 177.7C40.3 177.9 40.1 178.2 40 178.6C39.9 178.9 39.9 179.3 39.9 179.7C40 180.1 40.1 180.5 40.3 180.8C40.5 181.1 40.7 181.3 41 181.5C41.4 181.6 41.6 181.7 41.9 181.8Z" fill="#474747"/>
<path d="M49.7 160.3C49.7 161.9 49.5 163.2 48.9 164.2C48.3 165.2 47.6 166 46.6 166.6C45.6 167.1 44.5 167.4 43.2 167.4L31.2 167.6L31.1 162.4L42.9 162.2C43.6 162.2 44.1 162 44.5 161.6C44.9 161.2 45 160.7 45 160C45 159.6 44.9 159.2 44.8 158.7C44.7 158.2 44.5 157.8 44.3 157.4L48.9 157.3C49.1 157.7 49.3 158.1 49.4 158.7C49.6 159.3 49.7 159.8 49.7 160.3ZM39 157.5L39.3 170L34.9 170.1L34.6 157.6L39 157.5Z" fill="#474747"/>
<path d="M35.3 149.2C35.2 149.8 35.1 150.3 34.7 150.7C34.4 151.2 34 151.5 33.4 151.7C32.9 151.9 32.4 152 31.8 152C31.2 151.9 30.7 151.8 30.3 151.4C29.9 151.1 29.5 150.7 29.3 150.1C29.1 149.6 29 149.1 29 148.5C29.1 147.9 29.2 147.4 29.6 147C29.9 146.6 30.3 146.2 30.8 146C31.3 145.8 31.8 145.7 32.4 145.7C33 145.8 33.5 145.9 33.9 146.3C34.4 146.6 34.7 147 34.9 147.5C35.2 148 35.3 148.6 35.3 149.2ZM39.1 149.4L38.8 152.8L32 150.5L33.8 146.2L39.1 149.4Z" fill="#474747"/>
<path d="M52 138.5C51.7 140.1 51.1 141.4 50.3 142.4C49.5 143.4 48.5 144 47.3 144.4L46 140.3C46.5 140.1 46.9 139.9 47.2 139.5C47.5 139.1 47.7 138.6 47.9 138C48 137.6 48 137.3 48 137.1C48 136.9 47.9 136.7 47.8 136.5C47.7 136.3 47.6 136.3 47.4 136.2C47.1 136.1 46.9 136.3 46.7 136.6C46.5 136.9 46.3 137.4 46.1 137.9C45.9 138.5 45.6 139 45.4 139.7C45.1 140.3 44.8 140.9 44.4 141.4C44 141.9 43.4 142.3 42.8 142.5C42.2 142.7 41.4 142.8 40.5 142.6C39.6 142.4 38.8 142 38.2 141.4C37.6 140.8 37.1 139.9 36.9 138.9C36.7 137.9 36.7 136.7 36.9 135.4C37.1 134.3 37.5 133.3 38 132.6C38.5 131.9 39 131.3 39.6 130.9C40.2 130.5 40.8 130.2 41.4 130L42.8 134.1C42.3 134.2 41.9 134.4 41.6 134.8C41.3 135.2 41.1 135.6 41 136.1C41 136.3 40.9 136.6 41 136.7C41 136.9 41.1 137 41.2 137.1C41.3 137.2 41.4 137.3 41.6 137.3C41.9 137.4 42.1 137.2 42.4 136.9C42.6 136.6 42.8 136.1 43.1 135.6C43.3 135 43.6 134.5 43.8 133.8C44.1 133.2 44.4 132.6 44.9 132.1C45.3 131.6 45.8 131.2 46.5 131C47.1 130.7 47.9 130.7 48.8 130.9C49.8 131.1 50.6 131.6 51.2 132.3C51.8 133 52.2 133.9 52.4 135C52.3 136.3 52.3 137.4 52 138.5Z" fill="#474747"/>
<path d="M65 119.399C64.3 121.099 63.3 122.299 62.1 123.199C60.9 124.099 59.5 124.499 57.9 124.599L57.5 119.699C58 119.699 58.6 119.499 59.2 119.299C59.8 118.999 60.3 118.499 60.6 117.699C60.9 117.099 61 116.499 60.9 115.899C60.8 115.299 60.6 114.799 60.2 114.299C59.8 113.799 59.2 113.399 58.5 113.099L57.2 112.499L57.6 111.599C57.9 111.699 58.3 111.999 58.6 112.499C58.9 112.899 59.1 113.499 59.1 114.199C59.1 114.899 58.9 115.799 58.5 116.799C58 117.999 57.2 118.999 56.1 119.799C55.1 120.599 53.9 120.999 52.6 121.199C51.3 121.399 50 121.099 48.6 120.499C47.3 119.899 46.3 119.099 45.5 117.999C44.7 116.899 44.3 115.599 44.1 114.299C44 112.899 44.2 111.499 44.8 110.099C45.4 108.699 46.3 107.499 47.4 106.699C48.5 105.899 49.7 105.399 51 105.199C52.3 104.999 53.7 105.199 55.1 105.899L60.4 108.199C62 108.899 63.3 109.899 64.1 111.099C65 112.299 65.5 113.599 65.7 115.099C65.9 116.399 65.6 117.899 65 119.399ZM54.2 114.199C54.4 113.699 54.5 113.199 54.5 112.799C54.5 112.299 54.3 111.899 54 111.499C53.7 111.099 53.3 110.799 52.9 110.599C52.4 110.399 52 110.299 51.5 110.399C51 110.499 50.6 110.599 50.3 110.899C49.9 111.199 49.6 111.599 49.4 112.099C49.2 112.599 49.1 112.999 49.1 113.499C49.1 113.999 49.3 114.399 49.5 114.799C49.8 115.199 50.1 115.499 50.6 115.699C51.1 115.899 51.6 115.999 52 115.899C52.5 115.799 52.9 115.699 53.3 115.399C53.7 115.099 54 114.699 54.2 114.199Z" fill="#474747"/>
<path d="M67.3 100.8C66.5 102.1 65.5 103 64.2 103.7C63 104.3 61.7 104.6 60.3 104.6C58.9 104.6 57.6 104.2 56.4 103.4C55.2 102.6 54.3 101.6 53.7 100.4C53.1 99.1999 52.8 97.8999 52.9 96.4999C53 95.0999 53.4 93.7999 54.2 92.4999C55 91.1999 56 90.2999 57.3 89.5999C58.5 88.9999 59.8 88.5999 61.2 88.6999C62.6 88.6999 63.8 89.0999 65 89.8999C66.2 90.6999 67.1 91.6999 67.7 92.8999C68.3 94.0999 68.6 95.3999 68.5 96.7999C68.5 98.1999 68.1 99.4999 67.3 100.8ZM63.1 98.0999C63.4 97.5999 63.6 97.0999 63.6 96.6999C63.6 96.2999 63.5 95.7999 63.3 95.2999C63.1 94.8999 62.7 94.4999 62.3 94.2999C61.9 93.9999 61.4 93.8999 60.9 93.7999C60.4 93.6999 60 93.8999 59.5 94.0999C59.1 94.2999 58.7 94.5999 58.4 95.0999C58.1 95.5999 58 95.9999 57.9 96.4999C57.9 96.9999 58 97.3999 58.2 97.8999C58.4 98.2999 58.8 98.6999 59.2 98.9999C59.6 99.2999 60.1 99.3999 60.6 99.4999C61.1 99.4999 61.5 99.3999 62 99.1999C62.5 98.8999 62.8 98.5999 63.1 98.0999Z" fill="#474747"/>
<path d="M83.5 80.8996C82.4 81.9996 81.3 82.7996 80.1 83.0996C79 83.3996 77.9 83.3996 76.8 83.0996C75.7 82.7996 74.7 82.0996 73.8 81.1996L65.2 72.7996L69 68.9996L77.5 77.2996C78 77.7996 78.5 77.9996 79.1 77.9996C79.7 77.9996 80.2 77.6996 80.6 77.1996C80.9 76.8996 81.1 76.5996 81.4 76.1996C81.7 75.7996 81.9 75.3996 82 74.9996L85.3 78.1996C85.2 78.5996 85 78.9996 84.6 79.4996C84.2 80.0996 83.9 80.4996 83.5 80.8996ZM78 71.1996L69.2 80.0996L66.1 76.9996L74.9 68.0996L78 71.1996Z" fill="#474747"/>
<path d="M92.7 72.8994C91.5 73.7994 90.2 74.3994 88.8 74.5994C87.4 74.7994 86.1 74.5994 84.8 74.0994C83.5 73.5994 82.4 72.7994 81.6 71.6994C80.7 70.5994 80.2 69.2994 80.1 67.9994C79.9 66.5994 80.1 65.2994 80.6 63.9994C81.1 62.6994 82 61.5994 83.2 60.6994C84.4 59.7994 85.7 59.1994 87.1 58.9994C88.5 58.7994 89.8 58.9994 91.1 59.3994C92.4 59.7994 93.4 60.6994 94.3 61.7994C95.2 62.8994 95.7 64.1994 95.9 65.4994C96.1 66.8994 95.9 68.1994 95.4 69.4994C94.8 70.8994 93.9 71.9994 92.7 72.8994ZM89.7 69.0994C90.1 68.7994 90.5 68.3994 90.6 67.8994C90.8 67.3994 90.8 66.9994 90.7 66.4994C90.6 65.9994 90.4 65.5994 90.1 65.1994C89.8 64.7994 89.4 64.4994 88.9 64.2994C88.5 63.9994 88.1 63.9994 87.6 63.9994C87.1 64.0994 86.7 64.1994 86.2 64.5994C85.8 64.8994 85.5 65.2994 85.3 65.7994C85.1 66.2994 85.1 66.6994 85.2 67.1994C85.3 67.6994 85.5 68.0994 85.8 68.4994C86.1 68.8994 86.5 69.1994 86.9 69.3994C87.3 69.5994 87.8 69.6994 88.3 69.5994C88.8 69.5994 89.2 69.3994 89.7 69.0994Z" fill="#474747"/>
<path d="M109.7 69.7C108.1 70.6 106.6 71 105.1 70.9C103.6 70.8 102.2 70.4 100.9 69.4L103.6 65.2C104 65.5 104.6 65.7 105.2 65.9C105.8 66 106.5 65.9 107.3 65.5C107.9 65.2 108.3 64.8 108.6 64.3C108.9 63.8 109 63.3 109 62.6C109 62 108.8 61.3 108.4 60.7L107.7 59.5L108.5 59C108.7 59.3 108.8 59.8 108.7 60.3C108.7 60.8 108.5 61.4 108.1 62C107.7 62.6 107 63.2 106.1 63.7C104.9 64.4 103.7 64.7 102.4 64.6C101.1 64.6 99.9 64.2 98.8 63.6C97.7 62.9 96.8 62 96 60.7C95.3 59.5 95 58.2 95.1 56.8C95.2 55.4 95.5 54.2 96.3 53C97 51.8 98 50.8 99.4 50.1C100.8 49.3 102.1 49 103.5 49C104.9 49 106.1 49.3 107.3 50C108.5 50.7 109.4 51.7 110.1 53L112.9 58C113.7 59.5 114.2 61 114.2 62.5C114.2 64 113.8 65.4 113 66.6C112.2 67.8 111.1 68.9 109.7 69.7ZM104.2 59.1C104.7 58.8 105 58.5 105.3 58.1C105.6 57.7 105.7 57.3 105.7 56.8C105.7 56.3 105.6 55.9 105.3 55.4C105 54.9 104.7 54.6 104.3 54.4C103.9 54.2 103.5 54.1 103 54.1C102.5 54.1 102.1 54.2 101.6 54.5C101.2 54.7 100.8 55.1 100.5 55.5C100.2 55.9 100.1 56.3 100.1 56.8C100.1 57.3 100.2 57.7 100.4 58.2C100.7 58.7 101 59 101.4 59.2C101.8 59.4 102.3 59.6 102.7 59.5C103.3 59.4 103.8 59.3 104.2 59.1Z" fill="#474747"/>
<path d="M122.9 56.1999C121.4 56.6999 120 56.8999 118.6 56.6999C117.2 56.4999 116 55.9999 114.9 55.0999C113.8 54.1999 113 53.0999 112.5 51.5999C112 50.2999 111.9 48.9999 112.1 47.5999C112.3 46.2999 112.8 45.0999 113.7 43.9999C114.6 42.8999 115.7 42.0999 117.1 41.5999C118.6 40.9999 120 40.8999 121.3 41.1999C122.6 41.4999 123.7 42 124.6 42.9C125.5 43.8 126.2 44.7999 126.7 45.9999L127.2 47.1999L116.9 50.9999L117.3 49.9C117.5 50.5 117.9 51 118.3 51.4C118.7 51.7999 119.2 51.9999 119.7 52.0999C120.2 52.1999 120.8 52.0999 121.4 51.9C122.1 51.7 122.6 51.2999 123 50.7999C123.4 50.2999 123.6 49.6999 123.6 49.0999L128.1 49.5999C128 51.0999 127.5 52.3999 126.6 53.4999C125.7 54.6999 124.5 55.5999 122.9 56.1999ZM116.9 48.1999L121.3 46.5999C121.1 46.3999 120.9 46.1999 120.6 45.9999C120.3 45.7999 120 45.7999 119.7 45.6999C119.4 45.6999 119 45.7 118.6 45.9C118.2 45.9999 117.9 46.1999 117.6 46.4999C117.3 46.7999 117.2 46.9999 117 47.2999C117 47.5999 116.9 47.8999 116.9 48.1999Z" fill="#474747"/>
<path d="M140.1 40.3996L127.9 43.1996L126.9 38.8996L139.1 36.0996L140.1 40.3996ZM139.5 51.4996C138 51.7996 136.6 51.8996 135.5 51.4996C134.4 51.1996 133.4 50.5996 132.7 49.6996C132 48.7996 131.5 47.7996 131.2 46.4996L128.5 34.7996L133.6 33.5996L136.2 45.1996C136.4 45.8996 136.7 46.3996 137.1 46.5996C137.6 46.8996 138.1 46.8996 138.8 46.7996C139.2 46.6996 139.6 46.5996 140 46.3996C140.5 46.1996 140.8 45.9996 141.1 45.6996L142.1 50.1996C141.8 50.4996 141.4 50.6996 140.8 50.9996C140.5 51.1996 140 51.3996 139.5 51.4996Z" fill="#474747"/>
<path d="M149.9 49.4998L144.7 49.8998L143 28.6998L148.2 28.2998L149.1 38.8998L146.7 39.0998C146.6 38.2998 146.8 37.5998 147.3 36.8998C147.8 36.1998 148.5 35.5998 149.3 35.0998C150.2 34.5998 151.1 34.2998 152.2 34.1998C153.7 34.0998 155 34.2998 156.1 34.7998C157.2 35.2998 158 36.0998 158.6 37.1998C159.2 38.2998 159.6 39.5998 159.7 41.1998L160.3 48.6998L155.1 49.0998L154.5 42.0998C154.5 41.5998 154.3 41.0998 154.1 40.5998C153.9 40.0998 153.6 39.7998 153.2 39.4998C152.8 39.1998 152.4 39.0998 151.8 39.1998C151.3 39.1998 150.8 39.3998 150.4 39.6998C150 39.9998 149.7 40.3998 149.6 40.8998C149.4 41.3998 149.4 41.8998 149.4 42.4998L149.9 49.4998Z" fill="#474747"/>
<path d="M169.9 49.6998C168.3 49.5998 167 49.1998 165.8 48.3998C164.6 47.6998 163.7 46.6998 163.1 45.3998C162.5 44.1998 162.2 42.7998 162.4 41.1998C162.5 39.7998 162.9 38.4998 163.7 37.3998C164.4 36.2998 165.4 35.3998 166.6 34.7998C167.8 34.1998 169.2 33.8998 170.7 34.0998C172.3 34.1998 173.6 34.6998 174.7 35.4998C175.8 36.2998 176.5 37.2998 177 38.3998C177.5 39.5998 177.7 40.7998 177.6 42.0998L177.5 43.3998L166.6 42.5998L167.4 41.6998C167.4 42.3998 167.4 42.8998 167.7 43.4998C167.9 43.9998 168.3 44.3998 168.7 44.6998C169.1 44.9998 169.7 45.1998 170.3 45.1998C171 45.2998 171.6 45.0998 172.2 44.7998C172.8 44.4998 173.2 44.0998 173.5 43.4998L177.4 45.7998C176.7 47.0998 175.7 48.0998 174.4 48.7998C173.1 49.4998 171.5 49.7998 169.9 49.6998ZM167.7 39.9998L172.4 40.3998C172.3 40.0998 172.2 39.8998 172 39.5998C171.8 39.2998 171.6 39.0998 171.3 38.9998C171 38.7998 170.6 38.6998 170.2 38.6998C169.8 38.6998 169.4 38.6998 169.1 38.7998C168.8 38.8998 168.5 39.0998 168.2 39.2998C167.9 39.4998 167.9 39.6998 167.7 39.9998Z" fill="#474747"/>
<path d="M184.1 51.3996L178.9 50.3996L180.5 42.4996C180.8 41.1996 181.2 40.0996 181.9 39.1996C182.6 38.2996 183.5 37.5996 184.6 37.1996C185.7 36.7996 187.1 36.6996 188.6 36.9996C189.1 37.0996 189.6 37.1996 190 37.3996C190.4 37.5996 190.9 37.7996 191.2 37.9996L190.2 42.9996C189.9 42.6996 189.6 42.4996 189.2 42.3996C188.8 42.2996 188.4 42.0996 188.1 41.9996C187.4 41.8996 186.9 41.8996 186.4 42.1996C185.9 42.4996 185.6 42.9996 185.5 43.6996L184.1 51.3996Z" fill="#474747"/>
<path d="M193 54C192.2 53.8 191.6 53.3 191.2 52.5C190.8 51.8 190.7 51 190.9 50.2C191.1 49.4 191.6 48.8 192.4 48.4C193.2 48 193.9 47.9 194.7 48.1C195.5 48.3 196.1 48.8 196.5 49.6C196.9 50.3 197 51.1 196.8 51.9C196.6 52.7 196.1 53.3 195.3 53.7C194.5 54.1 193.8 54.2 193 54ZM196.2 34L201.4 35.5L197.8 47.8L192.6 46.3L196.2 34Z" fill="#474747"/>
<path d="M94.2 212.3C86.9 224.3 98.6 231.1 104.4 234C108.9 231.3 114.5 230.499 119.8 232.399C129.3 235.699 134.3 246.1 131 255.6C127.7 265.1 117.3 270.099 107.8 266.799C102.6 264.999 98.8 261.099 96.9 256.299C47.1 237.399 68.4 189.1 84.1 182C99.5 175 103.9 196.4 94.2 212.3Z" fill="white" stroke="white" stroke-width="14" stroke-miterlimit="10" stroke-linejoin="round"/>
<path d="M113.8 269.8C111.6 269.8 109.3 269.4 107.1 268.7C101.9 266.9 97.6 263 95.4 257.9C70.1 248 64.3 231.3 63.9 219C63.3 201.6 73.7 184.6 83.3 180.2C91 176.7 95.4 179.9 97.4 182.1C103.2 188.6 102.5 202.6 95.9 213.4C94 216.5 93.4 219.3 94.2 222C95.6 226.9 101.4 230.3 104.3 231.8C109.3 229.2 115.1 228.7 120.4 230.6C130.9 234.3 136.5 245.8 132.8 256.3C131 261.4 127.4 265.5 122.5 267.8C119.8 269.1 116.8 269.8 113.8 269.8ZM89.7 182.6C88.3 182.6 86.7 183 85 183.8C77.5 187.2 67.4 202.2 67.9 218.9C68.3 230.1 73.7 245.4 97.6 254.5C98.1 254.7 98.5 255.1 98.7 255.6C100.4 260 104 263.4 108.4 264.9C112.5 266.3 116.9 266.1 120.8 264.2C124.7 262.3 127.6 259 129.1 255C132 246.6 127.6 237.3 119.2 234.4C114.6 232.8 109.6 233.3 105.5 235.8C104.9 236.2 104.2 236.2 103.6 235.9C100.9 234.5 92.5 230.4 90.5 223.2C89.4 219.5 90.1 215.5 92.6 211.4C98.8 201.2 98.6 189.5 94.5 184.8C93.2 183.3 91.6 182.6 89.7 182.6Z" fill="#474747" stroke="white" stroke-width="14" stroke-miterlimit="10" stroke-linejoin="round"/>
<path d="M96.6 243.6C93.3 253.1 98.3 263.5 107.8 266.8L96.6 243.6Z" fill="white"/>
<path d="M96.6 243.6C93.3 253.1 98.3 263.5 107.8 266.8" stroke="white" stroke-width="14" stroke-miterlimit="10" stroke-linejoin="round"/>
<path d="M107.8 268.7C107.6 268.7 107.4 268.7 107.1 268.6C96.6 264.9 91 253.4 94.7 242.9C95.1 241.9 96.2 241.3 97.2 241.7C98.2 242.1 98.8 243.2 98.4 244.2C95.5 252.6 99.9 261.9 108.3 264.8C109.3 265.2 109.9 266.3 109.5 267.3C109.4 268.2 108.6 268.7 107.8 268.7Z" fill="#474747" stroke="white" stroke-width="14" stroke-miterlimit="10" stroke-linejoin="round"/>
<path d="M174.5 235.9H146.2V304.3H174.5V235.9Z" fill="white" stroke="white" stroke-width="14" stroke-miterlimit="10" stroke-linejoin="round"/>
<path d="M174.6 306.3H146.3C145.2 306.3 144.3 305.4 144.3 304.3V235.9C144.3 234.8 145.2 233.9 146.3 233.9H174.6C175.7 233.9 176.6 234.8 176.6 235.9V304.3C176.6 305.4 175.7 306.3 174.6 306.3ZM148.2 302.3H172.5V237.9H148.2V302.3Z" fill="#474747" stroke="white" stroke-width="14" stroke-miterlimit="10" stroke-linejoin="round"/>
<path d="M174.6 280.601V304.301H124.1C124.1 291.201 134.7 280.601 147.8 280.601H154.6" fill="white"/>
<path d="M174.6 280.601V304.301H124.1C124.1 291.201 134.7 280.601 147.8 280.601H154.6" stroke="white" stroke-width="14" stroke-miterlimit="10" stroke-linejoin="round"/>
<path d="M174.6 306.301H124.1C123 306.301 122.1 305.401 122.1 304.301C122.1 290.101 133.6 278.601 147.8 278.601H154.6C155.7 278.601 156.6 279.501 156.6 280.601C156.6 281.701 155.7 282.601 154.6 282.601H147.8C136.5 282.601 127.2 291.301 126.2 302.301H172.6V280.601C172.6 279.501 173.5 278.601 174.6 278.601C175.7 278.601 176.6 279.501 176.6 280.601V304.301C176.6 305.401 175.7 306.301 174.6 306.301Z" fill="#474747" stroke="white" stroke-width="14" stroke-miterlimit="10" stroke-linejoin="round"/>
<path d="M180.601 304.344L208.901 304.344L208.901 235.944L180.601 235.944L180.601 304.344Z" fill="white" stroke="white" stroke-width="14" stroke-miterlimit="10" stroke-linejoin="round"/>
<path d="M208.9 306.3H180.6C179.5 306.3 178.6 305.4 178.6 304.3V235.9C178.6 234.8 179.5 233.9 180.6 233.9H208.9C210 233.9 210.9 234.8 210.9 235.9V304.3C210.9 305.4 210 306.3 208.9 306.3ZM182.6 302.3H206.9V237.9H182.6V302.3Z" fill="#474747" stroke="white" stroke-width="14" stroke-miterlimit="10" stroke-linejoin="round"/>
<path d="M180.6 280.601V304.301H231C231 291.201 220.4 280.601 207.3 280.601H200.5" fill="white"/>
<path d="M180.6 280.601V304.301H231C231 291.201 220.4 280.601 207.3 280.601H200.5" stroke="white" stroke-width="14" stroke-miterlimit="10" stroke-linejoin="round"/>
<path d="M231 306.301H180.5C179.4 306.301 178.5 305.401 178.5 304.301V280.601C178.5 279.501 179.4 278.601 180.5 278.601C181.6 278.601 182.5 279.501 182.5 280.601V302.301H228.9C227.9 291.301 218.6 282.601 207.3 282.601H200.5C199.4 282.601 198.5 281.701 198.5 280.601C198.5 279.501 199.4 278.601 200.5 278.601H207.3C221.5 278.601 233 290.101 233 304.301C233 305.401 232.1 306.301 231 306.301Z" fill="#474747" stroke="white" stroke-width="14" stroke-miterlimit="10" stroke-linejoin="round"/>
<path d="M225.8 127C238.3 114.3 228 97.5005 222.9 91.3005C217.7 91.8005 212.3 90.1005 208.3 86.2005C201.1 79.2005 201.1 67.6005 208.1 60.5005C215.1 53.3005 226.7 53.3005 233.8 60.3005C237.7 64.2005 239.5 69.3005 239.2 74.4005C276.1 112.8 245.6 143.8 245.6 143.8C245.6 143.8 210.3 142.6 225.8 127Z" fill="white" stroke="white" stroke-width="14" stroke-miterlimit="10" stroke-linejoin="round"/>
<path d="M245.5 145.7C245.5 145.7 245.4 145.7 245.5 145.7C243.2 145.6 223.6 144.8 220.4 136.6C219.1 133.3 220.4 129.6 224.4 125.5C236.1 113.7 225.6 97.9 222 93.3C216.4 93.6 210.9 91.5 206.9 87.5C199 79.7 198.9 66.9 206.7 59C210.5 55.2 215.5 53 220.9 53C221 53 221 53 221.1 53C226.4 53 231.5 55.1 235.3 58.8C239.3 62.7 241.4 68 241.3 73.6C252 84.9 263.4 102.7 258.2 123.9C255.1 136.8 247.3 144.8 247 145.2C246.5 145.5 246 145.7 245.5 145.7ZM222.8 89.2C223.4 89.2 224 89.5 224.3 89.9C226.2 92.2 230.8 98.4 232.8 106.1C235 114.7 233 122.3 227.2 128.3C225.3 130.2 223.2 133 224.1 135.1C225.8 139.3 237.2 141.3 244.7 141.7C246.5 139.6 252 132.7 254.3 122.8C258.1 106.9 252.5 91.1 237.7 75.7C237.3 75.3 237.1 74.7 237.1 74.2C237.4 69.5 235.7 64.9 232.3 61.6C229.3 58.6 225.2 57 221 57H220.9C216.6 57 212.5 58.8 209.5 61.8C203.2 68.2 203.3 78.4 209.7 84.7C213.1 88.1 217.9 89.8 222.7 89.3C222.7 89.2 222.8 89.2 222.8 89.2Z" fill="#474747" stroke="white" stroke-width="14" stroke-miterlimit="10" stroke-linejoin="round"/>
<path d="M233.9 85.9002C240.9 78.7002 240.9 67.2002 233.7 60.2002L233.9 85.9002Z" fill="white"/>
<path d="M233.9 85.9002C240.9 78.7002 240.9 67.2002 233.7 60.2002" stroke="white" stroke-width="14" stroke-miterlimit="10" stroke-linejoin="round"/>
<path d="M233.9 87.9002C233.4 87.9002 232.9 87.7002 232.5 87.3002C231.7 86.5002 231.7 85.3002 232.5 84.5002C235.5 81.4002 237.2 77.3002 237.1 73.0002C237.1 68.7002 235.3 64.6002 232.3 61.6002C231.5 60.8002 231.5 59.6002 232.3 58.8002C233.1 58.0002 234.3 58.0002 235.1 58.8002C238.9 62.6002 241.1 67.6002 241.1 73.0002C241.1 78.4002 239.1 83.5002 235.3 87.3002C235 87.7002 234.4 87.9002 233.9 87.9002Z" fill="#474747" stroke="white" stroke-width="14" stroke-miterlimit="10" stroke-linejoin="round"/>
<path d="M167.4 254.3C212.687 254.3 249.4 217.587 249.4 172.3C249.4 127.012 212.687 90.2998 167.4 90.2998C122.113 90.2998 85.4 127.012 85.4 172.3C85.4 217.587 122.113 254.3 167.4 254.3Z" fill="white" stroke="white" stroke-width="14" stroke-miterlimit="10" stroke-linejoin="round"/>
<path d="M167.5 256.3C158.3 256.3 149.1 254.8 140.2 251.7C119 244.4 101.9 229.3 92 209.2C82.1 189.1 80.7 166.3 88 145.1C95.3 123.9 110.4 106.8 130.5 96.8996C172.1 76.4996 222.5 93.7996 242.8 135.4C252.7 155.5 254.1 178.3 246.8 199.5C239.5 220.7 224.4 237.8 204.3 247.7C192.7 253.4 180.1 256.3 167.5 256.3ZM167.3 92.2996C155.5 92.2996 143.6 94.8996 132.3 100.4C113.1 109.8 98.7 126.1 91.8 146.3C84.9 166.5 86.2 188.2 95.6 207.4C105 226.6 121.3 241 141.5 247.9C161.7 254.8 183.4 253.5 202.6 244.1C221.8 234.7 236.2 218.4 243.1 198.2C250 178 248.7 156.3 239.3 137.1C225.4 108.8 196.9 92.2996 167.3 92.2996Z" fill="#474747" stroke="white" stroke-width="14" stroke-miterlimit="10" stroke-linejoin="round"/>
<path d="M159.5 200.6C184.021 200.6 203.9 180.721 203.9 156.2C203.9 131.678 184.021 111.8 159.5 111.8C134.979 111.8 115.1 131.678 115.1 156.2C115.1 180.721 134.979 200.6 159.5 200.6Z" fill="#FDCE00" stroke="white" stroke-width="14" stroke-miterlimit="10" stroke-linejoin="round"/>
<path d="M154.7 137.6C154.5 137.6 154.2 137.5 154 137.4C153.3 137 153 136.1 153.4 135.4L157.2 128.3C157.6 127.6 158.5 127.3 159.2 127.7C159.9 128.1 160.2 129 159.8 129.7L156 136.8C155.8 137.3 155.2 137.6 154.7 137.6Z" fill="#474747" stroke="white" stroke-width="14" stroke-miterlimit="10" stroke-linejoin="round"/>
<path d="M175.3 90.7002L98.2 128.4C93.1 136.5 89.4 145.5 87.4 154.8L202.8 98.3002C194.1 94.2002 184.8 91.6002 175.3 90.7002Z" fill="#00BFEA" stroke="white" stroke-width="14" stroke-miterlimit="10" stroke-linejoin="round"/>
<path d="M87.4 156.8C87 156.8 86.5 156.7 86.2 156.4C85.6 155.9 85.3 155.1 85.5 154.4C87.6 144.7 91.3 135.6 96.6 127.3C96.8 127 97.1 126.7 97.4 126.6L174.5 88.9002C174.8 88.7002 175.2 88.7002 175.6 88.7002C185.4 89.6002 194.8 92.3002 203.8 96.5002C204.5 96.8002 204.9 97.5002 204.9 98.3002C204.9 99.1002 204.5 99.8002 203.8 100.1L88.2 156.6C87.9 156.8 87.6 156.8 87.4 156.8ZM99.6 130C95.5 136.6 92.4 143.7 90.3 151.2L198 98.5002C190.8 95.5002 183.3 93.6002 175.6 92.8002L99.6 130Z" fill="#474747" stroke="white" stroke-width="14" stroke-miterlimit="10" stroke-linejoin="round"/>
<path d="M156.8 159.3C155.8 159.3 154.9 159.1 154 158.8C151.8 158 150 156.5 149 154.4L147.8 152C147.4 151.3 147.7 150.4 148.5 150C149.2 149.6 150.1 149.9 150.5 150.7L151.7 153.1C152.4 154.5 153.5 155.5 155 156C156.5 156.5 158 156.4 159.4 155.7C160.8 155 161.8 153.9 162.3 152.4C162.8 150.9 162.7 149.4 162 148L160.8 145.5C160.4 144.8 160.7 143.9 161.5 143.5C162.2 143.1 163.1 143.4 163.5 144.2L164.7 146.6C165.7 148.7 165.9 151.1 165.1 153.3C164.3 155.5 162.8 157.3 160.7 158.3C159.4 159 158.1 159.3 156.8 159.3Z" fill="#474747" stroke="white" stroke-width="14" stroke-miterlimit="10" stroke-linejoin="round"/>
<path d="M146.3 147.5C147.349 147.5 148.2 146.65 148.2 145.6C148.2 144.551 147.349 143.7 146.3 143.7C145.251 143.7 144.4 144.551 144.4 145.6C144.4 146.65 145.251 147.5 146.3 147.5Z" fill="#474747" stroke="white" stroke-width="14" stroke-miterlimit="10" stroke-linejoin="round"/>
<path d="M159.3 141.1C160.349 141.1 161.2 140.249 161.2 139.2C161.2 138.15 160.349 137.3 159.3 137.3C158.251 137.3 157.4 138.15 157.4 139.2C157.4 140.249 158.251 141.1 159.3 141.1Z" fill="#474747" stroke="white" stroke-width="14" stroke-miterlimit="10" stroke-linejoin="round"/>
<path d="M94.2 212.3C86.9 224.3 98.6 231.1 104.4 234C108.9 231.3 114.5 230.5 119.8 232.4C129.3 235.7 134.3 246.1 131 255.6C127.7 265.1 117.3 270.1 107.8 266.8C102.6 265 98.8 261.1 96.9 256.3C47.1 237.4 68.4 189.1 84.1 182C99.5 175 103.9 196.4 94.2 212.3Z" fill="white" stroke="#474747" stroke-width="4" stroke-miterlimit="10" stroke-linecap="round" stroke-linejoin="round"/>
<path d="M96.6 243.601C93.3 253.101 98.3 263.501 107.8 266.801L96.6 243.601Z" fill="white"/>
<path d="M96.6 243.601C93.3 253.101 98.3 263.501 107.8 266.801" stroke="#474747" stroke-width="4" stroke-miterlimit="10" stroke-linecap="round" stroke-linejoin="round"/>
<path d="M174.5 235.9H146.2V304.3H174.5V235.9Z" fill="white" stroke="#474747" stroke-width="4" stroke-miterlimit="10" stroke-linecap="round" stroke-linejoin="round"/>
<path d="M174.6 280.601V304.301H124.1C124.1 291.201 134.7 280.601 147.8 280.601H154.6" fill="white"/>
<path d="M174.6 280.601V304.301H124.1C124.1 291.201 134.7 280.601 147.8 280.601H154.6" stroke="#474747" stroke-width="4" stroke-miterlimit="10" stroke-linecap="round" stroke-linejoin="round"/>
<path d="M180.601 304.344L208.901 304.344L208.901 235.944L180.601 235.944L180.601 304.344Z" fill="white" stroke="#474747" stroke-width="4" stroke-miterlimit="10" stroke-linecap="round" stroke-linejoin="round"/>
<path d="M180.6 280.601V304.301H231C231 291.201 220.4 280.601 207.3 280.601H200.5" fill="white"/>
<path d="M180.6 280.601V304.301H231C231 291.201 220.4 280.601 207.3 280.601H200.5" stroke="#474747" stroke-width="4" stroke-miterlimit="10" stroke-linecap="round" stroke-linejoin="round"/>
<path d="M225.8 127C238.3 114.3 228 97.5005 222.9 91.3005C217.7 91.8005 212.3 90.1005 208.3 86.2005C201.1 79.2005 201.1 67.6005 208.1 60.5005C215.1 53.3005 226.7 53.3005 233.8 60.3005C237.7 64.2005 239.5 69.3005 239.2 74.4005C276.1 112.8 245.6 143.8 245.6 143.8C245.6 143.8 210.3 142.6 225.8 127Z" fill="white" stroke="#474747" stroke-width="4" stroke-miterlimit="10" stroke-linecap="round" stroke-linejoin="round"/>
<path d="M233.9 85.9002C240.9 78.7002 240.9 67.2002 233.7 60.2002L233.9 85.9002Z" fill="white"/>
<path d="M233.9 85.9002C240.9 78.7002 240.9 67.2002 233.7 60.2002" stroke="#474747" stroke-width="4" stroke-miterlimit="10" stroke-linecap="round" stroke-linejoin="round"/>
<path d="M167.4 254.301C212.687 254.301 249.4 217.588 249.4 172.301C249.4 127.013 212.687 90.3008 167.4 90.3008C122.113 90.3008 85.4 127.013 85.4 172.301C85.4 217.588 122.113 254.301 167.4 254.301Z" fill="white" stroke="#474747" stroke-width="4" stroke-miterlimit="10" stroke-linecap="round" stroke-linejoin="round"/>
<path d="M159.5 200.601C184.021 200.601 203.9 180.722 203.9 156.201C203.9 131.679 184.021 111.801 159.5 111.801C134.979 111.801 115.1 131.679 115.1 156.201C115.1 180.722 134.979 200.601 159.5 200.601Z" fill="#FDCE00"/>
<path d="M154.7 136.1L158.5 129" stroke="#474747" stroke-width="3" stroke-miterlimit="10" stroke-linecap="round" stroke-linejoin="round"/>
<path d="M175.3 90.7002L98.2 128.4C93.1 136.5 89.4 145.5 87.4 154.8L202.8 98.3002C194.1 94.2002 184.8 91.6002 175.3 90.7002Z" fill="#00BEE6" stroke="#474747" stroke-width="4" stroke-miterlimit="10" stroke-linecap="round" stroke-linejoin="round"/>
<path d="M162.1 144.9L163.3 147.3C165.1 150.9 163.6 155.2 160 157C156.4 158.8 152.1 157.3 150.3 153.7L149.1 151.3" stroke="#474747" stroke-width="3" stroke-miterlimit="10" stroke-linecap="round" stroke-linejoin="round"/>
<path d="M146.3 147.5C147.349 147.5 148.2 146.65 148.2 145.6C148.2 144.551 147.349 143.7 146.3 143.7C145.251 143.7 144.4 144.551 144.4 145.6C144.4 146.65 145.251 147.5 146.3 147.5Z" fill="#474747"/>
<path d="M159.3 141.101C160.349 141.101 161.2 140.25 161.2 139.201C161.2 138.151 160.349 137.301 159.3 137.301C158.251 137.301 157.4 138.151 157.4 139.201C157.4 140.25 158.251 141.101 159.3 141.101Z" fill="#474747"/>
<path d="M318.702 230.104L151.784 281.349L168.103 334.502L335.02 283.257L318.702 230.104Z" fill="#FF911A"/>
<path d="M190.3 309.5C183 311.7 176.1 308.3 173.9 301.1C171.7 293.9 175.5 287.1 182.8 284.9C186.8 283.7 190.5 284 193.3 285.7L191.1 290.2C189.5 289 186.9 288.6 184.5 289.4C180.1 290.8 177.9 295 179.3 299.5C180.7 304 184.8 306.3 189.3 304.9C191.8 304.1 193.9 302.5 194.5 300.4L198.9 302.8C197.3 305.9 194.3 308.3 190.3 309.5Z" fill="white"/>
<path d="M205.9 291.801C204.3 292.301 203.5 293.601 203.9 295.101L206.7 304.101L202 305.501L194.7 281.701L199.2 280.301L202.3 290.401H202.4C202.8 289.001 203.8 287.801 205.7 287.301C209.5 286.101 212.8 288.101 214 292.001L216.8 301.101L212.1 302.501L209.4 293.601C208.9 292.001 207.5 291.301 205.9 291.801Z" fill="white"/>
<path d="M227.9 293.701L229.9 293.101L231.1 297.001L229.1 297.601C223 299.501 218.5 297.501 217 292.501C215.5 287.601 218.3 283.301 222.9 281.901C227.7 280.401 231.6 282.801 233.1 286.001C233.6 287.001 233.9 288.301 234.1 289.201L222.4 292.801C223.5 294.201 225.4 294.501 227.9 293.701ZM221.3 289.401L228.4 287.201C227.7 286.001 226.1 285.201 224 285.801C222.4 286.401 221.3 287.601 221.3 289.401Z" fill="white"/>
<path d="M246.2 288.001L248.2 287.401L249.4 291.301L247.4 291.901C241.3 293.801 236.8 291.801 235.3 286.801C233.8 281.901 236.6 277.601 241.2 276.201C246 274.701 249.9 277.101 251.4 280.301C251.9 281.301 252.2 282.601 252.4 283.501L240.7 287.101C241.8 288.601 243.7 288.801 246.2 288.001ZM239.6 283.801L246.7 281.601C246 280.401 244.4 279.601 242.3 280.201C240.7 280.701 239.6 282.001 239.6 283.801Z" fill="white"/>
<path d="M256.8 288.7L252.1 273.4L256.7 272L257.3 273.8H257.4C257.7 272.2 258.9 270.9 260.5 270.4C262.3 269.9 264 270 265.4 270.8L263.5 275.2C262.8 274.8 262 274.7 261.2 274.9C259.4 275.5 258.5 277.4 259.3 280L261.5 287.2L256.8 288.7Z" fill="white"/>
<path d="M289.9 261.801L292.7 271.001C293.9 275.001 291.9 278.401 287.4 279.701C282.9 281.001 279.4 279.401 278.1 275.401L275.3 266.201L280 264.701L282.8 273.701C283.2 275.101 284.6 275.801 286.1 275.401C287.6 274.901 288.3 273.601 287.9 272.201L285.1 263.201L289.9 261.801Z" fill="white"/>
<path d="M307.2 273.601C305.2 274.201 303.5 274.001 302.1 273.101H302L304.9 282.401L300.4 283.801L293.3 260.701L297.8 259.301L298.3 260.801H298.4C299 259.401 300.3 258.201 302.3 257.501C306.6 256.201 311.3 258.401 312.7 263.101C314.1 267.801 311.5 272.301 307.2 273.601ZM300.2 267.001C300.9 269.201 303 270.301 305.3 269.701C307.6 269.101 308.7 266.901 308 264.701C307.3 262.501 305.2 261.401 302.9 262.001C300.6 262.601 299.5 264.801 300.2 267.001Z" fill="white"/>
<path d="M318.4 210C316.7 209.6 314.9 209.6 313.3 209.8C312 202.9 306.8 197.1 299.6 195.5C290.2 193.3 280.9 198.9 278.2 208C273.1 206.8 267.9 210 266.8 215.1C265.6 220.2 268.8 225.4 273.9 226.5L312.5 235.4C319.6 237 326.6 232.6 328.2 225.6C329.9 218.6 325.5 211.6 318.4 210Z" fill="#87C0FF" stroke="white" stroke-width="7" stroke-miterlimit="10" stroke-linejoin="round"/>
<path d="M312.3 236.5L273.7 227.6C268 226.3 264.5 220.6 265.8 215C267 209.6 272.2 206.2 277.6 206.9C280.8 197.7 290.4 192.3 299.9 194.5C307 196.1 312.5 201.7 314.1 208.7C315.6 208.6 317.1 208.7 318.6 209C326.2 210.8 330.9 218.4 329.2 225.9C327.5 233.5 319.9 238.3 312.3 236.5ZM278 209C273.4 207.9 268.8 210.8 267.7 215.4C266.6 220 269.5 224.6 274.1 225.6L312.7 234.5C319.2 236 325.7 231.9 327.2 225.4C328.7 218.9 324.6 212.4 318.1 210.9C316.5 210.5 315 210.5 313.4 210.8C312.9 210.9 312.4 210.5 312.3 210C311.1 203.3 306 198 299.4 196.5C290.6 194.5 281.7 199.7 279.2 208.3C279.1 208.8 278.6 209.1 278 209Z" fill="#474747" stroke="white" stroke-width="7" stroke-miterlimit="10" stroke-linejoin="round"/>
<path d="M293.2 204.9C293.697 204.9 294.1 204.497 294.1 204C294.1 203.503 293.697 203.1 293.2 203.1C292.703 203.1 292.3 203.503 292.3 204C292.3 204.497 292.703 204.9 293.2 204.9Z" fill="#474747" stroke="white" stroke-width="7" stroke-miterlimit="10" stroke-linejoin="round"/>
<path d="M299.6 206.4C300.097 206.4 300.5 205.997 300.5 205.5C300.5 205.003 300.097 204.6 299.6 204.6C299.103 204.6 298.7 205.003 298.7 205.5C298.7 205.997 299.103 206.4 299.6 206.4Z" fill="#474747" stroke="white" stroke-width="7" stroke-miterlimit="10" stroke-linejoin="round"/>
<path d="M305.7 214.8C305.5 214.8 305.4 214.7 305.2 214.6C304.8 214.2 304.8 213.6 305.2 213.2C308.6 209.5 313.8 208 318.7 209.1C319.2 209.2 319.6 209.8 319.4 210.3C319.2 210.8 318.7 211.2 318.2 211C314 210 309.6 211.4 306.6 214.5C306.4 214.7 306 214.8 305.7 214.8Z" fill="#474747" stroke="white" stroke-width="7" stroke-miterlimit="10" stroke-linejoin="round"/>
<path d="M291.9 209.6C291.6 209.5 291.3 209.2 291.3 208.8C291.3 208.4 291.7 208.1 292.1 208.1L298.7 208.4C299.1 208.4 299.4 208.8 299.4 209.2C299.4 209.6 299 209.9 298.6 209.9L292 209.6H291.9Z" fill="#474747" stroke="white" stroke-width="7" stroke-miterlimit="10" stroke-linejoin="round"/>
<path d="M292.2 238.9C291.9 238.8 291.6 238.8 291.3 238.8C291.6 238.2 291.8 237.6 291.9 237C293.1 231.8 289.9 226.7 284.7 225.5C280.1 224.4 275.5 226.9 273.7 231.1C273.6 231.1 273.6 231.1 273.5 231C270.4 230.3 267.4 232.2 266.7 235.2C266 238.3 267.9 241.3 270.9 242L290.3 246.5C292.4 247 294.5 245.7 295 243.6C295.6 241.5 294.3 239.4 292.2 238.9Z" fill="#5CA3E5" stroke="white" stroke-width="7" stroke-miterlimit="10" stroke-linejoin="round"/>
<path d="M290.2 247.499L270.8 242.999C267.2 242.199 265 238.599 265.8 234.999C266.6 231.599 269.8 229.399 273.2 229.899C275.4 225.699 280.2 223.399 285 224.499C290.7 225.799 294.3 231.499 292.9 237.199C292.8 237.499 292.8 237.699 292.7 237.999C295.2 238.699 296.7 241.299 296.1 243.799C295.5 246.399 292.8 248.099 290.2 247.499ZM273.3 231.899C270.8 231.299 268.3 232.899 267.7 235.399C267.1 237.899 268.7 240.399 271.2 240.999L290.6 245.499C292.2 245.899 293.7 244.899 294.1 243.299C294.5 241.699 293.5 240.199 291.9 239.799C291.7 239.799 291.5 239.699 291.2 239.699C290.9 239.699 290.5 239.499 290.4 239.199C290.2 238.899 290.2 238.599 290.3 238.199C290.5 237.699 290.7 237.099 290.9 236.599C292 231.999 289.1 227.299 284.5 226.299C280.4 225.399 276.3 227.499 274.7 231.299C274.5 231.799 274 231.999 273.5 231.899C273.4 231.999 273.3 231.899 273.3 231.899Z" fill="#474747" stroke="white" stroke-width="7" stroke-miterlimit="10" stroke-linejoin="round"/>
<path d="M273.6 230.999C275.6 231.499 277.1 232.899 277.7 234.699L273.6 230.999Z" fill="#5CA3E5"/>
<path d="M273.6 230.999C275.6 231.499 277.1 232.899 277.7 234.699" stroke="white" stroke-width="7" stroke-miterlimit="10" stroke-linejoin="round"/>
<path d="M277.4 235.699C277.1 235.599 276.8 235.399 276.7 234.999C276.2 233.399 274.9 232.299 273.3 231.899C272.8 231.799 272.4 231.199 272.6 230.699C272.8 230.199 273.3 229.799 273.8 229.999C276.1 230.499 277.9 232.199 278.6 234.399C278.8 234.899 278.5 235.499 278 235.699C277.8 235.699 277.6 235.699 277.4 235.699Z" fill="#474747" stroke="white" stroke-width="7" stroke-miterlimit="10" stroke-linejoin="round"/>
<path d="M318.4 210C316.7 209.6 314.9 209.6 313.3 209.8C312 202.9 306.8 197.1 299.6 195.5C290.2 193.3 280.9 198.9 278.2 208C273.1 206.8 267.9 210 266.8 215.1C265.6 220.2 268.8 225.4 273.9 226.5L312.5 235.4C319.6 237 326.6 232.6 328.2 225.6C329.9 218.6 325.5 211.6 318.4 210Z" fill="#87C0FF"/>
<path d="M312.3 236.5L273.7 227.6C268 226.3 264.5 220.6 265.8 215C267 209.6 272.2 206.2 277.6 206.9C280.8 197.7 290.4 192.3 299.9 194.5C307 196.1 312.5 201.7 314.1 208.7C315.6 208.6 317.1 208.7 318.6 209C326.2 210.8 330.9 218.4 329.2 225.9C327.5 233.5 319.9 238.3 312.3 236.5ZM278 209C273.4 207.9 268.8 210.8 267.7 215.4C266.6 220 269.5 224.6 274.1 225.6L312.7 234.5C319.2 236 325.7 231.9 327.2 225.4C328.7 218.9 324.6 212.4 318.1 210.9C316.5 210.5 315 210.5 313.4 210.8C312.9 210.9 312.4 210.5 312.3 210C311.1 203.3 306 198 299.4 196.5C290.6 194.5 281.7 199.7 279.2 208.3C279.1 208.8 278.6 209.1 278 209Z" fill="#474747"/>
<path d="M293.2 204.9C293.697 204.9 294.1 204.497 294.1 204C294.1 203.503 293.697 203.1 293.2 203.1C292.703 203.1 292.3 203.503 292.3 204C292.3 204.497 292.703 204.9 293.2 204.9Z" fill="#474747"/>
<path d="M299.6 206.4C300.097 206.4 300.5 205.997 300.5 205.5C300.5 205.003 300.097 204.6 299.6 204.6C299.103 204.6 298.7 205.003 298.7 205.5C298.7 205.997 299.103 206.4 299.6 206.4Z" fill="#474747"/>
<path d="M305.7 214.8C305.5 214.8 305.4 214.7 305.2 214.6C304.8 214.2 304.8 213.6 305.2 213.2C308.6 209.5 313.8 208 318.7 209.1C319.2 209.2 319.6 209.8 319.4 210.3C319.2 210.8 318.7 211.2 318.2 211C314 210 309.6 211.4 306.6 214.5C306.4 214.7 306 214.8 305.7 214.8Z" fill="#474747"/>
<path d="M291.9 209.6C291.6 209.5 291.3 209.2 291.3 208.8C291.3 208.4 291.7 208.1 292.1 208.1L298.7 208.4C299.1 208.4 299.4 208.8 299.4 209.2C299.4 209.6 299 209.9 298.6 209.9L292 209.6H291.9Z" fill="#474747"/>
<path d="M292.2 238.9C291.9 238.8 291.6 238.8 291.3 238.8C291.6 238.2 291.8 237.6 291.9 237C293.1 231.8 289.9 226.7 284.7 225.5C280.1 224.4 275.5 226.9 273.7 231.1C273.6 231.1 273.6 231.1 273.5 231C270.4 230.3 267.4 232.2 266.7 235.2C266 238.3 267.9 241.3 270.9 242L290.3 246.5C292.4 247 294.5 245.7 295 243.6C295.6 241.5 294.3 239.4 292.2 238.9Z" fill="#5CA3E5"/>
<path d="M290.2 247.499L270.8 242.999C267.2 242.199 265 238.599 265.8 234.999C266.6 231.599 269.8 229.399 273.2 229.899C275.4 225.699 280.2 223.399 285 224.499C290.7 225.799 294.3 231.499 292.9 237.199C292.8 237.499 292.8 237.699 292.7 237.999C295.2 238.699 296.7 241.299 296.1 243.799C295.5 246.399 292.8 248.099 290.2 247.499ZM273.3 231.899C270.8 231.299 268.3 232.899 267.7 235.399C267.1 237.899 268.7 240.399 271.2 240.999L290.6 245.499C292.2 245.899 293.7 244.899 294.1 243.299C294.5 241.699 293.5 240.199 291.9 239.799C291.7 239.799 291.5 239.699 291.2 239.699C290.9 239.699 290.5 239.499 290.4 239.199C290.2 238.899 290.2 238.599 290.3 238.199C290.5 237.699 290.7 237.099 290.9 236.599C292 231.999 289.1 227.299 284.5 226.299C280.4 225.399 276.3 227.499 274.7 231.299C274.5 231.799 274 231.999 273.5 231.899C273.4 231.999 273.3 231.899 273.3 231.899Z" fill="#474747"/>
<path d="M273.6 230.999C275.6 231.499 277.1 232.899 277.7 234.699L273.6 230.999Z" fill="#5CA3E5"/>
<path d="M277.4 235.699C277.1 235.599 276.8 235.399 276.7 234.999C276.2 233.399 274.9 232.299 273.3 231.899C272.8 231.799 272.4 231.199 272.6 230.699C272.8 230.199 273.3 229.799 273.8 229.999C276.1 230.499 277.9 232.199 278.6 234.399C278.8 234.899 278.5 235.499 278 235.699C277.8 235.699 277.6 235.699 277.4 235.699Z" fill="#474747"/>
<path d="M291.3 120.001L286.8 113.101L282.3 120.001L275.4 124.501L282.3 129.001L286.8 135.901L291.3 129.001L298.2 124.501L291.3 120.001Z" fill="white" stroke="white" stroke-width="7" stroke-miterlimit="10" stroke-linejoin="round"/>
<path d="M286.8 137.4C286.3 137.4 285.8 137.1 285.5 136.7L281.2 130.1L274.6 125.8C274.2 125.5 273.9 125.1 273.9 124.5C273.9 123.9 274.2 123.5 274.6 123.2L281.2 118.9L285.5 112.3C286.1 111.5 287.5 111.5 288 112.3L292.3 118.9L298.9 123.2C299.3 123.5 299.6 123.9 299.6 124.5C299.6 125.1 299.3 125.5 298.9 125.8L292.3 130.1L288 136.7C287.8 137.1 287.3 137.4 286.8 137.4ZM278.1 124.5L283.1 127.7C283.3 127.8 283.4 128 283.5 128.1L286.7 133.1L289.9 128.1C290 127.9 290.2 127.8 290.3 127.7L295.3 124.5L290.3 121.3C290.1 121.2 290 121 289.9 120.9L286.7 115.9L283.5 120.9C283.4 121.1 283.2 121.2 283.1 121.3L278.1 124.5Z" fill="#474747" stroke="white" stroke-width="7" stroke-miterlimit="10" stroke-linejoin="round"/>
<path d="M303 90.4006L296.9 81.1006L290.8 90.4006L281.5 96.5006L290.8 102.601L296.9 111.901L303 102.601L312.3 96.5006L303 90.4006Z" fill="white" stroke="white" stroke-width="7" stroke-miterlimit="10" stroke-linejoin="round"/>
<path d="M296.9 113.4C296.4 113.4 295.9 113.1 295.6 112.7L289.7 103.6L280.6 97.7004C280.2 97.4004 279.9 97.0004 279.9 96.4004C279.9 95.8004 280.2 95.4004 280.6 95.1004L289.7 89.2004L295.6 80.1004C295.9 79.7004 296.3 79.4004 296.9 79.4004C297.4 79.4004 297.9 79.7004 298.2 80.1004L304.1 89.2004L313.2 95.1004C313.6 95.4004 313.9 95.8004 313.9 96.4004C313.9 97.0004 313.6 97.4004 313.2 97.7004L304.1 103.6L298.2 112.7C297.9 113.1 297.4 113.4 296.9 113.4ZM284.2 96.5004L291.6 101.3C291.8 101.4 291.9 101.6 292 101.7L296.8 109.1L301.6 101.7C301.7 101.5 301.9 101.4 302 101.3L309.4 96.5004L302 91.7004C301.8 91.6004 301.7 91.4004 301.6 91.3004L296.8 83.9004L292 91.3004C291.9 91.5004 291.7 91.6004 291.6 91.7004L284.2 96.5004Z" fill="#474747" stroke="white" stroke-width="7" stroke-miterlimit="10" stroke-linejoin="round"/>
<path d="M291.3 120.001L286.8 113.101L282.3 120.001L275.4 124.501L282.3 129.001L286.8 135.901L291.3 129.001L298.2 124.501L291.3 120.001Z" fill="white"/>
<path d="M286.8 137.4C286.3 137.4 285.8 137.1 285.5 136.7L281.2 130.1L274.6 125.8C274.2 125.5 273.9 125.1 273.9 124.5C273.9 123.9 274.2 123.5 274.6 123.2L281.2 118.9L285.5 112.3C286.1 111.5 287.5 111.5 288 112.3L292.3 118.9L298.9 123.2C299.3 123.5 299.6 123.9 299.6 124.5C299.6 125.1 299.3 125.5 298.9 125.8L292.3 130.1L288 136.7C287.8 137.1 287.3 137.4 286.8 137.4ZM278.1 124.5L283.1 127.7C283.3 127.8 283.4 128 283.5 128.1L286.7 133.1L289.9 128.1C290 127.9 290.2 127.8 290.3 127.7L295.3 124.5L290.3 121.3C290.1 121.2 290 121 289.9 120.9L286.7 115.9L283.5 120.9C283.4 121.1 283.2 121.2 283.1 121.3L278.1 124.5Z" fill="#474747"/>
<path d="M303 90.4006L296.9 81.1006L290.8 90.4006L281.5 96.5006L290.8 102.601L296.9 111.901L303 102.601L312.3 96.5006L303 90.4006Z" fill="white"/>
<path d="M296.9 113.4C296.4 113.4 295.9 113.1 295.6 112.7L289.7 103.6L280.6 97.7004C280.2 97.4004 279.9 97.0004 279.9 96.4004C279.9 95.8004 280.2 95.4004 280.6 95.1004L289.7 89.2004L295.6 80.1004C295.9 79.7004 296.3 79.4004 296.9 79.4004C297.4 79.4004 297.9 79.7004 298.2 80.1004L304.1 89.2004L313.2 95.1004C313.6 95.4004 313.9 95.8004 313.9 96.4004C313.9 97.0004 313.6 97.4004 313.2 97.7004L304.1 103.6L298.2 112.7C297.9 113.1 297.4 113.4 296.9 113.4ZM284.2 96.5004L291.6 101.3C291.8 101.4 291.9 101.6 292 101.7L296.8 109.1L301.6 101.7C301.7 101.5 301.9 101.4 302 101.3L309.4 96.5004L302 91.7004C301.8 91.6004 301.7 91.4004 301.6 91.3004L296.8 83.9004L292 91.3004C291.9 91.5004 291.7 91.6004 291.6 91.7004L284.2 96.5004Z" fill="#474747"/>
<path d="M27.1 312.401L42 314.501C50.2 315.701 58.1 310.801 60.8 303.001L65.8 288.701L50.8 286.601C42.6 285.501 34.7 290.301 32 298.101L27.1 312.401Z" fill="#00D600" stroke="white" stroke-width="7" stroke-miterlimit="10" stroke-linejoin="round"/>
<path d="M44.4 316.2C43.5 316.2 42.7 316.1 41.8 316L26.9 313.9C26.5 313.8 26.1 313.6 25.8 313.2C25.6 312.8 25.5 312.4 25.7 311.9L30.6 297.7C33.5 289.2 42.1 283.9 51 285.2L66 287.3C66.4 287.4 66.8 287.6 67.1 288C67.4 288.4 67.4 288.9 67.2 289.3L62.2 303.6C59.6 311.1 52.4 316.2 44.4 316.2ZM29.1 311.2L42.2 313C49.7 314.1 56.9 309.6 59.4 302.5L63.8 289.9L50.6 288.1C43.1 287.1 35.9 291.5 33.4 298.6L29.1 311.2Z" fill="#474747" stroke="white" stroke-width="7" stroke-miterlimit="10" stroke-linejoin="round"/>
<path d="M44.3 303.4C43.8 303.4 43.3 303.1 43 302.7C42.6 302 42.8 301.1 43.5 300.6L65.1 287.4C65.8 287 66.7 287.2 67.2 287.9C67.6 288.6 67.4 289.5 66.7 290L45.1 303.2C44.8 303.3 44.5 303.4 44.3 303.4Z" fill="#474747" stroke="white" stroke-width="7" stroke-miterlimit="10" stroke-linejoin="round"/>
<path d="M31.5 275.9L41.5 287.1C47 293.3 56.2 294.7 63.3 290.5L76.4 282.8L66.2 271.5C60.7 265.3 51.5 264 44.4 268.2L31.5 275.9Z" fill="#00D600" stroke="white" stroke-width="7" stroke-miterlimit="10" stroke-linejoin="round"/>
<path d="M54.5 294.4C49.3 294.4 44.1 292.2 40.4 288.1L30.4 276.9C30.1 276.6 30 276.1 30 275.7C30.1 275.3 30.3 274.9 30.7 274.6L43.6 266.9C51.3 262.3 61.3 263.8 67.3 270.5L77.5 281.8C77.8 282.1 77.9 282.6 77.9 283C77.8 283.4 77.6 283.8 77.2 284.1L64.1 291.8C61.1 293.6 57.8 294.4 54.5 294.4ZM33.8 276.3L42.6 286.2C47.6 291.8 56 293.1 62.5 289.3L74 282.5L65.1 272.6C60 267 51.7 265.7 45.2 269.6L33.8 276.3Z" fill="#474747" stroke="white" stroke-width="7" stroke-miterlimit="10" stroke-linejoin="round"/>
<path d="M76.4 284.3C76.3 284.3 76.2 284.3 76.2 284.3L51.2 280.5C50.4 280.4 49.8 279.6 49.9 278.8C50 278 50.8 277.4 51.6 277.5L76.6 281.3C77.4 281.4 78 282.2 77.9 283C77.7 283.7 77.1 284.3 76.4 284.3Z" fill="#474747" stroke="white" stroke-width="7" stroke-miterlimit="10" stroke-linejoin="round"/>
<path d="M61.2 325.6L74.1 317.8C81.2 313.5 84.3 304.8 81.5 297L76.4 282.7L63.4 290.6C56.3 294.9 53.2 303.6 56.1 311.4L61.2 325.6Z" fill="#00D600" stroke="white" stroke-width="7" stroke-miterlimit="10" stroke-linejoin="round"/>
<path d="M61.2 327.1C61 327.1 60.9 327.1 60.7 327C60.3 326.8 59.9 326.5 59.8 326.1L54.7 311.9C51.6 303.5 55 294 62.7 289.3L75.7 281.4C76.1 281.2 76.6 281.1 77 281.3C77.4 281.5 77.8 281.8 77.9 282.2L83 296.5C86 304.9 82.7 314.4 75 319.1L62.1 326.9C61.7 327 61.4 327.1 61.2 327.1ZM75.6 285L64.2 291.9C57.7 295.8 54.9 303.8 57.5 310.9L62 323.4L73.4 316.6C79.9 312.7 82.7 304.7 80.2 297.6L75.6 285Z" fill="#474747" stroke="white" stroke-width="7" stroke-miterlimit="10" stroke-linejoin="round"/>
<path d="M67.9 308.1C67.7 308.1 67.6 308.1 67.4 308C66.6 307.7 66.2 306.9 66.5 306.1L75 282.3C75.3 281.5 76.1 281.1 76.9 281.4C77.7 281.7 78.1 282.5 77.8 283.3L69.3 307.1C69.1 307.7 68.5 308.1 67.9 308.1Z" fill="#474747" stroke="white" stroke-width="7" stroke-miterlimit="10" stroke-linejoin="round"/>
<path d="M27.1 312.401L42 314.501C50.2 315.701 58.1 310.801 60.8 303.001L65.8 288.701L50.8 286.601C42.6 285.501 34.7 290.301 32 298.101L27.1 312.401Z" fill="#00D600"/>
<path d="M44.4 316.2C43.5 316.2 42.7 316.1 41.8 316L26.9 313.9C26.5 313.8 26.1 313.6 25.8 313.2C25.6 312.8 25.5 312.4 25.7 311.9L30.6 297.7C33.5 289.2 42.1 283.9 51 285.2L66 287.3C66.4 287.4 66.8 287.6 67.1 288C67.4 288.4 67.4 288.9 67.2 289.3L62.2 303.6C59.6 311.1 52.4 316.2 44.4 316.2ZM29.1 311.2L42.2 313C49.7 314.1 56.9 309.6 59.4 302.5L63.8 289.9L50.6 288.1C43.1 287.1 35.9 291.5 33.4 298.6L29.1 311.2Z" fill="#474747"/>
<path d="M44.3 303.4C43.8 303.4 43.3 303.1 43 302.7C42.6 302 42.8 301.1 43.5 300.6L65.1 287.4C65.8 287 66.7 287.2 67.2 287.9C67.6 288.6 67.4 289.5 66.7 290L45.1 303.2C44.8 303.3 44.5 303.4 44.3 303.4Z" fill="#474747"/>
<path d="M31.5 275.9L41.5 287.1C47 293.3 56.2 294.7 63.3 290.5L76.4 282.8L66.2 271.5C60.7 265.3 51.5 264 44.4 268.2L31.5 275.9Z" fill="#00D600"/>
<path d="M54.5 294.4C49.3 294.4 44.1 292.2 40.4 288.1L30.4 276.9C30.1 276.6 30 276.1 30 275.7C30.1 275.3 30.3 274.9 30.7 274.6L43.6 266.9C51.3 262.3 61.3 263.8 67.3 270.5L77.5 281.8C77.8 282.1 77.9 282.6 77.9 283C77.8 283.4 77.6 283.8 77.2 284.1L64.1 291.8C61.1 293.6 57.8 294.4 54.5 294.4ZM33.8 276.3L42.6 286.2C47.6 291.8 56 293.1 62.5 289.3L74 282.5L65.1 272.6C60 267 51.7 265.7 45.2 269.6L33.8 276.3Z" fill="#474747"/>
<path d="M76.4 284.3C76.3 284.3 76.2 284.3 76.2 284.3L51.2 280.5C50.4 280.4 49.8 279.6 49.9 278.8C50 278 50.8 277.4 51.6 277.5L76.6 281.3C77.4 281.4 78 282.2 77.9 283C77.7 283.7 77.1 284.3 76.4 284.3Z" fill="#474747"/>
<path d="M61.2 325.6L74.1 317.8C81.2 313.5 84.3 304.8 81.5 297L76.4 282.7L63.4 290.6C56.3 294.9 53.2 303.6 56.1 311.4L61.2 325.6Z" fill="#00D600"/>
<path d="M61.2 327.1C61 327.1 60.9 327.1 60.7 327C60.3 326.8 59.9 326.5 59.8 326.1L54.7 311.9C51.6 303.5 55 294 62.7 289.3L75.7 281.4C76.1 281.2 76.6 281.1 77 281.3C77.4 281.5 77.8 281.8 77.9 282.2L83 296.5C86 304.9 82.7 314.4 75 319.1L62.1 326.9C61.7 327 61.4 327.1 61.2 327.1ZM75.6 285L64.2 291.9C57.7 295.8 54.9 303.8 57.5 310.9L62 323.4L73.4 316.6C79.9 312.7 82.7 304.7 80.2 297.6L75.6 285Z" fill="#474747"/>
<path d="M67.9 308.1C67.7 308.1 67.6 308.1 67.4 308C66.6 307.7 66.2 306.9 66.5 306.1L75 282.3C75.3 281.5 76.1 281.1 76.9 281.4C77.7 281.7 78.1 282.5 77.8 283.3L69.3 307.1C69.1 307.7 68.5 308.1 67.9 308.1Z" fill="#474747"/>
</svg>
