<svg width="168" height="225" viewBox="0 0 168 225" fill="none" xmlns="http://www.w3.org/2000/svg">
<path d="M136.162 125.965C136.566 125.683 136.883 125.293 137.079 124.838C137.274 124.384 137.339 123.883 137.267 123.393C137.194 122.903 136.987 122.443 136.669 122.066C136.351 121.688 135.934 121.409 135.467 121.258L129.437 119.318L126.125 122.215L133.438 126.126C133.863 126.353 134.342 126.458 134.822 126.43C135.302 126.402 135.766 126.241 136.162 125.965Z" fill="#FFB9B9"/>
<path d="M126.023 124.106L129.997 119.456L115.197 103.111L108.383 87.1682C107.934 86.1177 107.134 85.259 106.123 84.7412C105.113 84.2234 103.954 84.079 102.848 84.3333C102.126 84.4995 101.45 84.8307 100.874 85.3015C100.297 85.7722 99.8357 86.3699 99.5239 87.0488C99.2122 87.7276 99.0588 88.4695 99.0754 89.2175C99.0921 89.9655 99.2784 90.6997 99.62 91.3637L108.514 108.651L126.023 124.106Z" fill="#E6E6E6"/>
<path d="M135.518 185.711L134.756 184.518H133.35V183.998H135.037L135.952 185.429L135.518 185.711Z" fill="#3F3D56"/>
<path d="M132.361 184.518H129.396V183.997H132.361V184.518ZM128.408 184.518H125.443V183.997H128.408V184.518ZM124.455 184.518H121.49V183.997H124.455L124.455 184.518ZM120.502 184.518H117.537V183.997H120.502V184.518ZM116.549 184.518H113.584V183.997H116.549V184.518ZM112.596 184.518L109.849 184.516L109.6 184.482L109.668 183.966L109.901 183.997H112.596V184.518ZM108.62 184.351L105.681 183.957L105.749 183.441L108.688 183.835L108.62 184.351ZM104.701 183.825L101.762 183.431L101.83 182.915L104.769 183.31L104.701 183.825ZM100.783 183.3L97.8439 182.906L97.9119 182.39L100.851 182.784L100.783 183.3ZM96.8642 182.775L93.9253 182.381L93.9933 181.865L96.9322 182.259L96.8642 182.775Z" fill="#3F3D56"/>
<path d="M91.6595 183.354L91.144 183.339L91.1964 181.49L93.0138 181.734L92.9458 182.249L91.6956 182.082L91.6595 183.354Z" fill="#3F3D56"/>
<path d="M91.265 197.286L90.7495 197.271L90.8481 193.788L91.3636 193.803L91.265 197.286ZM91.3964 192.642L90.881 192.627L90.9796 189.144L91.495 189.159L91.3964 192.642ZM91.5279 187.998L91.0124 187.983L91.111 184.5L91.6265 184.515L91.5279 187.998Z" fill="#3F3D56"/>
<path d="M90.6646 200.282L90.7169 198.432L91.2324 198.447L91.1963 199.719L92.4529 199.62L92.4931 200.139L90.6646 200.282Z" fill="#3F3D56"/>
<path d="M93.48 200.062L93.4399 199.543L96.4008 199.31L96.4408 199.829L93.48 200.062ZM97.4277 199.752L97.3877 199.233L100.348 199.001L100.389 199.52L97.4277 199.752ZM101.375 199.443L101.335 198.924L104.296 198.691L104.336 199.21L101.375 199.443ZM105.323 199.133L105.283 198.614L108.244 198.382L108.284 198.901L105.323 199.133ZM109.271 198.824L109.231 198.305L112.192 198.072L112.232 198.591L109.271 198.824ZM113.218 198.514L113.179 197.995L116.139 197.763L116.179 198.282L113.218 198.514ZM117.166 198.205L117.126 197.686L120.087 197.453L120.127 197.972L117.166 198.205ZM121.114 197.895L121.074 197.376L124.035 197.144L124.075 197.663L121.114 197.895ZM125.061 197.586L125.022 197.067L127.983 196.834L128.022 197.353L125.061 197.586ZM129.009 197.276L128.97 196.757L131.93 196.525L131.97 197.044L129.009 197.276ZM132.957 196.967L132.917 196.448L135.878 196.215L135.918 196.734L132.957 196.967ZM136.905 196.657L136.865 196.138L139.826 195.906L139.865 196.425L136.905 196.657Z" fill="#3F3D56"/>
<path d="M140.852 196.348L140.812 195.829L141.924 195.742L141.32 194.796L141.754 194.514L142.826 196.193L140.852 196.348Z" fill="#3F3D56"/>
<path d="M140.676 193.786L138.742 190.758L139.175 190.476L141.109 193.504L140.676 193.786ZM138.097 189.749L136.163 186.721L136.597 186.438L138.531 189.467L138.097 189.749Z" fill="#3F3D56"/>
<path d="M131.158 207.546C140.842 207.546 148.693 199.624 148.693 189.852C148.693 180.08 140.842 172.158 131.158 172.158C121.473 172.158 113.623 180.08 113.623 189.852C113.623 199.624 121.473 207.546 131.158 207.546Z" fill="#6C63FF"/>
<path d="M145.599 210.409L119.941 164.482L114.268 170.207L139.539 210.279L145.599 210.409Z" fill="#3F3D56"/>
<path d="M67.8511 209.238L125.485 150.301L130.255 159.798L75.5871 211.84L67.8511 209.238Z" fill="#3F3D56"/>
<path d="M91.3169 202.993C97.7257 202.993 102.921 197.75 102.921 191.283C102.921 184.816 97.7257 179.574 91.3169 179.574C84.9082 179.574 79.7129 184.816 79.7129 191.283C79.7129 197.75 84.9082 202.993 91.3169 202.993Z" fill="#3F3D56"/>
<path d="M75.8448 194.666C75.7764 194.666 75.7109 194.694 75.6625 194.742C75.6142 194.791 75.587 194.857 75.5869 194.926V197.008C75.587 197.077 75.6142 197.143 75.6625 197.192C75.7109 197.241 75.7764 197.268 75.8448 197.268H82.2915C82.3599 197.268 82.4254 197.241 82.4737 197.192C82.5221 197.143 82.5493 197.077 82.5494 197.008V194.926C82.5493 194.857 82.5221 194.791 82.4737 194.742C82.4254 194.694 82.3599 194.666 82.2915 194.666H75.8448Z" fill="#6C63FF"/>
<path d="M90.6724 165.653C90.604 165.653 90.5385 165.68 90.4901 165.729C90.4418 165.778 90.4146 165.844 90.4146 165.913V167.995C90.4146 168.064 90.4418 168.13 90.4901 168.179C90.5385 168.227 90.604 168.255 90.6724 168.255H97.1191C97.1875 168.255 97.253 168.227 97.3014 168.179C97.3497 168.13 97.3769 168.064 97.377 167.995V165.913C97.3769 165.844 97.3497 165.778 97.3014 165.729C97.253 165.68 97.1875 165.653 97.1191 165.653H90.6724Z" fill="#6C63FF"/>
<path d="M122.003 161.359H115.299V156.155L117.878 155.114L122.003 158.237V161.359Z" fill="#3F3D56"/>
<path d="M116.147 153.796L115.448 154.13L116.771 156.953L117.47 156.619L116.147 153.796Z" fill="#3F3D56"/>
<path d="M116.888 150.419C116.839 150.419 116.791 150.433 116.75 150.46L112.195 153.416C112.137 153.454 112.097 153.513 112.083 153.58C112.068 153.647 112.081 153.718 112.118 153.776L113.233 155.527C113.27 155.585 113.329 155.626 113.396 155.64C113.462 155.655 113.532 155.642 113.59 155.605L118.144 152.649V152.649C118.202 152.612 118.242 152.553 118.257 152.485C118.271 152.418 118.259 152.348 118.222 152.289L117.106 150.539C117.088 150.51 117.064 150.485 117.036 150.466C117.008 150.446 116.977 150.432 116.944 150.425C116.926 150.421 116.907 150.419 116.888 150.419Z" fill="#6C63FF"/>
<path d="M127.16 160.839L121.874 134.948L128.063 133.907L132.283 154.765C132.464 155.521 132.465 156.309 132.287 157.066C132.108 157.823 131.755 158.526 131.255 159.119C130.756 159.711 130.124 160.176 129.412 160.475C128.701 160.774 127.929 160.899 127.16 160.839Z" fill="#3F3D56"/>
<path d="M146.638 129.847L140.516 129.406C140.434 129.4 140.355 129.374 140.284 129.331C140.214 129.288 140.155 129.229 140.113 129.158C140.07 129.088 140.044 129.008 140.038 128.925C140.032 128.843 140.045 128.76 140.077 128.684L148.97 107.496C149.004 107.416 149.057 107.346 149.124 107.292C149.191 107.238 149.27 107.202 149.355 107.187L155.393 106.099C155.483 106.082 155.576 106.091 155.662 106.123C155.748 106.155 155.824 106.209 155.883 106.281C155.941 106.352 155.979 106.438 155.993 106.529C156.008 106.621 155.998 106.714 155.964 106.801L147.155 129.518C147.115 129.621 147.043 129.709 146.95 129.768C146.857 129.827 146.748 129.855 146.638 129.847Z" fill="#3F3D56"/>
<path d="M141.344 127.793L146.243 128.313L154.237 108.017L149.08 108.797L141.344 127.793Z" fill="#6C63FF"/>
<path d="M87.9643 183.477L81.5176 189.982L72.2344 149.13L77.3917 149.91L87.9643 183.477Z" fill="#3F3D56"/>
<path d="M80.4519 149.848L79.3384 149.511C77.1505 150.485 74.7701 150.937 72.3813 150.832C71.8653 150.811 71.3778 150.588 71.0214 150.211C70.665 149.834 70.4674 149.332 70.4702 148.811C70.4702 148.274 70.6815 147.76 71.0575 147.38C71.4335 147.001 71.9435 146.788 72.4753 146.788H82.2013C82.4646 146.788 82.7171 146.893 82.9033 147.081C83.0895 147.269 83.1941 147.524 83.1941 147.79C83.1941 148.125 83.1164 148.455 82.9674 148.755C82.8183 149.054 82.6019 149.314 82.3355 149.514C82.0691 149.714 81.76 149.849 81.433 149.907C81.1059 149.965 80.7699 149.945 80.4519 149.848Z" fill="#3F3D56"/>
<path d="M142.057 124.3C141.808 124.3 141.566 124.382 141.368 124.535L133.451 130.644L124.589 131.81C123.063 132.011 122.006 133.686 121.874 135.208L132.306 133.747C133.755 133.606 135.124 133.013 136.224 132.05L142.8 126.311C142.975 126.158 143.1 125.955 143.157 125.729C143.215 125.502 143.202 125.264 143.122 125.045C143.041 124.826 142.895 124.637 142.705 124.504C142.515 124.371 142.289 124.3 142.057 124.3Z" fill="#3F3D56"/>
<path d="M138.189 120.397C137.94 120.397 137.698 120.479 137.5 120.632L129.583 126.74L120.721 127.907C119.195 128.108 118.139 129.783 118.006 131.305L128.438 129.843C129.887 129.703 131.256 129.109 132.356 128.147L138.932 122.408C139.107 122.255 139.232 122.052 139.29 121.825C139.347 121.599 139.335 121.36 139.254 121.142C139.173 120.923 139.028 120.734 138.837 120.601C138.647 120.468 138.421 120.397 138.189 120.397Z" fill="#3F3D56"/>
<path d="M143.019 136.119C141.176 136.115 139.359 135.675 137.715 134.834C136.07 133.992 134.645 132.773 133.552 131.275L134.592 130.505C135.426 131.655 136.482 132.622 137.696 133.348C138.911 134.074 140.259 134.543 141.658 134.729C143.058 134.915 144.48 134.812 145.84 134.427C147.199 134.043 148.466 133.384 149.566 132.491C150.666 131.598 151.575 130.489 152.238 129.232C152.902 127.974 153.305 126.594 153.425 125.175C153.545 123.756 153.379 122.326 152.936 120.974C152.493 119.621 151.783 118.373 150.849 117.306L151.815 116.444C153.31 118.153 154.284 120.26 154.621 122.514C154.958 124.767 154.643 127.071 153.714 129.148C152.786 131.226 151.283 132.988 149.385 134.225C147.488 135.461 145.278 136.119 143.019 136.119V136.119Z" fill="#3F3D56"/>
<path d="M152.045 209.108H60.7598V215.613H152.045V209.108Z" fill="#3F3D56"/>
<path d="M129.674 132.659C130.13 132.475 130.526 132.166 130.816 131.766C131.107 131.367 131.281 130.893 131.318 130.399C131.355 129.905 131.255 129.411 131.028 128.971C130.8 128.532 130.456 128.166 130.033 127.914L124.582 124.67L120.714 126.752L126.983 132.205C127.347 132.522 127.791 132.732 128.266 132.812C128.74 132.892 129.227 132.839 129.674 132.659Z" fill="#FFB9B9"/>
<path d="M86.9333 155.635L90.5434 157.716L112.835 141.159C113.653 140.596 114.346 139.867 114.871 139.02C115.397 138.174 115.743 137.226 115.888 136.238C116.069 134.988 115.925 133.713 115.469 132.537C115.013 131.361 114.261 130.324 113.288 129.531C108.365 125.496 102.281 121.836 95.8297 118.295L86.2886 122.979C90.2206 131.114 94.5855 137.822 100.987 137.811L86.9333 155.635Z" fill="#6C63FF"/>
<path d="M85.3595 160.935C88.3548 163.997 92.299 166.188 96.7046 167.956C97.0366 168.088 97.4013 168.114 97.7484 168.029C98.0955 167.944 98.4079 167.752 98.6426 167.481C98.9276 167.151 99.0793 166.725 99.0674 166.288C99.0555 165.85 98.8809 165.433 98.5783 165.12L95.7225 162.162L93.9971 155.961C90.292 157.809 87.8625 157.395 87.3835 153.523L85.0481 156.737C84.5967 157.36 84.3801 158.125 84.4372 158.894C84.4943 159.663 84.8212 160.387 85.3595 160.935Z" fill="#2F2E41"/>
<path d="M75.3297 188.421L80.7449 188.681L93.1226 124.41L71.8485 117.514C69.7244 125.528 72.878 138.644 78.4241 154.074L75.3297 188.421Z" fill="#6C63FF"/>
<path d="M116.975 82.3863C121.675 82.3863 125.485 78.5418 125.485 73.7994C125.485 69.057 121.675 65.2125 116.975 65.2125C112.275 65.2125 108.465 69.057 108.465 73.7994C108.465 78.5418 112.275 82.3863 116.975 82.3863Z" fill="#FFB9B9"/>
<path d="M101.374 84.3379L106.789 88.241L115.041 79.9144L110.915 74.7102L101.374 84.3379Z" fill="#FFB9B9"/>
<path d="M70.9453 118.165C77.6236 123.656 84.9164 127.266 93.8955 125.711C96.6089 121.334 98.6122 112.113 102.018 108.147C109.457 99.4862 113.146 91.7667 110.786 84.7281C108.492 83.2147 108.593 83.2172 106.918 78.2229C93.7984 80.6721 81.0973 95.6165 70.9453 118.165Z" fill="#E6E6E6"/>
<path d="M75.2426 193.776C79.0972 195.616 83.5469 196.308 88.286 196.443C88.643 196.453 88.9943 196.351 89.2914 196.151C89.5885 195.951 89.8168 195.662 89.9449 195.326C90.1005 194.918 90.0982 194.465 89.9383 194.058C89.7784 193.652 89.4727 193.321 89.0819 193.131L85.3937 191.341L81.6648 186.113C78.8128 189.132 76.3902 189.584 74.6239 186.113L73.5228 189.94C73.3106 190.682 73.3671 191.475 73.6823 192.178C73.9975 192.881 74.5507 193.448 75.2426 193.776Z" fill="#2F2E41"/>
<path d="M120.198 128.573L125.097 124.93L114.267 105.675L111.134 88.6031C110.927 87.4782 110.337 86.4618 109.466 85.7302C108.594 84.9986 107.496 84.598 106.362 84.598C105.621 84.598 104.889 84.7695 104.224 85.0992C103.558 85.4289 102.976 85.9082 102.523 86.5001C102.07 87.0921 101.757 87.781 101.608 88.5141C101.46 89.2471 101.48 90.0047 101.666 90.7287L106.531 109.578L120.198 128.573Z" fill="#E6E6E6"/>
<path d="M95.5719 167.995H92.7354V183.607H95.5719V167.995Z" fill="#3F3D56"/>
<path d="M123.71 71.309C124.044 71.7119 124.471 72.0249 124.954 72.2196C125.437 72.4143 125.96 72.4847 126.477 72.4244C127.501 72.2632 128.413 71.3815 128.478 70.3375C128.535 69.436 128.01 68.6091 127.459 67.8972C126.243 66.3273 124.799 64.9518 123.176 63.8172C122.402 63.2765 121.548 62.7787 120.608 62.7204C120.143 62.6916 119.677 62.7725 119.212 62.7523C118.356 62.7152 117.554 62.3416 116.719 62.148C115.862 61.9554 114.974 61.9507 114.115 62.1344C113.256 62.3181 112.446 62.6858 111.74 63.2127C111.27 63.5756 110.844 63.9945 110.472 64.4601C109.444 65.7286 108.755 67.2414 108.47 68.8545C108.021 71.4115 108.581 74.2159 107.363 76.5036C108.792 76.369 109.938 75.2696 111.295 74.7997C112.302 74.4547 113.396 74.4645 114.397 74.8276C114.654 74.961 114.945 75.0159 115.233 74.9855C115.471 74.9007 115.679 74.7472 115.832 74.544L118.427 71.6942C118.956 71.1142 119.556 70.4963 120.332 70.416C120.796 70.3998 121.257 70.4921 121.679 70.6856C122.72 71.0827 123.727 71.5653 124.689 72.1287" fill="#2F2E41"/>
<path d="M118.78 130.785L118.006 131.305L123.164 136.51L126.258 133.647L121.101 129.484L118.78 130.785Z" fill="#3F3D56"/>
</svg>
