<svg width="168" height="225" viewBox="0 0 168 225" fill="none" xmlns="http://www.w3.org/2000/svg">
<path d="M154 0H14C6.26801 0 0 6.26802 0 14V211C0 218.732 6.26801 225 14 225H154C161.732 225 168 218.732 168 211V14C168 6.26801 161.732 0 154 0Z" fill="#F8CF00"/>
<path d="M120.5 112.2C131.27 112.2 140 103.47 140 92.7001C140 81.9305 131.27 73.2001 120.5 73.2001C109.73 73.2001 101 81.9305 101 92.7001C101 103.47 109.73 112.2 120.5 112.2Z" fill="white"/>
<path d="M120.5 115.2C118.6 115.2 116.6 115 114.7 114.4C108.9 112.9 104.1 109.1 101.1 104C98.1 98.8 97.3 92.8 98.9 87C102.1 75.1 114.4 68 126.3 71.2C138.2 74.4 145.3 86.7 142.1 98.6C139.4 108.5 130.4 115.2 120.5 115.2ZM120.5 76.2C113.2 76.2 106.5 81.1 104.5 88.5C103.4 92.8 103.9 97.3 106.2 101.1C108.4 104.9 112 107.7 116.3 108.8C125.1 111.2 134.3 105.9 136.6 97.1C139 88.3 133.7 79.1 124.9 76.8C123.3 76.3 121.9 76.2 120.5 76.2Z" fill="white"/>
<path opacity="0.3" d="M120.5 112.2C131.27 112.2 140 103.47 140 92.7001C140 81.9305 131.27 73.2001 120.5 73.2001C109.73 73.2001 101 81.9305 101 92.7001C101 103.47 109.73 112.2 120.5 112.2Z" fill="#F6CD46"/>
<path opacity="0.4" d="M120.5 110.6C130.386 110.6 138.4 102.586 138.4 92.7C138.4 82.8141 130.386 74.8 120.5 74.8C110.614 74.8 102.6 82.8141 102.6 92.7C102.6 102.586 110.614 110.6 120.5 110.6Z" fill="#F6CD46"/>
<path d="M120.5 108.8C129.392 108.8 136.6 101.592 136.6 92.7C136.6 83.8082 129.392 76.6 120.5 76.6C111.608 76.6 104.4 83.8082 104.4 92.7C104.4 101.592 111.608 108.8 120.5 108.8Z" fill="#F6CD46"/>
<path d="M116.1 109C107.1 106.6 101.8 97.4 104.2 88.4C106.6 79.4 115.8 74.1 124.8 76.5C133.8 78.9 139.1 88.1 136.7 97.1C134.3 106.1 125.1 111.4 116.1 109ZM124.5 77.8C116.3 75.6 107.8 80.5 105.6 88.7C103.4 96.9 108.3 105.4 116.5 107.6C124.7 109.8 133.2 104.9 135.4 96.7C137.6 88.5 132.7 80 124.5 77.8Z" fill="#474747"/>
<path d="M118.9 88.4001C119.231 88.4001 119.5 88.1315 119.5 87.8001C119.5 87.4687 119.231 87.2001 118.9 87.2001C118.569 87.2001 118.3 87.4687 118.3 87.8001C118.3 88.1315 118.569 88.4001 118.9 88.4001Z" fill="#474747"/>
<path d="M124.4 89.9001C124.731 89.9001 125 89.6315 125 89.3001C125 88.9687 124.731 88.7001 124.4 88.7001C124.069 88.7001 123.8 88.9687 123.8 89.3001C123.8 89.6315 124.069 89.9001 124.4 89.9001Z" fill="#474747"/>
<path d="M119.9 95.1C118.1 94.6 117 92.8 117.5 91L117.8 90C117.9 89.7 118.2 89.6 118.4 89.6C118.7 89.7 118.8 90 118.8 90.2L118.5 91.2C118.2 92.4 118.9 93.7 120.2 94.1C121.4 94.4 122.7 93.7 123.1 92.4L123.4 91.4C123.5 91.1 123.8 91 124 91C124.3 91.1 124.4 91.4 124.4 91.6L124.1 92.6C123.5 94.5 121.7 95.6 119.9 95.1Z" fill="#474747"/>
<path d="M44.9 84.8L45.5 82.7C45.9 81.1 45.1 79.3 43.6 78.7C41.8 78 39.8 79.1 39.4 80.9L37.7 87.3L34.7 98.4C33.8 101.8 35.8 105.4 39.3 106.3L43.7 107.5L48.4 90.1C44.3 89.1 44.9 84.8 44.9 84.8Z" fill="#1E95FF"/>
<path d="M44.6 109.3L38.7 107.7C36.7 107.2 35 105.8 33.9 104C32.8 102.2 32.6 100 33.1 98L37.8 80.4C38.1 79.1 39 78.1 40.2 77.5C41.4 76.9 42.7 76.8 44 77.3C46.2 78.1 47.5 80.6 46.8 83L46.3 85C46.2 85.5 46.1 88 48.6 88.7L50 89.1L44.6 109.3ZM42.4 79.9C42.1 79.9 41.8 80 41.6 80.1C41.2 80.3 40.8 80.7 40.7 81.2L36 98.8C35.7 100.1 35.8 101.4 36.5 102.6C37.2 103.8 38.2 104.6 39.5 104.9L42.5 105.7L46.5 91C43.6 89.5 43.2 86.2 43.5 84.5V84.3L44.1 82.2C44.4 81.3 43.9 80.3 43.1 80C42.9 80 42.6 79.9 42.4 79.9Z" fill="white"/>
<path d="M43.4 108.2L39 107C35.2 106 32.9 102 33.9 98.2L38.6 80.6C38.9 79.5 39.6 78.6 40.6 78.1C41.6 77.6 42.8 77.5 43.8 77.9C45.7 78.6 46.7 80.7 46.2 82.8L45.6 84.9C45.6 85.3 45.3 88.6 48.4 89.4C48.8 89.5 49 89.9 48.9 90.3L44.2 107.7C44.2 108.1 43.8 108.3 43.4 108.2ZM43.1 79.3C42.5 79.1 41.9 79.2 41.3 79.5C40.7 79.8 40.2 80.4 40 81.1L35.3 98.7C34.5 101.7 36.3 104.9 39.3 105.7L43 106.7L47.3 90.7C44.3 89.5 43.9 86.3 44.1 84.7V84.6L44.7 82.5C45 81.2 44.4 79.8 43.2 79.4C43.2 79.3 43.2 79.3 43.1 79.3Z" fill="#474747"/>
<path d="M43.5999 109.7C43.3999 109.7 43.2 109.7 43 109.6L38.5999 108.4C36.3999 107.8 34.5 106.4 33.4 104.4C32.2 102.4 31.9 100.1 32.5 97.9L37.2 80.3C37.6 78.8 38.6 77.6 39.9 76.9C41.3 76.2 42.7999 76.1 44.2999 76.6C46.9 77.6 48.2999 80.5 47.5999 83.2L47.0999 85.2C46.9999 85.9 47.0999 87.6 48.7999 88.1C50 88.4 50.6999 89.6 50.2999 90.8L45.5999 108.2C45.3999 108.8 45.0999 109.2 44.5999 109.5C44.3999 109.6 43.9999 109.7 43.5999 109.7ZM42.4 80.6C42.2 80.6 42.1 80.6 41.9 80.7C41.6 80.8 41.4 81.1 41.4 81.4L36.7 99C36.4 100.1 36.5999 101.2 37.0999 102.2C37.6999 103.2 38.6 103.9 39.7 104.2L42 104.8L45.5999 91.3C43.1999 89.7 42.4 86.7 42.7 84.4C42.7 84.3 42.6999 84.2 42.7999 84.1L43.4 82C43.6 81.4 43.2999 80.8 42.7999 80.6H42.7C42.6 80.7 42.5 80.6 42.4 80.6Z" fill="white"/>
<path d="M41.4998 90.7001C41.7998 89.5001 42.9998 88.8001 44.1998 89.1001L51.6998 91.1001C52.8998 91.4001 53.5998 92.6001 53.2998 93.8001V93.9001C52.9998 95.1001 51.7998 95.8001 50.5998 95.5001L43.0998 93.5001C41.8998 93.1001 41.1998 91.9001 41.4998 90.7001Z" fill="#1E95FF"/>
<path d="M51.0999 96.9001C50.7999 96.9001 50.4999 96.9001 50.0999 96.8001L42.5999 94.8001C40.5999 94.3001 39.4999 92.2001 39.9999 90.3001C40.4999 88.3001 42.5999 87.2001 44.4999 87.7001L51.9999 89.7001C52.9999 90.0001 53.7999 90.6001 54.1999 91.4001C54.6999 92.3001 54.7999 93.3001 54.5999 94.2001C54.2999 95.9001 52.7999 96.9001 51.0999 96.9001ZM43.6999 90.5001C43.3999 90.5001 42.9999 90.7001 42.8999 91.1001C42.7999 91.3001 42.8999 91.5001 42.9999 91.7001C43.0999 91.9001 43.2999 92.0001 43.4999 92.1001L50.9999 94.1001C51.3999 94.2001 51.8999 94.0001 51.9999 93.5001C52.0999 93.1001 51.8999 92.6001 51.3999 92.5001L43.8999 90.5001C43.7999 90.5001 43.7999 90.5001 43.6999 90.5001Z" fill="white"/>
<path d="M50.3999 96.1L42.8999 94.1C41.2999 93.7 40.3999 92 40.7999 90.5C41.1999 88.9 42.8999 88 44.3999 88.4L51.8999 90.4C53.4999 90.8 54.3999 92.5 53.9999 94C53.5999 95.6 51.9999 96.5 50.3999 96.1ZM44.0999 89.8C43.2999 89.6 42.4999 90.1 42.1999 90.9C41.9999 91.7 42.4999 92.5 43.2999 92.8L50.7999 94.8C51.5999 95 52.3999 94.5 52.6999 93.7C52.8999 92.9 52.3999 92.1 51.5999 91.8L44.0999 89.8Z" fill="#474747"/>
<path d="M51.0999 97.7C50.6999 97.7 50.2999 97.7 49.9999 97.5L42.4999 95.5C41.3999 95.2 40.3999 94.5 39.7999 93.4C39.1999 92.4 39.0999 91.2 39.3999 90C39.6999 88.9 40.3999 87.9 41.4999 87.3C42.4999 86.7 43.6999 86.6 44.8999 86.9L52.3999 88.9C54.7999 89.5 56.1999 92 55.4999 94.3C54.8999 96.4 53.0999 97.7 51.0999 97.7ZM43.6999 91.2C43.6999 91.2 43.5999 91.2 43.6999 91.2C43.5999 91.3 43.5999 91.3 43.6999 91.3L51.1999 93.3H51.2999V93.2L43.6999 91.2Z" fill="white"/>
<path d="M40.3999 95C40.6999 93.8 41.8999 93.1 43.0999 93.4L51.6999 95.7C52.8999 96 53.5999 97.2 53.2999 98.4V98.5C52.9999 99.7 51.7999 100.4 50.5999 100.1L41.9999 97.8C40.6999 97.4 39.9999 96.2 40.3999 95Z" fill="#1E95FF"/>
<path d="M51.0999 101.6C50.7999 101.6 50.4999 101.6 50.0999 101.5L41.4999 99.2C40.4999 98.9 39.6999 98.3 39.2999 97.5C38.8999 96.7 38.6999 95.6 38.8999 94.7C39.1999 93.7 39.7999 92.9 40.5999 92.5C41.4999 92 42.4999 91.9 43.3999 92.1L51.9999 94.4C53.9999 94.9 55.0999 97 54.5999 98.9C54.1999 100.5 52.6999 101.6 51.0999 101.6ZM42.4999 94.8C42.0999 94.8 41.7999 95 41.6999 95.4C41.5999 95.6 41.6999 95.8 41.7999 96C41.8999 96.2 42.0999 96.3 42.2999 96.4L50.8999 98.7C51.0999 98.8 51.2999 98.7 51.4999 98.6C51.6999 98.5 51.7999 98.3 51.8999 98.1C51.9999 97.7 51.7999 97.2 51.2999 97.1L42.6999 94.8C42.6999 94.8 42.5999 94.8 42.4999 94.8Z" fill="white"/>
<path d="M50.2999 100.8L41.6999 98.4999C40.0999 98.0999 39.1999 96.3999 39.5999 94.8999C39.9999 93.2999 41.6999 92.3999 43.1999 92.7999L51.7999 95.0999C53.3999 95.4999 54.2999 97.1999 53.8999 98.6999C53.5999 100.2 51.8999 101.2 50.2999 100.8ZM42.8999 94.0999C42.0999 93.8999 41.2999 94.3999 40.9999 95.1999C40.7999 95.9999 41.2999 96.7999 42.0999 97.0999L50.6999 99.3999C51.4999 99.5999 52.2999 99.0999 52.5999 98.2999C52.7999 97.4999 52.2999 96.6999 51.4999 96.3999L42.8999 94.0999Z" fill="#474747"/>
<path d="M51.0999 102.3C50.6999 102.3 50.2999 102.3 49.9999 102.1L41.3999 99.8C40.2999 99.5 39.2999 98.7999 38.6999 97.6999C38.0999 96.6999 37.9999 95.5 38.2999 94.3C38.5999 93.2 39.2999 92.1999 40.3999 91.5999C41.3999 90.9999 42.5999 90.8999 43.7999 91.1999L52.3999 93.5C54.7999 94.1 56.1999 96.6 55.4999 98.9C54.8999 101 53.0999 102.3 51.0999 102.3ZM42.4999 95.5C42.3999 95.6 42.3999 95.5999 42.4999 95.5999L51.0999 97.9H51.1999V97.8L42.4999 95.5Z" fill="white"/>
<path d="M39.1999 99.4C39.4999 98.2 40.6999 97.5 41.8999 97.8L49.3999 99.8C50.5999 100.1 51.2999 101.3 50.9999 102.5V102.6C50.6999 103.8 49.4999 104.5 48.2999 104.2L40.7999 102.2C39.5999 101.8 38.8999 100.6 39.1999 99.4Z" fill="#1E95FF"/>
<path d="M48.8 105.6C48.5 105.6 48.2 105.6 47.8 105.5L40.3 103.5C38.3 103 37.2 100.9 37.7 99C38 98 38.6 97.2 39.4 96.8C40.3 96.3 41.3 96.2 42.2 96.4L49.7 98.4C50.7 98.7 51.5 99.3 51.9 100.1C52.4 101 52.5 102 52.3 102.9C52 103.9 51.4 104.7 50.6 105.1C50.1 105.5 49.5 105.6 48.8 105.6ZM41.4 99.1C41 99.1 40.7 99.3 40.6 99.7C40.5 99.9 40.6 100.1 40.7 100.3C40.8 100.5 41 100.6 41.2 100.7L48.7 102.7C49.1 102.8 49.6 102.6 49.7 102.1C49.8 101.9 49.7 101.7 49.6 101.5C49.5 101.3 49.3 101.2 49.1 101.1L41.6 99.1C41.5 99.1 41.4 99.1 41.4 99.1Z" fill="white"/>
<path d="M47.9999 104.8L40.4999 102.8C38.8999 102.4 37.9999 100.7 38.3999 99.2C38.7999 97.6 40.4999 96.7 41.9999 97.1L49.4999 99.1C51.0999 99.5 51.9999 101.2 51.5999 102.7C51.2999 104.3 49.5999 105.2 47.9999 104.8ZM41.7999 98.5C40.9999 98.3 40.1999 98.8 39.8999 99.6C39.6999 100.4 40.1999 101.2 40.9999 101.5L48.4999 103.5C49.2999 103.7 50.0999 103.2 50.3999 102.4C50.5999 101.6 50.0999 100.8 49.2999 100.5L41.7999 98.5Z" fill="#474747"/>
<path d="M48.8 106.4C48.4 106.4 48 106.4 47.7 106.2L40.2 104.2C39.1 103.9 38.1 103.2 37.5 102.1C36.9 101.1 36.8 99.9 37.1 98.7C37.4 97.6 38.1 96.6 39.2 96C40.2 95.4 41.4 95.3 42.6 95.6L50.1 97.6C51.2 97.9 52.2 98.6 52.8 99.7C53.4 100.7 53.5 101.9 53.2 103.1C52.6 105 50.8 106.4 48.8 106.4ZM41.4 99.9C41.3 99.9 41.3 99.9 41.4 99.9C41.3 100 41.3 100 41.4 100L48.9 102H49V101.9L41.4 99.9Z" fill="white"/>
<path d="M38 103.7C38.3 102.5 39.5 101.8 40.7 102.1L47.1 103.8C48.3 104.1 49 105.3 48.7 106.5V106.6C48.4 107.8 47.2 108.5 46 108.2L39.6 106.5C38.4 106.1 37.7 104.9 38 103.7Z" fill="#1E95FF"/>
<path d="M46.5 109.7C46.2 109.7 45.9 109.7 45.5 109.6L39.2 107.9C38.2 107.6 37.4 107 37 106.2C36.5 105.3 36.4 104.3 36.6 103.4C36.9 102.4 37.5 101.6 38.3 101.2C39.2 100.7 40.2 100.6 41.1 100.8L47.4 102.5C48.4 102.8 49.2 103.4 49.6 104.2C50.1 105.1 50.2 106.1 50 107C49.7 108 49.1 108.8 48.3 109.2C47.8 109.5 47.2 109.7 46.5 109.7ZM40.2 103.5C40.1 103.5 39.9 103.5 39.8 103.6C39.6 103.7 39.5 103.9 39.4 104.1C39.3 104.3 39.4 104.5 39.5 104.7C39.6 104.9 39.8 105 40 105.1L46.3 106.8C46.7 106.9 47.2 106.7 47.3 106.2C47.4 106 47.3 105.8 47.2 105.6C47.1 105.4 46.9 105.3 46.7 105.2L40.4 103.5C40.3 103.5 40.3 103.5 40.2 103.5Z" fill="white"/>
<path d="M45.7999 108.8L39.4999 107.1C37.8999 106.7 36.9999 105 37.3999 103.5C37.7999 102 39.4999 101 40.9999 101.4L47.2999 103.1C48.8999 103.5 49.7999 105.2 49.3999 106.7C48.9999 108.3 47.2999 109.3 45.7999 108.8ZM40.5999 102.8C39.7999 102.6 38.9999 103.1 38.6999 103.9C38.4999 104.7 38.9999 105.5 39.7999 105.8L46.0999 107.5C46.8999 107.7 47.6999 107.2 47.9999 106.4C48.1999 105.6 47.6999 104.8 46.8999 104.5L40.5999 102.8Z" fill="#474747"/>
<path d="M46.4999 110.4C46.0999 110.4 45.6999 110.4 45.2999 110.2L38.9999 108.5C36.5999 107.9 35.1999 105.4 35.8999 103.1C36.4999 100.7 38.9999 99.3 41.2999 100L47.5999 101.7C48.6999 102 49.6999 102.7 50.2999 103.8C50.8999 104.8 50.9999 106 50.6999 107.2C50.3999 108.3 49.6999 109.3 48.5999 109.9C48.0999 110.2 47.2999 110.4 46.4999 110.4ZM40.1999 104.2C40.1999 104.2 40.0999 104.2 40.1999 104.2C40.0999 104.3 40.0999 104.3 40.1999 104.3L46.4999 106H46.5999V105.9L40.1999 104.2Z" fill="white"/>
<path d="M44.9 84.8L45.5 82.7C45.9 81.1 45.1 79.3 43.6 78.7C41.8 78 39.8 79.1 39.4 80.9L37.7 87.3L34.7 98.4C33.8 101.8 35.8 105.4 39.3 106.3L43.7 107.5L48.4 90.1C44.3 89.1 44.9 84.8 44.9 84.8Z" fill="#1E95FF"/>
<path d="M43.4 108.2L39 107C35.2 106 32.9 102 33.9 98.2L38.6 80.6C38.9 79.5 39.6 78.6 40.6 78.1C41.6 77.6 42.8 77.5 43.8 77.9C45.7 78.6 46.7 80.7 46.2 82.8L45.6 84.9C45.6 85.3 45.3 88.6 48.4 89.4C48.8 89.5 49 89.9 48.9 90.3L44.2 107.7C44.2 108.1 43.8 108.3 43.4 108.2ZM43.1 79.3C42.5 79.1 41.9 79.2 41.3 79.5C40.7 79.8 40.2 80.4 40 81.1L35.3 98.7C34.5 101.7 36.3 104.9 39.3 105.7L43 106.7L47.3 90.7C44.3 89.5 43.9 86.3 44.1 84.7V84.6L44.7 82.5C45 81.2 44.4 79.8 43.2 79.4C43.2 79.3 43.2 79.3 43.1 79.3Z" fill="#474747"/>
<path d="M41.5 90.7001C41.8 89.5001 43 88.8001 44.2 89.1001L51.7 91.1001C52.9 91.4001 53.6 92.6001 53.3 93.8001V93.9001C53 95.1001 51.8 95.8001 50.6 95.5001L43.1 93.5001C41.9 93.1001 41.2 91.9001 41.5 90.7001Z" fill="#1E95FF"/>
<path d="M50.3999 96.1L42.8999 94.1C41.2999 93.7 40.3999 92 40.7999 90.5C41.1999 88.9 42.8999 88 44.3999 88.4L51.8999 90.4C53.4999 90.8 54.3999 92.5 53.9999 94C53.5999 95.6 51.9999 96.5 50.3999 96.1ZM44.0999 89.8C43.2999 89.6 42.4999 90.1 42.1999 90.9C41.9999 91.7 42.4999 92.5 43.2999 92.8L50.7999 94.8C51.5999 95 52.3999 94.5 52.6999 93.7C52.8999 92.9 52.3999 92.1 51.5999 91.8L44.0999 89.8Z" fill="#474747"/>
<path d="M40.4 95.0001C40.7 93.8001 41.9 93.1001 43.1 93.4001L51.7 95.7001C52.9 96.0001 53.6 97.2001 53.3 98.4001V98.5001C53 99.7001 51.8 100.4 50.6 100.1L42 97.8001C40.7 97.4001 40 96.2001 40.4 95.0001Z" fill="#1E95FF"/>
<path d="M50.3 100.8L41.7 98.5001C40.1 98.1001 39.2 96.4001 39.6 94.9001C40 93.3001 41.7 92.4001 43.2 92.8001L51.8 95.1001C53.4 95.5001 54.3 97.2001 53.9 98.7001C53.6 100.2 51.9 101.2 50.3 100.8ZM42.9 94.1001C42.1 93.9001 41.3 94.4001 41 95.2001C40.8 96.0001 41.3 96.8001 42.1 97.1001L50.7 99.4001C51.5 99.6001 52.3 99.1001 52.6 98.3001C52.8 97.5001 52.3 96.7001 51.5 96.4001L42.9 94.1001Z" fill="#474747"/>
<path d="M39.1999 99.4C39.4999 98.2 40.6999 97.5 41.8999 97.8L49.3999 99.8C50.5999 100.1 51.2999 101.3 50.9999 102.5V102.6C50.6999 103.8 49.4999 104.5 48.2999 104.2L40.7999 102.2C39.5999 101.8 38.8999 100.6 39.1999 99.4Z" fill="#1E95FF"/>
<path d="M47.9999 104.8L40.4999 102.8C38.8999 102.4 37.9999 100.7 38.3999 99.2C38.7999 97.6 40.4999 96.7 41.9999 97.1L49.4999 99.1C51.0999 99.5 51.9999 101.2 51.5999 102.7C51.2999 104.3 49.5999 105.2 47.9999 104.8ZM41.7999 98.5C40.9999 98.3 40.1999 98.8 39.8999 99.6C39.6999 100.4 40.1999 101.2 40.9999 101.5L48.4999 103.5C49.2999 103.7 50.0999 103.2 50.3999 102.4C50.5999 101.6 50.0999 100.8 49.2999 100.5L41.7999 98.5Z" fill="#474747"/>
<path d="M38 103.7C38.3 102.5 39.5 101.8 40.7 102.1L47.1 103.8C48.3 104.1 49 105.3 48.7 106.5V106.6C48.4 107.8 47.2 108.5 46 108.2L39.6 106.5C38.4 106.1 37.7 104.9 38 103.7Z" fill="#1E95FF"/>
<path d="M45.7999 108.8L39.4999 107.1C37.8999 106.7 36.9999 105 37.3999 103.5C37.7999 102 39.4999 101 40.9999 101.4L47.2999 103.1C48.8999 103.5 49.7999 105.2 49.3999 106.7C48.9999 108.3 47.2999 109.3 45.7999 108.8ZM40.5999 102.8C39.7999 102.6 38.9999 103.1 38.6999 103.9C38.4999 104.7 38.9999 105.5 39.7999 105.8L46.0999 107.5C46.8999 107.7 47.6999 107.2 47.9999 106.4C48.1999 105.6 47.6999 104.8 46.8999 104.5L40.5999 102.8Z" fill="#474747"/>
<path d="M23.4 101.6C21.3 101.2 19.2 102.6 18.8 104.7L18.5 106.2L17 105.9C14.9 105.5 12.8 106.9 12.4 109C12 111.1 13.4 113.2 15.5 113.6L17 113.9L24.7 115.4L26.2 107.7L26.5 106.2C26.9 104.1 25.5 102.1 23.4 101.6Z" fill="#EB794E"/>
<path d="M26.3 117.9L15 115.7C13.4 115.4 12.1 114.5 11.2 113.2C10.3 111.9 10 110.3 10.3 108.7C10.9 105.6 13.8 103.6 16.9 103.9C17.7 100.9 20.7 98.9999 23.8 99.5999C27 100.2 29.2 103.4 28.5 106.6L26.3 117.9ZM16.2 107.9C15.3 107.9 14.5 108.5 14.3 109.4C14.2 109.9 14.3 110.4 14.6 110.8C14.9 111.2 15.3 111.5 15.8 111.6L23.1 113L24.5 105.7C24.7 104.7 24 103.7 23 103.5C22 103.3 21 104 20.8 105L20.1 108.5L16.6 107.8C16.4 108 16.3 107.9 16.2 107.9Z" fill="white"/>
<path d="M25.1 116.2C24.9 116.3 24.7 116.4 24.5 116.3L15.2 114.5C12.6 114 11 111.5 11.5 108.9C11.7 107.7 12.5 106.6 13.5 105.9C14.6 105.2 15.8 104.9 17.1 105.2L17.9 105.3L18 104.5C18.2 103.3 19 102.2 20 101.5C21.1 100.8 22.3 100.5 23.6 100.8C26.2 101.3 27.8 103.8 27.3 106.4L25.5 115.7C25.4 115.9 25.3 116.1 25.1 116.2ZM14.4 107.2C13.7 107.7 13.2 108.4 13.1 109.2C12.8 110.9 13.9 112.6 15.6 112.9L24.1 114.6L25.8 106.1C26.1 104.4 25 102.7 23.3 102.4C22.5 102.2 21.6 102.4 20.9 102.9C20.2 103.4 19.7 104.1 19.6 104.9L19.3 106.4C19.2 106.8 18.8 107.1 18.4 107L16.9 106.7C15.9 106.6 15.1 106.8 14.4 107.2Z" fill="#474747"/>
<path d="M24.7 118.4C24.5 118.4 24.3 118.4 24.1 118.3L14.8 116.5C11.1 115.8 8.7 112.2 9.5 108.6C9.8 106.8 10.9 105.3 12.4 104.3C13.6 103.5 14.9 103.1 16.3 103.2C16.8 101.9 17.7 100.8 18.8 100C20.3 99 22.1 98.6 23.9 99C25.7 99.3 27.2 100.4 28.2 101.9C29.2 103.4 29.6 105.2 29.2 107L27.4 116.3C27.3 117 26.8 117.7 26.2 118.1C25.8 118.2 25.2 118.4 24.7 118.4ZM16.1 108.7C15.9 108.7 15.7 108.8 15.5 108.9C15.2 109.1 15.1 109.3 15 109.6C14.9 110.2 15.3 110.8 15.9 110.9L22.4 112.2L23.7 105.7C23.8 105.1 23.4 104.5 22.8 104.4C22.5 104.3 22.2 104.4 22 104.6C21.7 104.8 21.6 105 21.5 105.3L21.2 106.8C20.9 108.3 19.4 109.3 17.9 109L16.4 108.7C16.3 108.7 16.2 108.7 16.1 108.7Z" fill="white"/>
<path d="M23.4 101.6C21.3 101.2 19.2 102.6 18.8 104.7L18.5 106.2L17 105.9C14.9 105.5 12.8 106.9 12.4 109C12 111.1 13.4 113.2 15.5 113.6L17 113.9L24.7 115.4L26.2 107.7L26.5 106.2C26.9 104.1 25.5 102.1 23.4 101.6Z" fill="#FF911A"/>
<path d="M25.1 116.2C24.9 116.3 24.7 116.4 24.5 116.3L15.2 114.5C12.6 114 11 111.5 11.5 108.9C11.7 107.7 12.5 106.6 13.5 105.9C14.6 105.2 15.8 104.9 17.1 105.2L17.9 105.3L18 104.5C18.2 103.3 19 102.2 20 101.5C21.1 100.8 22.3 100.5 23.6 100.8C26.2 101.3 27.8 103.8 27.3 106.4L25.5 115.7C25.4 115.9 25.3 116.1 25.1 116.2ZM14.4 107.2C13.7 107.7 13.2 108.4 13.1 109.2C12.8 110.9 13.9 112.6 15.6 112.9L24.1 114.6L25.8 106.1C26.1 104.4 25 102.7 23.3 102.4C22.5 102.2 21.6 102.4 20.9 102.9C20.2 103.4 19.7 104.1 19.6 104.9L19.3 106.4C19.2 106.8 18.8 107.1 18.4 107L16.9 106.7C15.9 106.6 15.1 106.8 14.4 107.2Z" fill="#474747"/>
<path d="M36.9001 163.1C34.3001 166.6 34.5001 171.5 37.5001 174.8L42.9001 180.8L47.7001 174.3C50.3001 170.8 50.1001 165.9 47.1001 162.6C44.2001 159.6 39.4001 159.8 36.9001 163.1Z" fill="#1CD124"/>
<path d="M42.9 182.5C42.4 182.5 41.9 182.3 41.6 181.9L36.2 175.9C32.7 172 32.4 166.2 35.5 162C37 160 39.3 158.8 41.8 158.6C44.3 158.5 46.7 159.5 48.4 161.3C51.9 165.2 52.2 171 49.1 175.2L44.3 181.7C44 182.3 43.5 182.5 42.9 182.5ZM42.2 162.2C42.1 162.2 42 162.2 41.9 162.2C40.4 162.3 39.1 163 38.3 164.2C36.2 167.1 36.4 171 38.8 173.7L42.8 178.1L46.3 173.3C48.4 170.4 48.2 166.4 45.8 163.8C44.8 162.8 43.5 162.2 42.2 162.2Z" fill="white"/>
<path d="M43.3001 181.4C43.2001 181.5 43.1001 181.5 42.9001 181.5C42.7001 181.5 42.5001 181.4 42.3001 181.3L36.9001 175.3C33.7001 171.8 33.5001 166.5 36.3001 162.7C37.6001 160.9 39.6001 159.9 41.8001 159.7C44.0001 159.6 46.1001 160.5 47.6001 162.1C50.8001 165.6 51.1001 170.9 48.3001 174.7L43.5001 181.2C43.4001 181.3 43.4001 181.3 43.3001 181.4ZM38.8001 162.3C38.3001 162.7 37.9001 163.1 37.5001 163.6C35.1001 166.8 35.3001 171.4 38.0001 174.4L42.8001 179.7L47.1001 173.9C49.5001 170.6 49.3001 166.1 46.5001 163.1C45.3001 161.8 43.6001 161.1 41.9001 161.2C40.7001 161.3 39.7001 161.6 38.8001 162.3Z" fill="#474747"/>
<path d="M42.9001 183.3C42.2001 183.3 41.5001 183 41.1001 182.5L35.7001 176.5C32.0001 172.4 31.7001 166.1 35.0001 161.7C36.6001 159.5 39.1001 158.2 41.8001 158C44.5001 157.9 47.1001 158.9 49.0001 160.9C52.8001 165 53.1001 171.2 49.8001 175.7L45.0001 182.2C44.8001 182.4 44.7001 182.6 44.5001 182.7C44.1001 183 43.7001 183.1 43.2001 183.2C43.0001 183.3 42.9001 183.3 42.9001 183.3ZM42.2001 162.9C42.1001 162.9 42.1001 162.9 42.0001 162.9C41.2001 162.9 40.5001 163.2 39.8001 163.7C39.5001 163.9 39.1001 164.3 38.9001 164.6C37.0001 167.2 37.2001 170.8 39.3001 173.2L42.7001 176.9L45.7001 172.8C47.6001 170.2 47.4001 166.6 45.2001 164.2C44.4001 163.4 43.3001 162.9 42.2001 162.9Z" fill="white"/>
<path d="M43.3 181.4C43.2 181.5 43.1 181.5 42.9 181.5C42.5 181.5 42.2 181.2 42.1 180.8L41.4 167.4C41.4 167 41.7 166.7 42.1 166.6C42.5 166.6 42.8 166.9 42.9 167.3L43.6 180.7C43.6 181 43.5 181.2 43.3 181.4Z" fill="#474747"/>
<path d="M42.9001 183.3C41.6001 183.3 40.5001 182.3 40.4001 181L39.7001 167.6C39.7001 166.9 39.9001 166.3 40.3001 165.8C40.7001 165.3 41.4001 165 42.0001 165C43.4001 164.9 44.5001 166 44.6001 167.3L45.3001 180.7C45.3001 181.5 45.0001 182.3 44.3001 182.8C43.9001 183.1 43.5001 183.2 43.0001 183.3H42.9001Z" fill="white"/>
<path d="M24.4 183.4C27.4 186.6 32.2 187.3 36 185L42.9 180.8L37.4 174.9C34.4 171.7 29.6 171 25.8 173.3C22.3 175.5 21.6 180.3 24.4 183.4Z" fill="#1CD124"/>
<path d="M31.2 188.1C28.2 188.1 25.2 186.9 23.1 184.6L24.4 183.4L23.1 184.6C21.4 182.8 20.6 180.3 21 177.8C21.3 175.3 22.8 173.2 24.9 171.8C29.3 169.1 35.1 169.9 38.7 173.7L44.2 179.6C44.6 180 44.7 180.5 44.6 181C44.5 181.5 44.2 182 43.8 182.2L36.9 186.4C35.1 187.6 33.2 188.1 31.2 188.1ZM30.6 173.7C29.3 173.7 27.9 174.1 26.7 174.8C25.5 175.6 24.6 176.8 24.4 178.3C24.2 179.8 24.7 181.2 25.6 182.2C28 184.8 32 185.4 35 183.5L40.1 180.4L36.1 176C34.7 174.5 32.7 173.7 30.6 173.7Z" fill="white"/>
<path d="M43.3 181.4L36.4 185.6C32.4 188.1 27.1 187.3 23.9 183.8C22.4 182.2 21.7 180 22 177.8C22.3 175.6 23.5 173.7 25.4 172.6C29.4 170.1 34.7 170.8 37.9 174.3L43.4 180.2C43.5 180.4 43.6 180.6 43.6 180.8C43.6 181.1 43.5 181.3 43.3 181.4ZM24.9 182.9C27.6 185.9 32.1 186.5 35.6 184.4L41.7 180.7L36.8 175.4C34.1 172.4 29.6 171.8 26.1 173.9C24.6 174.8 23.6 176.3 23.4 178.1C23.2 179.8 23.7 181.6 24.9 182.9Z" fill="#474747"/>
<path d="M31.2 188.8C28 188.8 24.9 187.5 22.6 185C20.8 183 19.9 180.3 20.3 177.6C20.7 174.9 22.2 172.6 24.5 171.1C29.2 168.2 35.4 169 39.2 173.1L44.7 179C45.2 179.5 45.4 180.3 45.3 181C45.2 181.7 44.8 182.3 44.3 182.7L44.2 182.8L37.3 187C35.4 188.3 33.3 188.8 31.2 188.8ZM30.6 174.4C29.4 174.4 28.2 174.7 27.1 175.4C26 176 25.3 177.1 25.2 178.3C25 179.5 25.4 180.7 26.2 181.7C28.4 184.1 31.9 184.6 34.7 182.9L39 180.3L35.6 176.6C34.3 175.1 32.5 174.4 30.6 174.4Z" fill="white"/>
<path d="M43.3 181.4C43.2 181.5 43 181.6 42.8 181.5L29.5 179.7C29.1 179.6 28.8 179.3 28.9 178.9C29 178.5 29.3 178.2 29.7 178.3L43 180.1C43.4 180.2 43.7 180.5 43.6 180.9C43.6 181.1 43.5 181.3 43.3 181.4Z" fill="#474747"/>
<path d="M42.9 183.3C42.8 183.3 42.7 183.3 42.6 183.3L29.3 181.5C28.6 181.4 28.1 181.1 27.7 180.5C27.3 180 27.1 179.3 27.2 178.7C27.3 178 27.6 177.5 28.2 177.1C28.7 176.7 29.4 176.5 30 176.6L43.3 178.4C44 178.5 44.5 178.8 44.9 179.4C45.3 179.9 45.5 180.6 45.4 181.2C45.3 181.9 44.9 182.5 44.4 182.9C43.9 183.1 43.4 183.3 42.9 183.3Z" fill="white"/>
<path d="M36.8999 163.1C34.2999 166.6 34.4999 171.5 37.4999 174.8L42.8999 180.8L47.6999 174.3C50.2999 170.8 50.0999 165.9 47.0999 162.6C44.1999 159.6 39.3999 159.8 36.8999 163.1Z" fill="#1CD124"/>
<path d="M43.3 181.4C43.2 181.5 43.1 181.5 42.9 181.5C42.7 181.5 42.5 181.4 42.3 181.3L36.9 175.3C33.7 171.8 33.5 166.5 36.3 162.7C37.6 160.9 39.6 159.9 41.8 159.7C44 159.6 46.1 160.5 47.6 162.1C50.8 165.6 51.1 170.9 48.3 174.7L43.5 181.2C43.4 181.3 43.4 181.3 43.3 181.4ZM38.8 162.3C38.3 162.7 37.9 163.1 37.5 163.6C35.1 166.8 35.3 171.4 38 174.4L42.8 179.7L47.1 173.9C49.5 170.6 49.3 166.1 46.5 163.1C45.3 161.8 43.6 161.1 41.9 161.2C40.7 161.3 39.7 161.6 38.8 162.3Z" fill="#474747"/>
<path d="M43.3 181.4C43.2 181.5 43.1 181.5 42.9 181.5C42.5 181.5 42.2 181.2 42.1 180.8L41.4 167.4C41.4 167 41.7 166.7 42.1 166.6C42.5 166.6 42.8 166.9 42.9 167.3L43.6 180.7C43.6 181 43.5 181.2 43.3 181.4Z" fill="#474747"/>
<path d="M24.4 183.4C27.4 186.6 32.2 187.3 36 185L42.9 180.8L37.4 174.9C34.4 171.7 29.6 171 25.8 173.3C22.3 175.5 21.6 180.3 24.4 183.4Z" fill="#1CD124"/>
<path d="M43.3 181.4L36.4 185.6C32.4 188.1 27.1 187.3 23.9 183.8C22.4 182.2 21.7 180 22 177.8C22.3 175.6 23.5 173.7 25.4 172.6C29.4 170.1 34.7 170.8 37.9 174.3L43.4 180.2C43.5 180.4 43.6 180.6 43.6 180.8C43.6 181.1 43.5 181.3 43.3 181.4ZM24.9 182.9C27.6 185.9 32.1 186.5 35.6 184.4L41.7 180.7L36.8 175.4C34.1 172.4 29.6 171.8 26.1 173.9C24.6 174.8 23.6 176.3 23.4 178.1C23.2 179.8 23.7 181.6 24.9 182.9Z" fill="#474747"/>
<path d="M43.3 181.4C43.2 181.5 43 181.6 42.8 181.5L29.5 179.7C29.1 179.6 28.8 179.3 28.9 178.9C29 178.5 29.3 178.2 29.7 178.3L43 180.1C43.4 180.2 43.7 180.5 43.6 180.9C43.6 181.1 43.5 181.3 43.3 181.4Z" fill="#474747"/>
<path d="M43.1521 151.562L9.84814 143.778L6.84383 156.632L40.1478 164.416L43.1521 151.562Z" fill="#92C1FF"/>
<path d="M16.3999 149.7C15.2999 149.5 14.3999 150 14.0999 151.1C13.7999 152.2 14.3999 153.1 15.4999 153.4C16.4999 153.6 17.2999 153.2 17.5999 152.5L16.0999 152.2L16.2999 151.3L18.9999 151.9C18.8999 152.3 18.7999 152.7 18.6999 153C18.1999 154.2 16.8999 154.9 15.2999 154.5C13.4999 154.1 12.4999 152.6 12.8999 150.9C13.2999 149.2 14.8999 148.3 16.5999 148.7C17.4999 148.9 18.2999 149.4 18.5999 150.1L17.5999 150.7C17.4999 150.2 16.9999 149.8 16.3999 149.7Z" fill="#474747"/>
<path d="M21.5999 151.9C22.6999 152.2 23.4999 153.1 23.1999 154.3C22.8999 155.4 21.8999 156 20.6999 155.7C19.5999 155.4 18.7999 154.5 19.0999 153.3C19.3999 152.1 20.4999 151.6 21.5999 151.9ZM22.0999 154C22.1999 153.5 21.8999 153 21.3999 152.9C20.8999 152.8 20.3999 153.1 20.2999 153.6C20.1999 154.1 20.4999 154.6 20.9999 154.7C21.4999 154.8 21.9999 154.5 22.0999 154Z" fill="#474747"/>
<path d="M26.1999 153C27.2999 153.3 28.0999 154.2 27.7999 155.4C27.4999 156.6 26.4999 157.1 25.2999 156.8C24.1999 156.5 23.3999 155.6 23.6999 154.4C23.8999 153.2 24.9999 152.7 26.1999 153ZM26.5999 155.1C26.6999 154.6 26.3999 154.1 25.8999 154C25.3999 153.9 24.8999 154.2 24.7999 154.7C24.6999 155.2 24.9999 155.7 25.4999 155.8C25.9999 155.9 26.4999 155.6 26.5999 155.1Z" fill="#474747"/>
<path d="M30.4999 154C30.9999 154.1 31.2999 154.4 31.4999 154.7L32.0999 152.3L33.1999 152.5L31.8999 158.1L30.7999 157.9L30.8999 157.6C30.5999 157.8 30.1999 157.9 29.6999 157.8C28.6999 157.6 27.9999 156.6 28.2999 155.5C28.3999 154.3 29.4999 153.7 30.4999 154ZM31.0999 156.1C31.1999 155.6 30.8999 155.1 30.3999 155C29.8999 154.9 29.3999 155.2 29.2999 155.7C29.1999 156.2 29.4999 156.7 29.9999 156.8C30.4999 156.9 30.9999 156.6 31.0999 156.1Z" fill="#474747"/>
<path d="M34.2 154.7C34.6 154.8 34.7999 155.2 34.7999 155.6C34.6999 156 34.3 156.2 33.9 156.1C33.5 156 33.2999 155.6 33.2999 155.2C33.2999 154.8 33.8 154.6 34.2 154.7ZM33.5999 157.2C33.9999 157.3 34.2 157.7 34.2 158.1C34.1 158.5 33.6999 158.7 33.2999 158.6C32.8999 158.5 32.7 158.1 32.7 157.7C32.8 157.3 33.1999 157.1 33.5999 157.2Z" fill="#474747"/>
<path d="M35.2999 160.3L34.2 160.1C35 159.4 35.7999 158.1 36.0999 156.7C36.3999 155.3 36.3 153.8 35.9 152.8L37 153C37.5 154.1 37.5999 155.4 37.2999 156.9C36.8999 158.4 36.1999 159.6 35.2999 160.3Z" fill="#474747"/>
</svg>
