<svg width="168" height="225" viewBox="0 0 168 225" fill="none" xmlns="http://www.w3.org/2000/svg">
<path d="M154 0H14C6.26801 0 0 6.26802 0 14V211C0 218.732 6.26801 225 14 225H154C161.732 225 168 218.732 168 211V14C168 6.26801 161.732 0 154 0Z" fill="#FF911A"/>
<path d="M34.2001 129.9C46.9579 129.9 57.3001 119.558 57.3001 106.8C57.3001 94.0422 46.9579 83.7 34.2001 83.7C21.4423 83.7 11.1001 94.0422 11.1001 106.8C11.1001 119.558 21.4423 129.9 34.2001 129.9Z" fill="white"/>
<path d="M34.2001 132.8C25.2001 132.8 16.4001 128.1 11.6001 119.8C8.10005 113.8 7.20005 106.8 9.00005 100C10.8001 93.3 15.1001 87.7 21.1001 84.2C33.5001 77 49.5001 81.3 56.7001 93.7C60.2001 99.7 61.1001 106.7 59.3001 113.5C57.5001 120.2 53.2001 125.8 47.2001 129.3C43.1001 131.7 38.6001 132.8 34.2001 132.8ZM34.1 86.6C30.7001 86.6 27.2001 87.5 24.0001 89.3C19.3001 92 16.0001 96.4 14.6001 101.6C13.2001 106.8 13.9001 112.3 16.6001 117C22.2001 126.7 34.6001 130 44.2001 124.4C53.9001 118.8 57.2001 106.4 51.6001 96.8C48.0001 90.2 41.1001 86.6 34.1 86.6Z" fill="white"/>
<path opacity="0.3" d="M34.2001 129.9C46.9579 129.9 57.3001 119.558 57.3001 106.8C57.3001 94.0422 46.9579 83.7 34.2001 83.7C21.4423 83.7 11.1001 94.0422 11.1001 106.8C11.1001 119.558 21.4423 129.9 34.2001 129.9Z" fill="#F6CD46"/>
<path opacity="0.4" d="M34.2001 125.2C44.3621 125.2 52.6 116.962 52.6 106.8C52.6 96.6379 44.3621 88.3999 34.2001 88.3999C24.038 88.3999 15.8 96.6379 15.8 106.8C15.8 116.962 24.038 125.2 34.2001 125.2Z" fill="#F6CD46"/>
<path d="M34.2001 122.9C43.0919 122.9 50.3001 115.692 50.3001 106.8C50.3001 97.9082 43.0919 90.7 34.2001 90.7C25.3083 90.7 18.1001 97.9082 18.1001 106.8C18.1001 115.692 25.3083 122.9 34.2001 122.9Z" fill="#F6CD46"/>
<path d="M42.6001 121.3C34.6001 125.9 24.3001 123.2 19.6001 115.1C14.9001 107 17.7001 96.7999 25.8001 92.0999C33.9001 87.3999 44.1001 90.1999 48.8001 98.2999C53.5001 106.4 50.6001 116.7 42.6001 121.3ZM26.5001 93.3999C19.1001 97.6999 16.6001 107.1 20.9001 114.5C25.2001 121.9 34.6001 124.4 42.0001 120.1C49.4001 115.8 51.9001 106.4 47.6001 98.9999C43.3001 91.6999 33.8001 89.1999 26.5001 93.3999Z" fill="#474747"/>
<path d="M29.5 105C29.8314 105 30.1 104.731 30.1 104.4C30.1 104.069 29.8314 103.8 29.5 103.8C29.1687 103.8 28.9 104.069 28.9 104.4C28.9 104.731 29.1687 105 29.5 105Z" fill="#474747"/>
<path d="M34.5 102.2C34.8314 102.2 35.1 101.931 35.1 101.6C35.1 101.269 34.8314 101 34.5 101C34.1687 101 33.9 101.269 33.9 101.6C33.9 101.931 34.1687 102.2 34.5 102.2Z" fill="#474747"/>
<path d="M36.5 110.6C35.1 111.4 33.3 111 32.6 109.6L30.8 106.6L35.8 103.7L37.6 106.7C38.3 108.1 37.8 109.8 36.5 110.6Z" fill="white"/>
<path d="M36.7 111.1C35.1 112 33 111.5 32.1 109.9L30.4 106.9C30.3 106.6 30.3 106.3 30.6 106.2L35.6 103.3C35.9 103.2 36.2 103.2 36.3 103.5L38 106.5C38.8 108.1 38.3 110.1 36.7 111.1ZM31.5 106.8L33 109.3C33.6 110.4 35.1 110.8 36.2 110.2C37.3 109.6 37.7 108.1 37.1 107L35.6 104.5L31.5 106.8Z" fill="#474747"/>
<path d="M55.4615 179.448L16.6923 165.51L12.2944 177.743L51.0636 191.681L55.4615 179.448Z" fill="#1E95FF"/>
<path d="M24.3 172.6C23 172.1 21.8 172.7 21.3 174C20.8 175.3 21.4 176.6 22.7 177C23.8 177.4 24.9 177.1 25.4 176.2L23.6 175.6L24 174.5L27.2 175.7C27.1 176.1 26.9 176.6 26.7 177C25.9 178.4 24.2 179.1 22.3 178.4C20.2 177.6 19.1 175.7 19.9 173.6C20.7 171.5 22.7 170.7 24.8 171.4C25.9 171.8 26.8 172.6 27.1 173.4L25.8 174C25.5 173.3 25 172.8 24.3 172.6Z" fill="#474747"/>
<path d="M26.6 179.7L28.2 175.4L29.5 175.9L29.3 176.4C29.7 176.1 30.1 176 30.6 176.1C31.1 176.3 31.5 176.6 31.7 177L30.5 177.7C30.4 177.5 30.2 177.3 30 177.2C29.5 177 28.9 177.3 28.7 178.1L28 180.1L26.6 179.7Z" fill="#474747"/>
<path d="M33.3 181L33.9 181.2L33.5 182.3L32.9 182.1C31.2 181.5 30.5 180.2 31 178.8C31.5 177.4 32.9 176.9 34.2 177.4C35.6 177.9 36.1 179.1 35.9 180.1C35.8 180.4 35.7 180.8 35.6 181L32.3 179.8C32.2 180.4 32.6 180.7 33.3 181ZM32.5 178.9L34.5 179.6C34.5 179.2 34.3 178.7 33.7 178.5C33.3 178.4 32.8 178.5 32.5 178.9Z" fill="#474747"/>
<path d="M39.2 179.3C39.8 179.5 40.1 179.9 40.3 180.3L40.4 179.9L41.7 180.4L40.1 184.7L38.8 184.2L38.9 183.8C38.5 184 38 184.1 37.4 183.9C36.2 183.5 35.5 182.2 36 180.8C36.6 179.4 38 178.8 39.2 179.3ZM39.7 182C39.9 181.4 39.6 180.7 39 180.5C38.4 180.3 37.7 180.6 37.5 181.2C37.3 181.8 37.6 182.5 38.2 182.7C38.8 182.9 39.5 182.6 39.7 182Z" fill="#474747"/>
<path d="M45.1 182.8L44.2001 182.5L43.1 185.6L41.8 185.1L42.9001 182L42 181.7L42.4001 180.5L43.3 180.8L43.9001 179.2L45.2001 179.7L44.6 181.3L45.5 181.6L45.1 182.8Z" fill="#474747"/>
<path d="M46.1 184.9C46.6 185.1 46.8 185.6 46.7 186.1C46.5 186.6 46 186.8 45.5 186.6C45 186.4 44.8 185.9 44.9 185.4C45.2 185 45.7 184.8 46.1 184.9ZM45.7 184L47.3 179.5L48.7 180L47.1 184.5L45.7 184Z" fill="#474747"/>
<path d="M25.8999 159.8L23.9999 156.9L22.1999 159.8L19.2999 161.7L22.1999 163.6L23.9999 166.4L25.8999 163.6L28.7999 161.7L25.8999 159.8Z" fill="white"/>
<path d="M23.9999 156.9L25.8999 159.8L28.7999 161.7L25.8999 163.6L23.9999 166.5L22.0999 163.6L19.1999 161.7L22.0999 159.8L23.9999 156.9ZM23.9999 154.6C23.1999 154.6 22.4999 155 22.0999 155.7L20.4999 158.2L17.9999 159.8C17.2999 160.2 16.8999 161 16.8999 161.7C16.8999 162.5 17.2999 163.2 17.9999 163.6L20.4999 165.2L22.0999 167.7C22.4999 168.4 23.2999 168.8 23.9999 168.8C24.7999 168.8 25.4999 168.4 25.8999 167.7L27.4999 165.2L29.9999 163.6C30.6999 163.2 31.0999 162.4 31.0999 161.7C31.0999 160.9 30.6999 160.2 29.9999 159.8L27.4999 158.2L25.8999 155.7C25.4999 155 24.7999 154.6 23.9999 154.6Z" fill="white"/>
<path d="M24 167.2C23.8 167.2 23.5 167.1 23.4 166.9L21.6 164.2L18.9 162.4C18.7 162.3 18.6 162 18.6 161.8C18.6 161.6 18.7 161.3 18.9 161.2L21.6 159.4L23.4 156.7C23.7 156.3 24.3 156.3 24.6 156.7L26.4 159.4L29.1 161.2C29.3 161.3 29.4 161.6 29.4 161.8C29.4 162 29.3 162.3 29.1 162.4L26.4 164.2L24.6 166.9C24.5 167 24.3 167.2 24 167.2ZM20.6 161.7L22.5 163C22.6 163.1 22.7 163.1 22.7 163.2L24 165.1L25.3 163.2C25.4 163.1 25.4 163 25.5 163L27.4 161.7L25.5 160.4C25.4 160.3 25.3 160.3 25.3 160.2L24 158.3L22.7 160.2C22.6 160.3 22.6 160.4 22.5 160.4L20.6 161.7Z" fill="#474747"/>
<path d="M24 156.2C24.2 156.2 24.5 156.3 24.6 156.5L26.4 159.2L29.1 161C29.3 161.1 29.4 161.4 29.4 161.6C29.4 161.8 29.3 162.1 29.1 162.2L26.4 164L24.6 166.7C24.5 166.9 24.2 167 24 167C23.8 167 23.4999 166.9 23.4 166.7L21.6 164L18.9 162.2C18.6999 162.1 18.6 161.8 18.6 161.6C18.6 161.4 18.6999 161.1 18.9 161L21.6 159.2L23.4 156.5C23.5999 156.3 23.8 156.2 24 156.2ZM24 165.1L25.2999 163.2C25.4 163.1 25.4 163 25.5 163L27.4 161.7L25.5 160.4C25.4 160.3 25.2999 160.3 25.2999 160.2L24 158.3L22.7 160.2C22.6 160.3 22.6 160.4 22.5 160.4L20.6 161.7L22.5 163C22.6 163.1 22.7 163.1 22.7 163.2L24 165.1ZM24 153.9C23 153.9 21.9999 154.4 21.4 155.3L19.9 157.6L17.6 159.1C16.7 159.7 16.2 160.6 16.2 161.7C16.2 162.7 16.7 163.7 17.6 164.3L19.9 165.8L21.4 168.1C21.9999 169 22.9 169.5 24 169.5C25.1 169.5 26 169 26.6 168.1L28.1 165.8L30.4 164.3C31.2999 163.7 31.7999 162.8 31.7999 161.7C31.7999 160.6 31.2999 159.7 30.4 159.1L28.1 157.6L26.6 155.3C26 154.4 25.1 153.9 24 153.9Z" fill="white"/>
<path d="M21.6001 149.4L19.5001 146.1L17.3001 149.4L14.0001 151.5L17.3001 153.7L19.5001 157L21.6001 153.7L24.9001 151.5L21.6001 149.4Z" fill="white"/>
<path d="M19.5001 146.1L21.7001 149.4L25.0001 151.6L21.7001 153.8L19.5001 157.1L17.3001 153.8L14.0001 151.6L17.3001 149.4L19.5001 146.1ZM19.5001 143.7C18.7001 143.7 18.0001 144.1 17.6001 144.8L15.7001 147.7L12.8001 149.6C12.1001 150 11.7001 150.8 11.7001 151.5C11.7001 152.3 12.1001 153 12.8001 153.4L15.7001 155.3L17.6001 158.2C18.0001 158.9 18.8001 159.3 19.5001 159.3C20.3001 159.3 21.0001 158.9 21.4001 158.2L23.3001 155.3L26.2001 153.4C26.9001 153 27.3001 152.2 27.3001 151.5C27.3001 150.7 26.9001 150 26.2001 149.6L23.3001 147.7L21.4001 144.8C21.0001 144.1 20.2001 143.7 19.5001 143.7Z" fill="white"/>
<path d="M19.5 157.7C19.3 157.7 19 157.6 18.9 157.4L16.8 154.2L13.6 152.1C13.4 152 13.3 151.7 13.3 151.5C13.3 151.3 13.4 151 13.6 150.9L16.8 148.8L18.9 145.6C19.2 145.2 19.8 145.2 20.1 145.6L22.2 148.8L25.4 150.9C25.6 151 25.7 151.3 25.7 151.5C25.7 151.7 25.6 152 25.4 152.1L22.2 154.2L20.1 157.4C19.9 157.6 19.7 157.7 19.5 157.7ZM15.3 151.5L17.7 153C17.8 153.1 17.9 153.1 17.9 153.2L19.4 155.6L20.9 153.2C21 153.1 21 153 21.1 153L23.5 151.5L21.1 150C21 149.9 20.9 149.9 20.9 149.8L19.4 147.4L17.9 149.8C17.8 149.9 17.8 150 17.7 150L15.3 151.5Z" fill="#474747"/>
<path d="M19.5 145.4C19.7 145.4 20 145.5 20.1 145.7L22.2 148.9L25.4 151C25.6 151.1 25.7 151.4 25.7 151.6C25.7 151.8 25.6 152.1 25.4 152.2L22.2 154.3L20.1 157.5C20 157.7 19.7 157.8 19.5 157.8C19.3 157.8 19 157.7 18.9 157.5L16.8 154.3L13.6 152.2C13.4 152.1 13.3 151.8 13.3 151.6C13.3 151.4 13.4 151.1 13.6 151L16.8 148.9L18.9 145.7C19 145.5 19.2 145.4 19.5 145.4ZM19.5 155.6L21 153.2C21.1 153.1 21.1 153 21.2 153L23.6 151.5L21.2 150C21.1 149.9 21 149.9 21 149.8L19.5 147.4L18 149.8C17.9 149.9 17.9 150 17.8 150L15.4 151.5L17.8 153C17.9 153.1 18 153.1 18 153.2L19.5 155.6ZM19.5 143C18.5 143 17.5 143.5 16.9 144.4L15.1 147.2L12.3 149C11.4 149.6 10.9 150.5 10.9 151.6C10.9 152.6 11.4 153.6 12.3 154.2L15.1 156L16.9 158.8C17.5 159.7 18.4 160.2 19.5 160.2C20.5 160.2 21.5 159.7 22.1 158.8L23.9 156L26.7 154.2C27.6 153.6 28.1 152.7 28.1 151.6C28.1 150.6 27.6 149.6 26.7 149L23.9 147.2L22.1 144.4C21.5 143.5 20.5 143 19.5 143Z" fill="white"/>
<path d="M104.1 100.5L104 100.2C102.4 95.9 104.6 91.2 108.9 89.7L116.9 86.8L119.8 94.8C121.4 99.1 119.2 103.8 114.9 105.3L114.6 105.4C110.3 106.9 105.6 104.7 104.1 100.5Z" fill="#EB794E"/>
<path d="M111.9 107.6C110.4 107.6 109 107.3 107.6 106.7C105.2 105.6 103.3 103.5 102.4 101C100.5 95.8 103.2 89.9 108.4 88L117.9 84.5L121.4 94C122.3 96.5 122.2 99.3 121.1 101.7C120 104.1 117.9 106 115.4 106.9C114.2 107.4 113 107.6 111.9 107.6ZM115.8 89L109.6 91.3C107.9 91.9 106.6 93.1 105.9 94.7C105.2 96.3 105.1 98.1 105.7 99.8C107 103.2 110.8 105 114.2 103.7C117.6 102.4 119.4 98.6 118.1 95.2L115.8 89Z" fill="white"/>
<path d="M108 105.7C105.9 104.7 104.2 102.9 103.3 100.6C101.6 95.9 104 90.7 108.7 88.9L116.6 86C117 85.9 117.4 86.1 117.5 86.4L120.4 94.3C122.1 99 119.7 104.2 115 106C112.6 106.9 110.1 106.7 108 105.7ZM116.4 87.7L109.2 90.3C107.3 91 105.8 92.4 104.9 94.3C104 96.2 104 98.2 104.7 100.1C105.4 102 106.8 103.5 108.7 104.4C110.5 105.3 112.6 105.3 114.5 104.6C116.4 103.9 117.9 102.5 118.8 100.6C119.7 98.8 119.7 96.7 119 94.8L116.4 87.7Z" fill="#474747"/>
<path d="M111.9 108.3C110.3 108.3 108.8 108 107.3 107.3C104.7 106.1 102.7 103.9 101.7 101.2C100.7 98.5 100.8 95.5 102.1 92.9C103.3 90.3 105.5 88.3 108.2 87.3L116.1 84.4C116.7 84.2 117.4 84.2 118 84.5C118.6 84.8 119.1 85.3 119.3 85.9L122.2 93.8C123.2 96.5 123.1 99.5 121.8 102.1C120.6 104.7 118.4 106.7 115.7 107.7C114.4 108.1 113.1 108.3 111.9 108.3ZM115.4 89.9L109.9 91.9C108.4 92.4 107.2 93.5 106.6 95C105.9 96.4 105.9 98 106.4 99.5C106.9 101 108 102.2 109.5 102.8C110.9 103.5 112.5 103.5 114 103C115.5 102.5 116.7 101.4 117.3 99.9C118 98.5 118 96.9 117.5 95.4L115.4 89.9Z" fill="white"/>
<path d="M106.4 103L106.3 102.9C105.6 101 106.6 98.8 108.5 98.1L112.2 96.8L113.5 100.5C114.2 102.4 113.2 104.6 111.3 105.3L111.2 105.4C109.2 105.9 107.1 104.9 106.4 103Z" fill="#F8CF00"/>
<path d="M109.9 107.2C109.1 107.2 108.3 107 107.6 106.7C106.3 106.1 105.2 105 104.7 103.6C104.2 102.2 104.3 100.7 104.9 99.3C105.5 98 106.6 96.9 108 96.4L113.2 94.5L115.1 99.7C115.6 101.1 115.5 102.6 114.9 104C114.3 105.3 113.2 106.4 111.8 106.9C111.2 107 110.6 107.2 109.9 107.2ZM111.2 98.9L109.2 99.6C108.7 99.8 108.3 100.2 108 100.7C107.8 101.2 107.7 101.8 107.9 102.3C108.1 102.8 108.5 103.2 109 103.5C109.5 103.7 110.1 103.8 110.6 103.6C111.1 103.4 111.5 103 111.8 102.5C112 102 112.1 101.4 111.9 100.9L111.2 98.9Z" fill="white"/>
<path d="M108 105.7C106.9 105.2 106.1 104.3 105.6 103.1C104.7 100.7 106 98.1 108.3 97.3L112 96C112.4 95.9 112.8 96.1 112.9 96.4L114.2 100C115.1 102.4 113.8 105 111.5 105.8C110.3 106.3 109.1 106.2 108 105.7ZM107 102.6C107.6 104.2 109.4 105 111 104.4C112.6 103.8 113.4 102 112.8 100.4L111.7 97.5L108.8 98.6C107.3 99.3 106.4 101 107 102.6Z" fill="#474747"/>
<path d="M109.9 107.9C109 107.9 108.1 107.7 107.2 107.3C105.7 106.6 104.5 105.3 103.9 103.8C102.7 100.5 104.4 96.9 107.7 95.7L111.3 94.4C111.9 94.2 112.6 94.2 113.2 94.5C113.8 94.8 114.3 95.3 114.5 95.9L115.8 99.5C117 102.8 115.3 106.4 112 107.6C111.4 107.8 110.7 107.9 109.9 107.9ZM108.7 102C109 102.7 109.7 103.1 110.4 102.8C111.1 102.5 111.5 101.8 111.2 101.1L110.7 99.8L109.4 100.3C108.8 100.6 108.4 101.3 108.7 102Z" fill="white"/>
<path d="M104.1 100.5L104 100.2C102.4 95.9 104.6 91.2 108.9 89.7L116.9 86.8L119.8 94.8C121.4 99.1 119.2 103.8 114.9 105.3L114.6 105.4C110.3 106.9 105.6 104.7 104.1 100.5Z" fill="#FF911A"/>
<path d="M108 105.7C105.9 104.7 104.2 102.9 103.3 100.6C101.6 95.9 104 90.7 108.7 88.9L116.6 86C117 85.9 117.4 86.1 117.5 86.4L120.4 94.3C122.1 99 119.7 104.2 115 106C112.6 106.9 110.1 106.7 108 105.7ZM116.4 87.7L109.2 90.3C107.3 91 105.8 92.4 104.9 94.3C104 96.2 104 98.2 104.7 100.1C105.4 102 106.8 103.5 108.7 104.4C110.5 105.3 112.6 105.3 114.5 104.6C116.4 103.9 117.9 102.5 118.8 100.6C119.7 98.8 119.7 96.7 119 94.8L116.4 87.7Z" fill="#474747"/>
<path d="M106.4 103L106.3 102.9C105.6 101 106.6 98.8 108.5 98.1L112.2 96.8L113.5 100.5C114.2 102.4 113.2 104.6 111.3 105.3L111.2 105.4C109.2 105.9 107.1 104.9 106.4 103Z" fill="#F8CF00"/>
<path d="M108 105.7C106.9 105.2 106.1 104.3 105.6 103.1C104.7 100.7 106 98.1 108.3 97.3L112 96C112.4 95.9 112.8 96.1 112.9 96.4L114.2 100C115.1 102.4 113.8 105 111.5 105.8C110.3 106.3 109.1 106.2 108 105.7ZM107 102.6C107.6 104.2 109.4 105 111 104.4C112.6 103.8 113.4 102 112.8 100.4L111.7 97.5L108.8 98.6C107.3 99.3 106.4 101 107 102.6Z" fill="#474747"/>
</svg>
