<svg width="168" height="226" viewBox="0 0 168 226" fill="none" xmlns="http://www.w3.org/2000/svg">
<g clip-path="url(#clip0)">
<path d="M154 0H14C6.26801 0 0 6.268 0 14V211.7C0 219.432 6.26801 225.7 14 225.7H154C161.732 225.7 168 219.432 168 211.7V14C168 6.26801 161.732 0 154 0Z" fill="#7A7D95"/>
<path d="M127 80.4001L127.4 80.5001C130.3 81.6001 131.7 84.8001 130.6 87.7001L128.4 93.3001L122.8 91.1001C119.9 90.0001 118.5 86.8001 119.6 83.9001L119.7 83.5001C120.9 80.7001 124.1 79.3001 127 80.4001Z" fill="#8CBDF2"/>
<path d="M129.3 95.6001L122.3 92.9001C120.4 92.2001 119 90.8001 118.1 88.9001C117.3 87.1001 117.2 85.0001 118 83.2001C118.7 81.3001 120.1 79.9001 122 79.0001C123.8 78.2001 125.9 78.1001 127.7 78.9001C129.6 79.6001 131 81.0001 131.9 82.9001C132.8 84.8001 132.8 86.8001 132 88.6001L129.3 95.6001ZM125 81.8001C124.4 81.8001 123.9 81.9001 123.4 82.1001C122.4 82.5001 121.7 83.3001 121.3 84.3001C120.5 86.4001 121.5 88.7001 123.6 89.5001L127.3 91.0001L128.8 87.3001C129.2 86.3001 129.2 85.2001 128.7 84.2001C128.3 83.2001 127.5 82.5001 126.5 82.1001C126 81.9001 125.5 81.8001 125 81.8001Z" fill="white"/>
<path d="M128.4 93.8001C128.3 93.8001 128.3 93.8001 128.2 93.8001L122.8 91.7001C121.2 91.1001 120 89.9001 119.3 88.4001C118.6 86.9001 118.6 85.2001 119.2 83.6001C119.8 82.0001 121 80.8001 122.5 80.1001C124 79.4001 125.7 79.4001 127.3 80.0001C130.5 81.2001 132.1 84.9001 130.9 88.1001L128.8 93.5001C128.7 93.7001 128.6 93.8001 128.4 93.8001ZM124.7 80.6001C124.1 80.6001 123.5 80.8001 122.9 81.0001C121.6 81.6001 120.6 82.6001 120.1 83.9001C119.6 85.2001 119.6 86.6001 120.2 87.9001C120.8 89.2001 121.8 90.2001 123.1 90.7001L128 92.6001L129.9 87.7001C130.9 85.0001 129.6 81.9001 126.9 80.9001C126.2 80.6001 125.5 80.5001 124.7 80.6001Z" fill="#474747"/>
<path d="M128.3 95.5001C128 95.5001 127.7 95.4001 127.5 95.3001L122.1 93.2001C120.1 92.4001 118.5 90.9001 117.7 89.0001C116.8 87.0001 116.8 84.9001 117.6 82.9001C118.4 80.9001 119.9 79.3001 121.8 78.5001C123.8 77.6001 125.9 77.6001 127.9 78.4001C129.9 79.2001 131.5 80.7001 132.3 82.6001C133.2 84.6001 133.2 86.7001 132.4 88.7001L130.3 94.1001C130 94.9001 129.2 95.5001 128.3 95.5001C128.4 95.5001 128.4 95.5001 128.3 95.5001ZM124.8 82.3001C124.4 82.3001 124 82.4001 123.6 82.6001C122.7 83.0001 122.1 83.7001 121.7 84.5001C121.4 85.4001 121.4 86.3001 121.8 87.2001C122.2 88.1001 122.9 88.7001 123.7 89.1001L127 90.4001L128.3 87.1001C128.6 86.2001 128.6 85.3001 128.2 84.4001C127.8 83.5001 127.1 82.9001 126.3 82.5001C125.8 82.4001 125.3 82.3001 124.8 82.3001Z" fill="white"/>
<path d="M141 89.4V89.7C140.7 91.8 138.7 93.2 136.6 92.9L132.6 92.3L133.2 88.3C133.5 86.2 135.5 84.8 137.6 85.1H137.9C139.9 85.4 141.3 87.3 141 89.4Z" fill="#8CBDF2"/>
<path d="M137.1 94.6C136.8 94.6 136.5 94.6 136.2 94.5L130.6 93.6L131.5 88C131.7 86.5 132.6 85.2 133.8 84.3C135 83.4 136.5 83 138 83.3C139.5 83.5 140.8 84.4 141.7 85.6C142.6 86.8 143 88.3 142.7 89.8C142.5 91.3 141.6 92.6 140.4 93.5C139.4 94.2 138.3 94.6 137.1 94.6ZM134.5 90.8L136.7 91.1C137.3 91.2 137.9 91.1 138.4 90.7C138.9 90.4 139.2 89.8 139.3 89.3C139.4 88.7 139.3 88.1 138.9 87.6C138.6 87.1 138 86.8 137.5 86.7C136.9 86.6 136.3 86.7 135.8 87.1C135.3 87.4 135 88 134.9 88.5L134.5 90.8Z" fill="white"/>
<path d="M138.5 93.1C137.8 93.3 137.1 93.4 136.4 93.3L132.5 92.7C132.4 92.7 132.3 92.6 132.2 92.5C132.1 92.4 132.1 92.3 132.1 92.1L132.7 88.2C132.9 87 133.5 86 134.5 85.3C135.5 84.6 136.6 84.3 137.8 84.5C139 84.7 140 85.3 140.7 86.3C141.4 87.3 141.7 88.4 141.5 89.6C141.3 90.8 140.7 91.8 139.7 92.5C139.3 92.8 138.9 93 138.5 93.1ZM133.1 91.8L136.5 92.3C137.4 92.4 138.3 92.2 139.1 91.7C139.8 91.2 140.3 90.4 140.5 89.4C140.6 88.5 140.4 87.6 139.9 86.8C139.4 86.1 138.6 85.6 137.6 85.4C136.7 85.3 135.8 85.5 135 86C134.3 86.5 133.8 87.3 133.6 88.3L133.1 91.8Z" fill="#474747"/>
<path d="M137.1 95.1001C136.8 95.1001 136.4 95.1001 136.1 95.0001L132.2 94.4001C131.6 94.3001 131.1 94.0001 130.7 93.5001C130.3 93.0001 130.2 92.4001 130.3 91.8001L130.9 87.9001C131.2 86.3001 132 84.8001 133.4 83.9001C134.7 82.9001 136.4 82.5001 138 82.8001C139.6 83.1001 141.1 83.9001 142 85.3001C143 86.6001 143.4 88.3001 143.1 89.9001C142.8 91.5001 142 93.0001 140.6 93.9001C140.1 94.3001 139.5 94.6001 138.9 94.8001C138.4 95.0001 137.7 95.1001 137.1 95.1001ZM135.1 90.3001L136.8 90.6001C137.3 90.7001 137.7 90.6001 138.1 90.3001C138.5 90.0001 138.7 89.6001 138.8 89.2001C138.9 88.7001 138.8 88.3001 138.5 87.9001C138.2 87.5001 137.8 87.3001 137.4 87.2001C136.9 87.1001 136.5 87.2001 136.1 87.5001C135.7 87.8001 135.5 88.2001 135.4 88.6001L135.1 90.3001Z" fill="white"/>
<path d="M127 80.4001L127.4 80.5001C130.3 81.6001 131.7 84.8001 130.6 87.7001L128.4 93.3001L122.8 91.1001C119.9 90.0001 118.5 86.8001 119.6 83.9001L119.7 83.5001C120.9 80.7001 124.1 79.3001 127 80.4001Z" fill="#8CBDF2"/>
<path d="M128.4 93.8001C128.3 93.8001 128.3 93.8001 128.2 93.8001L122.8 91.7001C121.2 91.1001 120 89.9001 119.3 88.4001C118.6 86.9001 118.6 85.2001 119.2 83.6001C119.8 82.0001 121 80.8001 122.5 80.1001C124 79.4001 125.7 79.4001 127.3 80.0001C130.5 81.2001 132.1 84.9001 130.9 88.1001L128.8 93.5001C128.7 93.7001 128.6 93.8001 128.4 93.8001ZM124.7 80.6001C124.1 80.6001 123.5 80.8001 122.9 81.0001C121.6 81.6001 120.6 82.6001 120.1 83.9001C119.6 85.2001 119.6 86.6001 120.2 87.9001C120.8 89.2001 121.8 90.2001 123.1 90.7001L128 92.6001L129.9 87.7001C130.9 85.0001 129.6 81.9001 126.9 80.9001C126.2 80.6001 125.5 80.5001 124.7 80.6001Z" fill="#474747"/>
<path d="M141 89.4V89.7C140.7 91.8 138.7 93.2 136.6 92.9L132.6 92.3L133.2 88.3C133.5 86.2 135.5 84.8 137.6 85.1H137.9C139.9 85.4 141.3 87.3 141 89.4Z" fill="#8CBDF2"/>
<path d="M138.5 93.1C137.8 93.3 137.1 93.4 136.4 93.3L132.5 92.7C132.4 92.7 132.3 92.6 132.2 92.5C132.1 92.4 132.1 92.3 132.1 92.1L132.7 88.2C132.9 87 133.5 86 134.5 85.3C135.5 84.6 136.6 84.3 137.8 84.5C139 84.7 140 85.3 140.7 86.3C141.4 87.3 141.7 88.4 141.5 89.6C141.3 90.8 140.7 91.8 139.7 92.5C139.3 92.8 138.9 93 138.5 93.1ZM133.1 91.8L136.5 92.3C137.4 92.4 138.3 92.2 139.1 91.7C139.8 91.2 140.3 90.4 140.5 89.4C140.6 88.5 140.4 87.6 139.9 86.8C139.4 86.1 138.6 85.6 137.6 85.4C136.7 85.3 135.8 85.5 135 86C134.3 86.5 133.8 87.3 133.6 88.3L133.1 91.8Z" fill="#474747"/>
<path d="M34.3981 137.855C36.5719 134.008 31.0062 126.749 21.9668 121.641C12.9274 116.532 3.83733 115.509 1.66354 119.356C-0.510254 123.202 5.05542 130.462 14.0948 135.57C23.1342 140.679 32.2243 141.702 34.3981 137.855Z" fill="#FF911A"/>
<path d="M7.59995 125.2L6.69995 124.7L9.09995 120.4L11.7 121.9L11.3 122.7L9.59995 121.7L8.99995 122.7L10.5 123.6L10.1 124.4L8.59995 123.5L7.59995 125.2Z" fill="#474747"/>
<path d="M12.7 122.4C13 122.6 13.1 122.9 13 123.3C12.9 123.7 12.5 123.7 12.1 123.5C11.8 123.3 11.7 123 11.8 122.6C12.1 122.3 12.4 122.3 12.7 122.4ZM10.7 127L9.80005 126.5L11.4 123.8L12.3 124.3L10.7 127Z" fill="#474747"/>
<path d="M12.3 128.8C12.8 129.1 13.3 129 13.6 128.5L13.8 128.2C13.5 128.3 13.1 128.3 12.8 128.1C12 127.7 11.7 126.7 12.2 125.9C12.7 125.1 13.7 124.8 14.4 125.3C14.8 125.5 14.9 125.8 15 126.1L15.1 125.8L15.9 126.3L14.4 129C13.9 129.9 12.9 130.1 11.9 129.6L11.5 129.4L11.9 128.6L12.3 128.8ZM14.3 127.2C14.5 126.8 14.4 126.3 14 126.1C13.6 125.9 13.1 126 12.9 126.4C12.7 126.8 12.8 127.3 13.2 127.5C13.6 127.7 14.1 127.6 14.3 127.2Z" fill="#474747"/>
<path d="M17.4999 128.1C17.1999 127.9 16.8999 128 16.7999 128.3L15.8999 129.9L15.0999 129.4L17.4999 125.1L18.2999 125.6L17.2999 127.4C17.5999 127.3 17.8999 127.3 18.1999 127.4C18.8999 127.8 19.0999 128.5 18.6999 129.2L17.7999 130.8L16.9999 130.3L17.8999 128.7C17.7999 128.5 17.7999 128.2 17.4999 128.1Z" fill="#474747"/>
<path d="M21.0999 130.2L20.4999 129.9L19.3999 131.9L18.5999 131.4L19.6999 129.4L19.1999 129.1L19.5999 128.3L20.0999 128.6L20.6999 127.6L21.4999 128.1L20.8999 129.1L21.4999 129.4L21.0999 130.2Z" fill="#474747"/>
<path d="M23.2999 128.4C23.5999 128.6 23.6999 128.9 23.5999 129.3C23.4999 129.7 23.0999 129.7 22.6999 129.5C22.3999 129.3 22.2999 129 22.3999 128.6C22.5999 128.3 22.9999 128.2 23.2999 128.4ZM21.2999 132.9L20.3999 132.4L21.9999 129.7L22.8999 130.2L21.2999 132.9Z" fill="#474747"/>
<path d="M24.4 132C24.1 131.8 23.8 131.9 23.7 132.2L22.8 133.8L22 133.3L23.6 130.6L24.4 131.1L24.2 131.4C24.5 131.3 24.8 131.3 25.1 131.4C25.8 131.8 26 132.5 25.6 133.2L24.7 134.8L23.9 134.3L24.8 132.7C24.8 132.5 24.7 132.2 24.4 132Z" fill="#474747"/>
<path d="M26.1 136.6C26.6 136.9 27.1 136.8 27.4 136.3L27.6 136C27.3001 136.1 26.9 136.1 26.6 135.9C25.8 135.5 25.5 134.5 26 133.7C26.5 132.8 27.5001 132.6 28.2001 133.1C28.6001 133.3 28.7 133.6 28.8 133.9L28.9 133.6L29.7001 134.1L28.2001 136.8C27.7001 137.7 26.7001 137.9 25.7001 137.4L25.3 137.2L25.7001 136.4L26.1 136.6ZM28.1 135C28.3001 134.6 28.2 134.1 27.8 133.9C27.4 133.7 26.9001 133.8 26.7001 134.2C26.5001 134.6 26.6 135.1 27 135.3C27.4 135.5 27.9 135.4 28.1 135Z" fill="#474747"/>
<path d="M36.3 141.4C35.2 142 34.3 142.8 33.6 143.8C29.7 140.9 24.2 140.4 19.7 143C13.9 146.4 11.7 153.7 14.7 159.6C11.5 161.4 10.4 165.5 12.3 168.7C14.1 171.9 18.2 173 21.4 171.1L45.4 157.2C49.8 154.7 51.3 149 48.8 144.6C46.3 140.3 40.7 138.8 36.3 141.4Z" fill="#95AABD"/>
<path d="M18.1 175C14.8 175 11.5 173.3 9.79999 170.2C7.59999 166.4 8.29999 161.7 11.3 158.7C9.09999 151.8 11.9 144.2 18.3 140.5C22.9 137.8 28.5 137.7 33.2 140.1C33.7 139.7 34.3 139.3 34.9 138.9C40.7 135.6 48.1 137.6 51.4 143.3C54.7 149.1 52.7 156.5 47 159.8L23 173.7C21.4 174.6 19.8 175 18.1 175ZM16.1 162.2C15.3 162.7 14.7 163.5 14.5 164.4C14.2 165.4 14.4 166.4 14.9 167.3C15.4 168.2 16.2 168.8 17.2 169.1C18.2 169.4 19.2 169.2 20.1 168.7L44.1 154.8C47.1 153.1 48.1 149.2 46.4 146.2C45.6 144.7 44.2 143.7 42.6 143.3C41 142.9 39.3 143.1 37.8 143.9C37.1 144.3 36.5 144.9 36 145.5L34.3 147.8L32 146.1C28.9 143.8 24.7 143.5 21.3 145.5C16.8 148.1 15.2 153.7 17.5 158.3L18.7 160.6L16.1 162.2Z" fill="white"/>
<path d="M45.7999 157.9L21.7999 171.8C18.2999 173.8 13.6999 172.6 11.6999 169.1C9.79993 165.8 10.7999 161.5 13.8999 159.3C11.0999 153.1 13.4999 145.7 19.3999 142.3C23.7999 139.8 29.2999 139.9 33.4999 142.8C34.1999 142 34.9999 141.3 35.9999 140.8C40.6999 138.1 46.7999 139.7 49.4999 144.4C52.1999 149.1 50.5999 155.2 45.7999 157.9ZM15.0999 160.2C12.1999 161.9 11.1999 165.5 12.8999 168.4C14.5999 171.3 18.1999 172.2 21.0999 170.6L45.0999 156.7C49.1999 154.4 50.5999 149.2 48.1999 145.1C45.8999 141 40.6999 139.6 36.5999 142C35.5999 142.6 34.7999 143.3 34.0999 144.2C33.8999 144.5 33.3999 144.6 33.0999 144.3C29.2999 141.5 24.0999 141.2 19.9999 143.5C14.4999 146.7 12.4999 153.6 15.2999 159.2C15.5999 159.6 15.4999 160 15.0999 160.2Z" fill="#474747"/>
<path d="M18.0999 175.7C17.1999 175.7 16.2999 175.6 15.3999 175.3C12.6999 174.6 10.4999 172.9 9.09994 170.5C6.79994 166.6 7.49993 161.7 10.3999 158.5C8.29993 151.4 11.2999 143.6 17.8999 139.8C22.5999 137.1 28.1999 136.9 32.9999 139.2C33.4999 138.8 33.8999 138.5 34.3999 138.2C37.3999 136.5 40.7999 136 44.0999 136.9C47.3999 137.8 50.1999 139.9 51.8999 142.9C53.5999 145.9 54.0999 149.3 53.1999 152.6C52.2999 155.9 50.1999 158.7 47.1999 160.4L23.1999 174.3C21.6999 175.2 19.8999 175.7 18.0999 175.7ZM16.5999 162.7C15.0999 163.6 14.5999 165.4 15.4999 166.9C15.8999 167.6 16.5999 168.1 17.3999 168.3C18.1999 168.5 18.9999 168.4 19.6999 168L43.6999 154.1C44.9999 153.4 45.8999 152.1 46.2999 150.7C46.6999 149.3 46.4999 147.8 45.6999 146.5C44.1999 143.8 40.6999 142.9 38.0999 144.5C37.4999 144.9 36.8999 145.3 36.4999 145.9C35.2999 147.5 33.0999 147.8 31.4999 146.6C28.5999 144.5 24.6999 144.2 21.5999 146C17.4999 148.4 15.8999 153.6 18.0999 157.9C18.8999 159.4 18.3999 161.3 17.0999 162.4L16.9999 162.5L16.5999 162.7Z" fill="white"/>
<path d="M33.5 182.2C33.3 182.3 33.1001 182.3 32.9001 182.2C32.6001 182.1 32.4 181.7 32.5 181.4L35.7001 169.6L30.9 172.3C30.7 172.4 30.3 172.4 30.1 172.2C29.9 172 29.8 171.7 29.8 171.5L31.7001 164.5C31.7001 164.3 31.9 164.2 32 164.1L38.6 160.3C38.8 160.2 39.2001 160.2 39.4001 160.4C39.6001 160.6 39.7001 160.9 39.7001 161.1L39 163.7L44.6 160.5C44.9 160.3 45.2001 160.4 45.4001 160.6C45.6001 160.8 45.7 161.2 45.5 161.4L33.8 182C33.7 182.1 33.6 182.2 33.5 182.2ZM31.6 170.3L36.4001 167.6C36.6001 167.5 37.0001 167.5 37.2001 167.7C37.4001 167.9 37.5 168.2 37.5 168.4L35.3 176.7L43 163L38.2001 165.8C38.0001 165.9 37.6001 165.9 37.4001 165.7C37.2001 165.5 37.1 165.2 37.1 165L37.8 162.4L32.9001 165.2L31.6 170.3Z" fill="#474747"/>
<path d="M33.1 185.2C32.6 185.2 32.2 185.1 31.7 184.9C30 184.2 29.1 182.4 29.6 180.6L31 175.3C30 175.5 29 175.2 28.2 174.6C27 173.7 26.5 172.2 26.9 170.8L28.8 163.8C29.1 162.9 29.6 162.1 30.5 161.6L37.1 157.8C38.4 157.1 39.9 157.2 41.1 158.1C41.3 158.3 41.5 158.5 41.7 158.7L43 157.9C44.4 157.1 46.2 157.3 47.4 158.5C48.6 159.7 48.8 161.4 48 162.9L36.2 183.4C35.9 184 35.4 184.4 34.9 184.7C34.4 185.1 33.8 185.2 33.1 185.2Z" fill="white"/>
<path d="M36.3 141.4C35.2 142 34.3 142.8 33.6 143.8C29.7 140.9 24.2 140.4 19.7 143C13.9 146.4 11.7 153.7 14.7 159.6C11.5 161.4 10.4 165.5 12.3 168.7C14.1 171.9 18.2 173 21.4 171.1L45.4 157.2C49.8 154.7 51.3 149 48.8 144.6C46.3 140.3 40.7 138.8 36.3 141.4Z" fill="#95AABD"/>
<path d="M45.7999 157.9L21.7999 171.8C18.2999 173.8 13.6999 172.6 11.6999 169.1C9.79993 165.8 10.7999 161.5 13.8999 159.3C11.0999 153.1 13.4999 145.7 19.3999 142.3C23.7999 139.8 29.2999 139.9 33.4999 142.8C34.1999 142 34.9999 141.3 35.9999 140.8C40.6999 138.1 46.7999 139.7 49.4999 144.4C52.1999 149.1 50.5999 155.2 45.7999 157.9ZM15.0999 160.2C12.1999 161.9 11.1999 165.5 12.8999 168.4C14.5999 171.3 18.1999 172.2 21.0999 170.6L45.0999 156.7C49.1999 154.4 50.5999 149.2 48.1999 145.1C45.8999 141 40.6999 139.6 36.5999 142C35.5999 142.6 34.7999 143.3 34.0999 144.2C33.8999 144.5 33.3999 144.6 33.0999 144.3C29.2999 141.5 24.0999 141.2 19.9999 143.5C14.4999 146.7 12.4999 153.6 15.2999 159.2C15.5999 159.6 15.4999 160 15.0999 160.2Z" fill="#474747"/>
<path d="M20.5 151.1C20.8866 151.1 21.2001 150.787 21.2001 150.4C21.2001 150.013 20.8866 149.7 20.5 149.7C20.1135 149.7 19.8 150.013 19.8 150.4C19.8 150.787 20.1135 151.1 20.5 151.1Z" fill="#474747"/>
<path d="M24.5 148.8C24.8866 148.8 25.2001 148.487 25.2001 148.1C25.2001 147.713 24.8866 147.4 24.5 147.4C24.1135 147.4 23.8 147.713 23.8 148.1C23.8 148.487 24.1135 148.8 24.5 148.8Z" fill="#474747"/>
<path d="M32.1 149.9C32 150 31.9 150 31.7 150C31.3 150 31 149.7 31 149.3C31 145.8 32.9 142.5 35.9 140.7C36.2 140.5 36.7 140.6 36.9 141C37.1 141.3 37 141.8 36.6 142C34 143.5 32.4 146.3 32.4 149.4C32.4 149.6 32.3 149.8 32.1 149.9Z" fill="#474747"/>
<path d="M27.5 153.4C27.2 153.5 26.9 153.5 26.8 153.2L26.4 152.4C25.9 151.6 24.9 151.3 24 151.8C23.1 152.3 22.9 153.3 23.4 154.2L23.8 155C23.9 155.3 23.9 155.6 23.6 155.7C23.3 155.8 23 155.8 22.9 155.5L22.5 154.7C21.7 153.4 22.2 151.7 23.5 150.9C24.8 150.1 26.5 150.6 27.3 151.9L27.7 152.7C27.8 152.9 27.7 153.2 27.5 153.4Z" fill="#474747"/>
<path d="M23.1 148.1C22.9 148.2 22.7 148.2 22.5 148.1C22.3 147.9 22.2 147.6 22.4 147.4L24.1 145C24.3 144.8 24.6 144.7 24.8 144.9C25 145.1 25.1 145.4 24.9 145.6L23.2 148C23.2 148 23.2 148.1 23.1 148.1Z" fill="#474747"/>
<path d="M32.4 164.8L30.5 171.8L36.7 168.2L33.1 181.6L45 161.1L37.9 165.2L39 161L32.4 164.8Z" fill="#F6CD46"/>
<path d="M33.5 182.2C33.3 182.3 33.1001 182.3 32.9001 182.2C32.6001 182.1 32.4 181.7 32.5 181.4L35.7001 169.6L30.9 172.3C30.7 172.4 30.3 172.4 30.1 172.2C29.9 172 29.8 171.7 29.8 171.5L31.7001 164.5C31.7001 164.3 31.9 164.2 32 164.1L38.6 160.3C38.8 160.2 39.2001 160.2 39.4001 160.4C39.6001 160.6 39.7001 160.9 39.7001 161.1L39 163.7L44.6 160.5C44.9 160.3 45.2001 160.4 45.4001 160.6C45.6001 160.8 45.7 161.2 45.5 161.4L33.8 182C33.7 182.1 33.6 182.2 33.5 182.2ZM31.6 170.3L36.4001 167.6C36.6001 167.5 37.0001 167.5 37.2001 167.7C37.4001 167.9 37.5 168.2 37.5 168.4L35.3 176.7L43 163L38.2001 165.8C38.0001 165.9 37.6001 165.9 37.4001 165.7C37.2001 165.5 37.1 165.2 37.1 165L37.8 162.4L32.9001 165.2L31.6 170.3Z" fill="#474747"/>
</g>
<defs>
<clipPath id="clip0">
<path d="M0 14C0 6.268 6.26801 0 14 0H154C161.732 0 168 6.26801 168 14V211.7C168 219.432 161.732 225.7 154 225.7H14C6.26801 225.7 0 219.432 0 211.7V14Z" fill="white"/>
</clipPath>
</defs>
</svg>
