<svg width="168" height="225" viewBox="0 0 168 225" fill="none" xmlns="http://www.w3.org/2000/svg">
<path d="M154 0H14C6.26801 0 0 6.26802 0 14V211C0 218.732 6.26801 225 14 225H154C161.732 225 168 218.732 168 211V14C168 6.26801 161.732 0 154 0Z" fill="#92C1FF"/>
<path d="M43.5001 158.2C42.3001 157.9 41.1001 157.8 39.9001 158C39.2001 153.2 35.7001 149 30.7001 147.6C24.2001 145.9 17.5001 149.5 15.4001 155.9C11.8001 154.9 8.20007 157.1 7.20007 160.6C6.20007 164.2 8.40007 167.8 11.9001 168.8L38.7001 176C43.6001 177.3 48.6001 174.4 50.0001 169.5C51.3001 164.6 48.4001 159.5 43.5001 158.2Z" fill="#90BFF9"/>
<path d="M41.1 179.2C40.1 179.2 39 179.1 38 178.8L11.2 171.6C8.70003 170.9 6.70003 169.3 5.40003 167.1C4.10003 164.9 3.80003 162.3 4.40003 159.8C5.50003 155.5 9.40003 152.7 13.6 152.7C16.9 146.3 24.3 142.8 31.5 144.8C36.6 146.2 40.7 150.1 42.3 155C43 155.1 43.7 155.2 44.3 155.4C47.4 156.2 50 158.2 51.6 161C53.2 163.8 53.6 167.1 52.8 170.2C51.4 175.6 46.5 179.2 41.1 179.2ZM13.7 158.5C12 158.5 10.5 159.6 10 161.3C9.70003 162.3 9.90003 163.3 10.4 164.2C10.9 165.1 11.7 165.7 12.7 166L39.5 173.2C42.9 174.1 46.3 172.1 47.2 168.8C47.6 167.2 47.4 165.5 46.6 164C45.8 162.5 44.4 161.5 42.8 161.1C42 160.9 41.2 160.8 40.4 160.9L37.6 161.3L37.2 158.5C36.6 154.7 33.8 151.5 30.1 150.5C25.1 149.2 19.9 152 18.3 156.9L17.4 159.5L14.7 158.8C14.3 158.6 14 158.5 13.7 158.5Z" fill="white"/>
<path d="M38.6 176.6L11.8 169.4C7.90002 168.3 5.50002 164.3 6.60002 160.3C7.60002 156.6 11.3 154.3 15 154.9C17.4 148.6 24.3 145 30.9 146.8C35.8 148.1 39.5 152.1 40.5 157.1C41.6 157 42.6 157.1 43.7 157.4C49 158.8 52.1 164.2 50.7 169.5C49.3 174.9 43.9 178.1 38.6 176.6ZM15.2 156.5C12 155.6 8.70002 157.5 7.90002 160.7C7.00002 163.9 8.90002 167.2 12.1 168L38.9 175.2C43.4 176.4 48.1 173.7 49.3 169.2C50.5 164.7 47.8 160 43.3 158.8C42.2 158.5 41.1 158.4 40 158.6C39.6 158.6 39.3 158.4 39.2 158C38.5 153.3 35.1 149.4 30.5 148.2C24.4 146.6 18 150 16.1 156C16 156.4 15.6 156.6 15.2 156.5Z" fill="#474747"/>
<path d="M41.1001 179.9C40.0001 179.9 38.9001 179.8 37.8001 179.5L11.0001 172.3C5.50006 170.8 2.20006 165.2 3.70006 159.7C4.90006 155.3 8.80006 152.3 13.1001 152.1C16.6001 145.6 24.2001 142.2 31.6001 144.2C36.9001 145.6 40.9001 149.4 42.7001 154.5C43.3001 154.6 43.8001 154.7 44.4001 154.8C51.2001 156.6 55.3001 163.7 53.5001 170.5C52.0001 176.1 46.8001 179.9 41.1001 179.9ZM13.7001 159.2C12.3001 159.2 11.1001 160.1 10.7001 161.5C10.3001 163.1 11.2001 164.8 12.9001 165.3L39.7001 172.5C41.1001 172.9 42.6001 172.7 43.9001 171.9C45.2001 171.2 46.1001 169.9 46.5001 168.5C46.9001 167.1 46.7001 165.6 45.9001 164.3C45.2001 163 43.9001 162.1 42.5001 161.7C41.8001 161.5 41.1001 161.5 40.3001 161.6C38.4001 161.9 36.6001 160.5 36.3001 158.6C35.8001 155 33.2001 152.1 29.7001 151.2C25.1001 150 20.3001 152.6 18.8001 157.1C18.3001 158.7 16.6001 159.8 15.0001 159.6H14.9001L14.6001 159.5C14.2001 159.3 13.9001 159.2 13.7001 159.2Z" fill="white"/>
<path d="M26 154.1C26.3866 154.1 26.7001 153.787 26.7001 153.4C26.7001 153.013 26.3866 152.7 26 152.7C25.6135 152.7 25.3 153.013 25.3 153.4C25.3 153.787 25.6135 154.1 26 154.1Z" fill="#474747"/>
<path d="M26 157C25.7 157 25.4 157 25.1 156.9C23.2 156.4 22.1 154.4 22.6 152.5C23.1 150.6 25.1 149.5 27 150C28.9 150.5 30 152.5 29.5 154.4C29 155.9 27.6 157 26 157ZM23.8 152.8C23.5 154 24.2 155.2 25.4 155.6C26.6 155.9 27.8 155.2 28.2 154L26.7 153.6L28.2 154C28.5 152.8 27.8 151.6 26.6 151.2C25.4 150.9 24.1 151.6 23.8 152.8Z" fill="white"/>
<path d="M30.4001 155.3C30.7867 155.3 31.1001 154.987 31.1001 154.6C31.1001 154.213 30.7867 153.9 30.4001 153.9C30.0135 153.9 29.7001 154.213 29.7001 154.6C29.7001 154.987 30.0135 155.3 30.4001 155.3Z" fill="#474747"/>
<path d="M30.4 158.2C30.1 158.2 29.8 158.2 29.5 158.1C28.6 157.9 27.8 157.3 27.3 156.4C26.8 155.6 26.7 154.6 26.9 153.7C27.1 152.8 27.7 152 28.6 151.5C29.4 151 30.4 150.9 31.3 151.1C33.2 151.6 34.3 153.6 33.8 155.5C33.4 157.1 32 158.2 30.4 158.2ZM30.4 152.3C29.4 152.3 28.5 153 28.2 154C27.9 155.2 28.6 156.4 29.8 156.8C30.4 157 31 156.9 31.5 156.6C32 156.3 32.4 155.8 32.5 155.2C32.7 154.6 32.6 154 32.3 153.5C32 153 31.5 152.6 30.9 152.5C30.8 152.4 30.6 152.3 30.4 152.3Z" fill="white"/>
<path d="M34.5001 161.3C34.4001 161.3 34.3001 161.2 34.2001 161.1C33.9001 160.8 33.9001 160.4 34.2001 160.1C36.7001 157.6 40.4001 156.6 43.8001 157.5C44.2001 157.6 44.4001 158 44.3001 158.4C44.2001 158.8 43.8001 159 43.4001 158.9C40.5001 158.1 37.3001 159 35.2001 161.1C35.0001 161.3 34.7001 161.3 34.5001 161.3Z" fill="#474747"/>
<path d="M34.6001 164.2C34.3001 164.2 34.0001 164.2 33.7001 164.1C33.1001 163.9 32.5001 163.6 32.1001 163.2C31.4001 162.5 31.1001 161.6 31.1001 160.7C31.1001 159.7 31.5001 158.8 32.2001 158.1C35.4001 154.9 40.2001 153.6 44.6001 154.8C46.5001 155.3 47.7001 157.3 47.2001 159.2C46.7001 161.1 44.7001 162.3 42.8001 161.8C40.9001 161.3 38.8001 161.8 37.4001 163.2C36.5001 163.8 35.6001 164.2 34.6001 164.2Z" fill="white"/>
<path d="M24.9001 157.3C24.7001 157.2 24.5001 157 24.5001 156.7C24.5001 156.4 24.8001 156.2 25.1001 156.2L29.7001 156.6C30.0001 156.6 30.2001 156.9 30.2001 157.2C30.2001 157.5 29.9001 157.7 29.6001 157.7L24.9001 157.3C25.0001 157.3 25.0001 157.3 24.9001 157.3Z" fill="#474747"/>
<path d="M29.7001 160.6C29.6001 160.6 29.5001 160.6 29.4001 160.6L24.8001 160.2C24.6001 160.2 24.4001 160.1 24.2001 160.1C22.6001 159.7 21.5001 158.2 21.7001 156.5C21.9001 154.6 23.5001 153.2 25.4001 153.4L30.0001 153.8C31.9001 154 33.3001 155.6 33.1001 157.5C33.0001 158.4 32.6001 159.2 31.9001 159.8C31.3001 160.3 30.5001 160.6 29.7001 160.6ZM27.4001 156.5C27.4001 156.7 27.3001 156.8 27.3001 157C27.3001 157.2 27.3001 157.3 27.3001 157.5C27.3001 157.3 27.4001 157.2 27.4001 157C27.5001 156.8 27.5001 156.6 27.4001 156.5Z" fill="white"/>
<path d="M24.4 177.8C24.2 177.7 24 177.7 23.8 177.7C24 177.3 24.2 176.9 24.3 176.4C25.3 172.8 23.1 169.1 19.5 168.1C16.3 167.2 13 168.8 11.7 171.7H11.6C9.49999 171.1 7.29999 172.4 6.69999 174.5C6.09999 176.6 7.39999 178.8 9.49999 179.4L23 183C24.5 183.4 26 182.5 26.3 181.1C26.8 179.7 25.9 178.2 24.4 177.8Z" fill="#6AA2DF"/>
<path d="M23.7 186.1C23.2 186.1 22.7 186 22.2 185.9L8.70002 182.3C5.00002 181.3 2.90002 177.5 3.80002 173.9C4.60002 171 7.20002 169 10.1 168.8C12.4 165.8 16.4 164.4 20.2 165.4C22.7 166.1 24.8 167.7 26.1 169.9C27.2 171.8 27.6 174 27.3 176.1C27.8 176.5 28.3 177 28.6 177.6C29.4 178.9 29.6 180.4 29.2 181.9C28.5 184.5 26.2 186.1 23.7 186.1ZM10.6 174.6C10.1 174.6 9.70002 174.9 9.60002 175.4C9.40002 176 9.80002 176.6 10.4 176.7L20 179.3L21.4 176.5C21.5 176.3 21.6 176 21.7 175.8C22 174.8 21.8 173.8 21.3 172.9C20.8 172 20 171.4 19 171.1C17.2 170.6 15.3 171.5 14.5 173.2L13.4 175.5L10.9 174.7C10.7 174.6 10.6 174.6 10.6 174.6Z" fill="white"/>
<path d="M22.8001 183.8L9.3001 180.2C6.8001 179.5 5.3001 177 6.0001 174.5C6.6001 172.2 8.9001 170.7 11.3001 171.1C13.0001 168.2 16.4001 166.7 19.7001 167.6C23.7001 168.7 26.0001 172.7 25.0001 176.7C25.0001 176.9 24.9001 177.1 24.8001 177.2C26.5001 177.8 27.5001 179.6 27.1001 181.4C26.6001 183.2 24.7001 184.3 22.8001 183.8ZM11.4001 172.5C9.7001 172 7.9001 173.1 7.4001 174.8C6.9001 176.5 8.0001 178.3 9.7001 178.8L23.2001 182.4C24.3001 182.7 25.4001 182 25.7001 181C26.0001 179.9 25.3001 178.8 24.3001 178.5C24.2001 178.5 24.0001 178.4 23.8001 178.4C23.6001 178.4 23.3001 178.3 23.2001 178.1C23.1001 177.9 23.1001 177.6 23.2001 177.4C23.4001 177 23.5001 176.7 23.6001 176.3C24.5001 173.1 22.5001 169.8 19.3001 168.9C16.5001 168.1 13.5001 169.5 12.3001 172.2C12.2001 172.5 11.8001 172.7 11.5001 172.6C11.5001 172.5 11.4001 172.5 11.4001 172.5Z" fill="#474747"/>
<path d="M23.7 186.8C23.1 186.8 22.6 186.7 22.1 186.6L8.60004 183C6.60004 182.5 5.00004 181.2 4.00004 179.5C3.00004 177.7 2.70004 175.7 3.20004 173.7C4.00004 170.6 6.70004 168.4 9.80004 168.1C12.3 165.1 16.5 163.7 20.4 164.7C23.1 165.4 25.3 167.1 26.7 169.5C27.8 171.4 28.3 173.6 28 175.8C29.7 177.4 30.4 179.7 29.8 182.1C29.4 183.7 28.3 185.1 26.8 185.9C25.9 186.5 24.8 186.8 23.7 186.8ZM10.5 175.3C10.4 175.3 10.2 175.4 10.1 175.6C10.1 175.7 10.1 175.8 10.1 175.9C10.1 176 10.2 176 10.3 176.1L20.2 178.7C20 177.9 20.1 177 20.5 176.2C20.6 176 20.7 175.8 20.7 175.6C20.9 174.8 20.8 174 20.4 173.2C20 172.5 19.3 172 18.5 171.7C17 171.3 15.5 172 14.9 173.4C14.2 175.1 12.3 175.9 10.5 175.3C10.5 175.3 10.6 175.3 10.5 175.3Z" fill="white"/>
<path d="M11.6 171.8C13 172.2 14 173.2 14.4 174.5L11.6 171.8Z" fill="#6AA2DF"/>
<path d="M11.6 175.4C11.5 175 11.2 174.8 10.9 174.7L12.4 169.1C14.7 169.7 16.5 171.5 17.2 173.8L11.6 175.4Z" fill="white"/>
<path d="M14.2 175.2C14 175.1 13.8 175 13.7 174.7C13.4 173.6 12.5 172.8 11.4 172.5C11 172.4 10.8 172 10.9 171.6C11 171.2 11.4 171 11.8 171.1C13.4 171.5 14.6 172.7 15.1 174.3C15.2 174.7 15 175.1 14.6 175.2C14.4 175.2 14.3 175.2 14.2 175.2Z" fill="#474747"/>
<path d="M14.4 178.1C14.1 178.1 13.8 178.1 13.5 178C12.3 177.7 11.3 176.8 11 175.5C11 175.4 10.9 175.3 10.7 175.2C9.79999 175 8.99999 174.4 8.49999 173.5C7.99999 172.7 7.89999 171.7 8.09999 170.8C8.39999 169.9 8.89999 169.1 9.79999 168.6C10.6 168.1 11.6 168 12.5 168.2C15.1 168.9 17 170.8 17.8 173.4C18.1 174.3 18 175.3 17.5 176.1C17 176.9 16.3 177.6 15.4 177.8C15.1 178.1 14.7 178.1 14.4 178.1ZM13.7 172.4C13.2 172.6 12.7 173 12.4 173.5C12.3 173.6 12.3 173.8 12.2 173.9C12.4 173.9 12.5 173.8 12.6 173.7C13.2 173.5 13.5 173 13.7 172.4Z" fill="white"/>
<path d="M43.5002 158.2C42.3002 157.9 41.1002 157.8 39.9002 158C39.2002 153.2 35.7002 149 30.7002 147.6C24.2002 145.9 17.5002 149.5 15.4002 155.9C11.8002 154.9 8.20019 157.1 7.20019 160.6C6.20019 164.2 8.40019 167.8 11.9002 168.8L38.7002 176C43.6002 177.3 48.6002 174.4 50.0002 169.5C51.3002 164.6 48.4002 159.5 43.5002 158.2Z" fill="#90BFF9"/>
<path d="M38.6001 176.6L11.8001 169.4C7.90014 168.3 5.50014 164.3 6.60014 160.3C7.60014 156.6 11.3001 154.3 15.0001 154.9C17.4001 148.6 24.3001 145 30.9001 146.8C35.8001 148.1 39.5001 152.1 40.5001 157.1C41.6001 157 42.6001 157.1 43.7001 157.4C49.0001 158.8 52.1001 164.2 50.7001 169.5C49.3001 174.9 43.9001 178.1 38.6001 176.6ZM15.2001 156.5C12.0001 155.6 8.70014 157.5 7.90014 160.7C7.00014 163.9 8.90014 167.2 12.1001 168L38.9001 175.2C43.4001 176.4 48.1001 173.7 49.3001 169.2C50.5001 164.7 47.8001 160 43.3001 158.8C42.2001 158.5 41.1001 158.4 40.0001 158.6C39.6001 158.6 39.3001 158.4 39.2001 158C38.5001 153.3 35.1001 149.4 30.5001 148.2C24.4001 146.6 18.0001 150 16.1001 156C16.0001 156.4 15.6001 156.6 15.2001 156.5Z" fill="#474747"/>
<path d="M26.0002 154.1C26.3868 154.1 26.7002 153.787 26.7002 153.4C26.7002 153.013 26.3868 152.7 26.0002 152.7C25.6136 152.7 25.3002 153.013 25.3002 153.4C25.3002 153.787 25.6136 154.1 26.0002 154.1Z" fill="#474747"/>
<path d="M30.4002 155.3C30.7868 155.3 31.1002 154.987 31.1002 154.6C31.1002 154.213 30.7868 153.9 30.4002 153.9C30.0136 153.9 29.7002 154.213 29.7002 154.6C29.7002 154.987 30.0136 155.3 30.4002 155.3Z" fill="#474747"/>
<path d="M34.5001 161.3C34.4001 161.3 34.3001 161.2 34.2001 161.1C33.9001 160.8 33.9001 160.4 34.2001 160.1C36.7001 157.6 40.4001 156.6 43.8001 157.5C44.2001 157.6 44.4001 158 44.3001 158.4C44.2001 158.8 43.8001 159 43.4001 158.9C40.5001 158.1 37.3001 159 35.2001 161.1C35.0001 161.3 34.7001 161.3 34.5001 161.3Z" fill="#474747"/>
<path d="M24.9001 157.3C24.7001 157.2 24.5001 157 24.5001 156.7C24.5001 156.4 24.8001 156.2 25.1001 156.2L29.7001 156.6C30.0001 156.6 30.2001 156.9 30.2001 157.2C30.2001 157.5 29.9001 157.7 29.6001 157.7L24.9001 157.3C25.0001 157.3 25.0001 157.3 24.9001 157.3Z" fill="#474747"/>
<path d="M24.4001 177.8C24.2001 177.7 24.0001 177.7 23.8001 177.7C24.0001 177.3 24.2001 176.9 24.3001 176.4C25.3001 172.8 23.1001 169.1 19.5001 168.1C16.3001 167.2 13.0001 168.8 11.7001 171.7H11.6001C9.50011 171.1 7.30011 172.4 6.70011 174.5C6.10011 176.6 7.40011 178.8 9.50011 179.4L23.0001 183C24.5001 183.4 26.0001 182.5 26.3001 181.1C26.8001 179.7 25.9001 178.2 24.4001 177.8Z" fill="#6AA2DF"/>
<path d="M22.8001 183.8L9.3001 180.2C6.8001 179.5 5.3001 177 6.0001 174.5C6.6001 172.2 8.9001 170.7 11.3001 171.1C13.0001 168.2 16.4001 166.7 19.7001 167.6C23.7001 168.7 26.0001 172.7 25.0001 176.7C25.0001 176.9 24.9001 177.1 24.8001 177.2C26.5001 177.8 27.5001 179.6 27.1001 181.4C26.6001 183.2 24.7001 184.3 22.8001 183.8ZM11.4001 172.5C9.7001 172 7.9001 173.1 7.4001 174.8C6.9001 176.5 8.0001 178.3 9.7001 178.8L23.2001 182.4C24.3001 182.7 25.4001 182 25.7001 181C26.0001 179.9 25.3001 178.8 24.3001 178.5C24.2001 178.5 24.0001 178.4 23.8001 178.4C23.6001 178.4 23.3001 178.3 23.2001 178.1C23.1001 177.9 23.1001 177.6 23.2001 177.4C23.4001 177 23.5001 176.7 23.6001 176.3C24.5001 173.1 22.5001 169.8 19.3001 168.9C16.5001 168.1 13.5001 169.5 12.3001 172.2C12.2001 172.5 11.8001 172.7 11.5001 172.6C11.5001 172.5 11.4001 172.5 11.4001 172.5Z" fill="#474747"/>
<path d="M11.6001 171.8C13.0001 172.2 14.0001 173.2 14.4001 174.5L11.6001 171.8Z" fill="#6AA2DF"/>
<path d="M14.2001 175.2C14.0001 175.1 13.8001 175 13.7001 174.7C13.4001 173.6 12.5001 172.8 11.4001 172.5C11.0001 172.4 10.8001 172 10.9001 171.6C11.0001 171.2 11.4001 171 11.8001 171.1C13.4001 171.5 14.6001 172.7 15.1001 174.3C15.2001 174.7 15.0001 175.1 14.6001 175.2C14.4001 175.2 14.3001 175.2 14.2001 175.2Z" fill="#474747"/>
<path d="M122.7 73.3C121.5 73.7 121 75 121.4 76.2L123.8 82.6L115.4 85.8L112.1 77C111.7 75.8 110.4 75.3 109.2 75.7C108 76.1 107.5 77.4 107.9 78.6L111 86.7C110.6 85.5 109.3 85 108.1 85.4C106.9 85.8 106.4 87.1 106.8 88.3L107.1 89L110.5 98L110.8 98.9C113 104.7 119.5 107.6 125.3 105.5C131.1 103.3 134 96.8 131.9 91L128.5 82L128 81L125.6 74.6C125.1 73.4 123.8 72.8 122.7 73.3Z" fill="#EB794E"/>
<path d="M121.2 107.8C115.9 107.8 111 104.6 109 99.4L105 88.9C104.6 87.9 104.7 86.8 105.1 85.8C105.5 84.8 106.3 84.0999 107.3 83.7C107.5 83.5999 107.6 83.6 107.8 83.6L106.1 79.1999C105.7 78.1999 105.8 77.1 106.2 76.1C106.6 75.1 107.4 74.4 108.4 74C110.5 73.2 112.8 74.3 113.5 76.3L116.2 83.5L121.3 81.6L119.5 76.8C118.7 74.7 119.8 72.3999 121.8 71.6999C122.8 71.2999 123.9 71.4 124.9 71.8C125.9 72.2 126.6 73 127 74L133.1 90.3C135.6 97 132.2 104.5 125.5 107C124.2 107.5 122.7 107.8 121.2 107.8ZM108.8 86.9C108.7 86.9 108.7 86.9 108.6 86.9C108.4 87 108.4 87.0999 108.3 87.2C108.3 87.3 108.2 87.4 108.3 87.6L112.3 98.1C113.2 100.5 115 102.4 117.3 103.4C119.6 104.4 122.2 104.5 124.6 103.6C129.5 101.8 132 96.3 130.1 91.4L124 75.1C123.9 74.9 123.8 74.9 123.7 74.8C123.6 74.8 123.5 74.7 123.3 74.8C123 74.9 122.9 75.2 123 75.4L126 83.4L114.3 88L110.4 77.5C110.3 77.3 110.2 77.2999 110.1 77.1999C110 77.1999 109.9 77.0999 109.7 77.1999C109.5 77.2999 109.5 77.4 109.4 77.5C109.4 77.6 109.3 77.7 109.4 77.9L112.5 86L109.2 87.2C109.1 87 109 87 108.9 86.9C109 86.9 108.9 86.9 108.8 86.9Z" fill="white"/>
<path d="M125.4 106C119.2 108.3 112.3 105.2 110 99L106 88.5C105.4 87 106.2 85.2 107.7 84.7C108.2 84.5 108.8 84.5 109.3 84.6L107.1 78.8C106.5 77.3 107.3 75.5 108.8 75C110.3 74.4 112.1 75.2 112.6 76.7L115.7 84.8L122.8 82.1L120.7 76.4C120.1 74.9 120.9 73.1 122.4 72.6C123.9 72 125.7 72.8 126.2 74.3L132.3 90.6C134.7 96.7 131.5 103.7 125.4 106ZM108.3 86C107.5 86.3 107.1 87.2 107.4 88L111.4 98.5C113.4 103.9 119.5 106.7 124.9 104.6C130.3 102.6 133.1 96.5 131 91.1L124.9 74.8C124.6 74 123.7 73.6 122.9 73.9C122.1 74.2 121.7 75.1 122 75.9L124.4 82.3C124.5 82.7 124.4 83.1 124 83.2L115.6 86.4C115.2 86.5 114.8 86.4 114.7 86L111.4 77.2C111.1 76.4 110.2 76 109.4 76.3C108.6 76.6 108.2 77.5 108.5 78.3L111.6 86.4C111.7 86.8 111.6 87.2 111.2 87.3C110.8 87.4 110.4 87.3 110.3 86.9C109.9 86.1 109 85.7 108.3 86Z" fill="#474747"/>
<path d="M121.2 108.5C115.7 108.5 110.4 105.1 108.4 99.6L104.4 89.1C104 87.9 104 86.6 104.5 85.5C105 84.4 105.8 83.6 106.9 83.1L105.5 79.4C105.1 78.2 105.1 76.9 105.6 75.8C106.1 74.7 107.1 73.8 108.2 73.3C109.4 72.9 110.7 72.9 111.8 73.4C112.9 73.9 113.8 74.9 114.3 76L116.7 82.5L120.5 81.1L119 77C118.1 74.6 119.3 71.8 121.8 70.9C123 70.5 124.3 70.5 125.4 71C126.5 71.5 127.4 72.5 127.9 73.6L134 90C135.3 93.4 135.2 97.1 133.6 100.5C132.1 103.8 129.4 106.4 125.9 107.7C124.4 108.2 122.8 108.5 121.2 108.5ZM109.5 88.6L113 97.8C113.8 100 115.4 101.7 117.6 102.7C119.7 103.7 122.1 103.7 124.3 102.9C126.5 102.1 128.2 100.5 129.2 98.3C130.2 96.2 130.2 93.8 129.4 91.6L126.2 83.1C126.2 83.2 126.1 83.4 126.1 83.5C125.8 84.1 125.3 84.6 124.7 84.8L116.3 88C115.7 88.2 115 88.2 114.4 87.9C114 87.7 113.6 87.4 113.4 87C113.2 87.8 112.7 88.5 111.9 88.8C111 89.2 110.1 89.1 109.5 88.6Z" fill="white"/>
<path d="M108 85.3C109.2 84.9 110.5 85.5 110.9 86.6L114.4 95.9C114.4 95.9 121.5 95.7 123.7 101.4" fill="#EB794E"/>
<path d="M122 101.9C120.4 97.5 114.6 97.5 114.4 97.6H113.2L112.8 96.5L109.3 87.2C109.2 87 109.1 87 109 86.9C108.9 86.9 108.8 86.8 108.6 86.9L107.4 83.6C108.4 83.2 109.5 83.3 110.5 83.7C111.5 84.1 112.2 84.9 112.6 85.9L115.7 94.1C118.1 94.3 123.4 95.5 125.4 100.6L122 101.9Z" fill="white"/>
<path d="M123.9 102C123.5 102.1 123.1 102 123 101.6C121.1 96.5 114.5 96.6 114.4 96.6C114.1 96.6 113.8 96.4 113.7 96.1L110.2 86.8C109.9 86 109 85.6 108.2 85.9C107.8 86 107.4 85.9 107.3 85.5C107.2 85.1 107.3 84.7 107.7 84.6C109.2 84 111 84.8 111.5 86.3L114.8 95.1C116.6 95.2 122.3 95.9 124.2 101C124.5 101.5 124.3 101.9 123.9 102Z" fill="#474747"/>
<path d="M123.6 103.8C122.6 103.8 121.7 103.2 121.3 102.2C119.8 98.3 114.4 98.3 114.4 98.3C113.4 98.3 112.5 97.7 112.1 96.7L108.7 87.6C108.1 87.8 107.6 87.7 107 87.5C106.4 87.2 105.9 86.7 105.7 86.1C105.5 85.5 105.5 84.8 105.8 84.2C106.1 83.6 106.6 83.1 107.2 82.9C109.6 82 112.4 83.2 113.3 85.7L116.2 93.5C118.9 93.8 124 95.2 126 100.5C126.5 101.8 125.8 103.2 124.6 103.7C124.2 103.8 123.9 103.8 123.6 103.8Z" fill="white"/>
<path d="M126.866 84.9127L114.697 89.4861L115.928 92.7624L128.097 88.189L126.866 84.9127Z" fill="white"/>
<path d="M127.7 87.2999L115.6 91.8999C115.2 91.9999 114.8 91.8999 114.7 91.4999C114.6 91.0999 114.7 90.6999 115.1 90.5999L127.2 85.9999C127.6 85.8999 128 85.9999 128.1 86.3999C128.2 86.6999 128 87.0999 127.7 87.2999Z" fill="#474747"/>
<path d="M115.3 93.6C114.3 93.6 113.4 93 113 92C112.8 91.4 112.8 90.7 113.1 90.1C113.4 89.5 113.9 89 114.5 88.8L126.6 84.2C127.9 83.7 129.3 84.4 129.8 85.6C130.3 86.9 129.6 88.3 128.4 88.8L116.3 93.4C115.9 93.6 115.6 93.6 115.3 93.6Z" fill="white"/>
<path d="M121.6 94.7999L120.9 95.0999C119.9 95.4999 118.9 94.9999 118.5 93.9999L115.4 85.6999C115 84.6999 115.5 83.6999 116.5 83.2999L117.2 82.9999C118.2 82.5999 119.2 83.0999 119.6 84.0999L122.7 92.3999C123.1 93.3999 122.6 94.4999 121.6 94.7999Z" fill="#EB794E"/>
<path d="M120.5 96.9C119.9 96.9 119.4 96.8 118.9 96.5C117.9 96.1 117.2 95.3 116.8 94.3L114 86.8C113.2 84.7 114.3 82.3999 116.3 81.6999C117.3 81.2999 118.4 81.4 119.4 81.8C120.4 82.2 121.1 83 121.5 84L124.3 91.5C124.7 92.5 124.6 93.6 124.2 94.6C123.8 95.6 123 96.3 122 96.7C121.4 96.8 120.9 96.9 120.5 96.9ZM117.6 84.8C117.5 84.8 117.5 84.8 117.4 84.8C117.1 84.9 117 85.2 117.1 85.4L119.9 92.9C120 93.1 120.1 93.0999 120.2 93.2C120.3 93.2 120.4 93.3 120.6 93.2C120.8 93.0999 120.8 93 120.9 92.9C120.9 92.8 121 92.7 120.9 92.5L118.1 85C118 84.9 117.8 84.8 117.6 84.8Z" fill="white"/>
<path d="M121.5 95.7C120 96.3 118.2 95.5 117.7 94L114.9 86.5C114.3 85 115.1 83.2 116.6 82.7C118.1 82.2 119.9 82.9 120.4 84.4L123.2 91.9C123.8 93.4 123 95.1 121.5 95.7ZM117.1 83.9C116.3 84.2 115.9 85.1 116.2 85.9L119 93.4C119.3 94.2 120.2 94.6 121 94.3C121.8 94 122.2 93.1 121.9 92.3L119.1 84.8C118.7 84 117.9 83.6 117.1 83.9Z" fill="#474747"/>
<path d="M120.5 97.6C118.6 97.6 116.8 96.4 116.1 94.5L113.3 87C112.4 84.6 113.6 81.8 116.1 80.9C118.5 80 121.3 81.2 122.2 83.7L125 91.2C125.4 92.4 125.4 93.7 124.9 94.8C124.4 95.9 123.4 96.8 122.3 97.3C121.6 97.5 121 97.6 120.5 97.6Z" fill="white"/>
<path d="M125.8 93.3L125.1 93.6C124.1 94 123.1 93.5 122.7 92.5L119.6 84.2C119.2 83.2 119.7 82.2 120.7 81.8L121.4 81.5C122.4 81.1 123.4 81.6 123.8 82.6L126.9 90.9C127.3 91.8 126.8 92.9 125.8 93.3Z" fill="#EB794E"/>
<path d="M124.7 95.3C124.1 95.3 123.6 95.2 123.1 94.9C122.1 94.5 121.4 93.7 121 92.7L118.2 85.2C117.8 84.2 117.9 83.1 118.3 82.1C118.7 81.1 119.5 80.4 120.5 80C121.5 79.6 122.6 79.7 123.6 80.1C124.6 80.5 125.3 81.3 125.7 82.3L128.5 89.8C128.9 90.8 128.8 91.9 128.4 92.9C128 93.9 127.2 94.6 126.2 95C125.6 95.2 125.1 95.3 124.7 95.3ZM121.8 83.2C121.7 83.2 121.7 83.2 121.6 83.2C121.4 83.3 121.4 83.4 121.3 83.5C121.3 83.6 121.2 83.7 121.3 83.9L124.1 91.4C124.2 91.7 124.5 91.8 124.7 91.7C124.9 91.6 124.9 91.5 125 91.4C125 91.3 125.1 91.2 125 91L122.2 83.5C122.1 83.3 122 83.3 121.9 83.2C122 83.3 121.9 83.2 121.8 83.2Z" fill="white"/>
<path d="M125.7 94.1C124.2 94.7 122.4 93.9 121.9 92.4L119.1 84.9C118.5 83.4 119.3 81.6 120.8 81.1C122.3 80.5 124.1 81.3 124.6 82.8L127.4 90.3C128 91.8 127.2 93.5 125.7 94.1ZM121.3 82.3C120.5 82.6 120.1 83.5 120.4 84.3L123.2 91.8C123.5 92.6 124.4 93 125.2 92.7C126 92.4 126.4 91.5 126.1 90.7L123.3 83.2C123 82.4 122.1 82 121.3 82.3Z" fill="#474747"/>
<path d="M124.7 96C124 96 123.4 95.9 122.8 95.6C121.7 95.1 120.8 94.1 120.3 93L117.5 85.5C116.6 83.1 117.8 80.3 120.3 79.4C121.5 79 122.8 79 123.9 79.5C125 80 125.9 81 126.4 82.1L129.2 89.6C129.6 90.8 129.6 92.1 129.1 93.2C128.6 94.3 127.6 95.2 126.5 95.7C125.8 95.9 125.2 96 124.7 96Z" fill="white"/>
<path d="M122.7 73.3C121.5 73.7 121 75 121.4 76.2L123.8 82.6L115.4 85.8L112.1 77C111.7 75.8 110.4 75.3 109.2 75.7C108 76.1 107.5 77.4 107.9 78.6L111 86.7C110.6 85.5 109.3 85 108.1 85.4C106.9 85.8 106.4 87.1 106.8 88.3L107.1 89L110.5 98L110.8 98.9C113 104.7 119.5 107.6 125.3 105.5C131.1 103.3 134 96.8 131.9 91L128.5 82L128 81L125.6 74.6C125.1 73.4 123.8 72.8 122.7 73.3Z" fill="#FF911A"/>
<path d="M125.4 106C119.2 108.3 112.3 105.2 110 99L106 88.5C105.4 87 106.2 85.2 107.7 84.7C108.2 84.5 108.8 84.5 109.3 84.6L107.1 78.8C106.5 77.3 107.3 75.5 108.8 75C110.3 74.4 112.1 75.2 112.6 76.7L115.7 84.8L122.8 82.1L120.7 76.4C120.1 74.9 120.9 73.1 122.4 72.6C123.9 72 125.7 72.8 126.2 74.3L132.3 90.6C134.7 96.7 131.5 103.7 125.4 106ZM108.3 86C107.5 86.3 107.1 87.2 107.4 88L111.4 98.5C113.4 103.9 119.5 106.7 124.9 104.6C130.3 102.6 133.1 96.5 131 91.1L124.9 74.8C124.6 74 123.7 73.6 122.9 73.9C122.1 74.2 121.7 75.1 122 75.9L124.4 82.3C124.5 82.7 124.4 83.1 124 83.2L115.6 86.4C115.2 86.5 114.8 86.4 114.7 86L111.4 77.2C111.1 76.4 110.2 76 109.4 76.3C108.6 76.6 108.2 77.5 108.5 78.3L111.6 86.4C111.7 86.8 111.6 87.2 111.2 87.3C110.8 87.4 110.4 87.3 110.3 86.9C109.9 86.1 109 85.7 108.3 86Z" fill="#474747"/>
<path d="M108 85.3C109.2 84.9 110.5 85.5 110.9 86.6L114.4 95.9C114.4 95.9 121.5 95.7 123.7 101.4" fill="#FF911A"/>
<path d="M123.9 102C123.5 102.1 123.1 102 123 101.6C121.1 96.5 114.5 96.6 114.4 96.6C114.1 96.6 113.8 96.4 113.7 96.1L110.2 86.8C109.9 86 109 85.6 108.2 85.9C107.8 86 107.4 85.9 107.3 85.5C107.2 85.1 107.3 84.7 107.7 84.6C109.2 84 111 84.8 111.5 86.3L114.8 95.1C116.6 95.2 122.3 95.9 124.2 101C124.5 101.5 124.3 101.9 123.9 102Z" fill="#474747"/>
<path d="M127.7 87.3001L115.6 91.9001C115.2 92.0001 114.8 91.9001 114.7 91.5001C114.6 91.1001 114.7 90.7001 115.1 90.6001L127.2 86.0001C127.6 85.9001 128 86.0001 128.1 86.4001C128.2 86.7001 128 87.1001 127.7 87.3001Z" fill="#474747"/>
<path d="M121.6 94.8L120.9 95.1C119.9 95.5 118.9 95 118.5 94L115.4 85.7C115 84.7 115.5 83.7 116.5 83.3L117.2 83C118.2 82.6 119.2 83.1 119.6 84.1L122.7 92.4C123.1 93.4 122.6 94.5 121.6 94.8Z" fill="#FF911A"/>
<path d="M121.5 95.7C120 96.3 118.2 95.5 117.7 94L114.9 86.5C114.3 85 115.1 83.2 116.6 82.7C118.1 82.2 119.9 82.9 120.4 84.4L123.2 91.9C123.8 93.4 123 95.1 121.5 95.7ZM117.1 83.9C116.3 84.2 115.9 85.1 116.2 85.9L119 93.4C119.3 94.2 120.2 94.6 121 94.3C121.8 94 122.2 93.1 121.9 92.3L119.1 84.8C118.7 84 117.9 83.6 117.1 83.9Z" fill="#474747"/>
<path d="M125.8 93.3L125.1 93.6C124.1 94 123.1 93.5 122.7 92.5L119.6 84.2C119.2 83.2 119.7 82.2 120.7 81.8L121.4 81.5C122.4 81.1 123.4 81.6 123.8 82.6L126.9 90.9C127.3 91.8 126.8 92.9 125.8 93.3Z" fill="#FF911A"/>
<path d="M125.7 94.1C124.2 94.7 122.4 93.9 121.9 92.4L119.1 84.9C118.5 83.4 119.3 81.6 120.8 81.1C122.3 80.5 124.1 81.3 124.6 82.8L127.4 90.3C128 91.8 127.2 93.5 125.7 94.1ZM121.3 82.3C120.5 82.6 120.1 83.5 120.4 84.3L123.2 91.8C123.5 92.6 124.4 93 125.2 92.7C126 92.4 126.4 91.5 126.1 90.7L123.3 83.2C123 82.4 122.1 82 121.3 82.3Z" fill="#474747"/>
<path d="M31.6 146.5C37.5647 146.5 42.4001 141.665 42.4001 135.7C42.4001 129.735 37.5647 124.9 31.6 124.9C25.6354 124.9 20.8 129.735 20.8 135.7C20.8 141.665 25.6354 146.5 31.6 146.5Z" fill="#F8CF00"/>
<path d="M31.6 148.2C26 148.2 20.9 144.4 19.5 138.7C17.9 132 22 125.2 28.7 123.6C35.4 122 42.2 126.1 43.8 132.8C45.4 139.5 41.3 146.3 34.6 147.9C33.6 148.1 32.6 148.2 31.6 148.2ZM31.6 126.7C30.9 126.7 30.2 126.8 29.5 127C24.7 128.2 21.7 133.1 22.9 137.9C24.1 142.7 29 145.7 33.8 144.5C38.6 143.3 41.6 138.4 40.4 133.6C39.4 129.5 35.7 126.7 31.6 126.7Z" fill="white"/>
<path d="M34.4001 146.9C28.2001 148.4 22.0001 144.6 20.5001 138.5C19.0001 132.3 22.8001 126.1 28.9001 124.6C35.0001 123.1 41.3001 126.9 42.8001 133C44.3001 139.1 40.5001 145.4 34.4001 146.9ZM29.2001 126C23.8001 127.3 20.5001 132.8 21.8001 138.1C23.1001 143.5 28.6001 146.8 33.9001 145.5C39.2001 144.2 42.6001 138.7 41.3001 133.4C40.1001 128 34.6001 124.7 29.2001 126Z" fill="#474747"/>
<path d="M31.6 148.9C25.6 148.9 20.2 144.8 18.7 138.8C17.9 135.4 18.4 131.8 20.2 128.8C22 125.8 24.9 123.6 28.4 122.8C31.8 122 35.4 122.5 38.4 124.3C41.4 126.1 43.6 129 44.4 132.5C45.2 135.9 44.7 139.5 42.9 142.5C41.1 145.5 38.2 147.7 34.7 148.5C33.7 148.8 32.7 148.9 31.6 148.9ZM29.7 127.7C25.3 128.8 22.5 133.3 23.6 137.7C24.7 142.1 29.2 144.9 33.6 143.8C35.7 143.3 37.6 141.9 38.7 140C39.8 138.1 40.2 135.9 39.7 133.7C39.2 131.6 37.8 129.7 35.9 128.6C34 127.5 31.8 127.1 29.7 127.7Z" fill="white"/>
<path d="M31.6 143.3C35.7974 143.3 39.2 139.897 39.2 135.7C39.2 131.503 35.7974 128.1 31.6 128.1C27.4026 128.1 24 131.503 24 135.7C24 139.897 27.4026 143.3 31.6 143.3Z" fill="white"/>
<path d="M31.6 145.1C29.9 145.1 28.2 144.6 26.8 143.7C24.7 142.4 23.2 140.4 22.6 137.9C22 135.5 22.4 133 23.7 130.8C25 128.7 27 127.2 29.5 126.6C31.9 126 34.4 126.4 36.6 127.7C38.7 129 40.2 131 40.8 133.5C41.4 135.9 41 138.4 39.7 140.6C38.4 142.8 36.4 144.2 33.9 144.8C33.1 145 32.4 145.1 31.6 145.1ZM31.6 129.8C31.1 129.8 30.7 129.9 30.2 130C28.7 130.4 27.4 131.3 26.6 132.7C25.8 134 25.5 135.6 25.9 137.1C26.3 138.6 27.2 139.9 28.6 140.7C29.9 141.5 31.5 141.8 33 141.4C34.5 141 35.8 140.1 36.6 138.7C37.4 137.4 37.7 135.8 37.3 134.3C36.9 132.8 36 131.5 34.6 130.7C33.7 130.1 32.7 129.8 31.6 129.8Z" fill="white"/>
<path d="M33.6 143.8C29.1 144.9 24.6 142.1 23.5 137.7C22.4 133.2 25.2 128.7 29.6 127.6C34.1 126.5 38.6 129.3 39.7 133.7C40.8 138.2 38.1 142.7 33.6 143.8ZM30 129C26.3 129.9 24.1 133.6 25 137.3C25.9 141 29.6 143.2 33.3 142.3C37 141.4 39.2 137.7 38.3 134C37.4 130.4 33.7 128.1 30 129Z" fill="#474747"/>
<path d="M31.6 145.8C27.1 145.8 22.9 142.7 21.8 138.1C20.5 132.7 23.8 127.2 29.2 125.9C34.6 124.6 40.1 127.9 41.4 133.3C42.7 138.7 39.4 144.2 34 145.5C33.2 145.7 32.4 145.8 31.6 145.8ZM31.6 130.6C31.2 130.6 30.8 130.6 30.4 130.7C29.1 131 27.9 131.9 27.2 133C26.5 134.2 26.3 135.6 26.6 136.9C27.3 139.7 30.1 141.3 32.8 140.7C35.6 140 37.2 137.2 36.6 134.5C36 132.1 33.9 130.6 31.6 130.6Z" fill="white"/>
<path d="M31.8001 136.4C31.4001 136.5 31.0001 136.3 30.9001 135.9L30.0001 132.1C29.9001 131.7 30.1001 131.3 30.5001 131.2C30.9001 131.1 31.3001 131.3 31.4001 131.7L32.3001 135.5C32.4001 135.9 32.2001 136.3 31.8001 136.4Z" fill="#474747"/>
<path d="M31.6001 138.2C31.2001 138.2 30.7001 138.1 30.3001 137.8C29.7001 137.5 29.3001 136.9 29.2001 136.3L28.3001 132.5C28.1001 131.9 28.2001 131.2 28.6001 130.6C28.9001 130 29.5001 129.6 30.1001 129.5C30.7001 129.3 31.4001 129.4 32.0001 129.8C32.6001 130.1 33.0001 130.7 33.1001 131.3L34.0001 135.1C34.2001 135.7 34.1001 136.4 33.7001 137C33.4001 137.6 32.8001 138 32.2001 138.1C32.0001 138.2 31.8001 138.2 31.6001 138.2Z" fill="white"/>
<path d="M31.6 125.4L26.9 126.6C26.5 126.7 26.1 126.5 26 126.1L25.6 124.6C25.2 122.9 26.2 121.2 27.9 120.8C29.6 120.4 31.3 121.4 31.7 123.1L32.1 124.6C32.2 124.9 32 125.3 31.6 125.4ZM27.2 125L30.5 124.2L30.3 123.4C30.1 122.5 29.2 121.9 28.2 122.2C27.3 122.4 26.7 123.3 27 124.3L27.2 125Z" fill="#474747"/>
<path d="M26.7 128.3C25.6 128.3 24.6 127.5 24.3 126.4L23.9 124.9C23.6 123.6 23.8 122.3 24.5 121.2C25.2 120.1 26.3 119.3 27.5 119C28.8 118.7 30.1 118.9 31.2 119.6C32.3 120.3 33.1 121.4 33.4 122.6L33.8 124.1C34.1 125.4 33.3 126.8 32 127.1L27.3 128.3C27.1 128.3 26.9 128.3 26.7 128.3Z" fill="white"/>
<path d="M20.2506 126.023L17.7604 130.127L21.18 132.202L23.6702 128.098L20.2506 126.023Z" fill="#F8CF00"/>
<path d="M21.8 134.6L15.4 130.7L19.7 123.6L26.1 127.5L21.8 134.6ZM20.1 129.5L20.5 129.8L21.2 128.6L20.8 128.3L20.1 129.5Z" fill="white"/>
<path d="M21.3001 132.9C21.1001 132.9 20.9001 132.9 20.8001 132.8L17.4001 130.7C17.2001 130.6 17.1001 130.4 17.1001 130.3C17.1001 130.1 17.1001 129.9 17.2001 129.8L19.7001 125.7C19.8001 125.5 20.0001 125.4 20.1001 125.4C20.3001 125.4 20.5001 125.4 20.6001 125.5L24.0001 127.6C24.3001 127.8 24.5001 128.3 24.2001 128.6L21.7001 132.7C21.7001 132.7 21.5001 132.9 21.3001 132.9ZM18.8001 129.9L21.0001 131.2L22.8001 128.3L20.6001 127L18.8001 129.9Z" fill="#474747"/>
<path d="M21.2 134.7C20.8 134.7 20.3 134.6 19.9 134.3L16.5 132.2C15.9 131.9 15.5 131.3 15.4 130.7C15.2 130.1 15.3 129.4 15.7 128.8L18.2 124.7C18.5 124.1 19.1 123.7 19.7 123.6C20.3 123.4 21 123.5 21.6 123.9L25 126C25.6 126.3 26 126.9 26.1 127.5C26.3 128.1 26.2 128.8 25.8 129.4L23.3 133.5C23 134.1 22.4 134.5 21.8 134.6C21.6 134.6 21.4 134.7 21.2 134.7Z" fill="white"/>
<path d="M35.182 125.293L39.2855 127.783L41.3607 124.364L37.2572 121.873L35.182 125.293Z" fill="#F8CF00"/>
<path d="M39.9001 130.2L32.8 125.9L36.7001 119.5L43.8 123.8L39.9001 130.2ZM37.5 124.7L38.7001 125.4L39 125L37.8 124.3L37.5 124.7Z" fill="white"/>
<path d="M39.4001 128.5C39.2001 128.5 39.0001 128.5 38.9001 128.4L34.8001 125.9C34.5001 125.7 34.3001 125.2 34.6001 124.9L36.7001 121.5C36.8001 121.3 37.0001 121.2 37.1001 121.2C37.3001 121.2 37.5001 121.2 37.6001 121.3L41.7001 123.8C42.0001 124 42.2001 124.5 41.9001 124.8L39.8001 128.2C39.8001 128.3 39.6001 128.4 39.4001 128.5ZM36.1001 125L39.0001 126.8L40.3001 124.6L37.4001 122.8L36.1001 125Z" fill="#474747"/>
<path d="M39.3001 130.2C38.9001 130.2 38.4001 130.1 38.0001 129.8L33.9001 127.3C33.3001 127 32.9001 126.4 32.8001 125.8C32.6001 125.2 32.7001 124.5 33.1001 123.9L35.2001 120.5C35.5001 119.9 36.1001 119.5 36.7001 119.4C37.3001 119.2 38.0001 119.3 38.6001 119.7L42.7001 122.2C43.3001 122.5 43.7001 123.1 43.8001 123.7C44.0001 124.3 43.9001 125 43.5001 125.6L41.4001 129C41.1001 129.6 40.5001 130 39.9001 130.1C39.7001 130.2 39.5001 130.2 39.3001 130.2Z" fill="white"/>
<path d="M31.6 146.5C37.5647 146.5 42.4001 141.665 42.4001 135.7C42.4001 129.735 37.5647 124.9 31.6 124.9C25.6354 124.9 20.8 129.735 20.8 135.7C20.8 141.665 25.6354 146.5 31.6 146.5Z" fill="#F8CF00"/>
<path d="M34.4001 146.9C28.2001 148.4 22.0001 144.6 20.5001 138.5C19.0001 132.3 22.8001 126.1 28.9001 124.6C35.0001 123.1 41.3001 126.9 42.8001 133C44.3001 139.1 40.5001 145.4 34.4001 146.9ZM29.2001 126C23.8001 127.3 20.5001 132.8 21.8001 138.1C23.1001 143.5 28.6001 146.8 33.9001 145.5C39.2001 144.2 42.6001 138.7 41.3001 133.4C40.1001 128 34.6001 124.7 29.2001 126Z" fill="#474747"/>
<path d="M31.6001 143.3C35.7975 143.3 39.2001 139.897 39.2001 135.7C39.2001 131.503 35.7975 128.1 31.6001 128.1C27.4028 128.1 24.0001 131.503 24.0001 135.7C24.0001 139.897 27.4028 143.3 31.6001 143.3Z" fill="white"/>
<path d="M33.6001 143.8C29.1001 144.9 24.6001 142.1 23.5001 137.7C22.4001 133.2 25.2001 128.7 29.6001 127.6C34.1001 126.5 38.6001 129.3 39.7001 133.7C40.8001 138.2 38.1001 142.7 33.6001 143.8ZM30.0001 129C26.3001 129.9 24.1001 133.6 25.0001 137.3C25.9001 141 29.6001 143.2 33.3001 142.3C37.0001 141.4 39.2001 137.7 38.3001 134C37.4001 130.4 33.7001 128.1 30.0001 129Z" fill="#474747"/>
<path d="M31.8001 136.4C31.4001 136.5 31.0001 136.3 30.9001 135.9L30.0001 132.1C29.9001 131.7 30.1001 131.3 30.5001 131.2C30.9001 131.1 31.3001 131.3 31.4001 131.7L32.3001 135.5C32.4001 135.9 32.2001 136.3 31.8001 136.4Z" fill="#474747"/>
<path d="M31.6001 125.4L26.9001 126.6C26.5001 126.7 26.1001 126.5 26.0001 126.1L25.6001 124.6C25.2001 122.9 26.2001 121.2 27.9001 120.8C29.6001 120.4 31.3001 121.4 31.7001 123.1L32.1001 124.6C32.2001 124.9 32.0001 125.3 31.6001 125.4ZM27.2001 125L30.5001 124.2L30.3001 123.4C30.1001 122.5 29.2001 121.9 28.2001 122.2C27.3001 122.4 26.7001 123.3 27.0001 124.3L27.2001 125Z" fill="#474747"/>
<path d="M20.2506 126.023L17.7604 130.127L21.18 132.202L23.6702 128.098L20.2506 126.023Z" fill="#F8CF00"/>
<path d="M21.3001 132.9C21.1001 132.9 20.9001 132.9 20.8001 132.8L17.4001 130.7C17.2001 130.6 17.1001 130.4 17.1001 130.3C17.1001 130.1 17.1001 129.9 17.2001 129.8L19.7001 125.7C19.8001 125.5 20.0001 125.4 20.1001 125.4C20.3001 125.4 20.5001 125.4 20.6001 125.5L24.0001 127.6C24.3001 127.8 24.5001 128.3 24.2001 128.6L21.7001 132.7C21.7001 132.7 21.5001 132.9 21.3001 132.9ZM18.8001 129.9L21.0001 131.2L22.8001 128.3L20.6001 127L18.8001 129.9Z" fill="#474747"/>
<path d="M35.182 125.293L39.2855 127.783L41.3607 124.364L37.2572 121.874L35.182 125.293Z" fill="#F8CF00"/>
<path d="M39.4001 128.5C39.2001 128.5 39.0001 128.5 38.9001 128.4L34.8001 125.9C34.5001 125.7 34.3001 125.2 34.6001 124.9L36.7001 121.5C36.8001 121.3 37.0001 121.2 37.1001 121.2C37.3001 121.2 37.5001 121.2 37.6001 121.3L41.7001 123.8C42.0001 124 42.2001 124.5 41.9001 124.8L39.8001 128.2C39.8001 128.3 39.6001 128.4 39.4001 128.5ZM36.1001 125L39.0001 126.8L40.3001 124.6L37.4001 122.8L36.1001 125Z" fill="#474747"/>
<path d="M53.7 100.1C53.4 100.1 53 99.9999 52.7 99.8999C52.1 99.5999 51.6 99.1999 51.4 98.4999C51.2 97.8999 51.2 97.1999 51.4 96.5999L54.1 90.3999C54.6 89.0999 56.1 88.5999 57.3 89.0999C58.6 89.5999 59.1 91.0999 58.6 92.2999L56 98.6999C55.6 99.5999 54.7 100.1 53.7 100.1Z" fill="white"/>
<path d="M51 100.1C50.7 100.1 50.3 100 50 99.9C49.4 99.6 48.9 99.2 48.7 98.5L46.2 92.2C45.7 90.9 46.3 89.5 47.6 89C48.2 88.8 48.9 88.8 49.5 89C50.1 89.3 50.6 89.7 50.8 90.4L53.3 96.7C53.5 97.3 53.5 98 53.3 98.6C53 99.2 52.6 99.7 51.9 99.9C51.6 100.1 51.3 100.1 51 100.1Z" fill="white"/>
<path d="M49.1 102C48.8 102 48.4 101.9 48.1 101.8L41.9001 99.0999C40.6001 98.5999 40.1 97.0999 40.6 95.8999C41.1 94.5999 42.6001 94.0999 43.8001 94.5999L50.0001 97.2999C50.6001 97.5999 51.1001 97.9999 51.3001 98.6999C51.5001 99.2999 51.5001 99.9999 51.3001 100.6C51.0001 101.4 50 102 49.1 102Z" fill="white"/>
<path d="M53.4001 98.3C53.0001 98.1 52.9001 97.7 53.0001 97.3L55.7001 91.1C55.9001 90.7 56.3001 90.6 56.7001 90.7C57.1001 90.8 57.2001 91.3 57.1001 91.7L54.4001 98C54.2001 98.3 53.8001 98.5 53.4001 98.3Z" fill="#474747"/>
<path d="M50.7 98.3C50.5 98.2 50.4 98.1 50.3 97.9L47.8 91.6C47.7 91.2 47.8 90.8 48.2 90.7C48.6 90.6 49 90.7 49.1 91.1L51.6 97.4C51.7 97.8 51.6 98.2 51.2 98.3C51.1 98.4 50.9 98.4 50.7 98.3Z" fill="#474747"/>
<path d="M48.8 100.2L42.6 97.5C42.2 97.3 42.1 96.9 42.2 96.5C42.4 96.1 42.8 96 43.2 96.1L49.4 98.8C49.8 99 49.9 99.4 49.8 99.8C49.6 100.2 49.2 100.3 48.8 100.2Z" fill="#474747"/>
</svg>
