<svg width="168" height="225" viewBox="0 0 168 225" fill="none" xmlns="http://www.w3.org/2000/svg">
<path d="M154 0H14C6.26801 0 0 6.26802 0 14V211C0 218.732 6.26801 225 14 225H154C161.732 225 168 218.732 168 211V14C168 6.26801 161.732 0 154 0Z" fill="#97ACBF"/>
<path d="M127.6 88.7C126.5 88 125.4 87.6 124.2 87.5C124.9 82.7 122.7 77.7 118.3 74.9C112.5 71.4 105.1 73 101.3 78.5C98.2001 76.6 94.0001 77.6 92.1001 80.7C90.2001 83.8 91.2001 88 94.3001 89.9L118 104.4C122.3 107.1 128 105.7 130.6 101.4C133.2 97.1 131.9 91.4 127.6 88.7Z" fill="#95AABD"/>
<path d="M122.7 108.7C120.5 108.7 118.3 108.1 116.4 106.9L92.8 92.4C90.6 91.1 89.1 88.9 88.5 86.5C87.9 84 88.3 81.4 89.7 79.2C91 77 93.2 75.5 95.6 74.9C97.2 74.5 98.9 74.6 100.5 75C105.5 69.8 113.6 68.6 119.9 72.5C124.4 75.3 127.2 80.2 127.3 85.4C127.9 85.7 128.6 86 129.1 86.3C134.8 89.8 136.6 97.3 133.1 102.9C131.4 105.7 128.7 107.6 125.6 108.3C124.6 108.6 123.7 108.7 122.7 108.7ZM97.8 80.4C97.5 80.4 97.2 80.4 96.9 80.5C95.9 80.7 95.1 81.3 94.6 82.2C94.1 83.1 93.9 84.1 94.1 85.1C94.3 86.1 94.9 86.9 95.8 87.4L119.5 101.9C120.9 102.8 122.6 103 124.3 102.7C125.9 102.3 127.3 101.3 128.2 99.9C130 96.9 129.1 93.1 126.1 91.3C125.4 90.9 124.6 90.6 123.8 90.5L121 90L121.4 87.2C121.9 83.3 120.2 79.5 116.8 77.5C112.4 74.8 106.7 76 103.7 80.3L102.1 82.6L99.8 81C99.1 80.6 98.5 80.4 97.8 80.4Z" fill="white"/>
<path d="M117.6 105L93.9001 90.5C90.4001 88.4 89.3001 83.8 91.5001 80.3C93.5001 77 97.7001 75.9 101.1 77.6C105.2 72.2 112.8 70.8 118.7 74.3C123 77 125.5 81.9 125 86.9C126 87.1 127 87.5 128 88.1C132.7 91 134.1 97.1 131.3 101.7C128.3 106.4 122.2 107.9 117.6 105ZM100.9 79.1C98.1001 77.4 94.4001 78.3 92.7001 81.1C91.0001 83.9 91.9001 87.6 94.7001 89.3L118.4 103.8C122.4 106.3 127.6 105 130.1 101C132.6 97 131.3 91.8 127.3 89.3C126.3 88.7 125.3 88.3 124.2 88.2C123.8 88.1 123.6 87.8 123.6 87.4C124.3 82.7 122.1 78 118 75.5C112.6 72.2 105.6 73.7 101.9 78.9C101.7 79.2 101.2 79.3 100.9 79.1Z" fill="#474747"/>
<path d="M122.7 109.4C120.4 109.4 118.1 108.8 116 107.5L92.4 93C90.1 91.6 88.4 89.3 87.8 86.6C87.2 83.9 87.6 81.2 89 78.8C91.4 75 96 73.2 100.2 74.2C105.4 68.9 113.7 67.9 120.2 71.9C124.8 74.7 127.7 79.6 127.9 84.9C128.4 85.1 128.9 85.4 129.4 85.7C132.3 87.5 134.4 90.3 135.2 93.6C136 96.9 135.5 100.4 133.7 103.3C131.2 107.2 127 109.4 122.7 109.4ZM97.8 81.1C96.8 81.1 95.7 81.6 95.2 82.6C94.3 84 94.8 86 96.2 86.8L119.9 101.3C121.2 102.1 122.7 102.3 124.1 102C125.6 101.7 126.8 100.8 127.6 99.5C128.4 98.2 128.6 96.7 128.3 95.3C128 93.8 127.1 92.6 125.8 91.8C125.2 91.4 124.5 91.2 123.8 91C121.9 90.7 120.5 88.9 120.8 86.9C121.3 83.3 119.6 79.8 116.6 77.9C112.5 75.4 107.2 76.5 104.4 80.5C103.5 81.8 102 82.3 100.6 81.9H99.9L99.3 81.3C98.7 81.2 98.3 81.1 97.8 81.1Z" fill="white"/>
<path d="M93.2 95.4001C93 95.3001 92.9 95.2001 92.9 95.0001C92.8 94.6001 93 94.2001 93.4 94.2001L104.5 91.5001C104.9 91.4001 105.3 91.6001 105.3 92.0001C105.3 92.4001 105.2 92.8001 104.8 92.8001L93.7 95.5001C93.6 95.6001 93.4 95.5001 93.2 95.4001Z" fill="#474747"/>
<path d="M93.6 98.4001C92.9 98.4001 92.3 98.2001 91.7 97.9001C90.9 97.4001 90.3 96.6001 90.1 95.7001C89.9 94.8001 90 93.8001 90.5 93.0001C91 92.2001 91.8 91.6001 92.7 91.4001L103.8 88.7001C104.7 88.5001 105.7 88.6001 106.5 89.1001C107.3 89.6001 107.9 90.4001 108.1 91.3001C108.6 93.2001 107.4 95.2001 105.4 95.6001L94.3 98.3001C94.1 98.4001 93.9 98.4001 93.6 98.4001Z" fill="white"/>
<path d="M102.9 101.3C102.7 101.2 102.6 101.1 102.6 100.9C102.5 100.5 102.7 100.1 103.1 100.1L111.1 98.2C111.5 98.1 111.9 98.3 111.9 98.7C112 99.1 111.8 99.5 111.4 99.5L103.4 101.4C103.2 101.4 103 101.4 102.9 101.3Z" fill="#474747"/>
<path d="M103.2 104.3C102.5 104.3 101.9 104.1 101.3 103.8C100.5 103.3 99.9001 102.5 99.7001 101.6C99.5001 100.7 99.6001 99.7001 100.1 98.9001C100.6 98.1001 101.4 97.5001 102.3 97.3001L110.3 95.4001C112.2 94.9001 114.2 96.1001 114.6 98.1001C115.1 100 113.9 102 111.9 102.4L103.9 104.3C103.8 104.3 103.5 104.3 103.2 104.3Z" fill="white"/>
<path d="M99.7002 107.1C99.5002 107 99.4002 106.9 99.4002 106.7C99.3002 106.3 99.5002 105.9 99.9002 105.9L111.3 103.2C111.7 103.1 112.1 103.3 112.1 103.7C112.2 104.1 112 104.5 111.6 104.5L100.2 107.2C100 107.2 99.8002 107.2 99.7002 107.1Z" fill="#474747"/>
<path d="M100 110.1C99.3001 110.1 98.7001 109.9 98.1001 109.6C97.3001 109.1 96.7001 108.3 96.5001 107.4C96.3001 106.5 96.4001 105.5 96.9001 104.7C97.4001 103.9 98.2001 103.3 99.1001 103.1L110.5 100.4C111.4 100.2 112.4 100.3 113.2 100.8C114 101.3 114.6 102.1 114.8 103C115.3 104.9 114.1 106.9 112.1 107.3L100.7 110C100.6 110.1 100.3 110.1 100 110.1Z" fill="white"/>
<path d="M106.3 108.5C106.1 108.4 106 108.3 106 108.1C105.9 107.7 106.1 107.3 106.5 107.3L117.9 104.6C118.3 104.5 118.7 104.7 118.7 105.1C118.8 105.5 118.6 105.9 118.2 105.9L106.8 108.6C106.7 108.6 106.5 108.6 106.3 108.5Z" fill="#474747"/>
<path d="M106.7 111.5C106 111.5 105.4 111.3 104.8 111C104 110.5 103.4 109.7 103.2 108.8C102.7 106.9 103.9 104.9 105.9 104.4L117.3 101.7C119.2 101.2 121.2 102.4 121.6 104.4C122.1 106.3 120.9 108.3 118.9 108.7L107.5 111.4C107.2 111.5 107 111.5 106.7 111.5Z" fill="white"/>
<path d="M90 100.8C89.8 100.7 89.7 100.6 89.7 100.4C89.6 100 89.8 99.6001 90.2 99.6001L113.3 94.1001C113.7 94.0001 114.1 94.2001 114.1 94.6001C114.1 95.0001 114 95.4001 113.6 95.4001L90.5 100.9C90.3 101 90.1 100.9 90 100.8Z" fill="#474747"/>
<path d="M90.3001 103.8C89.6001 103.8 89.0001 103.6 88.4001 103.3C87.6001 102.8 87.0001 102 86.8001 101.1C86.3001 99.2001 87.5001 97.2001 89.5001 96.8001L112.6 91.3001C113.5 91.1001 114.5 91.2001 115.3 91.7001C116.1 92.2001 116.7 93.0001 116.9 93.9001C117.4 95.8001 116.2 97.8001 114.2 98.3001L91.1001 103.8C90.9001 103.8 90.6001 103.8 90.3001 103.8Z" fill="white"/>
<path d="M127.6 88.7C126.5 88 125.4 87.6 124.2 87.5C124.9 82.7 122.7 77.7 118.3 74.9C112.5 71.4 105.1 73 101.3 78.5C98.2001 76.6 94.0001 77.6 92.1001 80.7C90.2001 83.8 91.2001 88 94.3001 89.9L118 104.4C122.3 107.1 128 105.7 130.6 101.4C133.2 97.1 131.9 91.4 127.6 88.7Z" fill="#95AABD"/>
<path d="M117.6 105L93.9001 90.5C90.4001 88.4 89.3001 83.8 91.5001 80.3C93.5001 77 97.7001 75.9 101.1 77.6C105.2 72.2 112.8 70.8 118.7 74.3C123 77 125.5 81.9 125 86.9C126 87.1 127 87.5 128 88.1C132.7 91 134.1 97.1 131.3 101.7C128.3 106.4 122.2 107.9 117.6 105ZM100.9 79.1C98.1001 77.4 94.4001 78.3 92.7001 81.1C91.0001 83.9 91.9001 87.6 94.7001 89.3L118.4 103.8C122.4 106.3 127.6 105 130.1 101C132.6 97 131.3 91.8 127.3 89.3C126.3 88.7 125.3 88.3 124.2 88.2C123.8 88.1 123.6 87.8 123.6 87.4C124.3 82.7 122.1 78 118 75.5C112.6 72.2 105.6 73.7 101.9 78.9C101.7 79.2 101.2 79.3 100.9 79.1Z" fill="#474747"/>
<path d="M112.1 79.8C112.487 79.8 112.8 79.4866 112.8 79.1C112.8 78.7134 112.487 78.4 112.1 78.4C111.714 78.4 111.4 78.7134 111.4 79.1C111.4 79.4866 111.714 79.8 112.1 79.8Z" fill="#474747"/>
<path d="M116 82.2C116.387 82.2 116.7 81.8866 116.7 81.5C116.7 81.1134 116.387 80.8 116 80.8C115.613 80.8 115.3 81.1134 115.3 81.5C115.3 81.8866 115.613 82.2 116 82.2Z" fill="#474747"/>
<path d="M118 89.1001C117.9 89.0001 117.8 88.9001 117.8 88.8001C117.6 88.5001 117.7 88.0001 118.1 87.9001C121.2 86.2001 125 86.3001 128 88.2001C128.3 88.4001 128.4 88.8001 128.2 89.2001C128 89.5001 127.6 89.6001 127.2 89.4001C124.6 87.8001 121.4 87.7001 118.7 89.2001C118.5 89.2001 118.2 89.2001 118 89.1001Z" fill="#474747"/>
<path d="M113.1 84.4C113 84.3 112.9 84.2 112.9 84.1C112.6 82.8 111.3 82 109.9 82.3C109.6 82.4 109.3 82.2 109.3 81.9C109.2 81.6 109.4 81.3 109.7 81.3C111.6 80.9 113.5 82 113.9 83.9C114 84.2 113.8 84.5 113.5 84.5C113.3 84.5 113.2 84.4 113.1 84.4Z" fill="#474747"/>
<path d="M93.2 95.4001C93 95.3001 92.9 95.2001 92.9 95.0001C92.8 94.6001 93 94.2001 93.4 94.2001L104.5 91.5001C104.9 91.4001 105.3 91.6001 105.3 92.0001C105.3 92.4001 105.2 92.8001 104.8 92.8001L93.7 95.5001C93.6 95.6001 93.4 95.5001 93.2 95.4001Z" fill="#474747"/>
<path d="M102.9 101.3C102.7 101.2 102.6 101.1 102.6 100.9C102.5 100.5 102.7 100.1 103.1 100.1L111.1 98.2C111.5 98.1 111.9 98.3 111.9 98.7C112 99.1 111.8 99.5 111.4 99.5L103.4 101.4C103.2 101.4 103 101.4 102.9 101.3Z" fill="#474747"/>
<path d="M99.7 107.1C99.5 107 99.4 106.9 99.4 106.7C99.3 106.3 99.5 105.9 99.9 105.9L111.3 103.2C111.7 103.1 112.1 103.3 112.1 103.7C112.2 104.1 112 104.5 111.6 104.5L100.2 107.2C100 107.2 99.8 107.2 99.7 107.1Z" fill="#474747"/>
<path d="M106.3 108.5C106.1 108.4 106 108.3 106 108.1C105.9 107.7 106.1 107.3 106.5 107.3L117.9 104.6C118.3 104.5 118.7 104.7 118.7 105.1C118.8 105.5 118.6 105.9 118.2 105.9L106.8 108.6C106.7 108.6 106.5 108.6 106.3 108.5Z" fill="#474747"/>
<path d="M90 100.8C89.8 100.7 89.7 100.6 89.7 100.4C89.6 100 89.8 99.6001 90.2 99.6001L113.3 94.1001C113.7 94.0001 114.1 94.2001 114.1 94.6001C114.1 95.0001 114 95.4001 113.6 95.4001L90.5 100.9C90.3 101 90.1 100.9 90 100.8Z" fill="#474747"/>
<path d="M28.7999 186.3L12.2 182.1L15.3 152.8L40.0999 159.1L28.7999 186.3Z" fill="white"/>
<path d="M28.7999 188.1C28.6999 188.1 28.4999 188.1 28.3999 188L11.7999 183.8C10.9999 183.6 10.3999 182.8 10.4999 181.9L13.5999 152.6C13.6999 152.1 13.8999 151.6 14.2999 151.4C14.6999 151.1 15.1999 151 15.6999 151.1L40.5999 157.4C41.0999 157.5 41.4999 157.9 41.6999 158.3C41.8999 158.8 41.8999 159.3 41.7999 159.7L30.3999 187C30.1999 187.7 29.4999 188.1 28.7999 188.1ZM14.0999 180.8L27.7999 184.3L37.6999 160.3L16.6999 155L14.0999 180.8Z" fill="white"/>
<path d="M28.5999 187.2L11.9999 183C11.5999 182.9 11.2999 182.5 11.2999 182L14.3999 152.7C14.3999 152.4 14.5999 152.2 14.7999 152.1C14.9999 152 15.2999 151.9 15.4999 152L40.3999 158.3C40.6999 158.4 40.8999 158.5 40.9999 158.8C41.0999 159 41.0999 159.3 40.9999 159.5L29.6999 186.7C29.4999 187.1 28.9999 187.3 28.5999 187.2ZM13.1999 181.4L28.2999 185.2L38.8999 159.6L15.9999 153.9L13.1999 181.4Z" fill="#474747"/>
<path d="M28.8 189C28.6 189 28.4 189 28.2 188.9L11.6 184.7C10.3 184.4 9.49996 183.2 9.59996 181.9L12.7 152.6C12.8 151.8 13.2 151.1 13.8 150.7C14.4 150.3 15.2 150.1 16 150.3L40.9 156.6C41.6 156.8 42.3 157.3 42.6 158C42.9 158.7 43 159.5 42.7 160.2L31.4 187.4C30.9 188.3 29.9 189 28.8 189ZM15.1 180.1L27.3 183.2L36.5 160.9L17.5 156.1L15.1 180.1Z" fill="white"/>
<path d="M28.7999 186.3L12.2 182.1L15.3 152.8L40.0999 159.1L28.7999 186.3Z" fill="white"/>
<path d="M28.5999 187.2L11.9999 183C11.5999 182.9 11.2999 182.5 11.2999 182L14.3999 152.7C14.3999 152.4 14.5999 152.2 14.7999 152.1C14.9999 152 15.2999 151.9 15.4999 152L40.3999 158.3C40.6999 158.4 40.8999 158.5 40.9999 158.8C41.0999 159 41.0999 159.3 40.9999 159.5L29.6999 186.7C29.4999 187.1 28.9999 187.3 28.5999 187.2ZM13.1999 181.4L28.2999 185.2L38.8999 159.6L15.9999 153.9L13.1999 181.4Z" fill="#474747"/>
<path d="M28.7999 186.3L12.2 182.1L14.4 161.2L36.9 166.9L28.7999 186.3Z" fill="#8CBDF2"/>
<path d="M28.5999 187.2L11.9999 183C11.5999 182.9 11.2999 182.5 11.2999 182L13.4999 161.1C13.4999 160.8 13.6999 160.6 13.8999 160.5C14.0999 160.4 14.3999 160.3 14.5999 160.4L37.0999 166.1C37.3999 166.2 37.5999 166.3 37.6999 166.6C37.7999 166.8 37.7999 167.1 37.6999 167.3L29.5999 186.7C29.4999 187.1 28.9999 187.3 28.5999 187.2ZM13.1999 181.4L28.2999 185.2L35.6999 167.4L15.1999 162.2L13.1999 181.4Z" fill="#474747"/>
<path d="M27.8999 180.1H27.7999C27.2999 179.9 27.0999 179.4 27.2999 178.9L33.6999 163.4C33.8999 162.9 34.3999 162.7 34.8999 162.9C35.3999 163.1 35.5999 163.6 35.3999 164.1L28.9999 179.6C28.7999 180 28.2999 180.2 27.8999 180.1Z" fill="#474747"/>
<path d="M35.1 148.1L31.2001 149.5L26.8 138.7L31.9 137L35.1 148.1Z" fill="#EB794E"/>
<path d="M30.2 151.6L24.5 137.7L33 134.7L37.3 149.1L30.2 151.6ZM29.1 139.8L32.2 147.3L33 147L30.7 139.3L29.1 139.8Z" fill="white"/>
<path d="M35.4 148.7L31.4 150.1C31 150.2 30.6 150 30.5 149.7L26.1 139C26 138.8 26 138.6 26.1 138.4C26.2 138.2 26.3 138.1 26.5 138L31.6 136.2C31.8 136.1 32 136.1 32.2 136.2C32.4 136.3 32.5 136.4 32.6 136.6L35.9 147.7C35.9 148.2 35.7 148.6 35.4 148.7ZM31.6 148.5L34.3 147.6L31.4 137.9L27.8 139.2L31.6 148.5Z" fill="#474747"/>
<path d="M31.2 151.9C30.2 151.9 29.3 151.3 28.9 150.4L24.5 139.7C24.2 139.1 24.3 138.4 24.5 137.8C24.8 137.2 25.3 136.7 25.9 136.5L31 134.7C31.6 134.5 32.3 134.5 32.9 134.8C33.5 135.1 34 135.7 34.1 136.3L37.4 147.4C37.8 148.7 37.1 150 35.9 150.4L31.9 151.8C31.7 151.9 31.4 151.9 31.2 151.9ZM30.1 140.2L30.8 141.9L30.3 140.2H30.1Z" fill="white"/>
<path d="M35.8768 150.228L31.9146 151.62L33.3073 155.583L37.2696 154.19L35.8768 150.228Z" fill="#EB794E"/>
<path d="M32.3001 157.8L29.7001 150.5L37.0001 148L39.6001 155.3L32.3001 157.8ZM34.2001 152.7L34.4001 153.4L35.1001 153.2L34.9001 152.5L34.2001 152.7Z" fill="white"/>
<path d="M37.6001 154.9L33.6001 156.3C33.2001 156.4 32.8001 156.2 32.7001 155.9L31.3001 151.9C31.2001 151.5 31.4001 151.1 31.7001 151L35.7001 149.6C36.1001 149.5 36.5001 149.7 36.6001 150L38.0001 154C38.1001 154.4 37.9001 154.8 37.6001 154.9ZM33.8001 154.7L36.4001 153.8L35.5001 151.2L32.9001 152.1L33.8001 154.7Z" fill="#474747"/>
<path d="M33.3 158.1C32.3 158.1 31.3 157.5 31 156.4L29.6 152.4C29.1 151.1 29.8 149.7 31.1 149.2L35.1 147.8C35.7 147.6 36.4 147.6 37 147.9C37.6 148.2 38 148.7 38.3 149.3L39.7 153.3C39.9 153.9 39.9 154.6 39.6 155.2C39.3 155.8 38.8 156.2 38.2 156.5L34.2 157.9C33.9 158 33.6 158.1 33.3 158.1Z" fill="white"/>
<path d="M35.1 148.1L31.2001 149.5L26.8 138.7L31.9 137L35.1 148.1Z" fill="#FF911A"/>
<path d="M35.4 148.7L31.4 150.1C31 150.2 30.6 150 30.5 149.7L26.1 139C26 138.8 26 138.6 26.1 138.4C26.2 138.2 26.3 138.1 26.5 138L31.6 136.2C31.8 136.1 32 136.1 32.2 136.2C32.4 136.3 32.5 136.4 32.6 136.6L35.9 147.7C35.9 148.2 35.7 148.6 35.4 148.7ZM31.6 148.5L34.3 147.6L31.4 137.9L27.8 139.2L31.6 148.5Z" fill="#474747"/>
<path d="M35.8768 150.228L31.9146 151.621L33.3073 155.583L37.2696 154.19L35.8768 150.228Z" fill="#FF911A"/>
<path d="M37.6001 154.9L33.6001 156.3C33.2001 156.4 32.8001 156.2 32.7001 155.9L31.3001 151.9C31.2001 151.5 31.4001 151.1 31.7001 151L35.7001 149.6C36.1001 149.5 36.5001 149.7 36.6001 150L38.0001 154C38.1001 154.4 37.9001 154.8 37.6001 154.9ZM33.8001 154.7L36.4001 153.8L35.5001 151.2L32.9001 152.1L33.8001 154.7Z" fill="#474747"/>
<path d="M27.7 101.9C26.3 101.9 25.2 100.8 25.2 99.3999C25.2 97.9999 24.1 96.8999 22.7 96.8999H22.6C21.2 96.8999 20.1 97.9999 20.1 99.3999C20.1 100.8 19 101.9 17.6 101.9C16.2 101.9 15.1 103 15.1 104.4V104.5C15.1 105.9 16.2 107 17.6 107C19 107 20.1 108.1 20.1 109.5C20.1 110.9 21.2 112 22.6 112H22.7C24.1 112 25.2 110.9 25.2 109.5C25.2 108.1 26.3 107 27.7 107C29.1 107 30.2 105.9 30.2 104.5V104.4C30.1 103 29 101.9 27.7 101.9Z" fill="#1E95FF"/>
<path d="M22.8 113.5H22.7C20.4 113.5 18.5 111.6 18.5 109.3C18.5 108.9 18.2 108.6 17.8 108.6C15.5 108.6 13.6 106.7 13.6 104.4V104.3C13.6 102 15.5 100.1 17.8 100.1C18.2 100.1 18.5 99.8 18.5 99.4C18.5 97.1 20.4 95.2 22.7 95.2H22.8C25.1 95.2 27 97.1 27 99.4C27 99.8 27.3 100.1 27.7 100.1C30 100.1 31.9 102 31.9 104.3V104.4C31.9 106.7 30 108.6 27.7 108.6C27.3 108.6 27 108.9 27 109.3C27 111.6 25.1 113.5 22.8 113.5ZM22.7 98.7C22.3 98.7 22 99 22 99.4C22 101.7 20.1 103.6 17.8 103.6C17.4 103.6 17.1 103.9 17.1 104.3V104.4C17.1 104.8 17.4 105.1 17.8 105.1C20.1 105.1 22 107 22 109.3C22 109.7 22.3 110 22.7 110H22.8C23.2 110 23.5 109.7 23.5 109.3C23.5 107 25.4 105.1 27.7 105.1C28.1 105.1 28.4 104.8 28.4 104.4V104.3C28.4 103.9 28.1 103.6 27.7 103.6C25.4 103.6 23.5 101.7 23.5 99.4C23.5 99 23.2 98.7 22.8 98.7H22.7Z" fill="white"/>
<path d="M22.8 112.5H22.7C20.9 112.5 19.5 111.1 19.5 109.3C19.5 108.3 18.7 107.6 17.8 107.6C16 107.6 14.6 106.2 14.6 104.4V104.3C14.6 102.5 16 101.1 17.8 101.1C18.8 101.1 19.5 100.3 19.5 99.4C19.5 97.6 20.9 96.2 22.7 96.2H22.8C24.6 96.2 26 97.6 26 99.4C26 100.4 26.8 101.1 27.7 101.1C29.5 101.1 30.9 102.5 30.9 104.3V104.4C30.9 106.2 29.5 107.6 27.7 107.6C26.7 107.6 26 108.4 26 109.3C25.9 111.1 24.5 112.5 22.8 112.5ZM22.7 97.7C21.7 97.7 21 98.5 21 99.4C21 101.2 19.6 102.6 17.8 102.6C16.8 102.6 16.1 103.4 16.1 104.3V104.4C16.1 105.4 16.9 106.1 17.8 106.1C19.6 106.1 21 107.5 21 109.3C21 110.3 21.8 111 22.7 111H22.8C23.8 111 24.5 110.2 24.5 109.3C24.5 107.5 25.9 106.1 27.7 106.1C28.7 106.1 29.4 105.3 29.4 104.4V104.3C29.4 103.3 28.6 102.6 27.7 102.6C25.9 102.6 24.5 101.2 24.5 99.4C24.5 98.4 23.7 97.7 22.8 97.7H22.7Z" fill="#474747"/>
<path d="M22.8 114.2H22.7C20 114.2 17.8 112 17.8 109.3C15.1 109.3 12.9 107.1 12.9 104.4V104.3C12.9 101.6 15.1 99.4 17.8 99.4C17.8 96.7 20 94.5 22.7 94.5H22.8C25.5 94.5 27.7 96.7 27.7 99.4C30.4 99.4 32.6 101.6 32.6 104.3V104.4C32.6 107.1 30.4 109.3 27.7 109.3C27.7 112 25.5 114.2 22.8 114.2ZM17.8 104.4C20.5 104.4 22.7 106.6 22.7 109.3H22.8C22.8 106.6 25 104.4 27.7 104.4V104.3C25 104.3 22.8 102.1 22.8 99.4H22.7C22.7 102.1 20.5 104.3 17.8 104.4ZM22.7 98V99.5V98Z" fill="white"/>
<path d="M41.9 107.5C40.4 107.9 38.8 107 38.4 105.5C38 104 36.4 103.1 34.9 103.5H34.8C33.3 103.9 32.4 105.5 32.8 107C33.2 108.5 32.3 110.1 30.8 110.5C29.3 110.9 28.4 112.5 28.8 114V114.1C29.2 115.6 30.8 116.5 32.3 116.1C33.8 115.7 35.4 116.6 35.8 118.1C36.2 119.6 37.8 120.5 39.3 120.1H39.4C40.9 119.7 41.8 118.1 41.4 116.6C41 115.1 41.9 113.5 43.4 113.1C44.9 112.7 45.8 111.1 45.4 109.6V109.5C44.9 108 43.4 107.1 41.9 107.5Z" fill="#1E95FF"/>
<path d="M38.5 121.9C37.7 121.9 36.9 121.7 36.2 121.3C35.1 120.7 34.4 119.7 34.1 118.5C34 118.2 33.8 118 33.6 117.8C33.3 117.7 33.1 117.6 32.8 117.7C31.6 118 30.4 117.9 29.3 117.2C28.2 116.6 27.5 115.6 27.2 114.4V114.3C26.5 111.9 28 109.3 30.4 108.7C31 108.5 31.3 107.9 31.2 107.4C30.9 106.2 31 105 31.7 103.9C32.3 102.8 33.3 102.1 34.5 101.8H34.6C37 101.1 39.6 102.6 40.2 105C40.4 105.6 41 105.9 41.5 105.8C43.9 105.1 46.5 106.6 47.1 109V109.1C47.7 111.5 46.3 114 43.9 114.7C43.3 114.9 43 115.5 43.1 116C43.4 117.2 43.3 118.4 42.6 119.5C42 120.6 41 121.3 39.8 121.6H39.7C39.3 121.9 38.9 121.9 38.5 121.9ZM33 114.2C33.8 114.2 34.6 114.4 35.3 114.8C36.4 115.4 37.1 116.4 37.4 117.6C37.5 117.9 37.7 118.1 37.9 118.3C38.2 118.4 38.4 118.5 38.7 118.4H38.8C39.4 118.2 39.7 117.6 39.6 117.1C39.3 115.9 39.4 114.7 40.1 113.6C40.7 112.5 41.7 111.8 42.9 111.5C43.5 111.3 43.8 110.7 43.7 110.2V110.1C43.5 109.5 42.9 109.2 42.4 109.3C41.2 109.6 40 109.5 38.9 108.8C37.8 108.2 37.1 107.2 36.8 106C36.7 105.7 36.5 105.5 36.3 105.3C36 105.2 35.8 105.1 35.5 105.2H35.4C34.8 105.4 34.5 106 34.6 106.5C34.9 107.7 34.8 108.9 34.1 110C33.5 111.1 32.5 111.8 31.3 112.1C31 112.2 30.8 112.4 30.6 112.6C30.5 112.9 30.4 113.1 30.5 113.4V113.5C30.7 114.1 31.3 114.4 31.8 114.3C32.2 114.3 32.6 114.2 33 114.2Z" fill="white"/>
<path d="M38.5 120.9C37.9 120.9 37.3 120.7 36.7 120.4C35.9 119.9 35.3 119.2 35 118.2C34.9 117.7 34.5 117.2 34 116.9C33.5 116.6 32.9 116.5 32.4 116.7C31.5 116.9 30.5 116.8 29.7 116.3C28.9 115.8 28.3 115.1 28 114.1V114C27.8 113.1 27.9 112.1 28.4 111.3C28.9 110.5 29.6 109.9 30.6 109.6C31.7 109.3 32.4 108.1 32.1 107C31.9 106.1 32 105.1 32.5 104.3C33 103.5 33.7 102.9 34.7 102.6H34.8C36.7 102.1 38.7 103.2 39.2 105.1C39.3 105.6 39.7 106.1 40.2 106.4C40.7 106.7 41.3 106.8 41.8 106.6C43.7 106.1 45.7 107.2 46.2 109.1V109.2C46.7 111.1 45.6 113.1 43.7 113.6C43.2 113.7 42.7 114.1 42.4 114.6C42.1 115.1 42 115.7 42.2 116.2C42.4 117.1 42.3 118.1 41.8 118.9C41.3 119.7 40.6 120.3 39.6 120.6H39.5C39.1 120.9 38.8 120.9 38.5 120.9ZM33 115.2C33.6 115.2 34.2 115.4 34.8 115.7C35.6 116.2 36.2 116.9 36.5 117.9C36.6 118.4 37 118.9 37.5 119.2C38 119.5 38.6 119.6 39.1 119.4H39.2C40.3 119.1 41 117.9 40.7 116.8C40.5 115.9 40.6 114.9 41.1 114.1C41.6 113.3 42.3 112.7 43.3 112.4C44.4 112.1 45.1 110.9 44.8 109.8V109.7C44.5 108.6 43.3 107.9 42.2 108.2C40.3 108.7 38.3 107.6 37.8 105.7C37.5 104.6 36.3 103.9 35.2 104.2H35.1C34.6 104.3 34.1 104.7 33.8 105.2C33.5 105.7 33.4 106.3 33.6 106.8C34.1 108.7 33 110.7 31.1 111.2C30.6 111.3 30.1 111.7 29.8 112.2C29.5 112.7 29.4 113.3 29.6 113.8V113.9C29.7 114.4 30.1 114.9 30.6 115.2C31.1 115.5 31.7 115.6 32.2 115.4C32.4 115.3 32.7 115.2 33 115.2Z" fill="#474747"/>
<path d="M38.5001 122.6C37.6001 122.6 36.7001 122.4 35.8001 121.9C34.6001 121.2 33.7001 120 33.3001 118.7C33.3001 118.6 33.2001 118.5 33.1001 118.5C33.0001 118.5 32.9001 118.4 32.8001 118.5C31.4001 118.9 30.0001 118.7 28.8001 118C27.6001 117.3 26.7001 116.1 26.3001 114.8V114.7C25.9001 113.3 26.1001 111.9 26.8001 110.7C27.5001 109.5 28.7001 108.6 30.0001 108.2C30.1001 108.2 30.2001 108.1 30.2001 108C30.2001 107.9 30.3001 107.8 30.2001 107.7C29.8001 106.3 30.0001 104.9 30.7001 103.7C31.4001 102.5 32.6001 101.6 33.9001 101.2H34.0001C36.8001 100.4 39.7001 102.1 40.5001 105C40.5001 105.1 40.6001 105.2 40.7001 105.2C40.8001 105.2 40.9001 105.3 41.0001 105.2C43.8001 104.4 46.7001 106.1 47.5001 109V109.1C48.3001 111.9 46.6001 114.8 43.7001 115.6C43.6001 115.6 43.5001 115.7 43.5001 115.8C43.4001 115.9 43.4001 116 43.5001 116.1C43.9001 117.5 43.7001 118.9 43.0001 120.1C42.3001 121.3 41.1001 122.2 39.8001 122.6H39.7001C39.4001 122.6 38.9001 122.6 38.5001 122.6ZM33.0001 113.5C33.9001 113.5 34.8001 113.7 35.7001 114.2C36.9001 114.9 37.8001 116.1 38.2001 117.4C38.2001 117.5 38.3001 117.6 38.4001 117.6C38.5001 117.7 38.6001 117.7 38.7001 117.6H38.8001C39.0001 117.5 39.1001 117.3 39.1001 117.2C38.7001 115.8 38.9001 114.4 39.6001 113.2C40.3001 112 41.5001 111.1 42.8001 110.7C43.0001 110.6 43.1001 110.4 43.1001 110.3V110.2C43.1001 110.1 43.0001 110 42.9001 110C42.8001 110 42.7001 109.9 42.6001 110C39.8001 110.8 36.9001 109.1 36.1001 106.2C36.1001 106.1 36.0001 106 35.9001 106C35.8001 106 35.7001 105.9 35.6001 106H35.5001C35.4001 106 35.3001 106.1 35.3001 106.2C35.2001 106.3 35.2001 106.4 35.3001 106.5C36.1001 109.3 34.4001 112.2 31.5001 113C31.4001 113 31.3001 113.1 31.3001 113.2C31.2001 113.3 31.2001 113.4 31.3001 113.5V113.6C31.3001 113.7 31.4001 113.8 31.5001 113.8C31.6001 113.9 31.7001 113.9 31.8001 113.8C32.1001 113.5 32.5001 113.5 33.0001 113.5Z" fill="white"/>
<path d="M27.7 101.9C26.3 101.9 25.2 100.8 25.2 99.3999C25.2 97.9999 24.1 96.8999 22.7 96.8999H22.6C21.2 96.8999 20.1 97.9999 20.1 99.3999C20.1 100.8 19 101.9 17.6 101.9C16.2 101.9 15.1 103 15.1 104.4V104.5C15.1 105.9 16.2 107 17.6 107C19 107 20.1 108.1 20.1 109.5C20.1 110.9 21.2 112 22.6 112H22.7C24.1 112 25.2 110.9 25.2 109.5C25.2 108.1 26.3 107 27.7 107C29.1 107 30.2 105.9 30.2 104.5V104.4C30.1 103 29 101.9 27.7 101.9Z" fill="#1E95FF"/>
<path d="M22.8 112.5H22.7C20.9 112.5 19.5 111.1 19.5 109.3C19.5 108.3 18.7 107.6 17.8 107.6C16 107.6 14.6 106.2 14.6 104.4V104.3C14.6 102.5 16 101.1 17.8 101.1C18.8 101.1 19.5 100.3 19.5 99.4C19.5 97.6 20.9 96.2 22.7 96.2H22.8C24.6 96.2 26 97.6 26 99.4C26 100.4 26.8 101.1 27.7 101.1C29.5 101.1 30.9 102.5 30.9 104.3V104.4C30.9 106.2 29.5 107.6 27.7 107.6C26.7 107.6 26 108.4 26 109.3C25.9 111.1 24.5 112.5 22.8 112.5ZM22.7 97.7C21.7 97.7 21 98.5 21 99.4C21 101.2 19.6 102.6 17.8 102.6C16.8 102.6 16.1 103.4 16.1 104.3V104.4C16.1 105.4 16.9 106.1 17.8 106.1C19.6 106.1 21 107.5 21 109.3C21 110.3 21.8 111 22.7 111H22.8C23.8 111 24.5 110.2 24.5 109.3C24.5 107.5 25.9 106.1 27.7 106.1C28.7 106.1 29.4 105.3 29.4 104.4V104.3C29.4 103.3 28.6 102.6 27.7 102.6C25.9 102.6 24.5 101.2 24.5 99.4C24.5 98.4 23.7 97.7 22.8 97.7H22.7Z" fill="#474747"/>
<path d="M41.9 107.5C40.4 107.9 38.8 107 38.4 105.5C38 104 36.4 103.1 34.9 103.5H34.8C33.3 103.9 32.4 105.5 32.8 107C33.2 108.5 32.3 110.1 30.8 110.5C29.3 110.9 28.4 112.5 28.8 114V114.1C29.2 115.6 30.8 116.5 32.3 116.1C33.8 115.7 35.4 116.6 35.8 118.1C36.2 119.6 37.8 120.5 39.3 120.1H39.4C40.9 119.7 41.8 118.1 41.4 116.6C41 115.1 41.9 113.5 43.4 113.1C44.9 112.7 45.8 111.1 45.4 109.6V109.5C44.9 108 43.4 107.1 41.9 107.5Z" fill="#1E95FF"/>
<path d="M38.5 120.9C37.9 120.9 37.3 120.7 36.7 120.4C35.9 119.9 35.3 119.2 35 118.2C34.9 117.7 34.5 117.2 34 116.9C33.5 116.6 32.9 116.5 32.4 116.7C31.5 116.9 30.5 116.8 29.7 116.3C28.9 115.8 28.3 115.1 28 114.1V114C27.8 113.1 27.9 112.1 28.4 111.3C28.9 110.5 29.6 109.9 30.6 109.6C31.7 109.3 32.4 108.1 32.1 107C31.9 106.1 32 105.1 32.5 104.3C33 103.5 33.7 102.9 34.7 102.6H34.8C36.7 102.1 38.7 103.2 39.2 105.1C39.3 105.6 39.7 106.1 40.2 106.4C40.7 106.7 41.3 106.8 41.8 106.6C43.7 106.1 45.7 107.2 46.2 109.1V109.2C46.7 111.1 45.6 113.1 43.7 113.6C43.2 113.7 42.7 114.1 42.4 114.6C42.1 115.1 42 115.7 42.2 116.2C42.4 117.1 42.3 118.1 41.8 118.9C41.3 119.7 40.6 120.3 39.6 120.6H39.5C39.1 120.9 38.8 120.9 38.5 120.9ZM33 115.2C33.6 115.2 34.2 115.4 34.8 115.7C35.6 116.2 36.2 116.9 36.5 117.9C36.6 118.4 37 118.9 37.5 119.2C38 119.5 38.6 119.6 39.1 119.4H39.2C40.3 119.1 41 117.9 40.7 116.8C40.5 115.9 40.6 114.9 41.1 114.1C41.6 113.3 42.3 112.7 43.3 112.4C44.4 112.1 45.1 110.9 44.8 109.8V109.7C44.5 108.6 43.3 107.9 42.2 108.2C40.3 108.7 38.3 107.6 37.8 105.7C37.5 104.6 36.3 103.9 35.2 104.2H35.1C34.6 104.3 34.1 104.7 33.8 105.2C33.5 105.7 33.4 106.3 33.6 106.8C34.1 108.7 33 110.7 31.1 111.2C30.6 111.3 30.1 111.7 29.8 112.2C29.5 112.7 29.4 113.3 29.6 113.8V113.9C29.7 114.4 30.1 114.9 30.6 115.2C31.1 115.5 31.7 115.6 32.2 115.4C32.4 115.3 32.7 115.2 33 115.2Z" fill="#474747"/>
</svg>
