<svg width="168" height="225" viewBox="0 0 168 225" fill="none" xmlns="http://www.w3.org/2000/svg">
<mask id="mask0" mask-type="alpha" maskUnits="userSpaceOnUse" x="0" y="0" width="168" height="225">
<rect width="168" height="225" rx="14" fill="#FFD7D5"/>
</mask>
<g mask="url(#mask0)">
<g clip-path="url(#clip0)">
<path d="M143.314 119.909L143.142 120.024C139.865 121.748 132.22 113.701 126.012 102.032C119.804 90.3626 117.39 79.4984 120.666 77.7739L120.896 77.6589C124.23 76.3943 131.703 84.3844 137.796 95.766C143.832 107.148 146.246 117.839 143.314 119.909Z" fill="white"/>
<path d="M142.165 126.002C138.945 126.002 135.382 123.99 131.53 119.966C127.966 116.23 124.172 110.769 120.953 104.676C118.712 100.422 111.469 85.8789 113.998 77.6589C114.86 74.7848 116.642 73.3477 117.964 72.6579C118.079 72.6005 118.194 72.543 118.309 72.4855L118.539 72.3705C118.654 72.313 118.769 72.2556 118.827 72.2556C124.92 69.9562 130.611 76.0494 132.45 78.0038C135.956 81.7402 139.635 87.0861 142.797 93.0068C145.958 98.9275 148.315 104.963 149.465 110.022C151.074 117.15 150.097 122.093 146.533 124.565C146.418 124.622 146.361 124.68 146.246 124.737L146.073 124.852C145.958 124.91 145.901 124.967 145.786 125.025C144.636 125.714 143.429 126.002 142.165 126.002ZM126.414 88.6381C127.391 91.5697 128.886 95.2486 131.07 99.3299C133.255 103.411 135.439 106.688 137.336 109.159C136.359 106.228 134.864 102.549 132.68 98.4676C130.553 94.3289 128.369 91.0524 126.414 88.6381Z" fill="white"/>
<path d="M120.436 134.337C120.436 134.337 108.997 163.193 135.841 177.104C154.983 187.048 176.252 179.001 176.252 179.001V219.584C176.252 219.584 119.344 217.744 100.317 192.739C80.6006 166.7 90.2577 136.464 90.2577 136.464L91.8672 130.141L102.846 123.817L122.448 112.608C122.448 112.608 131.243 116.747 132.967 121.461C134.232 124.737 134.404 133.417 120.436 134.337Z" fill="white"/>
<path d="M176.252 225.332C176.194 225.332 176.137 225.332 176.079 225.332C175.504 225.332 161.134 224.815 144.234 221.193C120.838 216.135 104.513 207.742 95.776 196.246C75.0248 168.941 83.8771 137.786 84.7968 134.912L86.4063 128.761C86.8087 127.266 87.7859 126.002 89.108 125.197L100.087 118.874L119.746 107.665C121.356 106.745 123.368 106.63 125.035 107.435C127.621 108.642 136.129 113.068 138.486 119.564C139.693 122.84 139.923 127.956 137.049 132.325C134.577 136.119 130.496 138.533 124.862 139.625C124.23 142.212 123.54 146.178 123.828 150.604C124.46 160.147 129.403 167.332 138.486 172.045C155.041 180.61 174.067 173.712 174.24 173.655C176.022 173.023 177.976 173.253 179.528 174.345C181.08 175.437 182 177.161 182 179.058V219.584C182 221.136 181.368 222.63 180.276 223.722C179.183 224.757 177.746 225.332 176.252 225.332ZM96.8682 133.877L95.8335 137.843C95.8335 137.958 95.776 138.073 95.7185 138.131C95.6611 138.418 87.2686 166.01 104.858 189.175C117.504 205.845 152.281 211.938 170.446 213.433V186.416C161.766 188.198 147.051 189.348 133.14 182.162C116.872 173.712 112.791 160.434 112.274 150.777C111.699 140.66 114.86 132.497 115.033 132.152C115.837 130.083 117.792 128.704 119.976 128.531C123.713 128.301 126.414 127.324 127.334 125.944C127.966 124.967 127.736 123.76 127.564 123.358C127.219 122.38 125.035 120.598 122.563 119.104L105.721 128.818L96.8682 133.877Z" fill="white"/>
<path d="M132.852 108.987L90.3152 137.728L80.8305 119.966L124.92 93.4667C125.61 93.0643 126.472 93.0068 127.219 93.3517C128.599 94.099 130.84 95.8809 133.082 100.365C134.749 103.699 134.289 106.343 133.887 107.665C133.657 108.24 133.255 108.7 132.852 108.987Z" fill="white"/>
<path d="M88.1883 146.121L73.1279 117.954L121.873 88.6381C124.287 87.201 127.334 87.0861 129.806 88.4082C133.025 90.1327 135.841 93.2942 138.141 97.8928C140.727 103.066 139.98 107.435 139.233 109.562C138.658 111.286 137.508 112.781 136.014 113.816L88.1883 146.121ZM88.4182 122.151L92.3271 129.451L128.426 105.021C128.426 104.503 128.254 103.871 127.851 103.009C127.047 101.399 126.299 100.365 125.724 99.6748L88.4182 122.151Z" fill="white"/>
<path d="M109.342 97.6629C109.342 97.6629 109.572 92.8918 112.676 93.0068C115.837 93.1218 120.896 98.0078 122.678 104.331C124.402 110.654 121.643 112.149 119.516 112.608C117.39 113.068 112.159 108.01 112.159 108.01L109.342 97.6629Z" fill="white"/>
<path d="M119.229 118.357C116.297 118.357 113.653 116.632 111.526 115.023C109.744 113.643 108.307 112.263 108.135 112.091L106.985 110.999L103.479 98.2952L103.536 97.3755C103.766 92.1445 107.043 86.9711 112.848 87.201C118.999 87.431 125.839 94.3864 128.139 102.721C129.346 107.09 129.116 110.711 127.391 113.528C126.414 115.195 124.46 117.322 120.666 118.127C120.264 118.357 119.746 118.357 119.229 118.357Z" fill="white"/>
<path d="M101.639 101.974C99.1675 98.6976 102.501 95.0187 105.95 94.9612C109.744 94.9037 112.101 98.3527 113.711 101.342C115.378 104.503 117.677 110.137 113.711 112.608C112.159 113.586 110.089 113.183 108.94 111.689C108.94 111.689 101.639 102.032 101.639 101.974Z" fill="white"/>
<path d="M111.871 118.874C108.997 118.874 106.18 117.552 104.341 115.138C104.341 115.138 97.5005 106.055 97.0981 105.481C94.8563 102.491 94.4539 98.7551 96.0634 95.4786C97.8454 91.8571 101.754 89.3279 105.835 89.2704C111.066 89.1555 115.435 92.317 118.769 98.7551C120.838 102.721 124.805 112.551 116.757 117.552C115.263 118.414 113.538 118.874 111.871 118.874Z" fill="white"/>
<path d="M94.9138 106.228C93.1893 104.446 93.8791 100.767 95.891 99.5023C101.467 95.9384 112.618 108.125 107.445 112.608C104.801 114.85 99.5699 110.941 99.5699 110.941C99.5699 110.941 94.9713 106.228 94.9138 106.228Z" fill="white"/>
<path d="M105.376 119.046C103.939 119.046 102.214 118.759 100.26 117.897C98.0753 116.977 96.4083 115.77 96.1209 115.54L95.776 115.253L90.8325 110.194C88.8206 108.182 87.9009 105.251 88.2458 102.204C88.5907 99.0425 90.3152 96.1683 92.7869 94.6163C97.5005 91.6272 105.318 92.7769 111.181 100.709C115.55 106.63 115.55 113.126 111.124 116.92C110.147 117.897 108.192 119.046 105.376 119.046Z" fill="white"/>
<path d="M91.3499 113.298C91.3499 113.298 91.6373 112.493 96.8107 117.494C102.329 122.84 107.445 113.586 98.7076 106.285C93.7066 102.147 89.9128 103.354 87.9009 105.136C84.1645 108.355 86.5788 116.172 86.5788 116.172L91.3499 113.298Z" fill="white"/>
<path d="M100.087 124.852C97.558 124.852 95.0288 123.76 92.8444 121.633C92.2121 121.001 91.6373 120.484 91.2349 120.081L83.2448 124.737L81.1179 117.782C81.0605 117.494 80.3132 115.08 80.1407 112.149C79.7958 105.94 82.1526 102.491 84.1645 100.767C88.1883 97.2605 95.0862 95.766 102.444 101.859C107.617 106.17 110.032 111.861 108.997 117.092C108.25 120.713 105.95 123.473 102.731 124.45C101.812 124.737 100.949 124.852 100.087 124.852Z" fill="white"/>
<path d="M119.229 118.357C116.47 118.357 113.941 116.747 111.929 115.31C109.399 113.413 108.882 109.792 110.779 107.263C112.216 105.308 114.745 104.561 116.93 105.136C116.355 103.411 115.665 102.089 114.573 100.824C112.503 98.4102 112.733 94.7888 115.148 92.7194C117.562 90.65 121.183 90.8799 123.253 93.2942C125.552 95.9959 127.219 99.0425 128.196 102.721C129.403 107.09 129.173 110.711 127.449 113.528C126.472 115.195 124.517 117.322 120.723 118.127C120.264 118.357 119.746 118.357 119.229 118.357Z" fill="white"/>
<path d="M115.837 128.991L103.019 124.22C99.2825 122.84 97.3855 118.759 98.7076 115.138C100.087 111.516 104.168 109.677 107.905 111.056L122.908 116.632" fill="white"/>
<path d="M115.837 134.739C115.148 134.739 114.515 134.624 113.826 134.394L101.007 129.623C97.7879 128.416 95.2012 126.059 93.7641 123.013C92.2696 119.909 92.1546 116.402 93.3618 113.183C94.5689 109.964 96.9832 107.435 100.145 105.998C103.249 104.618 106.755 104.503 109.974 105.71L124.977 111.286C127.966 112.378 129.461 115.712 128.369 118.702C127.277 121.691 123.943 123.185 120.953 122.093L105.95 116.517C105.433 116.345 105.031 116.46 104.801 116.517C104.571 116.632 104.283 116.805 104.168 117.207C104.054 117.609 104.111 117.897 104.226 118.127C104.341 118.357 104.571 118.702 105.088 118.874L117.907 123.645C120.896 124.737 122.391 128.071 121.298 131.06C120.379 133.302 118.137 134.739 115.837 134.739Z" fill="white"/>
<path d="M79.2785 162.158L79.0486 162.273C75.5996 164.17 66.7473 154.571 59.2745 140.832C51.8018 127.094 48.4678 114.448 51.9168 112.608C55.3657 110.711 64.218 120.311 71.6908 134.049C78.9911 147.5 82.3251 159.859 79.2785 162.158Z" fill="white"/>
<path d="M78.0714 168.309C72.8979 168.309 68.2418 163.251 66.4599 161.296C62.4361 156.928 58.0674 150.604 54.2161 143.592C49.33 134.624 38.9832 113.126 49.1001 107.55C59.2745 101.974 71.8058 122.323 76.6918 131.29C80.4282 138.131 83.3598 145.086 84.9118 150.777C85.7166 153.708 88.1308 162.676 82.7275 166.757C82.6125 166.815 82.4975 166.929 82.3826 166.987L82.1526 167.102C82.0377 167.159 81.9227 167.274 81.8077 167.332C80.5431 168.022 79.2785 168.309 78.0714 168.309ZM57.78 123.415C59.0446 127.266 61.114 132.267 64.2755 138.073C67.4371 143.879 70.5411 148.305 73.1279 151.467C71.8632 147.615 69.7939 142.614 66.6323 136.809C63.4708 131.003 60.3667 126.577 57.78 123.415Z" fill="white"/>
<path d="M53.9861 112.608C53.1239 112.321 52.4341 112.321 51.8593 112.608L65.0228 105.481C69.6789 102.951 79.3935 111.746 86.6938 125.14C94.0515 138.533 96.1784 151.467 91.5798 153.996L79.2785 162.158C79.7958 161.756 80.1407 161.066 80.3132 160.089" fill="white"/>
<path d="M79.2785 167.907C77.4391 167.907 75.7146 167.044 74.5649 165.435C73.0704 163.308 73.2428 160.549 74.7374 158.595C75.4272 155.95 77.9564 154.111 80.7156 154.341L88.1883 149.455C88.7057 147.443 88.0733 139.568 81.6928 127.956C75.4272 116.46 69.1616 111.689 67.1497 110.941L59.1596 115.195C58.0099 117.437 55.4807 118.702 53.0089 118.242C50.5947 118.702 48.0654 117.609 46.8583 115.368C45.3637 112.608 46.3984 109.102 49.1576 107.55C49.1576 107.55 49.1576 107.55 49.2151 107.55L62.3211 100.422C63.8731 99.5598 66.5748 98.7551 70.1388 99.7898C78.3013 102.147 86.6363 113.011 91.8097 122.438C95.6611 129.451 98.3627 136.694 99.3399 142.787C101.007 152.846 97.7879 157.157 94.6264 158.997L82.44 166.987C81.4628 167.619 80.3707 167.907 79.2785 167.907Z" fill="white"/>
<path d="M80.3132 160.089C81.0605 155.49 77.7265 145.144 71.6908 134.107C65.4252 122.668 58.2398 114.103 54.0436 112.666" fill="white"/>
<path d="M85.9465 160.951L74.6224 159.112C75.0248 156.698 72.7255 147.96 66.6323 136.751C60.1943 124.91 53.9861 118.702 52.1467 117.954L55.9405 107.09C59.1021 108.182 62.551 111.056 66.5173 115.827C69.9663 120.024 73.5302 125.312 76.6918 131.175C81.9227 140.89 87.1536 153.708 85.9465 160.951Z" fill="white"/>
<path d="M80.3132 165.837C80.0258 165.837 79.6809 165.837 79.3935 165.78C76.2319 165.262 74.1051 162.331 74.6224 159.169C75.0248 156.755 72.7255 148.018 66.6323 136.809C60.1943 124.967 53.9861 118.759 52.1467 118.012C49.1576 116.977 47.5481 113.701 48.6402 110.711C49.6749 107.722 52.9514 106.113 55.9405 107.205C59.1021 108.297 62.551 111.171 66.5173 115.942C69.9663 120.139 73.5302 125.427 76.6918 131.29C81.9227 140.89 87.0961 153.708 85.9465 160.951C85.4866 163.825 83.0724 165.837 80.3132 165.837Z" fill="white"/>
<path d="M152.971 113.816L143.314 119.909C146.246 117.839 143.832 107.205 137.738 95.766C131.703 84.3844 124.23 76.3943 120.838 77.6589L131.128 72.8879C134.289 71.2209 143.832 77.7164 149.81 89.0405C155.788 100.365 156.133 112.149 152.971 113.816Z" fill="white"/>
<path d="M143.314 125.657C141.475 125.657 139.635 124.737 138.543 123.07C137.106 120.943 137.336 118.184 138.831 116.287C138.945 113.988 137.393 107.262 132.68 98.4676C128.024 89.6728 123.253 84.6143 121.356 83.4072C118.942 83.5796 116.585 82.2575 115.608 79.9007C114.4 77.0266 115.665 73.7501 118.482 72.4855L128.714 67.7719C136.474 63.9206 148.545 74.21 154.983 86.3963C161.479 98.6401 163.376 114.505 155.903 118.817L146.361 124.737C145.441 125.37 144.406 125.657 143.314 125.657ZM133.14 78.6936C136.474 82.3725 139.865 87.431 142.854 93.0068C145.728 98.4102 147.97 103.928 149.177 108.642C149.465 105.653 148.66 98.985 144.809 91.6847C140.9 84.2694 135.669 79.9582 133.14 78.6936Z" fill="white"/>
<path d="M144.291 124.162C143.717 124.162 143.142 124.105 142.567 123.875C139.52 122.955 137.853 119.679 138.773 116.69C139.118 115.08 137.738 107.952 132.68 98.4102C127.679 88.983 122.62 83.8671 120.953 83.1198C117.907 82.3725 116.01 79.3259 116.7 76.2793C117.39 73.1753 120.436 71.2209 123.54 71.9107C132.048 73.8076 140.44 88.5231 142.797 93.0068C145.096 97.2605 152.281 111.861 149.695 120.081C149.005 122.61 146.763 124.162 144.291 124.162Z" fill="white"/>
<path d="M143.314 119.909L143.142 120.024C139.865 121.748 132.22 113.701 126.012 102.032C119.804 90.3628 117.389 79.4986 120.666 77.7741L120.896 77.6591C124.23 76.3945 131.703 84.3846 137.796 95.7662C143.832 107.148 146.246 117.839 143.314 119.909Z" fill="#EB794E"/>
<path d="M142.107 121.691C140.095 121.691 137.566 120.139 134.634 117.035C131.3 113.528 127.794 108.47 124.747 102.722C119.459 92.7772 116.815 83.235 118.137 78.9813C118.482 77.8317 119.114 76.9694 120.034 76.5096C120.091 76.5096 120.091 76.4521 120.149 76.4521L120.379 76.3371C120.379 76.3371 120.436 76.3371 120.436 76.2796C125.38 74.4402 133.6 84.7296 139.06 95.0765C144.579 105.481 148.545 118.012 144.176 121.059L144.119 121.116L143.946 121.231C143.946 121.231 143.889 121.231 143.889 121.289C143.314 121.518 142.739 121.691 142.107 121.691ZM121.298 79.0388C121.068 79.2112 120.896 79.5561 120.838 79.7861C119.919 82.7752 121.816 91.1102 127.276 101.342C130.208 106.86 133.6 111.746 136.704 115.023C139.808 118.242 141.762 119.047 142.394 118.759L142.509 118.702C143.946 117.552 143.199 109.045 136.474 96.456C129.806 83.8673 123.138 78.464 121.413 79.0388H121.298Z" fill="#474747"/>
<path d="M120.436 134.337C120.436 134.337 108.997 163.193 135.841 177.104C154.983 187.049 176.252 179.001 176.252 179.001V219.584C176.252 219.584 119.344 217.744 100.317 192.739C80.6006 166.7 90.2577 136.464 90.2577 136.464L91.8672 130.141L102.846 123.818L122.448 112.609C122.448 112.609 131.243 116.747 132.967 121.461C134.232 124.737 134.404 133.417 120.436 134.337Z" fill="white"/>
<path d="M176.252 221.021C176.252 221.021 176.194 221.021 176.252 221.021C176.079 221.021 161.651 220.504 145.096 216.94C122.735 212.111 107.273 204.236 99.1675 193.602C88.7057 179.863 86.4638 164.918 86.4638 154.858C86.4063 144.224 88.7057 136.751 88.8781 136.062L90.4876 129.796C90.6026 129.394 90.8325 129.106 91.1774 128.934L102.157 122.611L121.758 111.402C122.161 111.172 122.678 111.172 123.08 111.344C124.057 111.804 132.45 115.885 134.347 121.059C135.209 123.358 135.382 126.922 133.37 130.026C131.243 133.302 127.219 135.199 121.413 135.774C120.723 137.901 119.056 143.764 119.459 150.605C120.149 161.871 125.839 170.379 136.474 175.897C154.868 185.439 175.504 177.794 175.734 177.737C176.194 177.564 176.654 177.622 177.057 177.909C177.459 178.196 177.689 178.599 177.689 179.116V219.584C177.689 219.986 177.516 220.331 177.229 220.619C176.999 220.849 176.597 221.021 176.252 221.021ZM93.1318 131.061L91.6373 136.809V136.866C91.5223 137.154 82.44 166.757 101.467 191.877C118.137 213.836 165.79 217.572 174.815 218.089V180.956C169.009 182.738 151.534 186.819 135.152 178.369C120.666 170.896 117.102 159.112 116.585 150.605C116.067 141.465 118.942 134.165 119.056 133.82C119.286 133.302 119.746 132.958 120.321 132.9C125.61 132.555 129.288 131.003 131.013 128.359C132.45 126.175 132.278 123.53 131.703 121.978C130.553 118.817 125.265 115.598 122.62 114.218L103.651 125.082L93.1318 131.061Z" fill="#474747"/>
<path d="M132.852 108.987L90.3152 137.729L80.8306 119.966L124.92 93.4669C125.61 93.0645 126.472 93.0071 127.219 93.352C128.599 94.0992 130.84 95.8812 133.082 100.365C134.749 103.699 134.289 106.343 133.887 107.665C133.657 108.24 133.255 108.7 132.852 108.987Z" fill="#EB794E"/>
<path d="M89.7403 139.855L78.8761 119.507L124.115 92.3172C125.265 91.6274 126.644 91.5699 127.794 92.2022C129.461 93.0645 131.933 95.1339 134.289 99.8474C136.186 103.641 135.669 106.745 135.152 108.24C134.864 109.045 134.347 109.792 133.6 110.252L89.7403 139.855ZM82.6699 120.541L90.775 135.659L131.99 107.78C132.22 107.665 132.335 107.435 132.392 107.263C132.737 106.171 133.14 103.929 131.703 101.055C129.576 96.8009 127.506 95.2488 126.414 94.674C126.127 94.559 125.839 94.559 125.552 94.7315L82.6699 120.541Z" fill="#474747"/>
<path d="M109.342 97.6631C109.342 97.6631 109.572 92.8921 112.676 93.007C115.837 93.122 120.896 98.008 122.678 104.331C124.402 110.654 121.643 112.149 119.516 112.609C117.389 113.068 112.158 108.01 112.158 108.01L109.342 97.6631Z" fill="white"/>
<path d="M119.286 114.046C116.7 114.046 112.791 110.597 111.181 108.987L110.894 108.7L107.905 97.778V97.5481C108.02 95.4212 109.112 91.3975 112.733 91.5124C116.987 91.6849 122.275 97.4331 124.057 103.871C124.977 107.09 124.862 109.504 123.77 111.344C122.965 112.666 121.643 113.586 119.804 113.988C119.689 114.046 119.459 114.046 119.286 114.046ZM113.481 107.205C115.78 109.39 118.482 111.229 119.286 111.171C120.321 110.942 120.953 110.539 121.356 109.849C121.988 108.815 121.988 106.975 121.298 104.618C119.689 98.8127 115.033 94.444 112.618 94.3291H112.561C111.181 94.3291 110.836 96.7433 110.779 97.4331L113.481 107.205Z" fill="#474747"/>
<path d="M101.639 101.975C99.1676 98.698 102.502 95.0191 105.951 94.9616C109.744 94.9042 112.101 98.3531 113.711 101.342C115.378 104.504 117.677 110.137 113.711 112.609C112.159 113.586 110.089 113.184 108.94 111.689C108.94 111.689 101.639 102.032 101.639 101.975Z" fill="white"/>
<path d="M111.871 114.563C110.319 114.563 108.767 113.873 107.79 112.551C107.79 112.551 100.605 102.952 100.49 102.837C99.225 101.17 98.995 99.1577 99.9148 97.3183C100.949 95.1339 103.421 93.5819 105.893 93.5244C105.95 93.5244 106.008 93.5244 106.065 93.5244C110.664 93.5244 113.308 97.6057 114.918 100.71C119.114 108.7 116.987 112.264 114.4 113.873C113.653 114.333 112.733 114.563 111.871 114.563ZM102.789 101.112C102.846 101.227 103.594 102.147 110.089 110.827C110.779 111.746 112.044 111.976 112.963 111.402C115.665 109.735 114.17 105.366 112.446 102.032C110.377 98.123 108.422 96.3985 106.008 96.3985C104.571 96.456 103.134 97.3183 102.559 98.5829C102.099 99.4451 102.157 100.307 102.789 101.112Z" fill="#474747"/>
<path d="M94.9138 106.228C93.1893 104.446 93.8791 100.767 95.891 99.5026C101.467 95.9387 112.618 108.125 107.445 112.609C104.801 114.85 99.5699 110.942 99.5699 110.942C99.5699 110.942 94.9713 106.228 94.9138 106.228Z" fill="white"/>
<path d="M105.376 114.736C102.387 114.736 99.1675 112.436 98.7076 112.091L98.5352 111.919C98.5352 111.919 93.9941 107.263 93.9366 107.205C92.8444 106.113 92.3846 104.446 92.557 102.722C92.7869 100.825 93.7641 99.1578 95.1437 98.2381C99.0525 95.7088 104.571 98.9279 107.79 103.239C110.779 107.263 111.009 111.344 108.422 113.643C107.502 114.448 106.41 114.736 105.376 114.736ZM100.49 109.85C101.927 110.884 105.203 112.609 106.468 111.517C108.192 110.022 106.985 107.09 105.433 105.021C103.019 101.802 98.8801 99.2727 96.6383 100.71C96.006 101.112 95.4886 102.032 95.3736 103.067C95.2587 103.929 95.4886 104.791 95.9485 105.251C96.1784 105.481 99.9148 109.275 100.49 109.85Z" fill="#474747"/>
<path d="M91.3499 113.298C91.3499 113.298 91.6373 112.494 96.8108 117.494C102.329 122.84 107.445 113.586 98.7077 106.285C93.7067 102.147 89.9128 103.354 87.9009 105.136C84.1646 108.355 86.5788 116.172 86.5788 116.172L91.3499 113.298Z" fill="white"/>
<path d="M100.087 120.541C98.9951 120.541 97.443 120.139 95.8335 118.529C93.3618 116.115 92.0972 115.195 91.5798 114.85L85.7166 118.299L85.1992 116.575C85.0843 116.23 82.555 107.837 86.9237 104.044C88.2458 102.894 92.9594 99.6749 99.6274 105.193C104.226 109.045 105.261 113.413 104.686 116.23C104.283 118.299 103.019 119.794 101.352 120.311C101.007 120.426 100.605 120.541 100.087 120.541ZM91.5223 111.804C92.3846 111.804 93.7642 112.494 97.8454 116.46C98.8226 117.38 99.7998 117.839 100.547 117.61C101.179 117.38 101.697 116.69 101.927 115.713C102.329 113.701 101.467 110.482 97.8454 107.435C93.2468 103.584 90.2577 105.078 88.8781 106.228C86.9812 107.837 87.1536 111.459 87.6135 113.931L90.6601 112.149C90.8325 112.034 91.0625 111.919 91.2349 111.861C91.2349 111.861 91.3499 111.804 91.5223 111.804Z" fill="#474747"/>
<path d="M119.229 113.183C118.252 113.183 116.872 112.494 115.033 111.172C114.803 110.999 114.745 110.597 114.918 110.367C115.09 110.137 115.492 110.079 115.722 110.252C118.137 112.034 119.114 112.091 119.401 112.034C120.666 111.746 121.528 111.172 122.046 110.309C122.793 109.045 122.85 107.033 122.103 104.446C121.356 101.687 120.149 99.4451 118.482 97.4907C118.252 97.2608 118.309 96.9159 118.539 96.6859C118.769 96.456 119.114 96.5135 119.344 96.7434C121.183 98.8703 122.39 101.227 123.253 104.159C124.057 107.09 124 109.39 123.08 110.942C122.39 112.091 121.241 112.839 119.689 113.183C119.516 113.183 119.401 113.183 119.229 113.183Z" fill="#474747"/>
<path d="M115.837 128.991L103.019 124.22C99.2824 122.841 97.3854 118.759 98.7075 115.138C100.087 111.516 104.168 109.677 107.905 111.057L122.908 116.632" fill="white"/>
<path d="M115.837 130.428C115.665 130.428 115.492 130.371 115.32 130.313L102.501 125.542C100.375 124.737 98.6501 123.185 97.6729 121.116C96.6957 119.047 96.5807 116.747 97.3855 114.621C98.1902 112.494 99.7422 110.827 101.869 109.907C103.938 108.987 106.295 108.93 108.422 109.734L115.924 112.522L123.425 115.31C124.172 115.598 124.575 116.402 124.287 117.15C124 117.897 123.195 118.299 122.448 118.012L107.445 112.436C106.008 111.919 104.456 111.919 103.076 112.551C101.697 113.183 100.662 114.276 100.145 115.655C99.6273 117.035 99.6848 118.587 100.317 119.909C100.949 121.288 102.099 122.323 103.536 122.898L116.355 127.669C117.102 127.956 117.504 128.761 117.217 129.509C116.987 130.026 116.412 130.428 115.837 130.428Z" fill="#474747"/>
<path d="M79.2785 162.158L79.0486 162.273C75.5996 164.17 66.7473 154.571 59.2746 140.832C51.8018 127.094 48.4678 114.448 51.9168 112.608C55.3657 110.712 64.2181 120.311 71.6908 134.049C78.9911 147.5 82.3251 159.859 79.2785 162.158Z" fill="#EB794E"/>
<path d="M78.0713 163.998C75.887 163.998 73.0129 162.159 69.6214 158.422C65.8275 154.283 61.6888 148.305 58.0099 141.58C54.331 134.854 51.5144 128.129 50.0773 122.668C48.4678 116.46 48.8127 112.666 51.1695 111.344C53.5263 110.079 56.9177 111.804 61.2864 116.517C65.0803 120.656 69.219 126.634 72.8979 133.36C79.5084 145.431 84.5669 159.974 80.0832 163.308L80.0258 163.366L79.7958 163.481C79.7383 163.481 79.7383 163.538 79.6809 163.538C79.221 163.826 78.6462 163.998 78.0713 163.998ZM52.9514 113.758C52.779 113.758 52.664 113.758 52.549 113.816C50.8821 114.735 52.1467 124.852 60.4817 140.085C64.0456 146.638 68.0694 152.387 71.6908 156.353C75.7146 160.722 77.7839 161.181 78.3013 160.951L78.4162 160.894C79.9683 159.629 78.5312 149.57 70.3687 134.682C62.551 120.426 55.1932 113.758 52.9514 113.758Z" fill="#474747"/>
<path d="M53.9861 112.609C53.1239 112.321 52.4341 112.321 51.8593 112.609L65.0228 105.481C69.6789 102.952 79.3934 111.746 86.6937 125.14C94.0515 138.533 96.1784 151.467 91.5798 153.996L79.2785 162.159C79.7958 161.756 80.1407 161.067 80.3132 160.089" fill="#EB794E"/>
<path d="M79.2785 163.596C78.8187 163.596 78.3588 163.366 78.1289 162.963C77.669 162.331 77.8415 161.469 78.4163 161.009C78.6462 160.837 78.8187 160.434 78.8762 159.859C78.9911 159.055 79.7384 158.537 80.5431 158.652C80.888 158.71 81.1755 158.882 81.3479 159.055L90.7751 152.846C90.8325 152.846 90.8325 152.789 90.89 152.789C92.4995 151.927 93.0169 148.593 92.2121 143.937C91.2924 138.648 88.9356 132.21 85.4292 125.887C80.0258 116 72.898 108.125 68.0694 106.688C67.0922 106.4 66.2875 106.4 65.7126 106.745L55.4232 112.321C55.4807 112.551 55.4807 112.838 55.3657 113.068C55.0783 113.816 54.2736 114.218 53.5263 113.931C53.0664 113.758 52.7215 113.758 52.5491 113.816C51.8593 114.218 50.9971 113.931 50.5947 113.241C50.1923 112.551 50.4797 111.689 51.1695 111.286L64.333 104.216C65.5977 103.526 67.1497 103.411 68.8742 103.929C74.565 105.596 82.0377 113.643 87.9584 124.507C91.5798 131.118 94.1091 137.843 95.0288 143.477C96.0635 149.627 95.1437 153.709 92.2696 155.318L80.0258 163.366C79.7959 163.538 79.5085 163.596 79.2785 163.596Z" fill="#474747"/>
<path d="M80.3132 160.089C81.0604 155.491 77.7264 145.144 71.6908 134.107C65.4251 122.668 58.2398 114.103 54.0436 112.666" fill="#EB794E"/>
<path d="M80.3132 161.527C80.2557 161.527 80.1407 161.527 80.0832 161.527C79.2785 161.412 78.7611 160.664 78.8761 159.86C79.4509 156.296 77.0367 146.926 70.4262 134.797C63.8157 122.726 56.9177 115.196 53.5837 113.988C52.8365 113.701 52.4341 112.896 52.7215 112.149C53.0089 111.402 53.8137 110.999 54.5609 111.287C59.217 112.896 66.6323 121.806 73.0129 133.418C79.1635 144.684 82.6125 155.261 81.8077 160.319C81.5778 161.009 81.003 161.527 80.3132 161.527Z" fill="#474747"/>
<path d="M152.971 113.816L143.314 119.909C146.246 117.84 143.832 107.205 137.738 95.7662C131.703 84.3847 124.23 76.3946 120.839 77.6592L131.128 72.8881C134.289 71.2212 143.832 77.7167 149.81 89.0408C155.788 100.365 156.133 112.149 152.971 113.816Z" fill="#EB794E"/>
<path d="M143.314 121.346C142.854 121.346 142.394 121.116 142.107 120.714C141.647 120.081 141.82 119.162 142.509 118.759C144.004 117.725 143.257 109.16 136.531 96.456C129.806 83.8099 123.138 78.4065 121.413 79.0388C120.666 79.3262 119.861 78.9813 119.574 78.234C119.286 77.5442 119.574 76.682 120.321 76.3946L130.611 71.6235C135.267 69.2667 145.441 77.5442 151.189 88.4085C156.938 99.2152 158.202 112.609 153.719 115.138L144.119 121.174C143.832 121.231 143.602 121.346 143.314 121.346ZM125.092 77.2568C129.633 80.0735 135.037 87.5462 139.003 95.0765C142.969 102.549 146.131 111.114 145.958 116.517L152.167 112.609C152.224 112.609 152.224 112.551 152.282 112.551C154.006 111.631 154.868 101.457 148.603 89.6731C142.739 78.6939 133.83 73.0606 131.818 74.1528C131.818 74.1528 131.76 74.1528 131.76 74.2103L125.092 77.2568Z" fill="#474747"/>
<path d="M144.291 118.989C144.234 118.989 144.176 118.989 144.119 118.989C143.831 118.874 143.659 118.587 143.716 118.242C144.866 114.506 142.222 105.366 137.221 95.9962C132.162 86.4541 125.839 78.9238 122.161 78.1191C121.873 78.0616 121.643 77.7167 121.701 77.4293C121.758 77.1419 122.103 76.912 122.39 76.9694C126.414 77.8892 132.91 85.4194 138.198 95.4214C143.372 105.193 146.016 114.448 144.751 118.529C144.751 118.817 144.521 118.989 144.291 118.989Z" fill="#474747"/>
</g>
</g>
<defs>
<clipPath id="clip0">
<rect width="174" height="225.332" fill="white" transform="translate(8)"/>
</clipPath>
</defs>
</svg>
