<svg width="168" height="225" viewBox="0 0 168 225" fill="none" xmlns="http://www.w3.org/2000/svg">
<mask id="mask0" mask-type="alpha" maskUnits="userSpaceOnUse" x="0" y="0" width="168" height="225">
<rect width="168" height="225" rx="11" fill="#C4C4C4"/>
</mask>
<g mask="url(#mask0)">
<g clip-path="url(#clip0)">
<path d="M169.858 251.712C87.973 233.566 70.4107 192.577 81.8315 177.526C93.2524 162.476 172.875 139.312 172.875 139.312" fill="#EB794E"/>
<path d="M169.858 256.836C169.535 256.836 169.104 256.836 168.673 256.729C142.061 250.858 120.188 242.212 103.596 231.004C85.8181 219.049 78.5992 207.094 75.6902 199.195C72.1346 189.695 72.8888 180.622 77.6295 174.324C79.6767 171.655 85.7103 163.65 129.778 147.745C151.003 140.166 171.151 134.295 171.259 134.189C174.061 133.335 176.97 134.936 177.724 137.711C178.586 140.487 176.97 143.369 174.168 144.116C173.953 144.223 154.128 149.987 133.225 157.459C96.0538 170.801 87.7575 177.953 85.9258 180.408C83.34 183.824 83.1245 189.375 85.3871 195.459C88.8349 204.639 97.3467 214.139 109.414 222.251C132.795 238.049 132.795 238.049 170.936 246.482C173.737 247.122 175.569 249.898 174.922 252.673C174.384 255.235 172.229 256.836 169.858 256.836Z" fill="white"/>
<path d="M63.8383 166.212C61.8989 167.599 60.4982 169.734 60.3905 172.083C60.175 175.712 62.8686 177.313 64.808 178.06C66.2086 178.594 68.4713 178.701 70.9494 178.06C70.9494 178.06 71.5958 182.864 78.276 181.903C79.5689 181.689 80.8618 181.262 82.047 180.729L84.8484 179.448C84.8484 179.448 83.5554 183.717 86.3568 185.746C88.7272 187.453 91.5285 188.948 102.195 181.689C112.862 174.324 166.518 135.683 177.293 117.644C188.067 99.6043 174.599 59.2556 174.599 59.2556C174.599 59.2556 140.66 116.47 126.545 126.183C126.545 126.183 117.818 110.065 102.195 113.267C86.5723 116.47 91.0975 124.689 91.0975 124.689C91.0975 124.689 93.4679 128.745 98.3164 127.251C106.397 124.796 107.151 134.509 100.256 138.032C100.256 138.032 94.4376 141.874 90.4511 136.537C87.973 133.121 91.313 129.599 91.313 126.717C91.313 125.543 90.882 123.194 87.4342 122.554C81.0773 121.487 74.074 136.11 78.3837 143.689C81.8315 149.667 87.8652 150.094 87.8652 150.094L63.8383 166.212Z" fill="white"/>
<path d="M90.2356 192.15C87.7575 192.15 85.4949 191.296 83.34 189.802C82.0471 188.948 81.1851 187.88 80.5387 186.706C80 186.813 79.569 186.92 79.0303 187.026C74.2895 187.774 71.2727 186.386 69.5488 185.105C69.0101 184.678 68.4713 184.251 68.0404 183.717C66.3165 183.717 64.5925 183.504 63.0841 182.97C57.8047 181.156 54.8956 176.993 55.2188 171.869C55.4343 167.919 57.5892 164.397 60.9292 162.155L77.6296 150.734C76.2289 149.56 74.936 147.959 73.8585 146.144C69.872 139.312 72.1346 129.706 76.3367 123.621C79.138 119.672 82.6936 117.43 86.2491 117.217C88.404 112.734 93.3602 109.745 101.01 108.144C113.832 105.475 122.774 112.947 127.3 118.391C131.609 113.908 139.044 104.835 151.327 86.1547C161.455 70.8905 169.859 56.6937 169.966 56.4802C171.044 54.7724 172.983 53.7049 175.03 53.9184C177.077 54.1319 178.801 55.5196 179.448 57.4409C179.556 57.8679 183.003 68.0084 185.05 80.6041C187.96 98.2166 186.774 111.453 181.71 119.992C169.212 141.02 105.751 185.212 105.104 185.745C98.8552 190.122 94.2222 192.15 90.2356 192.15ZM89.6969 181.583C89.9124 181.689 90.0202 181.796 90.0202 181.796C90.0202 181.796 92.0673 182.116 99.1784 177.206C118.465 163.97 163.825 129.812 172.768 114.762C178.586 104.941 176 85.621 172.768 71.9579C161.993 89.357 140.768 122.34 129.454 130.133C128.269 130.987 126.653 131.2 125.252 130.88C123.852 130.56 122.559 129.599 121.912 128.318C121.589 127.784 114.801 115.616 103.273 118.071C98.101 119.138 96.1616 120.739 95.7306 121.486C95.6229 121.593 95.6229 121.807 95.6229 121.913C95.9461 122.34 96.3771 122.234 96.7003 122.127C103.165 120.099 107.798 123.194 109.414 127.037C111.677 132.481 108.768 139.099 102.949 142.301C98.8552 144.863 91.3131 146.144 86.3569 139.419C83.5555 135.576 84.4175 131.627 85.2794 129.065C84.6329 129.919 83.9865 130.987 83.34 132.481C82.0471 135.683 81.9393 139.099 82.909 140.914C84.9562 144.329 88.1885 144.756 88.1885 144.756C90.3434 144.97 92.2828 146.464 92.8215 148.599C93.3602 150.734 92.606 152.976 90.7744 154.15L66.7474 170.588C65.9932 171.122 65.5622 171.762 65.5622 172.509C65.5622 172.616 65.5622 172.723 65.5622 172.723C65.67 172.83 65.8855 173.043 66.4242 173.15C66.7474 173.257 67.9326 173.47 69.441 173.043C70.9495 172.616 72.4579 172.936 73.7508 173.684C74.8282 174.431 75.5824 175.498 75.9057 176.672C76.1212 176.672 76.6599 176.779 77.4141 176.672C78.1683 176.566 78.9225 176.352 79.7845 175.925L82.5858 174.644C84.5252 173.79 86.7878 174.004 88.2962 175.391C89.8047 176.779 90.4511 178.807 89.8047 180.835C89.6969 181.049 89.6969 181.369 89.6969 181.583ZM76.0134 177.099C76.0134 177.206 76.0134 177.313 76.0134 177.313C76.0134 177.313 76.0134 177.206 76.0134 177.099ZM94.7609 133.335C95.2996 133.975 95.6228 133.975 96.0538 133.869C96.7003 133.762 97.3468 133.442 97.3468 133.442C97.5622 133.335 97.67 133.228 97.8855 133.121C98.5319 132.801 98.9629 132.481 99.1784 132.054C97.67 132.481 96.3771 132.481 95.0841 132.374C94.9764 132.801 94.8686 133.121 94.7609 133.335ZM95.6229 121.913C95.7306 121.913 95.7306 121.913 95.6229 121.913V121.913Z" fill="white"/>
<path d="M159.731 200.689C158.33 200.689 156.929 200.156 155.852 198.982C149.387 191.937 132.687 186.493 126.761 184.998C123.96 184.251 122.343 181.476 122.99 178.7C123.744 175.925 126.545 174.324 129.347 174.964C130.316 175.178 153.589 181.262 163.502 192.043C165.441 194.178 165.333 197.38 163.178 199.302C162.316 200.156 161.024 200.689 159.731 200.689Z" fill="white"/>
<path d="M90.2357 192.15C87.7575 192.15 85.4949 191.296 83.34 189.802C82.0471 188.841 81.1852 187.774 80.5387 186.6C80.1077 186.706 79.6767 186.813 79.4612 186.92C79.2458 186.92 79.0303 187.026 78.8148 187.026H78.707C73.9663 187.88 69.441 185.746 67.1784 181.689C64.9158 177.526 65.7777 172.509 69.2256 168.987C69.5488 168.667 70.4107 167.706 88.404 154.043C90.6666 152.335 94.0067 152.762 95.7306 155.004C97.4545 157.245 97.0235 160.554 94.7609 162.262C86.8956 168.24 77.9528 175.178 76.5522 176.352C76.3367 176.672 76.2289 176.886 76.3367 176.886C76.3367 176.886 76.5522 176.886 76.7676 176.886H76.9831C77.7373 176.672 80.5387 175.605 82.6936 174.644C84.633 173.897 86.7878 174.111 88.2963 175.498C89.8047 176.886 90.3434 178.914 89.6969 180.835C89.5892 181.049 89.5892 181.369 89.5892 181.689C89.8047 181.796 89.9124 181.903 89.9124 181.903C89.9124 181.903 91.9596 182.223 99.0707 177.313C110.599 169.414 122.774 160.875 132.902 152.228C135.057 150.414 138.397 150.627 140.229 152.762C142.061 154.897 141.845 158.206 139.69 160.021C129.131 168.987 116.741 177.74 104.889 185.852C98.8552 190.122 94.2222 192.15 90.2357 192.15Z" fill="white"/>
<path d="M84.8484 184.465C84.5252 184.465 84.202 184.465 83.8787 184.358C81.0774 183.824 79.138 181.156 79.6767 178.38C80.2154 175.391 82.6935 173.15 84.0942 171.976L98.4242 161.088C100.687 159.38 104.027 159.807 105.751 162.049C107.475 164.29 107.044 167.599 104.781 169.307L90.5589 180.195C90.3434 180.408 90.0201 180.729 89.8047 180.942C89.0504 183.077 87.0033 184.465 84.8484 184.465Z" fill="white"/>
<path d="M171.044 208.375L170.936 212.111L169.858 251.712C148.956 247.122 132.148 240.931 119.003 234.1C119.003 234.1 108.768 220.01 123.529 201.543C138.182 183.077 159.731 195.352 159.731 195.352C159.731 195.352 165.764 200.369 171.044 208.375Z" fill="white"/>
<path d="M169.859 256.836C169.428 256.836 169.104 256.836 168.673 256.729C148.633 252.246 131.071 246.268 116.633 238.69C115.879 238.263 115.34 237.729 114.801 237.089C114.263 236.341 102.518 219.583 119.434 198.341C126.653 189.375 136.35 185.212 147.663 186.386C155.852 187.24 162.101 190.762 162.316 190.869C162.532 190.976 162.855 191.189 163.071 191.403C163.394 191.616 169.751 196.953 175.353 205.493C175.892 206.347 176.215 207.414 176.215 208.482L175.138 251.819C175.138 253.313 174.384 254.808 173.091 255.769C172.121 256.516 171.044 256.836 169.859 256.836ZM122.774 230.15C134.734 236.235 148.848 241.252 164.795 245.201L165.764 209.869C161.993 204.425 158.007 200.796 156.821 199.729C154.128 198.341 138.505 191.189 127.731 204.746C117.495 217.555 121.266 227.268 122.774 230.15Z" fill="white"/>
<path d="M169.858 251.712C87.973 233.566 70.4107 192.577 81.8315 177.526C93.2524 162.476 172.875 139.312 172.875 139.312" fill="#1E95FF"/>
<path d="M169.859 252.993C169.751 252.993 169.643 252.993 169.535 252.993C143.461 247.229 121.912 238.797 105.751 227.802C88.8349 216.381 82.0471 205.279 79.2457 197.914C76.1211 189.695 76.6599 182.01 80.6464 176.672C92.175 161.408 169.104 138.992 172.337 138.032C172.983 137.818 173.737 138.245 173.953 138.886C174.168 139.526 173.737 140.273 173.091 140.487C172.337 140.7 93.7912 163.65 82.8013 178.274C79.3535 182.757 79.0302 189.695 81.7238 197.06C84.9561 205.706 100.902 235.167 170.074 250.538C170.828 250.645 171.259 251.392 171.044 252.033C171.044 252.566 170.505 252.993 169.859 252.993Z" fill="#474747"/>
<path d="M63.8384 166.211C61.899 167.599 60.4983 169.734 60.3906 172.082C60.1751 175.712 62.8687 177.313 64.8081 178.06C66.2088 178.594 68.4714 178.7 70.9495 178.06C70.9495 178.06 71.596 182.863 78.2761 181.903C79.569 181.689 80.862 181.262 82.0471 180.728L84.8485 179.448C84.8485 179.448 83.5556 183.717 86.3569 185.745C88.7273 187.453 91.5286 188.948 102.195 181.689C112.862 174.324 166.519 135.683 177.293 117.644C188.067 99.6041 174.599 59.2554 174.599 59.2554C174.599 59.2554 140.66 116.469 126.545 126.183C126.545 126.183 117.818 110.065 102.195 113.267C86.5724 116.469 91.0977 124.689 91.0977 124.689C91.0977 124.689 93.468 128.745 98.3165 127.25C106.397 124.795 107.152 134.509 100.256 138.031C100.256 138.031 94.4377 141.874 90.4512 136.537C87.9731 133.121 91.3131 129.599 91.3131 126.717C91.3131 125.543 90.8822 123.194 87.4343 122.554C81.0774 121.486 74.0741 136.11 78.3839 143.689C81.8317 149.666 87.8653 150.093 87.8653 150.093L63.8384 166.211Z" fill="white"/>
<path d="M90.1279 188.307C88.1885 188.307 86.7878 187.56 85.4949 186.599C83.5555 185.212 83.1245 183.184 83.1245 181.476L82.4781 181.796C81.0774 182.436 79.6767 182.863 78.2761 183.077C75.5824 183.504 73.3198 183.077 71.7037 181.903C70.734 181.156 70.1952 180.302 69.872 179.554C67.8249 179.875 65.8855 179.768 64.2693 179.234C60.7138 178.06 58.7744 175.391 58.9899 171.976C59.2054 169.307 60.7138 166.745 62.9764 165.144L84.633 150.307C82.3703 149.453 79.3535 147.638 77.1986 143.902C74.074 138.565 76.1212 130.453 79.569 125.543C81.9394 122.127 84.8484 120.419 87.5421 120.846C88.0808 120.953 88.6195 121.059 89.1582 121.273C89.1582 120.419 89.3737 119.565 89.8047 118.604C91.3131 115.295 95.4074 112.947 101.872 111.559C115.556 108.784 124.283 119.992 126.869 123.835C141.199 112.307 173.199 58.7218 173.522 58.1881C173.737 57.7611 174.276 57.5476 174.815 57.5476C175.354 57.6544 175.784 57.9746 175.892 58.4016C175.892 58.5083 179.34 68.7556 181.279 81.031C183.973 97.6828 183.003 110.065 178.37 117.857C173.737 125.649 160.916 137.925 140.444 154.256C123.96 167.386 107.69 179.021 102.842 182.33C96.5926 186.92 92.8215 188.307 90.1279 188.307ZM84.8484 178.06C85.1717 178.06 85.4949 178.167 85.7104 178.38C86.1414 178.7 86.2491 179.234 86.1414 179.768C86.1414 179.768 85.1717 183.184 87.2188 184.571C89.0505 185.852 91.3131 187.56 101.549 180.515C114.694 171.442 165.98 134.082 176.323 116.79C185.05 102.059 177.185 71.5309 174.384 62.2443C167.596 73.559 140.121 118.391 127.407 127.037C127.084 127.251 126.761 127.357 126.33 127.251C126.007 127.144 125.683 126.93 125.468 126.61C125.468 126.61 123.313 122.661 119.434 119.245C114.263 114.762 108.66 113.054 102.626 114.335C97.1313 115.509 93.5757 117.43 92.3905 119.885C91.4208 121.913 92.3905 123.835 92.3905 123.835C92.606 124.155 94.3299 126.93 97.9932 125.863C102.411 124.475 104.997 126.397 105.859 128.531C107.151 131.627 105.643 136.537 101.01 138.885C98.6397 140.487 93.2525 142.088 89.5892 137.071C87.542 134.402 88.6195 131.52 89.3737 129.279C89.8047 128.211 90.1279 127.251 90.1279 126.397C90.1279 124.689 89.1582 123.835 87.3266 123.515C85.7104 123.194 83.6633 124.582 81.8316 127.144C78.8148 131.52 77.1986 138.458 79.6767 142.728C82.8013 148.065 88.0808 148.492 88.0808 148.492C88.6195 148.492 89.0505 148.919 89.266 149.453C89.3737 149.987 89.1582 150.52 88.7272 150.841L64.7003 167.279C62.9764 168.453 61.899 170.268 61.7912 172.189C61.6835 174.431 62.8686 175.925 65.3468 176.779C66.4242 177.206 68.4713 177.313 70.6262 176.779C70.9495 176.672 71.3804 176.779 71.7037 176.993C72.0269 177.206 72.2424 177.526 72.2424 177.953C72.2424 178.273 72.8888 181.369 78.0606 180.622C79.138 180.408 80.3232 180.088 81.5084 179.554L84.3097 178.273C84.4175 178.06 84.633 178.06 84.8484 178.06ZM92.4983 127.571C92.3905 128.425 92.0673 129.279 91.7441 130.133C90.8821 132.481 90.4511 133.975 91.5286 135.47C94.6532 139.846 99.2862 136.751 99.5016 136.644C99.5016 136.644 99.6094 136.644 99.6094 136.537C102.949 134.829 104.242 131.413 103.38 129.385C102.734 127.891 101.01 127.464 98.6397 128.211C96.0538 128.958 94.0067 128.425 92.4983 127.571Z" fill="#474747"/>
<path d="M159.731 196.74C159.407 196.74 158.976 196.633 158.761 196.313C150.141 187.026 127.946 181.262 127.731 181.156C127.084 180.942 126.653 180.302 126.761 179.554C126.976 178.914 127.623 178.487 128.377 178.594C129.347 178.807 151.542 184.571 160.7 194.498C161.239 195.032 161.131 195.886 160.593 196.313C160.377 196.633 160.054 196.74 159.731 196.74Z" fill="#474747"/>
<path d="M90.1279 188.307C88.1885 188.307 86.7878 187.56 85.4949 186.599C83.5555 185.212 83.1245 183.077 83.1245 181.369C81.4006 182.009 79.2457 182.863 78.3838 183.077C78.276 183.077 78.0605 183.184 77.9528 183.184H77.845C74.7205 183.717 71.9191 182.436 70.5184 179.875C69.1178 177.206 69.6565 174.004 71.9191 171.655C72.8888 170.695 87.7575 159.273 90.6666 157.032C91.2053 156.605 92.0673 156.711 92.4982 157.245C92.9292 157.779 92.8215 158.633 92.2827 159.06C85.4949 164.183 74.505 172.723 73.7508 173.47C72.2423 174.964 71.9191 176.993 72.7811 178.594C73.4275 179.875 75.0437 181.049 77.4141 180.622H77.5218C77.6295 180.622 77.7373 180.622 77.845 180.515C78.707 180.302 82.2625 178.914 84.2019 178.06C84.6329 177.846 85.1716 177.953 85.6026 178.273C85.9258 178.594 86.1413 179.127 85.9258 179.661C85.9258 179.661 84.9561 183.077 87.0033 184.465C88.8349 185.745 91.0976 187.453 101.333 180.408C112.97 172.403 125.252 163.863 135.488 155.004C136.027 154.577 136.889 154.577 137.32 155.11C137.751 155.644 137.751 156.498 137.212 156.925C126.761 165.785 114.478 174.431 102.842 182.436C96.5925 186.92 92.8215 188.307 90.1279 188.307Z" fill="#474747"/>
<path d="M84.8485 180.622C84.7408 180.622 84.7408 180.622 84.633 180.622C83.8788 180.515 83.4478 179.875 83.5556 179.127C83.8788 177.313 86.1414 175.498 86.5724 175.071L100.902 164.183C101.441 163.756 102.303 163.863 102.734 164.397C103.165 164.931 103.057 165.785 102.519 166.211L88.1886 177.099C87.4344 177.74 86.2492 178.914 86.1414 179.554C85.9259 180.195 85.3872 180.622 84.8485 180.622Z" fill="#474747"/>
<path d="M171.044 208.375L170.936 212.111L169.858 251.712C148.956 247.122 132.148 240.931 119.003 234.1C119.003 234.1 108.768 220.01 123.528 201.543C138.182 183.077 159.731 195.352 159.731 195.352C159.731 195.352 165.764 200.369 171.044 208.375Z" fill="white"/>
<path d="M169.858 252.993C169.751 252.993 169.643 252.993 169.535 252.993C149.818 248.617 132.579 242.639 118.357 235.274C118.141 235.167 118.034 235.061 117.926 234.847C117.818 234.74 115.124 231.004 114.478 224.92C113.832 219.369 114.694 210.616 122.451 200.796C130.424 190.869 140.337 189.588 147.232 190.335C154.667 191.083 160.162 194.178 160.377 194.285C160.485 194.285 160.485 194.392 160.593 194.392C160.808 194.605 166.842 199.515 172.121 207.628C172.229 207.841 172.337 208.055 172.337 208.375L171.259 251.712C171.259 252.139 171.044 252.46 170.72 252.673C170.397 252.887 170.182 252.993 169.858 252.993ZM119.973 233.139C133.549 240.184 149.926 245.842 168.566 250.111L169.643 208.802C165.01 201.757 159.731 197.274 158.976 196.633C158.222 196.206 153.266 193.644 146.909 193.004C137.858 192.043 130.316 195.246 124.606 202.504C111.677 218.622 118.788 231.218 119.973 233.139Z" fill="#474747"/>
</g>
</g>
<defs>
<clipPath id="clip0">
<rect width="199.111" height="268.137" fill="white" transform="translate(-12.4445 -11.3013)"/>
</clipPath>
</defs>
</svg>
