<svg width="168" height="225" viewBox="0 0 168 225" fill="none" xmlns="http://www.w3.org/2000/svg">
<mask id="mask0" mask-type="alpha" maskUnits="userSpaceOnUse" x="0" y="0" width="168" height="225">
<rect width="168" height="225" rx="11" fill="#DDDDDD"/>
</mask>
<g mask="url(#mask0)">
<g clip-path="url(#clip0)">
<path d="M143.92 141.5L143.701 141.608C140.753 143.231 133.655 135.875 127.977 125.165C122.299 114.563 120.115 104.611 123.064 103.097L123.282 102.988C126.34 101.798 133.219 109.046 138.788 119.431C144.356 129.925 146.54 139.661 143.92 141.5Z" fill="#EB794E"/>
<path d="M142.828 147.125C139.879 147.125 136.604 145.286 133.109 141.608C129.834 138.146 126.339 133.278 123.391 127.653C121.317 123.758 114.656 110.452 117.058 102.988C117.822 100.392 119.46 99.0937 120.771 98.4447C120.88 98.3365 120.989 98.3365 121.098 98.3365L121.317 98.2283C121.426 98.2283 121.535 98.1201 121.644 98.1201C127.322 96.0648 132.454 101.582 134.201 103.421C137.477 106.883 140.753 111.751 143.701 117.16C146.649 122.568 148.833 128.086 149.816 132.629C151.345 139.12 150.471 143.555 147.086 145.935C146.977 146.043 146.868 146.043 146.759 146.151L146.54 146.259C146.431 146.259 146.322 146.368 146.322 146.368C145.121 146.8 143.92 147.125 142.828 147.125ZM128.305 113.049C129.179 115.753 130.598 119.107 132.563 122.785C134.529 126.463 136.604 129.492 138.351 131.764C137.477 129.059 136.058 125.706 134.092 122.028C132.127 118.241 130.052 115.212 128.305 113.049Z" fill="white"/>
<path d="M122.845 154.697C122.845 154.697 112.362 180.985 137.04 193.641C154.62 202.728 174.166 195.372 174.166 195.372V232.369C174.166 232.369 121.862 230.747 104.391 207.921C86.2653 184.23 95.11 156.644 95.11 156.644L96.6387 150.911L106.684 145.178L124.701 135.009C124.701 135.009 132.782 138.795 134.42 143.122C135.511 145.935 135.73 153.832 122.845 154.697Z" fill="white"/>
<path d="M174.166 237.562C174.057 237.562 174.057 237.562 173.948 237.562C173.402 237.562 160.189 237.129 144.684 233.775C123.173 229.124 108.104 221.551 100.133 211.058C81.0241 186.177 89.2136 157.834 89.978 155.13L91.3975 149.505C91.7251 148.098 92.5986 147.016 93.9089 146.259L103.955 140.526L121.972 130.357C123.5 129.492 125.247 129.492 126.885 130.141C129.288 131.222 137.149 135.225 139.224 141.175C140.316 144.204 140.534 148.747 137.914 152.858C135.621 156.32 131.908 158.483 126.776 159.457C126.23 161.837 125.575 165.407 125.793 169.409C126.339 178.064 130.925 184.662 139.224 188.99C154.402 196.778 171.873 190.504 172.091 190.396C173.729 189.747 175.585 190.071 177.005 191.045C178.424 192.019 179.298 193.641 179.298 195.372V232.369C179.298 233.775 178.752 235.182 177.66 236.155C176.787 237.021 175.476 237.562 174.166 237.562ZM101.116 154.264L100.133 157.834C100.133 157.942 100.133 158.051 100.024 158.159C99.9146 158.375 92.271 183.581 108.432 204.675C120.115 219.82 152.109 225.446 168.706 226.744V202.079C160.735 203.702 147.195 204.784 134.42 198.185C119.46 190.504 115.748 178.388 115.202 169.626C114.656 160.431 117.604 152.966 117.713 152.642C118.477 150.803 120.224 149.505 122.299 149.396C125.793 149.18 128.196 148.315 129.069 147.016C129.615 146.151 129.397 144.961 129.288 144.637C128.96 143.771 126.994 142.148 124.701 140.742L109.196 149.505L101.116 154.264Z" fill="white"/>
<path d="M134.201 131.547L95.11 157.726L86.3745 141.608L126.885 117.484C127.54 117.051 128.305 117.051 128.96 117.376C130.27 118.025 132.345 119.647 134.42 123.758C135.948 126.787 135.511 129.167 135.184 130.357C134.966 130.898 134.638 131.331 134.201 131.547Z" fill="#EB794E"/>
<path d="M93.1446 165.407L79.3862 139.66L124.265 112.94C126.449 111.642 129.288 111.534 131.581 112.724C134.529 114.239 137.149 117.159 139.224 121.378C141.626 126.138 140.862 130.033 140.207 131.98C139.661 133.494 138.678 134.901 137.259 135.874L93.1446 165.407ZM93.363 143.555L96.9663 150.154L130.161 127.869C130.161 127.436 130.052 126.787 129.615 126.03C128.851 124.624 128.196 123.65 127.65 123.001L93.363 143.555Z" fill="white"/>
<path d="M112.581 121.27C112.581 121.27 112.799 116.943 115.638 117.051C118.587 117.159 123.173 121.595 124.811 127.328C126.449 133.061 123.828 134.468 121.862 134.9C119.897 135.333 115.092 130.682 115.092 130.682L112.581 121.27Z" fill="white"/>
<path d="M121.753 140.093C119.133 140.093 116.621 138.47 114.656 137.064C113.018 135.766 111.708 134.576 111.598 134.468L110.506 133.494L107.34 121.919V121.054C107.558 116.294 110.506 111.534 115.857 111.75C121.535 111.967 127.868 118.349 129.943 125.922C131.035 129.924 130.816 133.17 129.288 135.766C128.414 137.28 126.558 139.228 123.064 139.985C122.627 140.093 122.19 140.093 121.753 140.093Z" fill="white"/>
<path d="M105.592 125.165C103.299 122.244 106.357 118.782 109.523 118.782C113.018 118.674 115.201 121.811 116.621 124.624C118.15 127.545 120.334 132.629 116.621 134.901C115.201 135.766 113.236 135.442 112.253 134.035L105.592 125.165Z" fill="white"/>
<path d="M114.983 140.526C112.363 140.526 109.742 139.336 108.104 137.172C108.104 137.172 101.771 128.843 101.443 128.41C99.3685 125.706 99.041 122.244 100.46 119.323C102.098 115.969 105.702 113.698 109.414 113.698C114.219 113.59 118.259 116.51 121.316 122.352C123.282 126.03 126.885 134.901 119.46 139.444C118.041 140.201 116.512 140.526 114.983 140.526Z" fill="white"/>
<path d="M99.3687 129.059C97.7308 127.436 98.386 124.082 100.242 122.893C105.374 119.647 115.639 130.79 110.834 134.792C108.432 136.847 103.627 133.278 103.627 133.278L99.3687 129.059Z" fill="white"/>
<path d="M108.978 140.742C107.667 140.742 106.03 140.417 104.282 139.66C102.317 138.795 100.788 137.713 100.461 137.497L100.133 137.28L95.547 132.629C93.6907 130.789 92.8171 128.085 93.1447 125.381C93.4723 122.46 95.001 119.864 97.2941 118.457C101.553 115.753 108.759 116.726 114.219 123.974C118.259 129.383 118.259 135.333 114.219 138.795C113.345 139.66 111.598 140.742 108.978 140.742Z" fill="white"/>
<path d="M96.0929 135.55C96.0929 135.55 96.4204 134.792 101.116 139.336C106.139 144.204 110.834 135.766 102.863 129.167C98.2767 125.381 94.7825 126.463 92.9263 128.085C89.5413 131.006 91.7251 138.146 91.7251 138.146L96.0929 135.55Z" fill="white"/>
<path d="M104.064 146.043C101.771 146.043 99.3686 145.069 97.4031 143.122C96.8571 142.581 96.3111 142.04 95.8744 141.716L88.5584 145.935L86.5929 139.661C86.4838 139.444 85.8286 137.172 85.7194 134.468C85.3918 128.843 87.5757 125.706 89.432 124.083C93.1445 120.946 99.4777 119.539 106.248 125.056C110.943 128.951 113.236 134.143 112.253 138.903C111.598 142.149 109.414 144.745 106.466 145.61C105.702 145.935 104.937 146.043 104.064 146.043Z" fill="white"/>
<path d="M121.753 140.093C119.242 140.093 116.84 138.687 115.092 137.28C112.799 135.55 112.253 132.304 114.001 129.924C115.311 128.085 117.604 127.436 119.679 127.977C119.133 126.463 118.477 125.164 117.495 124.083C115.529 121.919 115.857 118.566 118.041 116.727C120.225 114.779 123.61 115.104 125.466 117.267C127.65 119.756 129.069 122.46 130.052 125.814C131.144 129.816 130.925 133.061 129.397 135.658C128.523 137.172 126.667 139.119 123.173 139.877C122.627 140.093 122.19 140.093 121.753 140.093Z" fill="white"/>
<path d="M118.587 149.721L106.794 145.394C103.409 144.096 101.662 140.418 102.863 137.172C104.064 133.819 107.886 132.196 111.271 133.494L125.138 138.579" fill="white"/>
<path d="M118.587 155.022C117.932 155.022 117.386 154.914 116.73 154.697L104.938 150.37C101.989 149.288 99.5871 147.125 98.2768 144.312C96.9665 141.499 96.7481 138.254 97.84 135.333C98.9319 132.412 101.116 130.033 104.064 128.843C106.903 127.544 110.179 127.544 113.127 128.626L126.995 133.711C129.724 134.684 131.144 137.713 130.052 140.418C129.069 143.122 126.012 144.528 123.282 143.447L109.414 138.362C108.978 138.146 108.541 138.254 108.323 138.362C108.104 138.47 107.886 138.579 107.777 139.011C107.667 139.336 107.777 139.66 107.777 139.877C107.886 140.093 108.104 140.418 108.541 140.526L120.334 144.853C123.064 145.827 124.483 148.856 123.391 151.56C122.736 153.724 120.771 155.022 118.587 155.022Z" fill="white"/>
<path d="M84.9552 180.011L84.7368 180.119C81.5702 181.85 73.3807 173.087 66.5015 160.539C59.6224 147.99 56.565 136.523 59.7316 134.792C62.8982 133.061 71.0877 141.824 77.9668 154.373C84.7368 166.597 87.7942 177.955 84.9552 180.011Z" fill="#EB794E"/>
<path d="M83.8632 185.636C79.0587 185.636 74.8002 180.984 73.1623 179.254C69.4497 175.251 65.4096 169.518 61.9154 163.135C57.4385 154.913 47.9386 135.333 57.2201 130.249C66.6107 125.164 78.076 143.663 82.5529 151.884C86.0471 158.159 88.6677 164.433 90.0872 169.626C90.8516 172.33 93.0354 180.444 88.0126 184.23C87.9034 184.338 87.7942 184.338 87.685 184.446L87.4666 184.554C87.3574 184.662 87.2482 184.662 87.139 184.771C86.1563 185.312 84.9551 185.636 83.8632 185.636ZM65.1912 144.745C66.3923 148.206 68.2486 152.858 71.1968 158.159C74.145 163.46 76.984 167.462 79.2771 170.383C78.076 166.921 76.2197 162.27 73.2715 157.077C70.4325 151.668 67.5934 147.557 65.1912 144.745Z" fill="white"/>
<path d="M61.697 134.901C60.9327 134.684 60.2775 134.576 59.7316 134.901L71.852 128.41C76.1105 126.138 85.0644 134.143 91.8344 146.367C98.6044 158.592 100.57 170.383 96.3113 172.655L84.9552 180.011C85.5012 179.686 85.7196 179.037 85.9379 178.064" fill="#EB794E"/>
<path d="M84.9552 185.203C83.3173 185.203 81.6794 184.446 80.5874 182.932C79.1679 180.984 79.3863 178.496 80.8058 176.657C81.461 174.277 83.7541 172.546 86.2655 172.763L93.1447 168.328C93.5814 166.488 93.0355 159.349 87.139 148.747C81.3518 138.254 75.6738 133.927 73.7083 133.278L66.3923 137.172C65.3004 139.228 63.0073 140.418 60.7143 139.985C58.5304 140.418 56.2374 139.444 55.0362 137.389C53.6167 134.9 54.5995 131.655 57.1109 130.249L69.2314 123.758C70.6509 123.001 73.1623 122.244 76.4381 123.217C83.9724 125.381 91.616 135.333 96.3113 143.879C99.8055 150.262 102.317 156.861 103.3 162.378C104.828 171.573 101.88 175.467 98.9319 177.198L87.9034 184.338C86.9207 184.987 85.9379 185.203 84.9552 185.203Z" fill="white"/>
<path d="M85.9379 178.064C86.5931 173.845 83.5357 164.434 77.9668 154.373C72.1796 143.988 65.628 136.199 61.697 134.793" fill="#EB794E"/>
<path d="M91.1792 178.929L80.6966 177.307C81.0242 175.143 78.9495 167.138 73.3807 156.969C67.4842 146.151 61.8062 140.526 60.0591 139.877L63.5533 130.033C66.5015 131.006 69.6681 133.603 73.2715 138.038C76.4381 141.824 79.7139 146.692 82.6621 151.993C87.4666 160.647 92.1619 172.33 91.1792 178.929Z" fill="white"/>
<path d="M85.9379 183.365C85.6103 183.365 85.3919 183.365 85.0644 183.256C82.2253 182.824 80.2599 180.119 80.6966 177.307C81.0242 175.143 78.9495 167.138 73.3807 156.969C67.4843 146.151 61.8062 140.526 60.0591 139.877C57.3293 138.903 55.8006 135.982 56.7833 133.17C57.7661 130.465 60.7143 128.951 63.5533 129.924C66.5015 130.898 69.6681 133.494 73.2715 137.93C76.4381 141.716 79.7139 146.584 82.6621 151.885C87.4666 160.647 92.2711 172.33 91.1792 178.929C90.7424 181.525 88.4494 183.365 85.9379 183.365Z" fill="white"/>
<path d="M152.764 135.982L143.92 141.499C146.649 139.66 144.356 129.924 138.787 119.539C133.219 109.154 126.339 101.906 123.282 103.096L132.782 98.769C135.73 97.2545 144.465 103.204 150.034 113.481C155.494 123.65 155.603 134.468 152.764 135.982Z" fill="#EB794E"/>
<path d="M143.919 146.692C142.172 146.692 140.534 145.827 139.552 144.312C138.241 142.365 138.46 139.877 139.879 138.146C139.988 136.091 138.569 129.924 134.201 121.919C129.943 113.914 125.575 109.262 123.719 108.181C121.535 108.397 119.351 107.099 118.477 104.935C117.385 102.339 118.587 99.3099 121.098 98.12L130.489 93.7928C137.586 90.3311 148.724 99.6345 154.62 110.777C160.626 121.919 162.373 136.415 155.494 140.309L146.758 145.827C145.776 146.476 144.793 146.692 143.919 146.692ZM134.529 103.962C137.586 107.315 140.753 111.967 143.483 117.051C146.103 122.027 148.178 127.004 149.27 131.331C149.488 128.626 148.833 122.46 145.23 115.861C141.626 109.046 136.822 105.152 134.529 103.962Z" fill="white"/>
<path d="M144.793 145.394C144.247 145.394 143.701 145.286 143.264 145.177C140.425 144.312 138.897 141.391 139.77 138.579C140.098 137.064 138.787 130.573 134.201 121.919C129.615 113.265 124.92 108.613 123.391 107.964C120.552 107.315 118.805 104.502 119.46 101.69C120.115 98.8772 122.954 97.0381 125.793 97.6872C133.655 99.4181 141.299 112.832 143.483 116.835C145.557 120.729 152.218 134.035 149.816 141.499C149.052 143.987 146.977 145.394 144.793 145.394Z" fill="white"/>
<path d="M143.92 141.5L143.701 141.608C140.753 143.23 133.655 135.874 127.977 125.165C122.299 114.563 120.115 104.611 123.064 103.096L123.282 102.988C126.34 101.798 133.219 109.046 138.788 119.431C144.356 129.925 146.54 139.661 143.92 141.5Z" fill="#97ACBF"/>
<path d="M142.828 143.122C140.971 143.122 138.678 141.716 135.949 138.903C132.891 135.766 129.615 131.114 126.885 125.814C122.081 116.727 119.57 108.072 120.771 104.178C121.098 103.096 121.644 102.339 122.518 101.906H122.627L122.845 101.798C122.845 101.798 122.845 101.798 122.955 101.798C127.541 100.067 135.075 109.479 140.098 118.89C145.23 128.302 148.833 139.769 144.793 142.581C144.793 142.581 144.793 142.581 144.684 142.581L144.466 142.689C144.466 142.689 144.466 142.689 144.356 142.689C143.81 143.014 143.374 143.122 142.828 143.122ZM123.61 104.286C123.391 104.394 123.282 104.719 123.173 104.935C122.299 107.64 124.046 115.32 129.069 124.624C131.799 129.708 134.857 134.143 137.805 137.064C140.644 139.985 142.5 140.742 143.046 140.418H143.155C144.466 139.444 143.81 131.655 137.586 120.08C131.472 108.613 125.357 103.745 123.61 104.286Z" fill="#474747"/>
<path d="M122.845 154.697C122.845 154.697 112.363 180.985 137.04 193.641C154.621 202.728 174.166 195.372 174.166 195.372V232.369C174.166 232.369 121.863 230.747 104.392 207.921C86.2655 184.23 95.1102 156.644 95.1102 156.644L96.6389 150.911L106.685 145.178L124.702 135.009C124.702 135.009 132.782 138.795 134.42 143.122C135.512 145.935 135.73 153.832 122.845 154.697Z" fill="white"/>
<path d="M174.166 233.667C173.948 233.667 160.735 233.235 145.557 229.989C124.92 225.554 110.725 218.414 103.3 208.678C93.6906 196.129 91.616 182.607 91.616 173.304C91.616 163.568 93.6906 156.753 93.909 156.212L95.4377 150.478C95.5469 150.154 95.7653 149.829 96.0929 149.721L106.139 143.988L124.156 133.819C124.483 133.602 125.029 133.602 125.357 133.819C126.23 134.251 133.983 137.93 135.73 142.689C136.494 144.745 136.713 147.99 134.856 150.803C132.891 153.832 129.178 155.563 123.937 155.995C123.282 157.943 121.753 163.243 122.19 169.518C122.845 179.795 128.087 187.583 137.805 192.56C154.73 201.214 173.729 194.29 173.948 194.182C174.384 194.074 174.821 194.074 175.149 194.29C175.476 194.507 175.695 194.939 175.695 195.372V232.369C175.695 232.694 175.586 233.018 175.258 233.343C174.821 233.451 174.494 233.667 174.166 233.667ZM97.7308 151.668L96.4205 156.861C96.4205 156.861 96.4205 156.861 96.4205 156.969C96.3113 157.185 87.9034 184.23 105.484 207.055C120.771 227.068 164.666 230.422 172.965 230.963V197.103C167.614 198.726 151.563 202.404 136.494 194.723C123.173 187.908 119.897 177.198 119.46 169.409C119.023 161.08 121.644 154.373 121.753 154.156C121.972 153.724 122.408 153.399 122.845 153.291C127.65 152.966 131.035 151.56 132.673 149.18C133.983 147.233 133.874 144.745 133.328 143.338C132.236 140.418 127.431 137.497 124.92 136.307L107.449 146.151L97.7308 151.668Z" fill="#474747"/>
<path d="M134.201 131.547L95.11 157.726L86.3745 141.608L126.885 117.484C127.54 117.051 128.305 117.051 128.96 117.376C130.27 118.025 132.345 119.647 134.42 123.758C135.948 126.787 135.511 129.167 135.184 130.357C134.966 130.898 134.638 131.331 134.201 131.547Z" fill="#97ACBF"/>
<path d="M94.5641 159.673L84.5183 141.175L126.121 116.402C127.213 115.753 128.414 115.753 129.506 116.294C131.035 117.051 133.328 118.89 135.512 123.217C137.259 126.679 136.713 129.491 136.276 130.898C136.058 131.655 135.512 132.304 134.856 132.737L94.5641 159.673ZM88.1217 142.148L95.5468 155.887L133.437 130.465C133.655 130.357 133.764 130.141 133.874 130.032C134.201 129.059 134.529 127.003 133.219 124.407C131.253 120.513 129.288 119.106 128.414 118.565C128.196 118.457 127.868 118.457 127.65 118.565L88.1217 142.148Z" fill="#474747"/>
<path d="M112.581 121.27C112.581 121.27 112.799 116.943 115.638 117.051C118.587 117.159 123.173 121.594 124.811 127.328C126.449 133.061 123.828 134.468 121.863 134.9C119.897 135.333 115.093 130.681 115.093 130.681L112.581 121.27Z" fill="white"/>
<path d="M121.753 136.199C119.351 136.199 115.748 133.061 114.328 131.655L114.11 131.439L111.38 121.486V121.27C111.489 119.323 112.472 115.645 115.857 115.753C119.788 115.861 124.592 121.162 126.23 127.003C127.104 129.924 126.995 132.196 126.012 133.819C125.247 135.009 124.046 135.874 122.408 136.199C122.081 136.199 121.972 136.199 121.753 136.199ZM116.403 129.924C118.477 131.871 120.989 133.602 121.753 133.494C122.736 133.278 123.282 132.953 123.719 132.304C124.265 131.33 124.265 129.708 123.719 127.544C122.19 122.244 117.931 118.241 115.748 118.241C114.437 118.241 114.11 120.404 114.11 121.054L116.403 129.924Z" fill="#474747"/>
<path d="M105.593 125.165C103.3 122.244 106.357 118.782 109.524 118.782C113.018 118.674 115.202 121.811 116.621 124.624C118.15 127.544 120.334 132.629 116.621 134.901C115.202 135.766 113.236 135.441 112.254 134.035L105.593 125.165Z" fill="white"/>
<path d="M114.983 136.631C113.564 136.631 112.144 135.982 111.271 134.792C111.271 134.792 104.61 126.03 104.61 125.922C103.409 124.407 103.3 122.568 104.064 120.837C105.047 118.89 107.34 117.484 109.524 117.375H109.633C113.891 117.375 116.294 121.054 117.822 123.866C121.644 131.114 119.679 134.359 117.386 135.874C116.621 136.415 115.748 136.631 114.983 136.631ZM106.575 124.407C106.685 124.515 107.34 125.381 113.236 133.278C113.891 134.143 114.983 134.359 115.857 133.819C118.368 132.304 116.949 128.301 115.311 125.273C113.455 121.703 111.598 120.08 109.414 120.188C108.104 120.188 106.794 121.054 106.248 122.135C105.92 122.893 106.03 123.65 106.575 124.407Z" fill="#474747"/>
<path d="M99.3687 129.059C97.7308 127.436 98.386 124.082 100.242 122.893C105.374 119.647 115.639 130.79 110.834 134.792C108.432 136.847 103.627 133.278 103.627 133.278L99.3687 129.059Z" fill="white"/>
<path d="M108.978 136.847C106.248 136.847 103.3 134.792 102.863 134.468L102.754 134.359C102.754 134.359 98.6043 130.14 98.4952 130.032C97.5124 129.059 97.0756 127.544 97.1848 125.921C97.4032 124.191 98.2768 122.676 99.5871 121.811C103.19 119.539 108.323 122.46 111.162 126.354C113.891 130.032 114.11 133.71 111.708 135.874C110.943 136.523 109.96 136.847 108.978 136.847ZM104.501 132.412C105.811 133.386 108.869 134.9 110.07 133.927C111.598 132.629 110.506 129.924 109.087 127.977C106.903 125.056 103.081 122.784 101.007 124.082C100.351 124.515 99.9147 125.272 99.8055 126.246C99.6963 127.003 99.9147 127.761 100.351 128.193C100.57 128.301 103.955 131.763 104.501 132.412Z" fill="#474747"/>
<path d="M96.0929 135.55C96.0929 135.55 96.4204 134.792 101.116 139.336C106.139 144.204 110.834 135.766 102.863 129.167C98.2767 125.381 94.7825 126.463 92.9263 128.085C89.5413 131.006 91.7251 138.146 91.7251 138.146L96.0929 135.55Z" fill="white"/>
<path d="M104.064 142.04C103.081 142.04 101.662 141.716 100.133 140.201C97.8399 138.038 96.748 137.172 96.202 136.848L90.8516 139.985L90.3056 138.362C90.1964 138.038 87.9034 130.357 91.9435 127.004C93.1446 126.03 97.5124 123.001 103.627 128.085C107.886 131.547 108.868 135.55 108.322 138.146C107.995 139.985 106.794 141.391 105.265 141.824C104.937 142.04 104.61 142.04 104.064 142.04ZM96.202 134.143C96.9664 134.143 98.2767 134.792 101.989 138.362C102.863 139.228 103.736 139.552 104.501 139.336C105.156 139.12 105.593 138.471 105.811 137.605C106.139 135.766 105.374 132.845 101.989 130.033C97.7307 126.571 95.0009 127.869 93.6906 128.951C91.9435 130.465 92.0527 133.711 92.4895 135.982L95.3285 134.36C95.4377 134.252 95.6561 134.143 95.8745 134.143C95.9836 134.143 96.0928 134.143 96.202 134.143Z" fill="#474747"/>
<path d="M121.753 135.441C120.88 135.441 119.57 134.792 117.932 133.602C117.713 133.386 117.604 133.061 117.822 132.845C118.041 132.629 118.368 132.52 118.587 132.737C120.771 134.359 121.644 134.468 121.972 134.359C123.173 134.143 123.937 133.602 124.374 132.845C125.029 131.655 125.138 129.924 124.483 127.436C123.828 124.948 122.736 122.893 121.098 121.054C120.88 120.837 120.88 120.513 121.098 120.296C121.317 120.08 121.644 120.08 121.863 120.296C123.5 122.244 124.702 124.407 125.466 127.003C126.23 129.708 126.121 131.763 125.248 133.17C124.592 134.251 123.61 134.9 122.081 135.225C121.972 135.441 121.863 135.441 121.753 135.441Z" fill="#474747"/>
<path d="M118.587 149.721L106.794 145.394C103.409 144.096 101.662 140.418 102.863 137.172C104.064 133.819 107.886 132.196 111.271 133.494L125.138 138.579" fill="white"/>
<path d="M118.587 151.127C118.478 151.127 118.259 151.127 118.15 151.019L106.357 146.692C104.392 145.935 102.754 144.528 101.88 142.689C101.007 140.85 100.897 138.687 101.662 136.74C102.426 134.792 103.846 133.278 105.811 132.412C107.667 131.547 109.851 131.547 111.817 132.196L125.684 137.28C126.339 137.497 126.667 138.254 126.449 139.011C126.23 139.66 125.466 139.985 124.702 139.769L110.834 134.684C109.524 134.143 108.104 134.251 106.794 134.792C105.484 135.333 104.61 136.307 104.064 137.605C103.627 138.903 103.627 140.201 104.282 141.499C104.828 142.798 105.92 143.663 107.231 144.204L119.023 148.531C119.679 148.747 120.006 149.505 119.788 150.262C119.679 150.803 119.133 151.127 118.587 151.127Z" fill="#474747"/>
<path d="M84.9552 180.011L84.7368 180.119C81.5702 181.85 73.3807 173.087 66.5015 160.539C59.6224 147.99 56.565 136.523 59.7316 134.792C62.8982 133.061 71.0877 141.824 77.9668 154.373C84.7368 166.597 87.7942 177.955 84.9552 180.011Z" fill="#97ACBF"/>
<path d="M83.8632 181.633C81.7885 181.633 79.2771 179.903 76.1105 176.549C72.6163 172.763 68.7945 167.354 65.4096 161.188C62.0246 155.022 59.4039 148.964 58.0936 143.987C56.5649 138.362 56.8925 134.9 59.0764 133.71C61.2602 132.521 64.4268 134.143 68.3578 138.362C71.852 142.148 75.6737 147.557 79.0587 153.723C85.1735 164.758 89.7596 177.955 85.7195 180.984C85.7195 180.984 85.7195 180.984 85.6103 180.984L85.3919 181.093C85.3919 181.093 85.3919 181.093 85.2827 181.093C84.9551 181.525 84.4092 181.633 83.8632 181.633ZM60.7143 135.982C60.6051 135.982 60.4959 135.982 60.3867 136.09C58.858 136.956 60.0591 146.151 67.7026 159.998C70.9784 165.948 74.691 171.248 78.076 174.818C81.7885 178.821 83.6448 179.254 84.1908 179.037L84.3 178.929C85.7195 177.739 84.4092 168.652 76.8748 155.022C69.5589 141.932 62.7889 135.982 60.7143 135.982Z" fill="#474747"/>
<path d="M61.697 134.9C60.9327 134.684 60.2775 134.576 59.7316 134.9L71.852 128.41C76.1105 126.138 85.0644 134.143 91.8344 146.367C98.6044 158.591 100.57 170.383 96.3113 172.655L84.9552 180.011C85.5012 179.686 85.7196 179.037 85.9379 178.063" fill="#97ACBF"/>
<path d="M84.9551 181.309C84.5184 181.309 84.0816 181.092 83.8632 180.768C83.4264 180.227 83.5356 179.362 84.1908 178.929C84.4092 178.821 84.5184 178.388 84.6276 177.847C84.7368 177.09 85.3919 176.657 86.1563 176.765C86.4838 176.765 86.7022 176.982 86.9206 177.198L95.6561 171.573C95.6561 171.573 95.7653 171.573 95.7653 171.465C97.294 170.707 97.7307 167.678 96.9664 163.351C96.0928 158.483 93.909 152.642 90.7424 146.908C85.7195 137.929 79.1679 130.681 74.8002 129.491C73.9266 129.275 73.1623 129.275 72.6163 129.491L63.0073 134.576C63.0073 134.792 63.0073 135.009 63.0073 135.225C62.7889 135.874 62.0246 136.307 61.3694 135.982C60.9326 135.874 60.605 135.766 60.4959 135.874C59.8407 136.198 59.0763 135.982 58.7488 135.333C58.4212 134.684 58.6396 133.927 59.2947 133.602L71.4152 127.112C72.6163 126.462 74.0358 126.354 75.5645 126.895C80.8058 128.41 87.685 135.766 93.1446 145.61C96.4204 151.668 98.8227 157.726 99.6962 162.918C100.679 168.544 99.8054 172.222 97.1848 173.736L85.7195 181.092C85.5011 181.201 85.1735 181.309 84.9551 181.309Z" fill="#474747"/>
<path d="M85.9379 178.064C86.5931 173.845 83.5357 164.433 77.9668 154.373C72.1796 143.987 65.628 136.199 61.697 134.792" fill="#97ACBF"/>
<path d="M85.9379 179.362C85.8287 179.362 85.8287 179.362 85.7195 179.362C84.9551 179.253 84.5184 178.604 84.6276 177.847C85.1735 174.602 82.9897 166.056 76.8748 155.022C70.76 143.987 64.4268 137.172 61.3694 136.09C60.7142 135.874 60.2775 135.117 60.6051 134.468C60.8234 133.819 61.5878 133.386 62.2429 133.71C66.5015 135.225 73.3807 143.338 79.1679 153.832C84.8459 164.109 88.0125 173.736 87.2482 178.388C87.139 178.929 86.593 179.362 85.9379 179.362Z" fill="#474747"/>
<path d="M152.764 135.982L143.92 141.499C146.649 139.66 144.356 129.924 138.787 119.539C133.219 109.154 126.339 101.906 123.282 103.096L132.782 98.769C135.73 97.2545 144.465 103.204 150.034 113.481C155.494 123.65 155.603 134.468 152.764 135.982Z" fill="#97ACBF"/>
<path d="M143.919 142.797C143.483 142.797 143.046 142.581 142.828 142.257C142.391 141.716 142.609 140.85 143.155 140.417C144.575 139.444 143.81 131.655 137.695 120.08C131.471 108.613 125.357 103.637 123.828 104.178C123.173 104.394 122.408 104.07 122.19 103.42C121.862 102.771 122.19 102.014 122.845 101.69L132.345 97.3625C136.604 95.199 145.994 102.771 151.345 112.616C156.586 122.46 157.787 134.684 153.638 136.956L144.793 142.473C144.356 142.689 144.138 142.797 143.919 142.797ZM127.104 102.663C131.253 105.26 136.276 112.075 139.879 118.89C143.483 125.705 146.431 133.494 146.322 138.362L152 134.792H152.109C153.638 133.927 154.511 124.623 148.724 113.914C143.374 103.853 135.075 98.7688 133.328 99.7424C133.328 99.7424 133.328 99.7424 133.219 99.7424L127.104 102.663Z" fill="#474747"/>
<path d="M144.793 140.634H144.684C144.356 140.526 144.247 140.201 144.356 139.985C145.448 136.631 142.937 128.301 138.351 119.755C133.655 111.101 127.868 104.178 124.483 103.529C124.156 103.42 124.046 103.204 124.046 102.879C124.156 102.555 124.374 102.447 124.702 102.447C128.414 103.312 134.42 110.127 139.224 119.214C144.029 128.085 146.431 136.523 145.23 140.309C145.23 140.526 145.011 140.634 144.793 140.634Z" fill="#474747"/>
</g>
</g>
<defs>
<clipPath id="clip0">
<rect x="-11.2441" y="-8.21924" width="190.651" height="245.781" rx="11" fill="white"/>
</clipPath>
</defs>
</svg>
