<svg width="168" height="225" viewBox="0 0 168 225" fill="none" xmlns="http://www.w3.org/2000/svg">
<mask id="mask0" mask-type="alpha" maskUnits="userSpaceOnUse" x="0" y="0" width="168" height="225">
<rect width="168" height="225" rx="11" fill="#C4C4C4"/>
</mask>
<g mask="url(#mask0)">
<g clip-path="url(#clip0)">
<path d="M99.1406 222.123L83.2739 215.548C81.0962 214.623 80.0591 212.157 80.9924 210L91.8813 184.007C96.4443 173.116 108.992 167.979 119.985 172.5L99.1406 222.123Z" fill="white"/>
<path d="M99.1405 228.082C98.3109 228.082 97.585 227.979 96.8591 227.671L79.3331 220.479C77.2591 219.657 75.5998 218.014 74.7702 215.856C73.9405 213.801 73.9405 211.438 74.7702 209.383L88.9776 175.377C93.3331 165 105.363 160.068 115.837 164.383L122.266 167.055C125.378 168.288 126.829 171.781 125.481 174.863L104.741 224.383C104.118 225.822 102.978 227.055 101.526 227.568C100.696 227.979 99.9702 228.082 99.1405 228.082ZM87.2146 210.822L95.9257 214.418L112.104 175.89L111.274 175.479C106.918 173.733 101.941 175.788 100.178 180L87.2146 210.822Z" fill="white"/>
<path d="M186.687 183.834L119.073 156.017L98.3131 205.545L165.927 233.361L186.687 183.834Z" fill="white"/>
<path d="M165.926 239.383C165.096 239.383 164.37 239.281 163.644 238.973L96.0296 211.13C94.5778 210.514 93.3333 209.383 92.8148 207.945C92.1926 206.507 92.1926 204.863 92.8148 203.425L113.556 153.904C114.8 150.822 118.326 149.383 121.437 150.719L189.052 178.562C192.163 179.794 193.615 183.288 192.267 186.37L171.526 235.89C170.904 237.329 169.763 238.562 168.311 239.075C167.481 239.178 166.652 239.383 165.926 239.383ZM106.193 202.294L162.711 225.514L178.889 186.986L122.37 163.767L106.193 202.294Z" fill="white"/>
<path d="M186.667 183.904L116.252 154.932C115.319 154.521 114.904 153.39 115.319 152.363C122.474 135.411 140.726 126.884 156.281 133.253L200.356 151.336L186.667 183.904Z" fill="#EB794E"/>
<path d="M186.667 189.863C185.837 189.863 185.111 189.76 184.385 189.452L113.97 160.479C111.896 159.657 110.341 158.014 109.615 155.959C108.889 154.11 108.993 151.952 109.822 150.103C113.867 140.548 121.022 132.945 130.148 128.733C139.482 124.418 149.541 124.11 158.667 127.808L202.741 145.89C204.193 146.507 205.437 147.637 205.956 149.075C206.578 150.514 206.578 152.157 205.956 153.596L192.267 186.164C191.644 187.603 190.504 188.836 189.052 189.349C188.222 189.657 187.496 189.863 186.667 189.863ZM122.682 151.027L183.452 175.993L192.474 154.418L154 138.699C148.089 136.233 141.452 136.541 135.23 139.418C130.044 141.781 125.585 145.89 122.682 151.027Z" fill="white"/>
<path d="M98.4146 196.13L88.1479 220.479C87.422 222.123 88.2516 223.973 89.9109 224.589L151.615 249.966C153.274 250.685 155.141 249.863 155.763 248.219L165.822 224.075L98.4146 196.13Z" fill="#EB794E"/>
<path d="M152.859 256.233C151.615 256.233 150.474 256.027 149.333 255.514L87.6295 230.137C82.9628 228.185 80.6813 222.842 82.6517 218.219L92.8146 193.87C93.4369 192.432 94.5776 191.199 96.1332 190.685C97.585 190.069 99.2443 190.069 100.8 190.685L168.311 218.733C171.422 219.966 172.874 223.459 171.526 226.541L161.466 250.685C160.533 252.945 158.77 254.692 156.489 255.616C155.244 255.925 154.104 256.233 152.859 256.233ZM94.8887 220.171L151.407 243.39L158.148 227.363L101.629 203.938L94.8887 220.171Z" fill="white"/>
<path d="M175.363 201.678L110.652 175.069C109.096 174.452 107.229 175.171 106.607 176.712L98.4146 196.13L165.926 224.178L175.363 201.678Z" fill="#EB794E"/>
<path d="M165.926 230.137C165.096 230.137 164.37 229.931 163.644 229.623L96.1332 201.575C93.0221 200.342 91.5702 196.849 92.9184 193.767L101.111 174.349C103.081 169.726 108.37 167.568 113.037 169.418L177.748 196.027C180.859 197.26 182.311 200.753 180.963 203.836L171.526 226.336C170.904 227.774 169.763 229.007 168.207 229.521C167.481 229.931 166.652 230.137 165.926 230.137ZM106.296 192.945L162.711 216.37L167.481 204.863L110.963 181.644L106.296 192.945Z" fill="white"/>
<path d="M125.17 173.117L123.511 172.397C122.578 171.987 122.163 170.959 122.578 170.137L129.629 153.391C130.044 152.466 131.081 152.055 131.911 152.466L133.57 153.185C134.503 153.596 134.918 154.623 134.503 155.445L127.452 172.192C127.141 173.117 126.103 173.528 125.17 173.117Z" fill="white"/>
<path d="M126.207 179.486C125.274 179.486 124.444 179.281 123.511 178.973L120.504 177.74C116.874 176.301 115.215 172.192 116.666 168.596L124.237 150.514C125.689 146.918 129.837 145.274 133.466 146.712L136.474 147.945C140.104 149.384 141.763 153.493 140.311 157.089L132.741 175.171C131.6 177.843 129.007 179.486 126.207 179.486Z" fill="white"/>
<path d="M159.496 187.295L157.837 186.575C156.904 186.164 156.489 185.137 156.904 184.315L163.956 167.569C164.37 166.644 165.407 166.233 166.237 166.644L167.896 167.363C168.83 167.774 169.244 168.801 168.83 169.623L161.778 186.37C161.467 187.192 160.43 187.603 159.496 187.295Z" fill="white"/>
<path d="M160.637 193.664C159.704 193.664 158.874 193.459 157.941 193.151L154.933 191.918C153.17 191.199 151.822 189.863 151.096 188.116C150.37 186.37 150.37 184.521 151.096 182.774L158.667 164.692C159.393 162.945 160.741 161.61 162.504 160.89C164.267 160.171 166.133 160.171 167.896 160.89L170.904 162.123C172.667 162.843 174.015 164.178 174.741 165.925C175.467 167.671 175.467 169.521 174.741 171.267L167.17 189.349C166.03 192.021 163.333 193.664 160.637 193.664Z" fill="white"/>
<path d="M106.607 213.185L103.911 212.055C102.978 211.644 102.563 210.616 102.978 209.794L107.644 198.493C108.059 197.568 109.096 197.158 109.926 197.568L112.622 198.699C113.555 199.11 113.97 200.137 113.555 200.959L108.889 212.26C108.578 213.185 107.541 213.596 106.607 213.185Z" fill="white"/>
<path d="M107.748 219.555C106.815 219.555 105.985 219.349 105.052 219.041L101.007 217.397C97.3778 215.959 95.7185 211.849 97.1704 208.253L102.459 195.616C103.185 193.87 104.533 192.534 106.296 191.815C108.059 191.096 109.926 191.096 111.689 191.815L115.733 193.459C119.363 194.897 121.022 199.007 119.57 202.603L114.281 215.24C113.141 217.911 110.444 219.555 107.748 219.555Z" fill="white"/>
<path d="M140 226.952L137.304 225.822C136.37 225.411 135.955 224.384 136.37 223.562L141.037 212.26C141.452 211.336 142.489 210.925 143.318 211.336L146.015 212.466C146.948 212.877 147.363 213.904 146.948 214.726L142.281 226.027C141.97 226.849 140.933 227.26 140 226.952Z" fill="white"/>
<path d="M141.141 233.219C140.207 233.219 139.378 233.014 138.444 232.705L134.4 231.062C130.77 229.623 129.111 225.514 130.563 221.918L135.852 209.281C136.578 207.534 137.926 206.199 139.689 205.479C141.452 204.76 143.319 204.76 145.081 205.479L149.126 207.123C152.756 208.562 154.415 212.671 152.963 216.267L147.674 228.904C146.533 231.678 143.837 233.219 141.141 233.219Z" fill="white"/>
<path d="M186.252 88.6643L189.881 93.5958L68.8591 181.233L65.1257 176.301L186.252 88.6643Z" fill="white"/>
<path d="M68.8591 187.192C66.9925 187.192 65.1258 186.37 63.9851 184.726L60.3554 179.794C59.4221 178.562 59.0073 176.918 59.2147 175.377C59.4221 173.836 60.3554 172.397 61.5999 171.473L182.726 83.8356C183.97 82.9109 185.63 82.4999 187.185 82.7054C188.741 82.9109 190.192 83.8356 191.126 85.0684L194.755 89.9999C196.726 92.6712 196.104 96.3698 193.407 98.3219L72.3851 186.062C71.348 186.884 70.1036 187.192 68.8591 187.192Z" fill="white"/>
<path d="M69.9999 181.13L60.4592 188.014C58.7999 189.247 56.311 188.836 55.0666 187.192C53.8221 185.548 54.237 183.082 55.8962 181.849L65.437 174.966L69.9999 181.13Z" fill="#EB794E"/>
<path d="M58.2814 194.795C55.274 194.795 52.2666 193.459 50.2962 190.788C48.7407 188.733 48.1184 186.062 48.5332 183.493C48.9481 180.925 50.2962 178.664 52.474 177.123L62.0147 170.24C64.711 168.288 68.4444 168.904 70.4147 171.575L74.9777 177.74C75.911 178.973 76.3258 180.616 76.1184 182.158C75.911 183.699 74.9777 185.137 73.7332 186.062L64.1925 192.945C62.3258 194.178 60.2518 194.795 58.2814 194.795Z" fill="white"/>
<path d="M73.2146 162.637L84.1035 177.329C84.622 177.945 85.4516 177.74 85.5553 177.02L85.7627 169.829L81.1998 163.664L73.9405 161.404C73.2146 161.199 72.7998 162.02 73.2146 162.637Z" fill="#EB794E"/>
<path d="M84.8295 183.699C82.6517 183.699 80.5776 182.671 79.2295 180.925L68.4443 166.13C66.6813 163.767 66.5776 160.479 68.3406 158.116C69.9999 155.753 73.111 154.829 75.911 155.651L83.1702 157.911C84.4147 158.322 85.4517 159.041 86.1776 160.068L90.7406 166.233C91.5702 167.26 91.985 168.596 91.8813 169.932L91.6739 177.123C91.5702 180 89.7036 182.466 87.0073 183.288C86.1776 183.596 85.5554 183.699 84.8295 183.699ZM78.0888 159.041C78.0888 159.144 78.0888 159.144 78.0888 159.041V159.041Z" fill="white"/>
<path d="M151.926 231.062L172.667 239.589L187.704 203.733C192.474 192.431 187.081 179.383 175.57 174.657L151.926 231.062Z" fill="white"/>
<path d="M172.667 245.548C171.837 245.548 171.111 245.445 170.385 245.137L149.644 236.61C146.533 235.377 145.081 231.884 146.43 228.801L170.074 172.397C170.696 170.959 171.837 169.726 173.289 169.212C174.741 168.596 176.4 168.596 177.852 169.212L185.215 172.192C195.689 176.507 200.667 188.425 196.311 198.801L178.267 241.952C177.644 243.39 176.504 244.623 175.052 245.137C174.222 245.342 173.393 245.548 172.667 245.548ZM159.807 227.774L169.348 231.678L185.111 194.075C186.874 189.76 184.8 184.829 180.548 183.082L178.785 182.363L159.807 227.774Z" fill="white"/>
<path d="M99.1406 222.123L83.2739 215.548C81.0962 214.623 80.0591 212.157 80.9924 210L91.8813 184.007C96.4443 173.116 108.992 167.979 119.985 172.5L99.1406 222.123Z" fill="white"/>
<path d="M99.1407 223.664C98.9333 223.664 98.7259 223.664 98.5185 223.562L80.9925 216.37C79.9555 215.959 79.2296 215.24 78.8148 214.212C78.4 213.185 78.4 212.157 78.8148 211.13L93.0222 177.123C96.4444 169.007 105.778 165.205 113.97 168.596L120.4 171.267C121.126 171.575 121.541 172.5 121.23 173.219L100.489 222.74C100.385 223.151 100.074 223.356 99.6592 223.562C99.5555 223.664 99.3481 223.664 99.1407 223.664ZM107.956 170.342C102.874 170.342 98 173.322 95.9259 178.253L81.7185 212.26C81.6148 212.466 81.6148 212.774 81.7185 212.979C81.8222 213.185 82.0296 213.39 82.237 213.493L98.4148 220.171L118.015 173.425L112.933 171.37C111.274 170.651 109.615 170.342 107.956 170.342Z" fill="#474747"/>
<path d="M186.687 183.834L119.073 156.017L98.3131 205.545L165.927 233.362L186.687 183.834Z" fill="white"/>
<path d="M165.926 234.863C165.719 234.863 165.511 234.863 165.304 234.76L97.6889 206.918C97.2741 206.815 97.0667 206.507 96.8593 206.096C96.7556 205.685 96.7556 205.274 96.8593 204.966L117.6 155.445C117.911 154.726 118.844 154.315 119.57 154.623L187.185 182.466C187.911 182.774 188.326 183.699 188.015 184.418L167.274 233.938C167.17 234.349 166.859 234.555 166.444 234.76C166.341 234.863 166.133 234.863 165.926 234.863ZM100.281 204.76L165.096 231.473L184.696 184.726L119.881 158.014L100.281 204.76Z" fill="#474747"/>
<path d="M186.666 183.904L116.252 154.932C115.318 154.521 114.903 153.39 115.318 152.363C122.474 135.411 140.726 126.884 156.281 133.253L200.355 151.336L186.666 183.904Z" fill="#FF911A"/>
<path d="M186.666 185.342C186.459 185.342 186.252 185.342 186.044 185.24L115.629 156.267C114.8 155.959 114.074 155.24 113.763 154.315C113.452 153.493 113.452 152.568 113.866 151.644C117.496 143.116 123.822 136.336 131.911 132.534C140 128.733 148.918 128.425 156.8 131.712L200.874 149.795C201.289 149.897 201.496 150.205 201.704 150.616C201.807 151.027 201.807 151.438 201.704 151.747L188.015 184.315C187.911 184.726 187.6 184.931 187.185 185.137C187.081 185.342 186.874 185.342 186.666 185.342ZM145.6 132.534C141.452 132.534 137.304 133.459 133.363 135.308C126 138.801 120.089 144.966 116.77 152.877C116.666 153.082 116.666 153.185 116.77 153.39C116.77 153.493 116.874 153.493 116.978 153.596L186.044 181.952L198.592 152.158L155.763 134.589C152.444 133.253 149.022 132.534 145.6 132.534Z" fill="#474747"/>
<path d="M98.4146 196.13L88.1479 220.479C87.422 222.123 88.2516 223.972 89.9109 224.589L151.615 249.966C153.274 250.685 155.141 249.863 155.763 248.219L165.822 224.075L98.4146 196.13Z" fill="#FF911A"/>
<path d="M152.859 251.712C152.237 251.712 151.615 251.609 151.096 251.404L89.3925 226.027C87.0073 225 85.8665 222.329 86.9036 219.966L97.0665 195.616C97.1702 195.205 97.4814 195 97.8962 194.794C98.311 194.692 98.7258 194.692 99.0369 194.794L166.548 222.842C167.274 223.15 167.689 224.075 167.378 224.794L157.318 248.938C156.489 250.582 154.726 251.712 152.859 251.712ZM99.1406 198.082L89.4962 220.993C89.1851 221.815 89.5999 222.842 90.4295 223.15L152.133 248.527C152.963 248.835 154 248.527 154.311 247.603L163.852 224.897L99.1406 198.082Z" fill="#474747"/>
<path d="M175.363 201.678L110.652 175.068C109.096 174.452 107.23 175.171 106.607 176.712L98.4148 196.13L165.926 224.178L175.363 201.678Z" fill="#FF911A"/>
<path d="M165.926 225.616C165.718 225.616 165.511 225.616 165.304 225.514L97.7925 197.466C97.0666 197.157 96.6518 196.233 96.9629 195.514L105.156 176.096C106.089 173.733 108.889 172.603 111.17 173.63L175.881 200.24C176.607 200.548 177.022 201.472 176.711 202.192L167.274 224.692C167.17 225.103 166.859 225.308 166.444 225.514C166.341 225.616 166.133 225.616 165.926 225.616ZM100.385 195.308L165.2 222.226L173.496 202.5L110.133 176.404C109.304 176.096 108.37 176.404 108.059 177.226L100.385 195.308Z" fill="#474747"/>
<path d="M125.17 173.116L123.511 172.397C122.578 171.986 122.163 170.959 122.578 170.137L129.63 153.39C130.044 152.466 131.081 152.055 131.911 152.466L133.57 153.185C134.504 153.596 134.919 154.623 134.504 155.445L127.452 172.192C127.141 173.116 126.104 173.527 125.17 173.116Z" fill="#F8CF00"/>
<path d="M126.207 174.966C125.896 174.966 125.585 174.863 125.274 174.76L122.267 173.527C121.022 173.014 120.4 171.575 120.918 170.24L128.489 152.157C129.007 150.925 130.459 150.308 131.807 150.822L134.815 152.055C136.059 152.568 136.681 154.007 136.163 155.342L128.593 173.425C128.178 174.452 127.244 174.966 126.207 174.966ZM123.822 170.959L126 171.883L133.259 154.726L131.081 153.801L123.822 170.959Z" fill="#474747"/>
<path d="M159.496 187.295L157.837 186.575C156.904 186.164 156.489 185.137 156.904 184.315L163.956 167.569C164.37 166.644 165.407 166.233 166.237 166.644L167.896 167.363C168.83 167.774 169.244 168.801 168.83 169.623L161.778 186.37C161.467 187.192 160.43 187.603 159.496 187.295Z" fill="#F8CF00"/>
<path d="M160.637 189.144C160.326 189.144 160.015 189.041 159.704 188.938L156.696 187.706C156.074 187.5 155.556 186.986 155.348 186.37C155.141 185.753 155.141 185.034 155.348 184.418L162.919 166.336C163.126 165.719 163.644 165.206 164.267 165C164.889 164.795 165.615 164.795 166.237 165L169.244 166.233C169.867 166.438 170.385 166.952 170.593 167.569C170.8 168.185 170.8 168.904 170.593 169.521L163.022 187.603C162.504 188.527 161.57 189.144 160.637 189.144ZM158.252 185.137L160.43 186.062L167.689 168.904L165.511 167.98L158.252 185.137Z" fill="#474747"/>
<path d="M106.607 213.185L103.911 212.055C102.978 211.644 102.563 210.616 102.978 209.794L107.644 198.493C108.059 197.568 109.096 197.158 109.926 197.568L112.622 198.699C113.555 199.11 113.97 200.137 113.555 200.959L108.889 212.26C108.578 213.185 107.541 213.596 106.607 213.185Z" fill="white"/>
<path d="M107.748 215.034C107.437 215.034 107.126 214.931 106.815 214.829L102.77 213.185C101.526 212.671 100.904 211.233 101.422 209.897L106.711 197.26C107.022 196.644 107.437 196.13 108.059 195.925C108.681 195.719 109.407 195.719 110.03 195.925L114.074 197.568C115.318 198.082 115.941 199.623 115.422 200.856L110.133 213.493C109.615 214.418 108.681 215.034 107.748 215.034ZM104.326 210.616L107.541 211.952L112.415 200.24L109.2 198.904L104.326 210.616Z" fill="#474747"/>
<path d="M140 226.952L137.304 225.822C136.37 225.411 135.955 224.384 136.37 223.562L141.037 212.26C141.452 211.336 142.489 210.925 143.318 211.336L146.015 212.466C146.948 212.877 147.363 213.904 146.948 214.726L142.281 226.027C141.97 226.849 140.933 227.26 140 226.952Z" fill="white"/>
<path d="M141.141 228.801C140.83 228.801 140.518 228.699 140.207 228.596L136.163 226.952C134.918 226.438 134.296 225 134.815 223.664L140.104 211.027C140.415 210.411 140.83 209.897 141.452 209.692C142.074 209.486 142.8 209.486 143.422 209.692L147.467 211.336C148.711 211.849 149.333 213.39 148.815 214.623L143.526 227.26C143.007 228.185 142.074 228.801 141.141 228.801ZM137.615 224.281L140.83 225.616L145.704 213.904L142.489 212.568L137.615 224.281Z" fill="#474747"/>
<path d="M186.252 88.6643L189.881 93.5958L68.8591 181.233L65.1257 176.301L186.252 88.6643Z" fill="white"/>
<path d="M68.859 182.774C68.4442 182.774 67.9257 182.569 67.6146 182.158L63.9849 177.226C63.7775 176.918 63.6738 176.507 63.6738 176.096C63.7775 175.685 63.9849 175.377 64.296 175.068L185.422 87.4315C185.733 87.226 186.148 87.1233 186.563 87.1233C186.978 87.226 187.289 87.4315 187.6 87.7397L191.229 92.6712C191.748 93.2877 191.541 94.3151 190.918 94.726L69.6886 182.466C69.4812 182.671 69.1701 182.774 68.859 182.774ZM67.3035 176.61L69.1701 179.178L187.807 93.2877L185.941 90.7192L67.3035 176.61Z" fill="#474747"/>
<path d="M69.9999 181.13L60.4592 188.014C58.7999 189.247 56.311 188.836 55.0666 187.192C53.8221 185.548 54.237 183.082 55.8962 181.849L65.437 174.966L69.9999 181.13Z" fill="#FF911A"/>
<path d="M58.2813 190.274C56.622 190.274 54.9628 189.555 53.9257 188.116C53.0961 186.986 52.785 185.548 52.9924 184.212C53.1998 182.774 53.9257 181.541 55.0665 180.719L64.6072 173.836C65.2294 173.322 66.2665 173.527 66.6813 174.144L71.2442 180.308C71.4517 180.616 71.5554 181.027 71.5554 181.438C71.4517 181.849 71.2443 182.158 70.9331 182.466L61.3924 189.349C60.4591 189.966 59.3183 190.274 58.2813 190.274ZM65.2294 177.123L56.9331 183.185C56.4146 183.596 56.1035 184.11 55.9998 184.726C55.8961 185.342 56.1035 185.959 56.4146 186.473C57.1405 187.5 58.5924 187.705 59.6294 186.986L67.9257 180.925L65.2294 177.123Z" fill="#474747"/>
<path d="M73.2146 162.637L84.1035 177.329C84.622 177.945 85.4516 177.74 85.5553 177.02L85.7627 169.829L81.1998 163.664L73.9405 161.404C73.2146 161.199 72.7998 162.02 73.2146 162.637Z" fill="#F8CF00"/>
<path d="M84.8295 179.178C84.1036 179.178 83.3777 178.87 82.8591 178.151L71.9703 163.459C71.348 162.637 71.348 161.507 71.8666 160.685C72.3851 159.863 73.4221 159.657 74.3554 159.863L81.6147 162.123C81.9258 162.226 82.1332 162.431 82.3406 162.637L86.9036 168.801C87.111 169.109 87.2147 169.418 87.2147 169.726L87.0073 176.918C87.0073 177.842 86.3851 178.664 85.4517 178.973C85.348 179.178 85.0369 179.178 84.8295 179.178ZM75.8073 163.562L84.1036 174.76L84.2073 170.342L80.2666 165L75.8073 163.562Z" fill="#474747"/>
<path d="M151.926 231.062L172.667 239.589L187.704 203.733C192.474 192.431 187.081 179.383 175.57 174.657L151.926 231.062Z" fill="white"/>
<path d="M172.666 241.027C172.459 241.027 172.252 241.027 172.044 240.925L151.304 232.397C150.578 232.089 150.163 231.164 150.474 230.445L174.118 174.041C174.222 173.63 174.533 173.425 174.948 173.219C175.363 173.116 175.778 173.116 176.089 173.219L183.452 176.199C191.644 179.589 195.481 188.836 192.059 196.952L174.015 240.103C173.911 240.514 173.6 240.719 173.185 240.925C172.978 241.027 172.77 241.027 172.666 241.027ZM153.896 230.24L171.837 237.637L189.363 195.925C192.059 189.349 188.948 181.849 182.311 179.075L176.4 176.61L153.896 230.24Z" fill="#474747"/>
</g>
</g>
<defs>
<clipPath id="clip0">
<rect width="206.37" height="256.233" fill="white"/>
</clipPath>
</defs>
</svg>
