<svg width="168" height="225" viewBox="0 0 168 225" fill="none" xmlns="http://www.w3.org/2000/svg">
<mask id="mask0" mask-type="alpha" maskUnits="userSpaceOnUse" x="0" y="0" width="168" height="225">
<rect width="168" height="225" rx="11" fill="#C4C4C4"/>
</mask>
<g mask="url(#mask0)">
<g clip-path="url(#clip0)">
<path d="M112.518 116.815C84.9333 116.815 62.637 138.904 62.637 166.233C62.637 193.562 84.9333 215.651 112.518 215.651C140.104 215.651 162.4 193.562 162.4 166.233C162.4 138.904 140.104 116.815 112.518 116.815ZM112.518 205.788C90.5333 205.788 72.5925 188.116 72.5925 166.233C72.5925 144.349 90.4296 126.678 112.518 126.678C134.607 126.678 152.444 144.349 152.444 166.233C152.444 188.116 134.607 205.788 112.518 205.788Z" fill="white"/>
<path d="M112.518 221.712C81.7184 221.712 56.6221 196.849 56.6221 166.335C56.6221 135.822 81.7184 110.959 112.518 110.959C143.318 110.959 168.415 135.822 168.415 166.335C168.518 196.849 143.422 221.712 112.518 221.712ZM112.518 132.74C93.8517 132.74 78.6073 147.74 78.6073 166.335C78.6073 184.931 93.748 199.931 112.518 199.931C131.289 199.931 146.429 184.931 146.429 166.335C146.429 147.74 131.185 132.74 112.518 132.74Z" fill="white"/>
<path d="M114.178 109.623C106.918 109.623 99.9703 110.959 93.6444 113.424C92.6073 113.835 91.674 114.246 90.637 114.657C93.0221 119.692 98.6221 122.363 104.118 121.13H104.222C107.437 120.411 110.755 120.103 114.178 120.103C138.133 120.103 157.733 138.287 159.911 161.404C160.015 162.739 160.118 164.178 160.118 165.616V165.719C160.118 170.548 163.437 174.657 168.207 175.479L169.763 175.787C170.178 173.63 170.489 171.37 170.593 169.109C170.696 167.979 170.696 166.746 170.696 165.616C170.593 134.692 145.289 109.623 114.178 109.623Z" fill="#EB794E"/>
<path d="M169.659 181.644C169.244 181.644 168.933 181.644 168.518 181.541L166.963 181.233C159.392 179.897 153.896 173.219 153.896 165.514V165.411C153.896 164.281 153.792 163.048 153.689 161.815C152.755 152.055 148.296 143.014 140.933 136.335C133.57 129.657 124.029 125.959 113.97 125.959C111.066 125.959 108.163 126.267 105.363 126.883H105.259C96.8591 128.733 88.5628 124.726 85.0368 117.02C83.6887 114.041 84.9331 110.445 88.0443 109.109C89.0813 108.596 90.222 108.185 91.3628 107.774C98.622 105 106.296 103.562 114.074 103.562C148.504 103.562 176.607 131.301 176.607 165.514C176.607 166.746 176.607 167.979 176.504 169.418C176.4 171.883 176.089 174.349 175.57 176.815C175.259 178.356 174.429 179.794 173.081 180.616C172.044 181.336 170.904 181.644 169.659 181.644Z" fill="white"/>
<path d="M112.518 172.192H72.6962C69.3777 172.192 66.6814 169.521 66.6814 166.233C66.6814 162.945 69.3777 160.274 72.6962 160.274H112.622C115.941 160.274 118.637 162.945 118.637 166.233C118.637 169.521 115.941 172.192 112.518 172.192Z" fill="white"/>
<path d="M77.985 192.02C75.9109 192.02 73.8368 190.993 72.7998 189.041C71.1405 186.164 72.0739 182.568 74.9776 180.924L109.511 161.198C112.415 159.555 116.044 160.479 117.704 163.356C119.363 166.233 118.429 169.829 115.526 171.472L80.9924 191.198C80.0591 191.712 79.022 192.02 77.985 192.02Z" fill="white"/>
<path d="M92.6073 206.507C91.5703 206.507 90.5332 206.198 89.5999 205.685C86.6962 204.041 85.7629 200.342 87.4221 197.568L107.333 163.356C108.992 160.479 112.726 159.555 115.526 161.198C118.43 162.842 119.363 166.541 117.704 169.315L97.7925 203.424C96.7554 205.377 94.6814 206.507 92.6073 206.507Z" fill="white"/>
<path d="M112.518 211.747C109.2 211.747 106.504 209.075 106.504 205.788V166.233C106.504 162.945 109.2 160.274 112.518 160.274C115.837 160.274 118.533 162.945 118.533 166.233V205.788C118.637 209.075 115.941 211.747 112.518 211.747Z" fill="white"/>
<path d="M132.533 206.507C130.459 206.507 128.385 205.479 127.348 203.527L107.437 169.315C105.778 166.438 106.711 162.842 109.615 161.198C112.518 159.555 116.148 160.479 117.807 163.356L137.718 197.568C139.378 200.445 138.444 204.041 135.541 205.685C134.607 206.198 133.57 206.507 132.533 206.507Z" fill="white"/>
<path d="M147.052 192.02C146.015 192.02 144.978 191.712 144.044 191.198L109.511 171.472C106.607 169.829 105.674 166.13 107.333 163.356C108.993 160.479 112.726 159.555 115.526 161.198L150.059 180.924C152.963 182.568 153.896 186.267 152.237 189.041C151.2 190.89 149.23 192.02 147.052 192.02Z" fill="white"/>
<path d="M152.444 172.192H112.518C109.2 172.192 106.504 169.521 106.504 166.233C106.504 162.945 109.2 160.274 112.518 160.274H152.444C155.763 160.274 158.459 162.945 158.459 166.233C158.459 169.521 155.763 172.192 152.444 172.192Z" fill="white"/>
<path d="M112.518 172.192C110.444 172.192 108.37 171.164 107.333 169.212C105.674 166.336 106.607 162.74 109.511 161.096L144.044 141.37C146.948 139.726 150.578 140.651 152.237 143.527C153.896 146.404 152.963 150 150.059 151.644L115.526 171.37C114.593 171.986 113.555 172.192 112.518 172.192Z" fill="white"/>
<path d="M112.518 172.192C111.481 172.192 110.444 171.884 109.511 171.37C106.607 169.726 105.674 166.027 107.333 163.253L127.244 129.041C128.904 126.164 132.637 125.24 135.437 126.883C138.341 128.527 139.274 132.226 137.615 135L117.704 169.212C116.667 171.164 114.593 172.192 112.518 172.192Z" fill="white"/>
<path d="M112.518 172.192C109.2 172.192 106.504 169.52 106.504 166.233V126.678C106.504 123.39 109.2 120.719 112.518 120.719C115.837 120.719 118.533 123.39 118.533 126.678V166.233C118.637 169.52 115.941 172.192 112.518 172.192Z" fill="white"/>
<path d="M112.518 172.192C110.444 172.192 108.37 171.164 107.333 169.212L87.4221 135C85.7629 132.123 86.6962 128.527 89.5999 126.883C92.5036 125.24 96.1332 126.164 97.7925 129.041L117.704 163.253C119.363 166.13 118.43 169.726 115.526 171.37C114.592 171.986 113.555 172.192 112.518 172.192Z" fill="white"/>
<path d="M112.518 172.192C111.481 172.192 110.444 171.884 109.511 171.37L74.9776 151.644C72.0739 150 71.1405 146.301 72.7998 143.527C74.4591 140.651 78.1924 139.726 80.9924 141.37L115.526 161.096C118.429 162.74 119.363 166.438 117.704 169.212C116.666 171.164 114.592 172.192 112.518 172.192Z" fill="white"/>
<path d="M183.97 92.774L116.356 169.007C114.074 171.473 110.237 171.781 107.748 169.521C105.259 167.26 104.948 163.459 107.23 160.993L174.844 84.7603C177.126 82.2945 180.963 81.9863 183.452 84.2466C185.941 86.4041 186.148 90.2055 183.97 92.774Z" fill="#EB794E"/>
<path d="M111.689 177.02C108.889 177.02 105.985 175.993 103.704 174.041C98.6221 169.623 98.2073 162.02 102.563 157.089L170.178 80.856C172.355 78.3903 175.259 76.9519 178.474 76.7464C181.689 76.541 184.8 77.5684 187.289 79.7259C192.37 84.1437 192.785 91.7465 188.43 96.678L120.815 172.911C118.43 175.685 115.111 177.02 111.689 177.02ZM179.407 88.6643C179.304 88.6643 179.304 88.6643 179.407 88.6643L111.689 164.897V165H111.792L179.407 88.767C179.511 88.767 179.511 88.6643 179.407 88.6643Z" fill="white"/>
<path d="M112.518 116.815C84.9333 116.815 62.637 138.904 62.637 166.233C62.637 193.562 84.9333 215.651 112.518 215.651C140.104 215.651 162.4 193.562 162.4 166.233C162.4 138.904 140.104 116.815 112.518 116.815ZM112.518 205.788C90.5333 205.788 72.5925 188.116 72.5925 166.233C72.5925 144.349 90.4296 126.678 112.518 126.678C134.607 126.678 152.444 144.349 152.444 166.233C152.444 188.116 134.607 205.788 112.518 205.788Z" fill="white"/>
<path d="M112.518 217.192C84.2072 217.192 61.0813 194.384 61.0813 166.233C61.0813 138.185 84.1035 115.274 112.518 115.274C140.829 115.274 163.955 138.082 163.955 166.233C163.955 194.384 140.933 217.192 112.518 217.192ZM112.518 118.356C85.8665 118.356 64.0887 139.829 64.0887 166.336C64.0887 192.74 85.7628 214.315 112.518 214.315C139.17 214.315 160.948 192.842 160.948 166.336C160.948 139.829 139.274 118.356 112.518 118.356ZM112.518 207.226C89.7035 207.226 71.1406 188.836 71.1406 166.233C71.1406 143.63 89.7035 125.24 112.518 125.24C135.333 125.24 153.896 143.63 153.896 166.233C153.896 188.836 135.437 207.226 112.518 207.226ZM112.518 128.219C91.3628 128.219 74.148 145.274 74.148 166.233C74.148 187.192 91.3628 204.247 112.518 204.247C133.674 204.247 150.889 187.192 150.889 166.233C150.889 145.274 133.674 128.219 112.518 128.219Z" fill="#474747"/>
<path d="M114.177 109.623C106.918 109.623 99.9701 110.959 93.6441 113.424C92.6071 113.835 91.6738 114.246 90.6367 114.657C93.0219 119.692 98.6219 122.363 104.118 121.13H104.222C107.437 120.411 110.755 120.103 114.177 120.103C138.133 120.103 157.733 138.287 159.911 161.404C160.014 162.74 160.118 164.178 160.118 165.616V165.719C160.118 170.548 163.437 174.657 168.207 175.479L169.763 175.787C170.177 173.63 170.489 171.37 170.592 169.109C170.696 167.979 170.696 166.746 170.696 165.616C170.592 134.692 145.289 109.623 114.177 109.623Z" fill="#F8CF00"/>
<path d="M169.659 177.226C169.555 177.226 169.452 177.226 169.348 177.226L167.792 176.918C162.4 175.89 158.459 171.164 158.459 165.616V165.514C158.459 164.178 158.355 162.945 158.252 161.507C157.215 150.616 152.237 140.548 144.044 133.151C135.852 125.651 125.17 121.541 114.074 121.541C110.859 121.541 107.644 121.849 104.533 122.568H104.429C98.1034 124.007 91.8812 120.925 89.2886 115.274C88.9775 114.555 89.2886 113.63 90.0145 113.322C91.0516 112.911 91.9849 112.397 93.0219 112.089C99.7627 109.52 106.918 108.185 114.177 108.185C146.118 108.185 172.148 133.972 172.148 165.616C172.148 166.746 172.148 167.877 172.044 169.212C171.94 171.472 171.629 173.733 171.215 175.993C171.111 176.404 170.903 176.712 170.592 176.918C170.281 177.123 169.97 177.226 169.659 177.226ZM114.177 118.562C126.103 118.562 137.511 122.979 146.222 130.89C154.933 138.801 160.326 149.589 161.363 161.199C161.466 162.74 161.57 164.075 161.57 165.514V165.616C161.57 169.726 164.474 173.219 168.415 173.938C168.726 172.294 168.829 170.651 168.933 168.904C169.037 167.568 169.037 166.541 169.037 165.514C169.037 135.514 144.355 111.062 114.074 111.062C107.229 111.062 100.489 112.294 94.059 114.76C93.5404 114.966 93.1256 115.171 92.7108 115.274C94.9923 118.767 99.3478 120.514 103.703 119.589H103.911C107.229 118.972 110.755 118.562 114.177 118.562Z" fill="#474747"/>
<path d="M112.518 167.774H72.6962C71.8666 167.774 71.1406 167.055 71.1406 166.233C71.1406 165.411 71.8666 164.692 72.6962 164.692H112.622C113.452 164.692 114.178 165.411 114.178 166.233C114.178 167.055 113.348 167.774 112.518 167.774Z" fill="#474747"/>
<path d="M77.9851 187.5C77.4666 187.5 76.9481 187.192 76.637 186.781C76.2221 186.062 76.4295 185.137 77.1555 184.726L111.689 165C112.415 164.589 113.348 164.795 113.763 165.514C114.178 166.233 113.97 167.158 113.244 167.568L78.8147 187.295C78.5036 187.5 78.2962 187.5 77.9851 187.5Z" fill="#474747"/>
<path d="M92.6072 201.986C92.3998 201.986 92.0887 201.884 91.8813 201.781C91.1554 201.37 90.948 200.445 91.3628 199.726L111.274 165.514C111.689 164.795 112.622 164.589 113.348 165C114.074 165.411 114.281 166.336 113.866 167.055L93.9554 201.267C93.6443 201.678 93.1258 201.986 92.6072 201.986Z" fill="#474747"/>
<path d="M112.518 207.226C111.689 207.226 110.963 206.507 110.963 205.685V166.13C110.963 165.308 111.689 164.589 112.518 164.589C113.348 164.589 114.074 165.308 114.074 166.13V205.685C114.074 206.609 113.348 207.226 112.518 207.226Z" fill="#474747"/>
<path d="M132.533 201.986C132.015 201.986 131.496 201.678 131.185 201.267L111.274 167.055C110.859 166.336 111.067 165.411 111.792 165C112.518 164.589 113.452 164.795 113.867 165.514L133.778 199.726C134.192 200.445 133.985 201.37 133.259 201.781C133.052 201.884 132.741 201.986 132.533 201.986Z" fill="#474747"/>
<path d="M147.155 187.5C146.948 187.5 146.637 187.397 146.43 187.295L111.896 167.568C111.17 167.158 110.963 166.233 111.378 165.514C111.792 164.795 112.726 164.589 113.452 165L147.985 184.726C148.711 185.137 148.918 186.062 148.504 186.781C148.089 187.295 147.674 187.5 147.155 187.5Z" fill="#474747"/>
<path d="M152.444 167.774H112.518C111.689 167.774 110.963 167.055 110.963 166.233C110.963 165.411 111.689 164.692 112.518 164.692H152.444C153.274 164.692 154 165.411 154 166.233C154 167.055 153.274 167.774 152.444 167.774Z" fill="#474747"/>
<path d="M112.518 167.774C112 167.774 111.481 167.466 111.17 167.055C110.755 166.336 110.963 165.411 111.689 165L146.222 145.274C146.948 144.863 147.881 145.068 148.296 145.788C148.711 146.507 148.504 147.431 147.778 147.842L113.244 167.568C113.037 167.671 112.829 167.774 112.518 167.774Z" fill="#474747"/>
<path d="M112.518 167.774C112.311 167.774 112 167.671 111.792 167.568C111.067 167.157 110.859 166.233 111.274 165.514L131.185 131.301C131.6 130.582 132.533 130.377 133.259 130.788C133.985 131.199 134.192 132.123 133.778 132.842L113.867 167.055C113.555 167.466 113.037 167.774 112.518 167.774Z" fill="#474747"/>
<path d="M112.518 167.774C111.689 167.774 110.963 167.055 110.963 166.233V126.678C110.963 125.856 111.689 125.137 112.518 125.137C113.348 125.137 114.074 125.856 114.074 126.678V166.233C114.074 167.055 113.348 167.774 112.518 167.774Z" fill="#474747"/>
<path d="M112.518 167.774C112 167.774 111.481 167.466 111.17 167.055L91.259 132.842C90.8442 132.123 91.0516 131.199 91.7775 130.788C92.5035 130.377 93.4368 130.582 93.8516 131.301L113.763 165.514C114.178 166.233 113.97 167.157 113.244 167.568C113.037 167.671 112.829 167.774 112.518 167.774Z" fill="#474747"/>
<path d="M112.518 167.774C112.311 167.774 112 167.671 111.792 167.568L77.259 147.842C76.5331 147.431 76.3257 146.507 76.7405 145.788C77.1553 145.068 78.0886 144.863 78.8145 145.274L113.348 165C114.074 165.411 114.281 166.336 113.866 167.055C113.555 167.466 113.037 167.774 112.518 167.774Z" fill="#474747"/>
<path d="M183.97 92.774L116.355 169.007C114.074 171.473 110.237 171.781 107.748 169.521C105.259 167.26 104.948 163.459 107.229 160.993L174.844 84.7603C177.126 82.2945 180.963 81.9863 183.452 84.2466C185.941 86.4041 186.148 90.2055 183.97 92.774Z" fill="#F8CF00"/>
<path d="M111.689 172.5C109.926 172.5 108.059 171.883 106.607 170.651C103.496 167.877 103.185 163.151 105.881 159.966L173.496 83.7328C174.844 82.1917 176.711 81.2671 178.785 81.1643C180.859 81.0616 182.829 81.678 184.281 83.0136C187.392 85.7876 187.703 90.5136 185.007 93.6986L117.392 169.931C115.94 171.678 113.866 172.5 111.689 172.5ZM179.407 84.1438C179.303 84.1438 179.2 84.1438 179.096 84.1438C177.852 84.2465 176.711 84.7602 175.881 85.6849L108.266 161.918C106.607 163.767 106.815 166.747 108.681 168.39C110.548 170.034 113.555 169.829 115.215 167.979L182.829 91.7465C184.489 89.8972 184.281 86.9178 182.415 85.2739C181.585 84.5547 180.548 84.1438 179.407 84.1438Z" fill="#474747"/>
</g>
</g>
<defs>
<clipPath id="clip0">
<rect width="196.726" height="231.164" fill="white" transform="translate(-5.1853 -4.10962)"/>
</clipPath>
</defs>
</svg>
