<svg width="168" height="225" viewBox="0 0 168 225" fill="none" xmlns="http://www.w3.org/2000/svg">
<mask id="mask0" mask-type="alpha" maskUnits="userSpaceOnUse" x="0" y="1" width="168" height="225">
<rect y="1" width="168" height="225" rx="11" fill="#C4C4C4"/>
</mask>
<g mask="url(#mask0)">
<g clip-path="url(#clip0)">
<path d="M156.093 200.09H142.222C139.384 200.09 137.177 197.8 137.177 195.093C137.177 192.282 139.489 190.096 142.222 190.096H156.093C158.93 190.096 161.137 192.386 161.137 195.093C161.242 197.8 158.93 200.09 156.093 200.09Z" fill="white"/>
<path d="M160.717 206.754H142.222C139.384 206.754 137.177 204.463 137.177 201.756C137.177 198.945 139.489 196.759 142.222 196.759H160.717C163.554 196.759 165.761 199.049 165.761 201.756C165.866 204.463 163.554 206.754 160.717 206.754Z" fill="white"/>
<path d="M153.046 213.521H142.222C139.384 213.521 137.177 211.23 137.177 208.523C137.177 205.817 139.489 203.526 142.222 203.526H153.046C155.883 203.526 158.09 205.817 158.09 208.523C158.09 211.23 155.883 213.521 153.046 213.521Z" fill="white"/>
<path d="M205.484 83.0713L177.321 63.6028L130.137 130.649L157.039 151.992L205.484 83.0713Z" fill="white"/>
<path d="M157.039 156.989C155.883 156.989 154.727 156.573 153.886 155.844L126.984 134.605C124.882 132.94 124.462 129.921 125.933 127.734L173.117 60.6877C174.693 58.3973 177.846 57.8767 180.158 59.4384L208.321 78.9069C209.477 79.6356 210.213 80.8849 210.423 82.1343C210.633 83.4877 210.318 84.8411 209.582 85.8822L161.137 154.803C160.297 155.948 159.035 156.677 157.669 156.885C157.564 156.989 157.354 156.989 157.039 156.989ZM137.072 129.712L155.988 144.704L198.443 84.3206L178.582 70.5781L137.072 129.712Z" fill="white"/>
<path d="M130.137 130.649L115.95 150.847L144.218 170.419L157.039 151.992L130.137 130.649Z" fill="white"/>
<path d="M144.218 175.416C143.168 175.416 142.117 175.104 141.276 174.479L113.113 155.011C110.801 153.449 110.275 150.326 111.852 148.036L126.038 127.838C126.879 126.693 128.035 125.964 129.506 125.756C130.872 125.548 132.344 125.964 133.395 126.797L160.297 148.036C162.398 149.701 162.819 152.721 161.347 154.803L148.422 173.23C147.686 174.375 146.425 175.104 145.164 175.312C144.744 175.416 144.429 175.416 144.218 175.416ZM123.096 149.597L142.957 163.34L150.208 152.929L131.293 137.937L123.096 149.597Z" fill="white"/>
<path d="M51.1118 168.129L113.953 215.498C115.004 216.331 116.476 216.435 117.632 215.811C121.73 213.416 124.672 211.438 127.93 207.482L48.6948 149.909C38.7116 158.134 51.1118 168.129 51.1118 168.129Z" fill="#EB794E"/>
<path d="M115.95 221.225C114.164 221.225 112.272 220.6 110.801 219.455L47.9592 172.189L47.8541 172.085C47.0134 171.46 39.7625 165.318 39.7625 157.301C39.7625 154.386 40.7082 150.014 45.4371 146.057C47.2236 144.6 49.8508 144.496 51.7423 145.849L130.977 203.422C132.133 204.255 132.869 205.504 132.974 206.857C133.079 208.211 132.764 209.564 131.923 210.71C127.93 215.499 124.252 217.893 120.154 220.183C118.787 220.808 117.421 221.225 115.95 221.225ZM54.2644 164.173L116.055 210.71C117.632 209.773 118.998 208.94 120.154 208.003L49.9558 156.989V157.093C49.8508 159.696 52.7932 162.923 54.2644 164.173Z" fill="white"/>
<path d="M143.483 166.567L119.943 147.515C118.577 146.37 116.475 146.578 115.319 147.931L111.116 152.929C107.438 157.614 105.231 156.573 105.231 156.573C98.0853 150.534 80.9562 146.682 80.9562 146.682C80.9562 146.682 59.0983 141.373 48.9049 149.701L48.7998 149.805L128.035 207.378C137.283 196.134 143.167 180.83 145.689 173.542C146.32 171.044 145.584 168.233 143.483 166.567Z" fill="#EB794E"/>
<path d="M127.825 212.375C126.774 212.375 125.723 212.063 124.777 211.438L45.5422 153.866C44.2811 152.929 43.5455 151.471 43.4404 149.91C43.4404 148.348 44.0709 146.994 45.2269 145.953C45.332 145.849 45.4371 145.849 45.5422 145.745C50.7965 141.477 58.5729 139.603 68.8713 140.019C75.807 140.331 81.3766 141.581 82.0071 141.789C83.8987 142.205 97.665 145.433 106.072 150.951C106.387 150.638 106.702 150.326 107.123 149.805L107.228 149.701L111.431 144.704C114.374 141.268 119.628 140.748 123.201 143.663L146.74 162.715C150.418 165.734 151.89 170.731 150.313 175.208C147.476 183.433 141.381 198.945 131.818 210.605C130.767 211.751 129.401 212.375 127.825 212.375ZM58.5729 150.742L126.879 200.299C134.13 189.992 138.859 177.29 140.75 171.877C140.961 171.356 140.75 170.731 140.33 170.419L118.157 152.408L115.109 156.052C109.435 163.236 104.496 161.778 103.129 161.153C102.709 160.945 102.289 160.737 101.974 160.425C96.9294 156.156 84.319 152.616 79.9054 151.575H79.8003C75.7019 150.638 66.034 149.181 58.5729 150.742Z" fill="white"/>
<path d="M80.1155 164.381C79.0647 164.381 78.0138 164.069 77.068 163.34C74.8612 161.674 74.3358 158.551 76.0172 156.26L83.5834 146.266C85.2648 144.08 88.4174 143.559 90.7293 145.225C92.9361 146.89 93.4615 150.014 91.7801 152.304L84.2139 162.299C83.163 163.652 81.5867 164.381 80.1155 164.381Z" fill="white"/>
<path d="M90.5192 171.981C89.9938 171.981 89.4683 171.877 88.9429 171.773C86.3158 170.94 84.8445 168.129 85.6852 165.422L90.6243 150.014C91.465 147.411 94.3023 145.953 97.0346 146.786C99.6617 147.619 101.133 150.43 100.292 153.137L95.3532 168.545C94.7227 170.627 92.726 171.981 90.5192 171.981Z" fill="white"/>
<path d="M102.709 174.688C99.8719 174.688 97.665 172.397 97.665 169.69V155.531C97.665 152.72 99.9769 150.534 102.709 150.534C105.441 150.534 107.753 152.825 107.753 155.531V169.69C107.858 172.397 105.547 174.688 102.709 174.688Z" fill="white"/>
<path d="M98.9262 156.885C97.9804 156.885 96.9296 156.781 95.8787 156.26C94.3024 155.532 93.5668 155.219 93.2515 155.115L88.1023 154.282L89.5735 148.973C89.6786 148.452 90.0989 147.307 91.0447 144.392L91.2549 143.871C91.36 143.455 91.5701 143.038 91.6752 142.622C92.5159 140.436 95.038 133.669 101.764 131.482C107.438 129.608 113.428 131.378 116.265 135.959C117.842 138.562 118.262 141.685 117.316 144.808C116.265 148.66 113.218 152.304 109.645 154.074C107.228 155.323 105.021 155.74 102.814 156.26C102.394 156.365 101.974 156.469 101.448 156.573C101.133 156.677 100.082 156.885 98.9262 156.885ZM106.387 140.852C105.967 140.852 105.547 140.956 105.126 141.06C103.655 141.581 102.394 143.247 101.238 146.266C101.238 146.266 101.238 146.37 101.133 146.37C102.709 146.058 103.97 145.745 105.126 145.121C106.072 144.6 107.228 143.351 107.648 142.101C107.753 141.685 107.753 141.373 107.648 141.269C107.543 140.956 107.018 140.852 106.387 140.852Z" fill="white"/>
<path d="M97.9804 157.197L88.7328 153.345C87.3667 152.721 86.3158 151.888 85.5802 151.263L85.3701 151.055C83.2683 149.285 81.692 147.411 80.6412 145.225C77.9089 139.915 79.2751 132.731 83.6887 128.879C86.3158 126.485 89.9939 125.756 93.6719 126.797C97.0347 127.734 99.6618 130.441 100.713 134.085C102.814 140.748 101.028 146.682 99.9771 150.118C99.872 150.638 99.6618 151.055 99.5567 151.471L97.9804 157.197ZM90.3091 136.584C89.3633 137.416 89.0481 139.603 89.6786 140.852C89.9939 141.477 90.5193 142.205 91.2549 142.83C91.5702 141.06 91.5702 139.186 90.9396 137.208C90.8346 136.896 90.7295 136.792 90.7295 136.688C90.4142 136.584 90.3091 136.584 90.3091 136.584Z" fill="white"/>
<path d="M156.093 196.238H142.222C141.486 196.238 140.961 195.718 140.961 194.989C140.961 194.26 141.486 193.74 142.222 193.74H156.093C156.829 193.74 157.354 194.26 157.354 194.989C157.354 195.718 156.829 196.238 156.093 196.238Z" fill="#474747"/>
<path d="M160.717 203.005H142.222C141.486 203.005 140.961 202.485 140.961 201.756C140.961 201.027 141.486 200.507 142.222 200.507H160.717C161.453 200.507 161.978 201.027 161.978 201.756C161.978 202.381 161.453 203.005 160.717 203.005Z" fill="#474747"/>
<path d="M153.046 209.773H142.222C141.486 209.773 140.961 209.252 140.961 208.523C140.961 207.794 141.486 207.274 142.222 207.274H153.046C153.781 207.274 154.307 207.794 154.307 208.523C154.307 209.252 153.781 209.773 153.046 209.773Z" fill="#474747"/>
<path d="M205.484 83.071L177.321 63.6025L130.137 130.649L157.039 151.992L205.484 83.071Z" fill="white"/>
<path d="M157.039 153.241C156.724 153.241 156.514 153.137 156.198 152.929L129.296 131.69C128.771 131.274 128.666 130.545 129.086 130.025L176.27 62.978C176.69 62.4574 177.426 62.2492 178.056 62.6656L206.219 82.03C206.535 82.2382 206.64 82.5506 206.745 82.8629C206.85 83.1752 206.745 83.4875 206.535 83.7999L158.09 152.72C157.88 153.033 157.564 153.241 157.249 153.241C157.249 153.241 157.144 153.241 157.039 153.241ZM131.923 130.441L156.829 150.118L203.697 83.3834L177.531 65.3725L131.923 130.441Z" fill="#474747"/>
<path d="M130.137 130.649L115.95 150.846L144.218 170.419L157.039 151.992L130.137 130.649Z" fill="white"/>
<path d="M144.218 171.668C144.008 171.668 143.693 171.564 143.483 171.46L115.32 151.992C114.794 151.575 114.584 150.846 115.004 150.222L129.191 130.024C129.401 129.712 129.716 129.504 130.032 129.504C130.347 129.504 130.767 129.504 130.978 129.816L157.88 151.055C158.405 151.471 158.51 152.2 158.09 152.72L145.164 171.148C144.954 171.46 144.639 171.564 144.324 171.668H144.218ZM117.737 150.534L143.798 168.545L155.252 152.096L130.347 132.419L117.737 150.534Z" fill="#474747"/>
<path d="M51.1118 168.128L113.953 215.498C115.004 216.331 116.476 216.435 117.632 215.811C121.73 213.416 124.672 211.438 127.93 207.482L48.6948 149.909C38.7116 158.134 51.1118 168.128 51.1118 168.128Z" fill="#FF911A"/>
<path d="M115.95 217.476C114.899 217.476 113.954 217.164 113.113 216.539L50.2712 169.17C49.9559 168.961 43.5457 163.652 43.5457 157.197C43.5457 154.074 45.0169 151.263 47.8542 148.868C48.2745 148.452 48.9051 148.452 49.4305 148.868L128.666 206.441C128.981 206.649 129.086 206.961 129.191 207.274C129.191 207.586 129.086 208.002 128.876 208.211C125.303 212.583 122.045 214.561 118.157 216.852C117.527 217.268 116.686 217.476 115.95 217.476ZM51.8475 167.087L114.689 214.457C115.32 214.978 116.265 215.082 116.896 214.665C120.364 212.687 123.096 210.918 126.039 207.586L48.8 151.471C47.0135 153.241 46.0677 155.115 46.0677 157.197C46.0677 162.194 51.5322 166.879 51.8475 167.087Z" fill="#474747"/>
<path d="M143.483 166.567L119.944 147.515C118.577 146.37 116.476 146.578 115.32 147.931L111.116 152.929C107.438 157.614 105.231 156.573 105.231 156.573C98.0856 150.534 80.9565 146.682 80.9565 146.682C80.9565 146.682 59.0985 141.373 48.9051 149.701L48.8 149.805L128.035 207.378C137.283 196.134 143.168 180.83 145.69 173.542C146.32 171.044 145.585 168.233 143.483 166.567Z" fill="#8CBDF2"/>
<path d="M127.825 208.627C127.615 208.627 127.3 208.523 127.089 208.419L47.8543 150.846C47.539 150.638 47.3289 150.222 47.3289 149.909C47.3289 149.493 47.4339 149.181 47.7492 148.868C47.8543 148.764 47.8543 148.764 47.8543 148.764C58.468 140.123 80.1158 145.224 81.0616 145.433C81.7972 145.537 98.1907 149.285 105.652 155.427C106.072 155.427 107.648 155.219 109.96 152.2L114.269 147.203C115.845 145.329 118.788 145.016 120.679 146.578L144.219 165.63C146.635 167.608 147.686 170.94 146.636 173.959C143.903 181.975 138.018 196.967 128.771 208.211C128.561 208.523 128.245 208.627 127.825 208.627ZM50.7967 149.805L127.615 205.608C136.127 194.781 141.696 180.726 144.324 173.126C144.954 171.148 144.324 168.857 142.747 167.504L119.208 148.452C118.367 147.723 117.106 147.827 116.371 148.764L112.167 153.761C108.069 158.863 105.231 158.03 104.706 157.718C104.601 157.718 104.496 157.613 104.391 157.509C97.5602 151.679 80.8514 147.931 80.6412 147.827C80.4311 147.827 60.885 143.246 50.7967 149.805Z" fill="#474747"/>
<path d="M80.1158 160.529C79.8005 160.529 79.5904 160.425 79.3802 160.32C78.8548 159.904 78.7497 159.071 79.17 158.551L86.7362 148.556C87.1566 148.035 87.9973 147.931 88.5227 148.348C89.0481 148.764 89.1532 149.597 88.7329 150.118L81.1667 160.112C80.8514 160.425 80.4311 160.529 80.1158 160.529Z" fill="#474747"/>
<path d="M90.5193 168.233C90.4142 168.233 90.3092 168.233 90.099 168.129C89.4685 167.92 89.0481 167.192 89.2583 166.567L94.1974 151.159C94.4075 150.534 95.1431 150.118 95.7736 150.326C96.4042 150.534 96.8245 151.263 96.6143 151.888L91.6753 167.296C91.5702 167.92 91.1498 168.233 90.5193 168.233Z" fill="#474747"/>
<path d="M102.709 170.94C101.974 170.94 101.448 170.419 101.448 169.69V155.531C101.448 154.803 101.974 154.282 102.709 154.282C103.445 154.282 103.97 154.803 103.97 155.531V169.69C103.97 170.315 103.445 170.94 102.709 170.94Z" fill="#474747"/>
<path d="M98.821 153.137C98.2956 153.137 97.8752 153.033 97.4549 152.928C95.0379 151.783 94.3023 151.575 94.1972 151.575L92.8311 151.367L93.1463 150.013C93.2514 149.493 93.8819 147.619 94.6175 145.641L94.8277 145.12C94.9328 144.704 95.0379 144.391 95.248 143.975C97.1396 139.082 99.6617 136.167 103.024 135.022C106.282 133.876 110.906 134.397 113.113 137.937C114.164 139.602 114.374 141.685 113.848 143.767C113.008 146.578 110.696 149.389 108.069 150.638C106.072 151.679 104.18 152.096 102.184 152.512C101.763 152.616 101.238 152.72 100.818 152.824C100.397 153.033 99.6617 153.137 98.821 153.137ZM98.5057 150.638C98.821 150.638 99.5566 150.638 100.082 150.534C100.607 150.43 101.028 150.326 101.553 150.222C103.445 149.805 105.126 149.389 106.913 148.556C108.909 147.515 110.801 145.328 111.326 143.246C111.747 141.789 111.642 140.539 110.906 139.394C109.435 137 106.177 136.792 103.865 137.52C101.238 138.457 99.2413 140.748 97.665 144.912C97.5599 145.224 97.4549 145.641 97.2447 145.953L97.0345 146.474C96.8243 147.098 96.2989 148.556 95.9836 149.597C96.7193 149.805 97.5599 150.118 98.5057 150.638Z" fill="#474747"/>
<path d="M95.3533 151.992L90.2041 149.805C89.3634 149.493 88.6278 148.868 87.9973 148.348L87.7871 148.14C86.1057 146.682 84.8447 145.224 84.004 143.559C82.1125 139.811 83.0582 134.501 86.1057 131.794C87.7871 130.337 90.099 129.92 92.516 130.545C94.6177 131.17 96.194 132.835 97.0347 135.23C98.7161 140.852 97.2449 145.849 96.2991 149.077C96.0889 149.597 95.9838 150.118 95.8788 150.534L95.3533 151.992ZM91.1499 147.515C91.3601 147.619 92.6211 148.14 93.672 148.556V148.452C94.6177 145.433 95.9838 140.956 94.5126 136.063C94.1974 135.126 93.4618 133.46 91.7804 133.044C90.8346 132.835 89.1532 132.523 87.7871 133.772C85.5803 135.75 84.8447 139.811 86.2108 142.518C86.8413 143.871 87.9973 145.12 89.3634 146.266L89.6787 146.474C90.2041 146.89 90.7295 147.307 91.1499 147.515Z" fill="#474747"/>
</g>
</g>
<defs>
<clipPath id="clip0">
<rect width="210.383" height="234.247" fill="white" transform="translate(0.25 -9.27393)"/>
</clipPath>
</defs>
</svg>
