<svg width="168" height="225" viewBox="0 0 168 225" fill="none" xmlns="http://www.w3.org/2000/svg">
<mask id="mask0" mask-type="alpha" maskUnits="userSpaceOnUse" x="0" y="0" width="168" height="225">
<rect width="168" height="225" rx="11" fill="#C4C4C4"/>
</mask>
<g mask="url(#mask0)">
<g clip-path="url(#clip0)">
<path d="M175.718 195.612C175.718 195.612 162.105 169.918 142.429 152.985C123.947 137.135 105.563 127.586 100.098 125.715C94.6327 123.845 91.751 123.845 90.3598 126.208C89.068 128.275 90.8566 131.721 90.8566 131.721C90.6579 131.524 86.385 130.342 85.59 130.244C83.702 130.047 82.7083 129.752 81.3172 130.441C78.8329 131.622 76.9449 135.461 79.7272 137.234C79.7272 137.234 72.1752 134.871 70.6846 140.778C69.7903 144.519 75.6531 146.684 75.6531 146.684C75.6531 146.684 70.8834 148.259 72.4733 152C73.0695 153.379 74.8581 154.462 76.6468 155.249C78.4354 156.037 80.3235 156.627 82.3109 157.021C85.3913 157.612 93.1421 159.482 100.297 164.503C100.297 164.503 98.1106 168.047 87.3787 164.405C85.6894 163.814 84.0001 163.322 82.2115 163.814C80.3235 164.306 78.3361 165.98 78.6342 168.835C79.131 173.658 88.6705 178.482 94.732 179.27C100.794 180.057 106.954 180.156 112.32 178.187C115.898 176.907 119.276 174.938 119.276 174.938C119.276 174.938 151.671 197.975 159.123 230.068L175.718 195.612Z" fill="white"/>
<path d="M159.123 235.581C158.925 235.581 158.726 235.581 158.527 235.581C156.043 235.285 154.056 233.513 153.559 231.151C147.895 206.933 126.431 187.736 118.779 181.534C117.488 182.125 115.997 182.814 114.407 183.405C108.644 185.472 101.787 185.964 93.9371 184.783C87.0806 183.798 73.9638 178.187 72.9701 169.228C72.5726 166.078 73.7651 163.026 75.8518 160.959C75.355 160.762 74.8581 160.565 74.3613 160.368C70.6846 158.695 68.3991 156.627 67.3061 154.166C66.3124 151.902 66.3124 149.539 67.1073 147.373C65.1199 144.814 64.6231 141.86 65.2193 139.399C65.9149 136.347 67.7035 133.985 70.2872 132.508C71.2808 131.917 72.3739 131.524 73.3676 131.327C74.3613 128.767 76.3487 126.503 78.9323 125.223C81.2178 124.14 83.2052 124.14 84.8945 124.337C85.0932 123.943 85.1926 123.549 85.4907 123.254C89.8629 116.068 98.7068 119.119 102.085 120.301C108.246 122.467 127.127 132.213 146.305 148.653C166.576 166.078 180.289 191.871 180.885 192.954C181.78 194.529 181.78 196.399 180.985 198.073L164.39 232.332C163.396 234.301 161.409 235.581 159.123 235.581ZM119.376 169.031C120.568 169.031 121.761 169.425 122.754 170.114C123.947 171 148.193 188.425 160.117 214.71L169.259 195.71C165.384 189.016 153.857 170.213 138.753 157.218C120.667 141.664 102.781 132.508 98.3093 131.031C97.7131 130.834 97.2163 130.638 96.7194 130.539C97.2163 132.902 96.1232 135.363 93.9371 136.643C92.1484 137.627 90.0617 137.627 88.3724 136.741C87.6768 136.544 86.385 136.151 85.5901 135.954C85.8882 137.135 85.6894 138.415 85.1926 139.596C84.2983 141.467 82.4102 142.746 80.4228 142.845C81.4165 143.928 81.9134 145.306 81.814 146.783C81.7146 148.161 81.2178 149.441 80.4228 150.327C81.4165 150.721 82.4102 150.917 83.702 151.213C87.0806 151.803 95.8251 153.969 103.973 159.679C106.458 161.451 107.153 164.7 105.563 167.259C105.066 168.145 103.377 170.311 99.5018 171.197C96.2226 171.985 92.3472 171.591 87.4781 170.114C89.7636 171.591 93.0428 172.969 95.8251 173.363C101.787 174.249 106.756 173.954 110.631 172.576C113.712 171.493 116.593 169.819 116.693 169.721C117.289 169.327 118.283 169.031 119.376 169.031Z" fill="white"/>
<path d="M101.787 165.487C100.793 165.487 99.7004 165.192 98.8061 164.601C96.1231 162.928 95.2288 159.384 96.9181 156.726L108.544 137.923C110.234 135.265 113.811 134.379 116.494 136.052C119.177 137.726 120.071 141.27 118.382 143.928L106.756 162.829C105.663 164.503 103.775 165.487 101.787 165.487Z" fill="white"/>
<path d="M111.625 149.638C109.836 149.638 108.047 148.752 106.855 147.176C104.868 144.42 95.9243 139.695 88.7697 136.938C85.7886 135.757 84.2981 132.508 85.4905 129.555C86.6829 126.601 89.9621 125.125 92.9432 126.306C96.0237 127.487 111.426 133.689 116.295 140.679C118.084 143.239 117.488 146.881 114.904 148.653C113.91 149.342 112.817 149.638 111.625 149.638Z" fill="white"/>
<path d="M107.252 156.726C105.861 156.726 104.569 156.234 103.476 155.348C94.1356 147.275 78.3359 142.747 78.1371 142.648C75.0567 141.762 73.268 138.612 74.1624 135.56C75.0567 132.508 78.2365 130.736 81.317 131.622C82.1119 131.819 99.7997 136.938 111.028 146.684C113.413 148.752 113.711 152.394 111.625 154.757C110.532 156.037 108.942 156.726 107.252 156.726Z" fill="white"/>
<path d="M103.377 162.928C102.284 162.928 101.191 162.633 100.197 161.943C86.2855 152.69 75.7523 152.296 75.6529 152.296C72.4731 152.296 69.8895 149.736 69.9889 146.487C69.9889 143.337 72.5725 140.778 75.7523 140.778C76.3485 140.778 89.5647 140.974 106.656 152.394C109.339 154.166 110.035 157.71 108.246 160.368C107.153 162.042 105.265 162.928 103.377 162.928Z" fill="white"/>
<path d="M172.24 207.819V253.301H-7.71802V196.892C5.10065 196.892 5.10065 207.819 18.0187 207.819C30.8373 207.819 30.8373 196.892 43.7554 196.892C56.6734 196.892 56.5741 207.819 69.4921 207.819C82.4101 207.819 82.2114 196.892 95.1294 196.892C107.948 196.892 107.948 207.819 120.866 207.819C133.685 207.819 133.685 196.892 146.603 196.892C159.322 196.892 159.322 207.819 172.24 207.819Z" fill="white"/>
<path d="M172.24 259.011H-7.71801C-10.8978 259.011 -13.4814 256.451 -13.4814 253.301V196.892C-13.4814 193.741 -10.8978 191.182 -7.71801 191.182C0.827763 191.182 5.49813 195.12 8.87669 197.975C11.7584 200.436 13.6464 202.011 17.9193 202.011C22.1922 202.011 24.0802 200.436 27.0613 197.975C30.4399 195.12 35.1102 191.182 43.656 191.182C52.2018 191.182 56.8722 195.12 60.2507 197.975C63.1324 200.436 65.0205 202.011 69.2934 202.011C73.5662 202.011 75.4543 200.436 78.336 197.975C81.7145 195.12 86.3849 191.182 94.9307 191.182C103.476 191.182 108.147 195.12 111.525 197.975C114.407 200.436 116.295 202.011 120.568 202.011C124.841 202.011 126.729 200.436 129.71 197.975C133.089 195.12 137.759 191.182 146.305 191.182C154.85 191.182 159.521 195.12 162.899 197.975C165.781 200.436 167.669 202.011 171.942 202.011C175.122 202.011 177.705 204.57 177.705 207.721V253.203C178.004 256.451 175.42 259.011 172.24 259.011ZM-1.95458 247.591H166.377V212.938C161.309 211.658 158.13 208.902 155.546 206.736C152.664 204.275 150.776 202.7 146.404 202.7C142.131 202.7 140.243 204.275 137.361 206.736C133.983 209.591 129.313 213.529 120.767 213.529C112.221 213.529 107.551 209.591 104.172 206.736C101.29 204.275 99.4023 202.7 95.1294 202.7C90.8565 202.7 88.9685 204.275 85.9874 206.736C82.6089 209.591 77.9385 213.529 69.3927 213.529C60.8469 213.529 56.1766 209.591 52.798 206.736C49.9163 204.275 48.0283 202.7 43.7554 202.7C39.4825 202.7 37.5945 204.275 34.7128 206.736C31.3342 209.591 26.6638 213.529 18.1181 213.529C9.57228 213.529 4.90191 209.591 1.52335 206.736C0.330915 205.752 -0.66278 204.866 -1.75584 204.177V247.591H-1.95458Z" fill="white"/>
<path d="M137.66 119.119C137.361 121.384 133.089 130.342 133.089 130.342C133.089 130.342 129.014 120.202 129.312 117.938C129.611 115.674 131.797 114.099 134.082 114.394C136.368 114.788 137.958 116.855 137.66 119.119Z" fill="white"/>
<path d="M132.989 136.052C132.89 136.052 132.89 136.052 132.79 136.052C130.505 135.954 128.418 134.575 127.623 132.409C122.953 120.891 123.35 118.135 123.549 117.052C123.947 114.394 125.338 112.13 127.424 110.555C129.611 108.979 132.194 108.29 134.877 108.684C137.56 109.078 139.846 110.456 141.436 112.523C143.025 114.591 143.721 117.249 143.324 119.907C142.926 122.466 140.342 128.275 138.256 132.705C137.262 134.772 135.275 136.052 132.989 136.052Z" fill="white"/>
<path d="M158.627 119.808C156.54 122.073 145.013 128.767 145.013 128.767C145.013 128.767 148.193 114.492 150.28 112.228C152.366 109.964 155.944 109.767 158.229 111.933C160.614 114 160.713 117.544 158.627 119.808Z" fill="white"/>
<path d="M145.013 134.477C143.82 134.477 142.628 134.083 141.634 133.394C139.746 132.016 138.852 129.752 139.349 127.487C142.926 111.736 145.212 109.176 146.007 108.29C150.279 103.663 157.533 103.368 162.104 107.601C166.775 111.834 167.073 119.021 162.8 123.549C160.415 126.109 152.466 130.933 147.895 133.591C147 134.28 146.007 134.477 145.013 134.477Z" fill="white"/>
<path d="M175.718 195.612C175.718 195.612 162.105 169.918 142.429 152.985C123.947 137.135 105.563 127.586 100.098 125.715C94.6327 123.845 91.751 123.845 90.3598 126.208C89.068 128.275 90.8566 131.721 90.8566 131.721C90.6579 131.524 86.385 130.342 85.59 130.244C83.702 130.047 82.7083 129.752 81.3172 130.441C78.8329 131.622 76.9449 135.461 79.7272 137.234C79.7272 137.234 72.1752 134.871 70.6846 140.778C69.7903 144.519 75.6531 146.684 75.6531 146.684C75.6531 146.684 70.8834 148.259 72.4733 152C73.0695 153.379 74.8581 154.462 76.6468 155.249C78.4354 156.037 80.3235 156.627 82.3109 157.021C85.3913 157.612 93.1421 159.482 100.297 164.503C100.297 164.503 98.1106 168.047 87.3787 164.405C85.6894 163.814 84.0001 163.322 82.2115 163.814C80.3235 164.306 78.3361 165.98 78.6342 168.835C79.131 173.658 88.6705 178.482 94.732 179.27C100.794 180.057 106.954 180.156 112.32 178.187C115.898 176.907 119.276 174.938 119.276 174.938C119.276 174.938 151.671 197.975 159.123 230.068L175.718 195.612Z" fill="white"/>
<path d="M159.123 231.348C159.024 231.348 159.024 231.348 158.925 231.348C158.328 231.249 157.832 230.856 157.633 230.265C150.975 201.716 123.947 180.156 119.077 176.513C117.786 177.203 115.301 178.482 112.718 179.368C107.65 181.14 101.489 181.534 94.4338 180.55C91.1546 180.057 87.0805 178.581 83.8013 176.612C80.9196 174.938 77.541 172.182 77.1435 168.835C76.746 165.389 79.2303 163.026 81.8139 162.337C83.9007 161.747 85.888 162.239 87.7761 162.928C93.0426 164.7 95.9244 164.7 97.5143 164.306C91.1546 160.368 84.6956 158.793 82.0126 158.301C79.7271 157.907 77.8391 157.316 76.0505 156.43C73.3675 155.249 71.7776 153.871 71.1814 152.394C70.5851 151.016 70.5851 149.736 71.1814 148.555C71.5788 147.767 72.0757 147.177 72.6719 146.684C70.5851 145.306 68.5978 143.14 69.2933 140.384C69.7902 138.513 70.7839 137.135 72.2744 136.249C73.765 135.462 75.4542 135.265 76.9448 135.265C76.9448 134.969 76.9448 134.674 76.9448 134.477C77.0442 132.311 78.6341 130.145 80.7208 129.161C82.3107 128.373 83.6025 128.57 85.1925 128.767L85.7887 128.866C85.7887 128.866 87.1798 129.063 88.571 129.456C88.3723 128.177 88.3723 126.7 89.0679 125.519C91.254 121.876 95.9244 122.86 100.495 124.436C106.159 126.405 124.742 136.052 143.324 152C162.999 168.933 176.811 194.726 176.91 195.021C177.109 195.415 177.109 195.907 176.91 196.301L160.415 230.56C160.216 230.954 159.72 231.348 159.123 231.348ZM119.376 173.363C119.674 173.363 119.972 173.462 120.171 173.659C121.462 174.545 150.578 195.513 159.521 225.736L174.029 195.612C171.843 191.576 159.024 169.13 141.436 154.068C123.251 138.415 105.066 128.964 99.601 126.995C93.7382 124.928 92.2477 125.715 91.5521 126.798C90.9559 127.881 91.6515 130.047 92.1483 130.933C92.5458 131.622 92.2477 132.41 91.5521 132.803C91.0553 133.099 90.459 133 90.0616 132.705C89.366 132.41 86.0868 131.622 85.3912 131.524L84.795 131.425C83.2051 131.228 82.7082 131.13 81.9133 131.524C80.8202 132.016 79.8265 133.394 79.8265 134.477C79.8265 135.068 80.0252 135.462 80.5221 135.855C81.1183 136.249 81.317 137.037 81.0189 137.627C80.7208 138.316 79.9259 138.612 79.3297 138.415C78.4353 138.12 75.5536 137.627 73.765 138.612C72.97 139.104 72.4732 139.793 72.175 140.876C71.5788 143.239 76.2492 145.109 76.2492 145.109C76.8454 145.306 77.1435 145.897 77.1435 146.487C77.1435 147.078 76.746 147.669 76.1498 147.767C75.653 147.964 74.2618 148.555 73.765 149.539C73.6656 149.835 73.4669 150.327 73.8643 151.114C74.0631 151.607 74.7587 152.493 77.2429 153.674C78.8328 154.363 80.5221 154.954 82.5095 155.249C85.5899 155.84 93.6389 157.71 100.992 163.026C101.588 163.42 101.787 164.306 101.39 164.897C100.893 165.684 98.0111 169.228 86.7824 165.389C85.1925 164.798 83.8013 164.405 82.5095 164.798C82.0126 164.897 79.6278 165.783 79.9259 168.244C80.3233 171.394 87.5773 176.415 94.7319 177.498C101.39 178.482 107.054 178.089 111.625 176.513C115.103 175.234 118.282 173.363 118.382 173.363C118.879 173.363 119.077 173.363 119.376 173.363Z" fill="#474747"/>
<path d="M101.787 161.254C101.489 161.254 101.29 161.156 100.992 161.057C100.297 160.664 100.098 159.777 100.495 159.088L112.122 140.285C112.519 139.596 113.413 139.399 114.109 139.793C114.805 140.187 115.003 141.073 114.606 141.762L102.98 160.565C102.781 160.959 102.284 161.254 101.787 161.254Z" fill="#474747"/>
<path d="M111.625 145.405C111.128 145.405 110.73 145.208 110.432 144.814C107.253 140.285 94.8313 134.772 90.3597 133C89.6641 132.705 89.2666 131.918 89.5647 131.13C89.8629 130.441 90.6578 130.047 91.4528 130.342C92.1484 130.638 108.445 136.938 112.817 143.14C113.314 143.829 113.115 144.715 112.42 145.109C112.221 145.306 111.923 145.405 111.625 145.405Z" fill="#474747"/>
<path d="M107.253 152.394C106.954 152.394 106.557 152.296 106.259 152C96.2226 143.337 79.4291 138.513 79.3297 138.415C78.5348 138.218 78.1373 137.43 78.336 136.643C78.5348 135.855 79.3297 135.461 80.1247 135.658C80.8203 135.855 97.6137 140.679 108.246 149.835C108.842 150.327 108.942 151.213 108.346 151.803C108.048 152.197 107.65 152.394 107.253 152.394Z" fill="#474747"/>
<path d="M103.377 158.596C103.079 158.596 102.781 158.498 102.582 158.399C87.3785 148.259 75.8516 148.062 75.6529 148.062C74.8579 148.062 74.2617 147.373 74.2617 146.586C74.2617 145.798 74.9573 145.208 75.7523 145.208C76.2491 145.208 88.2728 145.404 104.271 156.037C104.967 156.43 105.066 157.415 104.669 158.005C104.371 158.399 103.874 158.596 103.377 158.596Z" fill="#474747"/>
<path d="M172.24 207.819V253.301H-7.71802V196.892C5.10065 196.892 5.10065 207.819 18.0187 207.819C30.8373 207.819 30.8373 196.892 43.7554 196.892C56.6734 196.892 56.5741 207.819 69.4921 207.819C82.4101 207.819 82.2114 196.892 95.1294 196.892C107.948 196.892 107.948 207.819 120.866 207.819C133.685 207.819 133.685 196.892 146.603 196.892C159.322 196.892 159.322 207.819 172.24 207.819Z" fill="#8CBDF2"/>
<path d="M172.24 254.778H-7.71795C-8.51291 254.778 -9.2085 254.089 -9.2085 253.301V196.892C-9.2085 196.104 -8.51291 195.415 -7.71795 195.415C-0.762089 195.415 2.71584 198.368 6.09441 201.223C9.17486 203.881 12.1559 206.342 18.0187 206.342C23.8815 206.342 26.8626 203.881 29.9431 201.223C33.3217 198.368 36.7996 195.415 43.7554 195.415C50.7113 195.415 54.1892 198.368 57.5678 201.223C60.6483 203.881 63.6293 206.342 69.4921 206.342C75.3549 206.342 78.336 203.881 81.4165 201.223C84.7951 198.368 88.273 195.415 95.2289 195.415C102.185 195.415 105.663 198.368 109.041 201.223C112.122 203.881 115.103 206.342 120.966 206.342C126.828 206.342 129.809 203.881 132.89 201.223C136.268 198.368 139.746 195.415 146.702 195.415C153.658 195.415 157.136 198.368 160.515 201.223C163.595 203.881 166.576 206.342 172.439 206.342C173.234 206.342 173.93 207.032 173.93 207.819V253.301C173.631 254.089 173.035 254.778 172.24 254.778ZM-6.22741 251.923H170.75V209.296C164.787 208.902 161.508 206.146 158.428 203.586C155.347 200.928 152.366 198.467 146.504 198.467C140.641 198.467 137.66 200.928 134.579 203.586C131.201 206.441 127.723 209.394 120.767 209.394C113.811 209.394 110.333 206.441 106.954 203.586C103.874 200.928 100.893 198.467 95.0301 198.467C89.1673 198.467 86.1862 200.928 83.1058 203.586C79.7272 206.441 76.2493 209.394 69.2934 209.394C62.3375 209.394 58.8596 206.441 55.481 203.586C52.4006 200.928 49.4195 198.467 43.5567 198.467C37.6939 198.467 34.7128 200.928 31.6324 203.586C28.2538 206.441 24.7759 209.394 17.82 209.394C10.8641 209.394 7.38621 206.441 4.00765 203.586C1.2253 201.223 -1.55704 198.861 -6.42615 198.565V251.923H-6.22741Z" fill="#474747"/>
<path d="M137.66 119.119C137.361 121.384 133.089 130.342 133.089 130.342C133.089 130.342 129.014 120.202 129.312 117.938C129.611 115.674 131.797 114.099 134.082 114.394C136.368 114.788 137.958 116.855 137.66 119.119Z" fill="#8CBDF2"/>
<path d="M132.989 131.819C132.393 131.819 131.896 131.425 131.697 130.933C130.704 128.472 127.524 120.301 127.822 117.741C128.021 116.264 128.816 114.985 130.008 114.099C131.2 113.213 132.691 112.819 134.182 113.016C135.672 113.213 136.964 114 137.858 115.182C138.753 116.363 139.15 117.84 138.951 119.316C138.554 121.777 134.678 129.948 134.281 130.933C134.082 131.524 133.585 131.819 132.989 131.819ZM133.486 115.871C132.89 115.871 132.294 116.068 131.797 116.461C131.2 116.855 130.803 117.544 130.704 118.233C130.604 119.119 131.697 122.86 133.188 126.7C134.579 123.549 136.07 120.104 136.268 119.021C136.467 117.544 135.473 116.166 133.883 115.871C133.685 115.871 133.585 115.871 133.486 115.871Z" fill="#474747"/>
<path d="M158.627 119.809C156.54 122.073 145.013 128.767 145.013 128.767C145.013 128.767 148.193 114.493 150.28 112.228C152.366 109.964 155.944 109.767 158.229 111.933C160.614 114 160.713 117.544 158.627 119.809Z" fill="#8CBDF2"/>
<path d="M145.013 130.244C144.715 130.244 144.417 130.145 144.119 129.949C143.622 129.653 143.423 129.063 143.522 128.472C144.119 126.011 146.901 113.705 149.186 111.244C151.869 108.389 156.341 108.192 159.223 110.85C160.614 112.13 161.409 113.803 161.508 115.674C161.608 117.544 160.912 119.316 159.62 120.695C157.434 123.057 146.901 129.259 145.709 129.949C145.51 130.145 145.212 130.244 145.013 130.244ZM154.453 111.834C153.36 111.834 152.168 112.327 151.373 113.213C150.28 114.296 148.491 120.498 147.199 125.814C151.472 123.254 156.44 120.104 157.533 118.824C159.123 117.151 159.024 114.493 157.235 112.917C156.54 112.228 155.447 111.834 154.453 111.834Z" fill="#474747"/>
</g>
</g>
<defs>
<clipPath id="clip0">
<rect width="194.963" height="259.011" fill="white" transform="translate(-13.4814)"/>
</clipPath>
</defs>
</svg>
