<svg width="168" height="225" viewBox="0 0 168 225" fill="none" xmlns="http://www.w3.org/2000/svg">
<mask id="mask0" mask-type="alpha" maskUnits="userSpaceOnUse" x="0" y="0" width="168" height="225">
<rect width="168" height="225" rx="11" fill="#C4C4C4"/>
</mask>
<g mask="url(#mask0)">
<g clip-path="url(#clip0)">
<path d="M131.082 182.466C158.563 210.308 193.719 200.034 193.719 200.034L192.267 240.925C192.267 240.925 169.659 244.623 142.385 233.733C111.17 221.199 92.5038 184.623 89.2889 162.534L115.941 156.164C117.185 163.664 121.23 172.603 131.082 182.466Z" fill="#EB794E"/>
<path d="M140.519 238.356C107.333 225 87.7334 186.37 84.4149 163.253C84 160.685 85.6593 158.322 88.2519 157.705L114.904 151.336C116.252 151.027 117.704 151.233 118.844 152.055C119.985 152.877 120.815 154.007 121.022 155.445C122.267 163.151 126.83 171.164 134.711 179.075C145.185 189.657 157.941 195.616 172.77 196.746C184.074 197.671 192.267 195.308 192.37 195.308C193.926 194.897 195.585 195.205 196.83 196.13C198.074 197.157 198.8 198.596 198.8 200.24L197.348 241.13C197.244 243.493 195.482 245.445 193.2 245.856C192.785 245.959 188.844 246.575 182.415 246.575C172.667 246.575 157.526 245.137 140.519 238.356ZM188.533 206.199C184.489 206.815 178.889 207.226 172.356 206.712C155.141 205.479 139.585 198.288 127.452 185.959C119.778 178.151 114.593 170.137 112.207 162.123L95.0963 166.233C97.3778 176.609 102.667 188.527 109.511 199.007C116.252 209.075 127.659 222.534 144.252 229.109C163.23 236.712 180.03 236.815 187.393 236.404L188.533 206.199Z" fill="white"/>
<path d="M52.4741 107.055C52.4741 107.055 91.8815 106.747 108.682 109.212C125.482 111.678 124.444 123.288 121.23 129.76C119.778 132.74 113.763 142.397 115.941 156.062L89.2889 162.432C87.2149 147.637 88.1482 136.644 88.1482 136.644C88.1482 136.644 63.9852 132.123 50.8149 120C37.8519 107.979 52.4741 107.055 52.4741 107.055Z" fill="white"/>
<path d="M86.4889 166.644C85.3482 165.822 84.5185 164.589 84.3111 163.253C82.963 153.493 82.8593 145.377 82.963 140.753C75.0815 138.801 58.1778 133.664 47.4963 123.801C45.3185 121.746 38.5778 115.582 40.963 109.007C43.1407 103.048 50.7111 102.329 52.163 102.226C52.2667 102.226 52.3704 102.226 52.4741 102.226C54.1333 102.226 92.5037 101.918 109.511 104.383C119.881 105.925 124.444 110.651 126.415 114.349C129.111 119.383 128.904 126.062 125.793 132.123C125.689 132.431 125.481 132.74 125.274 133.151C123.511 136.541 119.259 144.657 120.919 155.445C121.333 158.014 119.674 160.479 117.185 161.096L90.5333 167.466C90.1185 167.568 89.7037 167.568 89.3926 167.568C88.3556 167.466 87.3185 167.157 86.4889 166.644ZM116.356 128.425C116.563 128.116 116.667 127.808 116.77 127.603C118.015 125.137 118.844 121.541 117.496 118.87C115.941 115.788 111.481 114.657 108.059 114.144C92.4 111.883 55.4815 112.089 52.6815 112.089C52.163 112.089 51.437 112.294 50.8148 112.5C51.2296 113.219 52.2667 114.555 54.3408 116.507C66.2667 127.5 88.9778 131.918 89.1852 131.918C91.6741 132.431 93.437 134.692 93.2296 137.26C93.2296 137.363 92.5037 145.274 93.6445 156.37L110.548 152.26C109.926 140.548 114.489 131.918 116.356 128.425Z" fill="white"/>
<path d="M193.2 162.945C193.2 162.945 145.185 154.829 133.674 164.589C133.881 173.836 126.83 184.418 116.563 187.294C111.896 188.322 108.785 183.082 112.311 179.897C115.007 177.431 119.985 170.651 119.156 169.212C119.156 169.212 107.644 174.041 103.081 174.966C99.4518 175.685 89.4963 177.431 87.9407 173.116C86.4889 169.212 88.9778 167.979 88.9778 167.979C88.9778 167.979 83.5852 166.336 86.4889 161.404C86.4889 161.404 81.5111 158.938 84.7259 154.109C84.7259 154.109 80.7852 151.541 83.6889 148.253C86.4889 144.966 103.807 139.418 131.081 136.233C158.356 133.048 202.222 132.431 202.222 132.431L193.2 162.945Z" fill="white"/>
<path d="M106.815 187.294C105.467 184.623 105.467 181.644 106.815 179.075C105.778 179.383 104.844 179.589 104.119 179.794C99.763 180.616 86.3852 183.288 83.2741 174.76C82.5482 172.705 82.3408 170.959 82.6519 169.418C82.1334 168.801 81.6149 167.979 81.3037 167.157C80.8889 166.13 80.5778 164.692 80.7852 162.945C80.0593 162.02 79.4371 160.89 79.0223 159.452C78.7111 158.322 78.5037 156.781 79.0223 154.931C78.5037 154.007 77.9852 152.979 77.7778 151.644C77.5704 150 77.6741 147.431 79.9556 144.863C80.7852 143.938 83.2741 140.959 96.963 137.157C106.193 134.692 117.807 132.534 130.563 130.993C157.837 127.808 200.459 127.192 202.222 127.089C202.222 127.089 202.222 127.089 202.326 127.089C203.882 127.089 205.333 127.808 206.267 129.041C207.2 130.274 207.511 131.918 207.096 133.459L198.178 164.178C197.452 166.644 195.067 168.082 192.474 167.671C192.37 167.671 180.548 165.719 167.585 164.897C153.896 164.075 143.422 164.897 138.756 167.157C137.719 178.356 129.111 188.835 118.119 191.918C118.015 191.918 117.911 192.02 117.807 192.02C117.082 192.226 116.356 192.226 115.63 192.226C111.793 192.431 108.578 190.582 106.815 187.294ZM168.104 155.137C176.815 155.651 184.904 156.678 189.674 157.397L195.482 137.363C182.104 137.671 152.03 138.596 131.704 141.061C106.504 144.041 92.7112 148.664 88.6667 150.719C89.2889 151.335 89.6 152.055 89.8074 152.979C90.1186 154.315 89.7037 155.651 88.9778 156.781C88.9778 156.883 88.8741 156.883 88.8741 156.986C90.1186 157.603 90.9482 158.527 91.4667 159.863C91.8815 161.096 91.6741 162.329 91.1556 163.356C92.9186 163.972 94.0593 165.616 94.2667 167.466C94.3704 168.698 94.0593 169.829 93.3334 170.856C94.6815 171.061 97.2741 171.061 102.252 170.034C105.156 169.418 113.037 166.438 117.289 164.589C119.57 163.664 122.267 164.486 123.615 166.644C125.585 169.931 123.719 173.527 121.437 176.918C120.296 178.561 119.052 180.205 117.807 181.644C124.652 178.459 129.007 170.753 128.8 164.692C128.8 163.151 129.422 161.815 130.563 160.788C132.43 159.144 137.615 154.726 157.941 154.726C160.844 154.726 164.267 154.829 168.104 155.137Z" fill="white"/>
<path d="M84.7259 159.041C85.1407 159.041 85.6592 158.938 86.0741 158.836L99.1407 155.24C101.837 154.521 103.393 151.747 102.667 149.075C101.941 146.404 99.1407 144.863 96.4444 145.582L83.3778 149.178C80.6815 149.897 79.1259 152.671 79.8518 155.343C80.4741 157.603 82.5481 159.041 84.7259 159.041Z" fill="white"/>
<path d="M86.4889 166.335C86.6963 166.335 86.9037 166.335 87.1111 166.335L99.8667 164.692C102.667 164.281 104.533 161.815 104.222 159.144C103.807 156.37 101.318 154.52 98.6222 154.829L85.8667 156.472C83.0667 156.883 81.2 159.349 81.5111 162.02C81.8222 164.486 84 166.335 86.4889 166.335Z" fill="white"/>
<path d="M88.9777 172.911C89.0814 172.911 89.1851 172.911 89.2888 172.911L101.318 172.089C104.118 171.884 106.193 169.521 105.985 166.747C105.778 163.973 103.393 161.918 100.593 162.123L88.5629 162.945C85.7629 163.151 83.6888 165.514 83.8962 168.288C84.2074 170.959 86.3851 172.911 88.9777 172.911Z" fill="white"/>
<path d="M131.082 182.466C158.563 210.308 193.719 200.034 193.719 200.034L192.267 240.925C192.267 240.925 169.659 244.623 142.385 233.733C111.17 221.199 92.5038 184.623 89.2889 162.534L115.941 156.164C117.185 163.664 121.23 172.603 131.082 182.466Z" fill="#1E95FF"/>
<path d="M141.97 234.863C110.133 222.123 91.2593 185.034 88.1482 162.637C88.0445 162.02 88.4593 161.404 89.0815 161.301L115.733 154.931C116.045 154.829 116.459 154.931 116.77 155.137C117.082 155.342 117.289 155.651 117.289 155.959C118.637 164.486 123.615 173.116 132.015 181.644C145.911 195.719 161.882 199.623 172.77 200.548C184.696 201.473 193.304 199.007 193.407 198.904C193.822 198.801 194.237 198.904 194.548 199.109C194.859 199.315 195.067 199.726 195.067 200.137L193.615 241.027C193.615 241.644 193.2 242.157 192.578 242.26C192.163 242.363 188.43 242.877 182.311 242.877C172.978 242.774 158.356 241.438 141.97 234.863ZM192.37 201.678C189.259 202.397 181.896 203.63 172.563 203.014C161.156 202.192 144.563 198.082 130.148 183.39C121.748 174.863 116.667 166.233 114.904 157.705L90.7408 163.562C94.2667 185.342 112.519 220.479 142.904 232.705C166.341 242.055 186.459 240.514 191.126 240L192.37 201.678Z" fill="#474747"/>
<path d="M52.4741 107.055C52.4741 107.055 91.8815 106.747 108.682 109.212C125.482 111.678 124.444 123.288 121.23 129.76C119.778 132.74 113.763 142.397 115.941 156.062L89.2889 162.432C87.2149 147.637 88.1482 136.644 88.1482 136.644C88.1482 136.644 63.9852 132.123 50.8149 120C37.8519 107.979 52.4741 107.055 52.4741 107.055Z" fill="white"/>
<path d="M88.6667 163.562C88.3555 163.356 88.1481 163.048 88.1481 162.74C86.3852 150.514 86.8 140.959 87.0074 137.774C82.0296 136.747 62.0148 131.918 50.1926 121.027C45.4222 116.61 43.5556 113.014 44.5926 110.24C45.9407 106.438 51.8519 105.925 52.4741 105.925C52.4741 105.925 52.4741 105.925 52.5778 105.925C52.9926 105.925 92.2963 105.616 108.993 108.082C116.044 109.11 120.815 111.781 123.096 116.096C126.207 122.055 123.407 128.63 122.474 130.479C122.37 130.788 122.163 131.096 121.956 131.404C119.985 135.206 115.319 143.938 117.289 156.062C117.393 156.678 116.978 157.295 116.356 157.5L89.7037 163.87C89.6 163.87 89.4963 163.87 89.3926 163.87C89.0815 163.767 88.8741 163.664 88.6667 163.562ZM119.674 130.069C119.881 129.76 119.985 129.452 120.089 129.144C120.919 127.5 123.304 121.952 120.711 117.021C118.844 113.425 114.696 111.164 108.474 110.342C92.1926 107.979 53.8222 108.185 52.4741 108.185C51.2296 108.288 47.4963 108.904 46.7704 110.856C46.3556 111.884 46.563 114.247 51.7482 119.075C58.3852 125.137 67.9259 129.247 74.8741 131.712C82.3407 134.281 88.3556 135.411 88.4593 135.514C89.0815 135.616 89.4963 136.233 89.4963 136.849C89.4963 136.952 88.563 147.226 90.4296 160.993L114.593 155.137C112.933 142.808 117.6 133.973 119.674 130.069Z" fill="#474747"/>
<path d="M193.2 162.945C193.2 162.945 145.185 154.829 133.674 164.589C133.882 173.835 126.83 184.418 116.563 187.294C111.896 188.322 108.785 183.082 112.311 179.897C115.008 177.431 119.985 170.651 119.156 169.212C119.156 169.212 107.645 174.041 103.082 174.966C99.452 175.685 89.4964 177.431 87.9409 173.116C86.489 169.212 88.9779 167.979 88.9779 167.979C88.9779 167.979 83.5853 166.336 86.489 161.404C86.489 161.404 81.5112 158.938 84.726 154.109C84.726 154.109 80.7853 151.541 83.689 148.253C86.489 144.966 103.808 139.418 131.082 136.233C158.356 133.048 202.222 132.431 202.222 132.431L193.2 162.945Z" fill="white"/>
<path d="M110.237 185.548C109.096 183.288 109.615 180.719 111.585 178.973C113.659 177.123 116.356 173.425 117.496 171.267C113.867 172.705 106.815 175.479 103.393 176.096C93.5408 178.048 88.1482 177.123 86.8001 173.425C85.9704 171.062 86.2816 169.418 86.9038 168.288C86.0741 167.774 85.1408 166.952 84.726 165.719C84.2075 164.486 84.3112 163.151 84.8297 161.712C84.0001 161.096 82.963 159.966 82.5482 158.425C82.2371 157.089 82.3408 155.651 83.0667 154.212C82.3408 153.596 81.5112 152.466 81.4075 151.13C81.3038 150.205 81.4075 148.767 82.6519 147.226C85.8667 143.425 103.393 137.979 130.874 134.692C157.941 131.507 201.704 130.89 202.119 130.89C202.533 130.89 202.844 131.096 203.156 131.404C203.363 131.712 203.467 132.123 203.363 132.534L194.445 163.253C194.237 163.87 193.615 164.281 192.993 164.178C192.474 164.075 146.637 156.473 134.919 165.205C134.815 175.377 126.933 185.753 116.978 188.527C116.978 188.527 116.978 188.527 116.874 188.527C116.356 188.63 115.941 188.63 115.526 188.63C113.245 188.733 111.274 187.5 110.237 185.548ZM132.43 164.589C132.43 164.178 132.533 163.87 132.845 163.664C143.837 154.315 184.8 160.274 192.267 161.507L200.459 133.459C192.163 133.562 155.037 134.384 131.185 137.26C103.393 140.548 86.9038 146.199 84.6223 148.87C84.1038 149.589 83.7927 150.205 83.8964 150.822C84.0001 151.849 85.0371 152.774 85.4519 152.979C86.0741 153.39 86.1778 154.11 85.763 154.726C85.0371 155.856 84.726 156.986 84.9334 157.911C85.3482 159.452 87.0075 160.274 87.0075 160.274C87.3186 160.377 87.526 160.685 87.6297 160.993C87.7334 161.301 87.7334 161.712 87.526 161.918C86.9038 163.048 86.6964 163.973 87.0075 164.794C87.526 166.13 89.289 166.747 89.289 166.747C89.8075 166.849 90.1186 167.363 90.2223 167.877C90.2223 168.39 90.0149 168.904 89.4964 169.11C89.3927 169.212 88.0445 170.034 89.0816 172.705C89.4964 173.733 91.5704 175.993 102.77 173.733C107.126 172.911 118.43 168.185 118.637 168.082C119.259 167.877 119.882 168.082 120.193 168.596C121.852 171.37 114.489 179.589 113.141 180.925C112 181.952 111.689 183.288 112.311 184.521C112.83 185.548 114.178 186.575 116.148 186.164C126.519 183.288 132.637 172.705 132.43 164.589Z" fill="#474747"/>
<path d="M84.7259 155.24C84.8296 155.24 84.9333 155.24 85.037 155.24L98.1037 151.644C98.7259 151.438 99.1407 150.822 98.9333 150.103C98.7259 149.486 98.1037 149.075 97.3777 149.281L84.3111 152.877C83.6889 153.082 83.274 153.699 83.4814 154.418C83.6889 154.931 84.2074 155.24 84.7259 155.24Z" fill="#474747"/>
<path d="M86.4889 162.637C86.5926 162.637 86.5926 162.637 86.6963 162.637L99.4518 160.993C100.178 160.89 100.593 160.274 100.489 159.555C100.385 158.836 99.7629 158.425 99.037 158.527L86.2814 160.171C85.5555 160.274 85.1407 160.89 85.2444 161.61C85.3481 162.123 85.8666 162.637 86.4889 162.637Z" fill="#474747"/>
<path d="M88.9778 169.212C89.0815 169.212 89.0815 169.212 88.9778 169.212L101.111 168.39C101.837 168.39 102.356 167.774 102.252 167.055C102.252 166.336 101.63 165.822 100.904 165.925L88.874 166.747C88.1481 166.747 87.6296 167.363 87.7333 168.082C87.837 168.699 88.3555 169.212 88.9778 169.212Z" fill="#474747"/>
</g>
</g>
<defs>
<clipPath id="clip0">
<rect width="207.2" height="246.575" fill="white"/>
</clipPath>
</defs>
</svg>
