<svg width="170" height="225" viewBox="0 0 170 225" fill="none" xmlns="http://www.w3.org/2000/svg">
<mask id="mask0" mask-type="alpha" maskUnits="userSpaceOnUse" x="2" y="0" width="168" height="225">
<rect x="2" width="168" height="225" rx="11" fill="#C4C4C4"/>
</mask>
<g mask="url(#mask0)">
<g clip-path="url(#clip0)">
<path d="M90.5931 105.282C90.5931 105.282 94.3487 99.4064 101.025 99.7157C107.702 100.025 114.9 104.355 113.335 108.684C111.77 113.014 109.58 115.488 109.58 115.488L90.5931 105.282Z" fill="white"/>
<path d="M109.58 120.436C108.745 120.436 107.91 120.23 107.18 119.817L88.1937 109.612C86.9419 108.993 86.1073 107.859 85.69 106.519C85.3771 105.179 85.5857 103.736 86.316 102.602C88.2981 99.5094 93.7227 94.3551 101.234 94.7675C107.597 95.0767 114.065 98.1693 116.882 102.293C118.551 104.87 118.968 107.653 118.03 110.437C116.152 115.488 113.648 118.477 113.335 118.787C112.396 119.817 111.04 120.436 109.58 120.436ZM100.191 104.664L107.91 108.787C108.119 108.375 108.328 107.962 108.432 107.55C107.493 106.519 104.363 104.87 100.921 104.664C100.608 104.664 100.399 104.664 100.191 104.664Z" fill="white"/>
<path d="M76.1969 122.188C76.1969 122.188 70.8765 110.54 79.6395 106.21C88.4025 101.88 101.86 101.88 105.928 108.684C109.997 115.488 97.4784 117.343 97.4784 117.343L76.1969 122.188Z" fill="white"/>
<path d="M76.1969 127.24C74.2148 127.24 72.4414 126.106 71.6068 124.25C71.3982 123.838 69.9377 120.436 69.6247 116.106C69.2074 109.509 71.9198 104.354 77.4488 101.674C88.5068 96.2106 104.677 96.726 110.31 106.107C112.709 110.024 111.77 113.323 110.936 114.869C109.684 117.549 106.972 119.611 103.007 121.054C100.921 121.776 99.1475 122.085 98.5216 122.188L77.4488 127.033C76.9272 127.136 76.5099 127.24 76.1969 127.24ZM92.8883 108.169C89.3414 108.169 85.2728 108.993 81.9346 110.643C80.6827 111.261 79.5352 112.292 79.7438 115.282C79.7438 115.591 79.7438 115.9 79.8482 116.209L96.4352 112.395C96.5395 112.395 96.7482 112.292 96.8525 112.292C98.5216 112.086 100.504 111.364 101.443 110.746C99.8778 109.096 96.6438 108.169 92.8883 108.169Z" fill="white"/>
<path d="M76.8229 137.651C76.8229 137.651 67.434 129.301 75.258 119.302C76.0926 118.271 77.1358 117.137 78.3877 116.003C91.5321 104.561 103.738 116.003 103.738 116.003L76.8229 137.651Z" fill="white"/>
<path d="M76.8228 142.703C75.571 142.703 74.4234 142.29 73.4845 141.466C68.9987 137.548 62.7395 127.24 71.2938 116.313C72.337 114.972 73.5889 113.632 75.1537 112.292C88.2981 100.85 101.86 107.344 107.285 112.395C108.328 113.426 108.954 114.766 108.849 116.209C108.745 117.653 108.119 118.993 106.972 119.921L80.0568 141.569C79.0136 142.29 77.9703 142.703 76.8228 142.703ZM90.6975 116.003C87.5679 116.003 84.6469 117.24 81.6216 119.817C80.6827 120.642 79.8481 121.57 79.1179 122.395C77.0315 125.075 76.5099 127.446 77.5531 130.126C77.5531 130.229 77.6574 130.332 77.6574 130.435L94.8703 116.725C94.6617 116.622 94.3487 116.519 94.1401 116.519C92.9926 116.106 91.845 116.003 90.6975 116.003Z" fill="white"/>
<path d="M115.526 154.97L125.436 153.217C125.436 153.217 125.436 153.423 125.541 153.836L115.526 154.97Z" fill="white"/>
<path d="M75.8839 167.856C72.8586 167.856 69.2074 166.825 67.0166 163.732C66.1821 162.495 65.7648 161.258 65.6604 160.124C63.9913 159.3 62.5308 158.166 61.5919 156.31C60.2358 153.836 60.1314 151.362 60.5487 149.3C58.8796 147.548 57.7321 145.177 57.7321 142.084C57.7321 138.579 59.4012 135.59 62.3222 133.94C64.3043 132.806 66.1821 132.703 66.7037 132.703C69.5203 132.6 71.8154 134.765 71.9197 137.548C72.024 139.919 70.3549 142.084 68.0598 142.6C69.8333 142.909 71.1895 143.94 71.8154 145.589C72.4413 147.238 72.024 149.094 70.7722 150.434C70.6679 150.537 70.4592 150.95 70.4592 151.259C70.6679 151.259 70.8765 151.362 71.0851 151.362C72.8586 151.259 74.5277 152.083 75.4666 153.527C76.4055 154.867 76.5098 156.413 75.9882 157.959C76.0926 157.959 76.1969 157.959 76.1969 157.959C78.9092 157.547 81.5172 159.506 81.9345 162.186C82.3518 164.866 80.3697 167.443 77.6574 167.856C77.1358 167.856 76.5098 167.856 75.8839 167.856Z" fill="white"/>
<path d="M145.57 230.326H95.4963C123.037 183.422 120.951 157.444 120.533 154.351C113.752 158.681 103.633 163.114 92.0537 161.773C70.4592 159.299 69.5203 144.146 74.8407 134.249C78.492 127.446 84.8555 123.735 90.0716 122.498C90.0716 122.085 90.1759 121.879 90.1759 121.879C90.1759 121.879 90.1759 116.003 103.32 112.601C116.465 109.199 134.825 112.601 134.825 112.601C134.825 112.601 161.531 115.385 160.488 148.681C159.445 179.917 145.57 230.326 145.57 230.326Z" fill="white"/>
<path d="M145.57 235.274H95.4962C93.7228 235.274 92.0537 234.346 91.1148 232.8C90.1759 231.254 90.1759 229.398 91.1148 227.852C110.101 195.483 114.587 173.628 115.526 162.804C108.954 165.691 100.712 167.856 91.5321 166.825C77.9703 165.278 72.1283 159.196 69.5203 154.351C66.0777 147.857 66.495 139.507 70.4592 132.085C73.7975 125.899 79.4308 121.054 85.8987 118.787C87.2549 115.488 91.2191 110.849 102.068 108.066C115.63 104.561 133.678 107.653 135.66 107.962C137.12 108.169 144.214 109.303 151.099 114.457C157.985 119.611 166.122 129.817 165.496 149.197C165.078 162.392 162.366 180.329 157.463 202.493C153.812 218.883 150.369 231.666 150.265 231.769C149.743 233.831 147.761 235.274 145.57 235.274ZM104.155 225.275H141.606C144.736 213.214 154.646 174.041 155.481 148.578C155.898 136.62 152.456 127.858 145.466 122.395C140.146 118.271 134.408 117.549 134.408 117.549C134.304 117.549 134.199 117.549 134.095 117.446C133.886 117.446 116.569 114.354 104.781 117.343C98.2086 118.993 95.9135 121.261 95.4962 122.188C95.4962 122.291 95.4962 122.395 95.3919 122.704C95.2876 124.972 93.6185 126.827 91.4277 127.343C87.5678 128.167 82.4561 131.054 79.5351 136.517C77.6574 140.022 76.4055 145.28 78.5962 149.506C81.2043 154.454 87.7765 156.104 92.7839 156.722C103.112 157.856 112.188 153.733 117.925 150.125C119.386 149.197 121.264 149.094 122.828 149.815C124.393 150.537 125.436 151.98 125.645 153.733C126.167 158.372 127.523 182.597 104.155 225.275Z" fill="white"/>
<path d="M92.158 148.888C90.4889 148.888 88.9241 148.063 87.9852 146.62C86.4204 144.352 87.0463 141.259 89.3414 139.713C89.3414 139.713 94.3488 136.414 97.0611 132.806C97.4784 132.291 97.4784 131.363 97.1654 130.229C96.6438 128.683 95.4963 127.549 94.6617 127.24C92.0537 126.415 83.6037 128.683 79.4309 136.517C78.0747 138.991 75.0494 139.919 72.65 138.579C70.1463 137.239 69.2074 134.249 70.5636 131.878C76.7185 120.436 89.863 115.282 97.7914 117.756C101.964 118.993 105.407 122.704 106.867 127.24C108.223 131.466 107.598 135.693 105.198 138.888C101.443 143.836 95.2877 147.857 95.079 148.063C94.0358 148.578 93.0969 148.888 92.158 148.888Z" fill="white"/>
<path d="M120.742 159.299C119.073 159.299 117.508 158.475 116.465 157.032C114.9 154.764 115.63 151.671 117.925 150.125C123.037 146.826 126.167 143.63 126.167 143.527C128.044 141.569 131.278 141.362 133.26 143.321C135.347 145.177 135.451 148.372 133.469 150.331C133.26 150.537 129.505 154.454 123.35 158.475C122.62 158.99 121.681 159.299 120.742 159.299Z" fill="white"/>
<path d="M112.292 111.364C109.267 111.57 106.137 111.983 103.32 112.704C90.1759 116.106 90.1759 121.982 90.1759 121.982C90.1759 121.982 88.6111 133.115 118.134 130.023" fill="white"/>
<path d="M108.849 135.486C99.0431 135.486 92.2623 133.528 88.4024 129.507C85.1684 126.209 85.1684 122.807 85.2728 121.57C85.3771 119.405 86.9419 111.777 102.173 107.756C105.094 107.035 108.432 106.519 112.083 106.21C114.9 106.004 117.299 108.066 117.508 110.849C117.717 113.632 115.63 116.003 112.813 116.209C109.788 116.416 107.076 116.828 104.781 117.446C98.9388 118.993 96.7481 120.848 95.8092 121.776C95.6005 121.982 95.4962 122.085 95.4962 122.188C96.1221 123.013 99.8777 126.827 117.821 124.972C120.638 124.662 123.037 126.724 123.35 129.404C123.663 132.188 121.576 134.559 118.864 134.868C115.109 135.383 111.77 135.486 108.849 135.486ZM90.1758 121.982L95.1833 122.704V122.601V122.704V122.601C95.1833 122.601 95.1833 122.498 95.1833 122.395C95.1833 122.291 95.1833 122.291 95.1833 122.188C95.1833 122.085 95.1833 121.982 95.1833 121.982H90.1758Z" fill="white"/>
<path d="M90.5933 105.282C90.5933 105.282 94.3488 99.4061 101.025 99.7154C107.702 100.025 114.9 104.354 113.335 108.684C111.77 113.014 109.58 115.488 109.58 115.488L90.5933 105.282Z" fill="white"/>
<path d="M109.58 116.725C109.371 116.725 109.162 116.725 108.954 116.622L89.9673 106.416C89.6543 106.21 89.4457 106.004 89.3413 105.591C89.237 105.179 89.3413 104.87 89.55 104.561C89.7586 104.251 93.8271 98.0661 101.13 98.4785C106.346 98.6846 111.666 101.159 113.752 104.354C114.796 105.901 115.109 107.55 114.483 109.096C112.814 113.632 110.623 116.209 110.519 116.312C110.31 116.519 109.997 116.725 109.58 116.725ZM92.5753 104.87L109.267 113.838C109.997 112.807 111.249 110.952 112.188 108.272C112.501 107.447 112.292 106.622 111.77 105.798C110.101 103.324 105.407 101.262 101.025 101.056C96.8525 100.746 93.9315 103.324 92.5753 104.87Z" fill="#474747"/>
<path d="M76.1969 122.188C76.1969 122.188 70.8765 110.54 79.6395 106.21C88.4025 101.88 101.86 101.88 105.928 108.684C109.997 115.488 97.4784 117.343 97.4784 117.343L76.1969 122.188Z" fill="white"/>
<path d="M76.1969 123.425C75.6753 123.425 75.258 123.116 75.0494 122.704C73.0673 118.271 71.2938 108.89 79.1179 105.076C83.6037 102.808 89.4457 101.674 94.6617 101.983C100.504 102.396 104.885 104.458 107.076 107.962C108.432 110.333 108.119 112.086 107.598 113.22C105.72 117.137 98.8345 118.271 97.7913 118.477L76.6142 123.322C76.4055 123.425 76.3012 123.425 76.1969 123.425ZM92.7839 104.458C88.5068 104.458 83.8123 105.488 80.1611 107.241C77.0315 108.787 75.571 111.57 75.8839 115.591C75.9882 117.653 76.6142 119.611 76.9271 120.642L97.0611 116.003H97.1654C98.9389 115.694 103.946 114.457 105.094 112.086C105.511 111.261 105.407 110.333 104.677 109.199C102.799 106.004 98 104.458 92.7839 104.458Z" fill="#474747"/>
<path d="M76.8229 137.651C76.8229 137.651 67.434 129.301 75.258 119.302C76.0926 118.271 77.1358 117.137 78.3877 116.003C91.5321 104.56 103.738 116.003 103.738 116.003L76.8229 137.651Z" fill="white"/>
<path d="M76.8229 138.888C76.5099 138.888 76.197 138.785 75.9883 138.579C75.884 138.476 65.7649 129.404 74.2149 118.58C75.1538 117.446 76.197 116.209 77.5531 115.178C88.6112 105.591 100.086 110.952 104.572 115.178C104.885 115.385 104.99 115.797 104.99 116.106C104.99 116.415 104.781 116.828 104.572 117.034L77.6575 138.682C77.3445 138.888 77.0315 138.888 76.8229 138.888ZM90.8019 112.189C87.255 112.189 83.2908 113.426 79.2223 116.931C78.0747 117.962 77.0315 118.993 76.197 120.023C70.355 127.446 74.9451 133.837 76.9272 135.899L101.756 116.003C99.7735 114.663 95.8093 112.189 90.8019 112.189Z" fill="#474747"/>
<path d="M120.325 154.351C120.325 154.145 120.325 154.042 120.325 154.042L120.846 153.939C120.846 153.939 120.846 154.042 120.846 154.248L120.325 154.351Z" fill="#545454"/>
<path d="M75.9883 164.144C74.4235 164.144 71.7111 163.835 70.2506 161.67C69.3117 160.33 69.416 158.681 69.6247 157.444C68.1642 157.238 65.9735 156.516 65.0346 154.661C63.6784 152.083 64.4086 149.506 65.1389 148.063C63.4697 147.135 61.6963 145.383 61.6963 142.187C61.6963 137.858 65.1389 136.517 67.0167 136.414C67.7469 136.414 68.2685 136.93 68.3728 137.651C68.3728 138.373 67.8512 138.888 67.121 138.991C66.5994 138.991 64.3043 139.301 64.3043 142.187C64.3043 145.383 67.121 146.104 67.4339 146.207C67.8512 146.311 68.1642 146.62 68.3728 147.032C68.4772 147.445 68.4772 147.857 68.1642 148.166C68.0599 148.269 66.0778 150.846 67.5383 153.424C68.2685 154.867 70.7722 155.073 71.5025 155.073C71.9197 155.073 72.337 155.279 72.5457 155.588C72.7543 155.898 72.8586 156.413 72.65 156.825C72.4413 157.444 71.8154 159.299 72.5457 160.227C73.7975 161.98 77.0315 161.567 77.0315 161.567C77.7617 161.464 78.3877 161.98 78.492 162.598C78.5963 163.32 78.0747 163.938 77.4488 164.041C77.1358 164.041 76.6142 164.144 75.9883 164.144Z" fill="#474747"/>
<path d="M157.567 119.405C157.359 119.405 157.15 119.405 157.046 119.302C156.42 118.993 156.211 118.271 156.524 117.652C156.524 117.652 157.359 115.9 156.524 114.56C155.377 112.704 151.725 113.632 151.725 113.632C151.308 113.735 150.786 113.632 150.474 113.22C150.161 112.911 150.056 112.395 150.265 111.983C150.369 111.673 150.786 110.127 148.596 109.096C146.092 107.859 144.11 109.715 144.006 109.715C143.588 110.127 142.962 110.127 142.545 109.818C142.023 109.509 141.815 108.993 142.023 108.478C142.441 106.519 140.25 105.798 139.624 105.591C136.494 104.767 134.721 106.932 134.721 107.035C134.304 107.55 133.469 107.653 132.948 107.241C132.426 106.828 132.322 106.004 132.739 105.488C132.843 105.385 135.451 101.983 140.354 103.22C142.128 103.633 143.38 104.457 144.11 105.694C144.319 106.004 144.423 106.313 144.527 106.622C145.883 106.004 147.865 105.694 150.056 106.828C152.247 107.962 153.082 109.509 153.186 110.952C154.959 110.849 157.776 111.055 159.132 113.323C160.593 115.9 159.236 118.683 159.132 118.786C158.506 119.199 158.089 119.405 157.567 119.405Z" fill="#474747"/>
<path d="M137.955 102.911C138.581 102.911 139.311 103.014 140.041 103.22C141.815 103.633 143.067 104.457 143.797 105.694C144.006 106.004 144.11 106.313 144.214 106.622C144.944 106.313 145.779 106.107 146.822 106.107C147.761 106.107 148.7 106.313 149.743 106.828C151.934 107.962 152.769 109.509 152.873 110.952C153.186 110.952 153.394 110.952 153.707 110.952C155.481 110.952 157.672 111.364 158.819 113.323C160.28 115.9 158.923 118.683 158.819 118.786C158.611 119.199 158.193 119.508 157.672 119.508C157.463 119.508 157.254 119.508 157.15 119.405C156.524 119.096 156.315 118.374 156.628 117.755C156.628 117.755 157.463 116.003 156.628 114.663C156.107 113.735 154.855 113.529 153.812 113.529C152.769 113.529 151.83 113.735 151.83 113.735C151.725 113.735 151.621 113.735 151.517 113.735C151.204 113.735 150.786 113.632 150.578 113.323C150.265 113.014 150.161 112.498 150.369 112.086C150.473 111.776 150.891 110.23 148.7 109.199C148.074 108.89 147.448 108.787 146.927 108.787C145.257 108.787 144.11 109.818 144.11 109.921C143.901 110.127 143.588 110.23 143.275 110.23C143.067 110.23 142.858 110.127 142.649 110.024C142.128 109.715 141.919 109.199 142.128 108.684C142.545 106.725 140.354 106.004 139.728 105.797C139.207 105.694 138.79 105.591 138.372 105.591C136.077 105.591 134.93 107.138 134.825 107.138C134.617 107.447 134.199 107.653 133.782 107.653C133.469 107.653 133.261 107.55 133.052 107.447C132.53 107.035 132.426 106.21 132.843 105.694C132.53 105.385 134.408 102.911 137.955 102.911ZM137.955 99.2C132.635 99.2 129.714 102.808 129.401 103.22C127.732 105.385 128.149 108.478 130.34 110.127C131.174 110.746 132.322 111.158 133.365 111.158C134.93 111.158 136.286 110.539 137.225 109.302C137.329 109.199 137.538 109.096 137.851 109.096C137.955 110.643 138.894 112.086 140.25 112.91C140.98 113.426 141.919 113.632 142.858 113.632C144.11 113.632 145.257 113.22 146.196 112.395C146.196 113.529 146.718 114.663 147.552 115.591C148.491 116.622 149.848 117.24 151.308 117.24C151.725 117.24 152.143 117.24 152.56 117.137H152.664C152.456 117.962 152.56 118.889 152.769 119.714C153.186 120.951 154.02 121.982 155.272 122.601C156.002 122.91 156.733 123.116 157.567 123.116C159.445 123.116 161.219 122.085 162.053 120.436C162.262 119.92 164.452 115.591 161.949 111.364C160.593 109.096 158.298 107.653 155.481 107.241C154.542 105.694 153.186 104.354 151.308 103.426C149.848 102.705 148.283 102.293 146.718 102.293C146.405 102.293 146.196 102.293 145.883 102.293C144.84 101.159 143.275 100.128 140.876 99.5092C139.937 99.303 138.894 99.2 137.955 99.2Z" fill="white"/>
<path d="M145.57 230.326H95.4963C123.037 183.422 120.951 157.444 120.533 154.351C113.752 158.681 103.633 163.114 92.0537 161.773C70.4592 159.299 69.5203 144.146 74.8407 134.249C78.492 127.446 84.8555 123.735 90.0716 122.498C90.0716 122.085 90.1759 121.879 90.1759 121.879C90.1759 121.879 90.1759 116.003 103.32 112.601C116.465 109.199 134.825 112.601 134.825 112.601C134.825 112.601 161.531 115.385 160.488 148.681C159.445 179.917 145.57 230.326 145.57 230.326Z" fill="white"/>
<path d="M145.57 231.563H95.4963C95.079 231.563 94.6617 231.357 94.4531 230.944C94.2444 230.532 94.2444 230.12 94.4531 229.707C118.551 188.679 119.803 163.835 119.49 156.516C112.814 160.433 103.112 164.247 91.9494 163.01C80.0568 161.67 74.9451 156.516 72.8586 152.496C70.042 147.135 70.3549 140.125 73.7975 133.734C77.0315 127.755 82.6648 123.322 89.0284 121.57C89.237 120.126 90.8019 114.663 103.112 111.467C116.152 108.065 133.886 111.261 135.138 111.467C135.869 111.57 142.441 112.395 148.909 117.24C160.175 125.59 162.157 138.991 161.844 148.888C161.323 165.072 157.254 186.411 153.916 201.565C150.369 217.852 146.822 230.532 146.822 230.738C146.614 231.15 146.092 231.563 145.57 231.563ZM97.687 229.089H144.527C146.405 222.079 158.298 177.133 159.236 148.784C159.654 135.383 155.69 125.487 147.344 119.302C141.189 114.663 134.825 114.044 134.721 113.941H134.617C134.408 113.941 116.256 110.643 103.633 113.941C91.8451 117.034 91.4278 121.982 91.4278 121.982C91.4278 122.085 91.4278 122.085 91.4278 122.188C91.4278 122.188 91.4278 122.394 91.4278 122.601C91.4278 123.219 91.0105 123.631 90.4889 123.735C85.8988 124.765 79.6395 128.167 76.0926 134.765C73.0673 140.434 72.65 146.62 75.1537 151.259C77.8661 156.31 83.708 159.402 92.2623 160.433C103.738 161.773 113.648 157.238 119.907 153.217C120.325 153.011 120.742 152.908 121.159 153.114C121.577 153.32 121.785 153.63 121.89 154.145C122.098 156.104 122.62 163.423 119.803 176.102C116.152 192.184 108.745 209.915 97.687 229.089Z" fill="#474747"/>
<path d="M92.0536 145.073C91.6364 145.073 91.2191 144.867 91.0104 144.558C90.5931 143.939 90.8018 143.218 91.3234 142.806C91.4277 142.806 96.8524 139.198 99.982 135.074C101.13 133.528 101.443 131.363 100.712 129.095C99.8777 126.518 97.8956 124.353 95.7049 123.735C91.532 122.498 81.2043 125.178 75.9882 134.868C75.6752 135.486 74.945 135.693 74.3191 135.383C73.6932 135.074 73.4845 134.352 73.7975 133.734C79.3265 123.425 90.8018 119.611 96.5394 121.364C99.5647 122.291 102.068 124.972 103.112 128.373C104.051 131.363 103.738 134.352 102.068 136.62C98.6259 141.053 93.0968 144.764 92.7839 144.97C92.5752 145.073 92.3666 145.073 92.0536 145.073Z" fill="#474747"/>
<path d="M120.742 155.485C120.325 155.485 119.907 155.279 119.699 154.867C119.282 154.248 119.49 153.526 120.116 153.114C125.645 149.506 129.088 146.001 129.088 146.001C129.609 145.486 130.34 145.486 130.861 145.898C131.383 146.413 131.383 147.135 130.965 147.65C130.861 147.754 127.419 151.465 121.472 155.176C121.159 155.485 120.951 155.485 120.742 155.485Z" fill="#474747"/>
<path d="M112.292 111.364C109.267 111.57 106.137 111.983 103.32 112.704C90.1759 116.106 90.1759 121.982 90.1759 121.982C90.1759 121.982 88.6111 133.115 118.134 130.023" fill="white"/>
<path d="M108.849 131.775C100.191 131.775 94.2444 130.126 91.1148 127.033C88.8197 124.765 88.924 122.394 89.0284 121.879C89.0284 121.054 89.8629 114.869 103.112 111.467C105.824 110.746 108.849 110.333 112.292 110.127C113.022 110.127 113.544 110.643 113.648 111.261C113.648 111.983 113.127 112.498 112.501 112.601C109.267 112.807 106.346 113.22 103.738 113.941C91.845 117.034 91.5321 121.982 91.5321 121.982C91.5321 122.085 91.5321 122.085 91.5321 122.188C91.5321 122.188 91.4277 123.735 92.9926 125.384C95.4963 127.858 101.86 130.435 118.03 128.786C118.76 128.683 119.386 129.198 119.386 129.92C119.49 130.641 118.968 131.26 118.238 131.26C114.9 131.569 111.666 131.775 108.849 131.775Z" fill="#474747"/>
</g>
</g>
<defs>
<clipPath id="clip0">
<rect width="175.259" height="244.521" fill="white" transform="translate(-2.14819 -9.24658)"/>
</clipPath>
</defs>
</svg>
