<svg width="168" height="225" viewBox="0 0 168 225" fill="none" xmlns="http://www.w3.org/2000/svg">
<mask id="mask0" mask-type="alpha" maskUnits="userSpaceOnUse" x="0" y="0" width="168" height="225">
<rect width="168" height="225" rx="11" fill="#C4C4C4"/>
</mask>
<g mask="url(#mask0)">
<g clip-path="url(#clip0)">
<path d="M161.214 143.186C145.397 118.476 115.79 109.033 95.2075 121.991C74.6248 134.949 70.7719 165.486 86.6905 190.197C102.609 214.907 132.114 224.35 152.697 211.392C173.279 198.434 177.132 167.897 161.214 143.186ZM147.83 203.958C130.695 214.807 106.056 206.871 92.8754 186.279C79.6945 165.687 82.8376 140.273 99.9729 129.425C117.108 118.576 141.746 126.512 154.927 147.104C168.21 167.696 165.067 193.11 147.83 203.958Z" fill="#EB794E"/>
<path d="M132.114 222.14C126.943 222.14 121.671 221.336 116.398 219.629C102.812 215.309 90.8475 205.767 82.5333 192.909C65.1953 165.988 69.7579 132.438 92.5712 117.974C115.384 103.609 148.033 113.755 165.371 140.675C182.709 167.596 178.146 201.146 155.333 215.611C148.337 219.93 140.428 222.14 132.114 222.14ZM117.209 129.525C111.937 129.525 106.969 130.932 102.71 133.644C87.9071 142.986 85.3723 165.486 97.1338 183.768C102.913 192.809 111.227 199.338 120.555 202.351C129.478 205.264 138.299 204.36 145.396 199.94C160.2 190.599 162.735 168.098 150.973 149.816C145.194 140.776 136.88 134.246 127.551 131.233C124.003 130.128 120.555 129.525 117.209 129.525Z" fill="white"/>
<path d="M132.215 218.423C115.08 218.423 96.9308 208.479 85.6763 190.9C69.4536 165.687 73.5093 134.347 94.5988 120.987C115.688 107.627 146.106 117.371 162.329 142.584C170.136 154.738 173.583 168.701 171.86 181.86C170.237 195.119 163.647 205.968 153.305 212.497C146.917 216.515 139.617 218.423 132.215 218.423ZM115.79 117.471C108.794 117.471 102 119.28 95.9169 123.097C75.9427 135.653 72.2926 165.587 87.7042 189.594C103.217 213.702 132.013 223.044 151.987 210.387C161.619 204.26 167.804 194.014 169.426 181.558C171.049 169.002 167.703 155.542 160.2 143.89C149.351 127.014 132.013 117.471 115.79 117.471ZM130.796 209.986C116.5 209.986 101.291 201.648 91.8612 186.983C78.2747 165.888 81.722 139.671 99.3643 128.521C117.006 117.371 142.456 125.407 156.042 146.501C162.633 156.647 165.472 168.399 164.052 179.348C162.633 190.398 157.158 199.539 148.539 204.963C143.166 208.378 137.082 209.986 130.796 209.986ZM117.108 125.909C111.329 125.909 105.651 127.416 100.682 130.53C84.1554 140.977 81.1137 165.687 93.8891 185.677C106.664 205.666 130.593 213.401 147.12 202.954C155.13 197.932 160.2 189.393 161.518 179.047C162.836 168.6 160.098 157.45 153.913 147.807C144.991 133.845 130.593 125.909 117.108 125.909Z" fill="#474747"/>
<path d="M132.114 223.345C112.748 223.345 93.2808 211.894 81.5193 193.512C63.8771 166.089 68.5411 131.635 91.9627 116.969C103.42 109.737 117.615 108.23 131.81 112.75C145.701 117.17 157.969 126.813 166.486 139.972C174.902 153.131 178.552 168.198 176.828 182.462C175.003 197.128 167.601 209.282 156.043 216.515C149.047 220.934 140.834 223.245 132.317 223.245C132.114 223.345 132.114 223.345 132.114 223.345ZM117.108 130.731C112.038 130.731 107.374 132.037 103.319 134.648C89.0223 143.689 86.6903 165.386 98.0462 183.065C109.402 200.744 130.289 207.876 144.585 198.836C151.277 194.617 155.637 187.384 156.752 178.444C157.969 169.102 155.434 159.158 149.858 150.419C142.05 138.264 129.478 130.731 117.108 130.731C117.209 130.731 117.108 130.731 117.108 130.731Z" fill="white"/>
<path d="M186.156 273.369C186.055 273.369 185.953 273.369 185.852 273.369C185.548 273.269 185.244 273.068 185.041 272.867L147.627 214.606C147.221 214.004 147.424 213.3 148.033 212.899L155.84 207.977C156.144 207.776 156.448 207.776 156.752 207.776C157.056 207.876 157.361 208.077 157.563 208.278L194.977 266.539C195.383 267.141 195.18 267.845 194.572 268.246L186.764 273.168C186.663 273.269 186.359 273.369 186.156 273.369ZM150.466 214.305L186.562 270.456L192.341 266.84L156.245 210.689L150.466 214.305Z" fill="#474747"/>
<path d="M186.156 278.191C185.75 278.191 185.244 278.191 184.838 278.09C183.216 277.789 181.898 276.785 180.985 275.378L143.571 217.117C141.746 214.305 142.557 210.488 145.498 208.68L153.305 203.758C154.623 202.854 156.347 202.653 157.969 202.954C159.591 203.255 160.909 204.26 161.822 205.666L199.236 263.927C200.148 265.333 200.452 266.94 200.047 268.548C199.641 270.155 198.729 271.461 197.309 272.365L189.502 277.287C188.488 277.889 187.373 278.191 186.156 278.191Z" fill="white"/>
<path d="M146.621 203.095C161.886 192.484 163.491 168.677 150.207 149.921C136.923 131.165 113.78 124.563 98.5151 135.174C83.2506 145.786 81.6451 169.592 94.9292 188.348C108.213 207.104 131.357 213.706 146.621 203.095Z" fill="white"/>
<path d="M71.7858 146.803L55.1575 130.831C53.3324 129.325 50.6962 129.726 49.3781 131.635C48.1614 133.443 48.567 135.854 50.392 137.059L69.5552 150.017L71.7858 146.803Z" fill="white"/>
<path d="M43.7002 133.845C43.7002 132.137 44.2072 130.329 45.2211 128.923C46.6406 126.914 48.8712 125.507 51.3046 125.206C53.738 124.905 56.2728 125.608 58.1993 127.215C58.3007 127.316 58.4021 127.316 58.5034 127.416L75.1318 143.387C76.8554 144.995 77.1596 147.707 75.7401 149.615L73.5095 152.93C71.9886 155.14 68.9468 155.743 66.7162 154.236L47.5531 141.278C45.6266 139.972 44.3086 137.963 43.8016 135.653C43.8016 134.95 43.7002 134.347 43.7002 133.845Z" fill="white"/>
<path d="M73.408 144.392L58.9089 125.206C57.4895 123.499 54.7519 123.699 53.5352 125.508C52.5212 126.914 52.8254 128.822 54.1435 130.028L71.7858 146.803L73.408 144.392Z" fill="white"/>
<path d="M47.9585 127.416C47.9585 125.809 48.4655 124.202 49.378 122.795C50.7975 120.686 53.2309 119.38 55.7657 119.28C58.4019 119.179 60.8353 120.184 62.559 122.092C62.6604 122.193 62.6604 122.293 62.7618 122.293L77.2608 141.479C78.4775 143.187 78.5789 145.397 77.3622 147.104L75.74 149.515C74.9288 150.72 73.6107 151.424 72.1912 151.624C70.7717 151.725 69.3523 151.323 68.3383 150.319L50.7975 133.644C48.9724 132.037 47.9585 129.726 47.9585 127.416Z" fill="white"/>
<path d="M42.2806 149.314L65.6008 155.843L67.223 153.433L45.0182 143.187C43.4973 142.383 41.5708 142.785 40.5569 144.191C39.3402 145.999 40.1513 148.511 42.2806 149.314Z" fill="white"/>
<path d="M35.0818 146.1C35.0818 144.492 35.5887 142.885 36.5013 141.479C38.9347 138.064 43.3959 136.858 47.1475 138.867L69.251 149.013C70.5691 149.615 71.583 150.72 71.8872 152.127C72.2927 153.533 71.9885 154.939 71.1774 156.145L69.5551 158.555C68.3384 160.263 66.2092 161.067 64.1813 160.464L40.8611 153.935C40.7598 153.935 40.6584 153.834 40.557 153.834C38.1236 152.93 36.1971 151.122 35.386 148.611C35.2846 147.807 35.0818 146.903 35.0818 146.1Z" fill="white"/>
<path d="M67.2231 153.332L69.4537 150.017L50.2906 137.059C48.4655 135.854 46.0321 136.256 44.8154 138.064C43.4973 139.972 44.1056 142.584 46.1335 143.689L67.2231 153.332Z" fill="white"/>
<path d="M39.2388 140.374C39.2388 138.566 39.7457 136.858 40.7597 135.452C42.0777 133.543 44.1056 132.238 46.4376 131.735C48.7696 131.233 51.1017 131.836 53.1295 133.142L72.2926 146.1C74.5232 147.606 75.1316 150.62 73.6107 152.83L71.3801 156.145C70.062 158.053 67.4258 158.756 65.2966 157.852L44.3084 148.209C44.207 148.209 44.1056 148.109 44.0042 148.008C41.7736 146.803 40.2527 144.794 39.6443 142.383C39.3402 141.68 39.2388 140.977 39.2388 140.374Z" fill="white"/>
<path d="M72.293 160.062C75.3347 162.171 79.5932 161.368 81.6211 158.354C83.7503 155.341 82.9392 151.122 79.8974 149.113L76.8556 147.104L69.2512 158.153L72.293 160.062Z" fill="white"/>
<path d="M64.3843 158.053C64.3843 157.048 64.6885 156.144 65.1954 155.341L72.7998 144.291C74.3207 142.081 77.3625 141.479 79.5931 142.985L82.6349 144.994C87.9073 148.611 89.3268 155.743 85.6766 161.066C82.0265 166.29 74.8277 167.696 69.4539 164.08L66.4121 162.071C65.2968 161.368 64.5871 160.263 64.3843 158.957C64.3843 158.656 64.3843 158.354 64.3843 158.053ZM77.8694 154.236L76.3486 156.446C76.8555 156.345 77.2611 156.144 77.5653 155.642C77.9708 155.14 77.9708 154.638 77.8694 154.236Z" fill="white"/>
<path d="M73.2995 144.529L65.6804 155.552L69.2777 157.993L76.8969 146.97L73.2995 144.529Z" fill="#EB794E"/>
<path d="M60.7341 155.542C60.7341 154.638 61.0383 153.633 61.5453 152.83L69.1497 141.78C69.8594 140.675 70.9747 139.972 72.2928 139.771C73.6109 139.57 74.929 139.771 75.943 140.575L79.5931 142.986C81.8237 144.492 82.4321 147.506 80.9112 149.716L73.3068 160.765C72.597 161.87 71.4817 162.573 70.1636 162.774C68.8455 162.975 67.5274 162.774 66.5135 161.971L62.8634 159.56C61.5453 158.656 60.7341 157.149 60.7341 155.542Z" fill="white"/>
<path d="M161.214 143.187C145.397 118.476 115.79 109.034 95.2075 121.992C74.6248 134.95 70.7719 165.486 86.6905 190.197C102.609 214.908 132.114 224.35 152.697 211.392C173.279 198.434 177.132 167.897 161.214 143.187ZM147.83 203.959C130.695 214.807 106.056 206.872 92.8754 186.28C79.6945 165.687 82.8376 140.274 99.9729 129.425C117.108 118.576 141.746 126.512 154.927 147.104C168.21 167.696 165.067 193.11 147.83 203.959Z" fill="#97ACBF"/>
<path d="M132.216 218.423C115.08 218.423 96.9311 208.479 85.6766 190.9C69.4538 165.687 73.5095 134.347 94.5991 120.987C115.689 107.627 146.106 117.371 162.329 142.584C170.136 154.738 173.584 168.701 171.86 181.86C170.238 195.119 163.647 205.968 153.305 212.497C146.917 216.515 139.617 218.423 132.216 218.423ZM115.79 117.471C108.794 117.471 102.001 119.28 95.9172 123.097C75.9429 135.653 72.2928 165.587 87.7044 189.594C103.217 213.702 132.013 223.044 151.987 210.387C161.619 204.26 167.804 194.014 169.426 181.558C171.049 169.002 167.703 155.542 160.2 143.89C149.351 127.014 132.013 117.471 115.79 117.471ZM130.796 209.986C116.5 209.986 101.291 201.648 91.8615 186.983C78.2749 165.888 81.7223 139.671 99.3645 128.521C117.007 117.371 142.456 125.407 156.043 146.501C162.633 156.647 165.472 168.399 164.053 179.348C162.633 190.398 157.158 199.539 148.54 204.963C143.166 208.378 137.082 209.986 130.796 209.986ZM117.108 125.909C111.329 125.909 105.651 127.416 100.683 130.53C84.1557 140.977 81.1139 165.687 93.8893 185.677C106.665 205.666 130.593 213.401 147.12 202.954C155.13 197.932 160.2 189.393 161.518 179.047C162.836 168.6 160.098 157.45 153.913 147.807C144.991 133.845 130.593 125.909 117.108 125.909Z" fill="#474747"/>
<path d="M156.599 209.007L148.73 213.97L186.136 272.186L194.005 267.223L156.599 209.007Z" fill="#97ACBF"/>
<path d="M186.156 273.369C186.055 273.369 185.954 273.369 185.852 273.369C185.548 273.269 185.244 273.068 185.041 272.867L147.627 214.606C147.222 214.004 147.424 213.3 148.033 212.899L155.84 207.977C156.144 207.776 156.448 207.776 156.753 207.776C157.057 207.876 157.361 208.077 157.564 208.278L194.977 266.539C195.383 267.141 195.18 267.845 194.572 268.246L186.765 273.168C186.663 273.269 186.359 273.369 186.156 273.369ZM150.466 214.305L186.562 270.456L192.341 266.84L156.246 210.689L150.466 214.305Z" fill="#474747"/>
<path opacity="0.4" d="M160.808 174.426L163.749 172.618C164.357 172.216 164.458 171.513 164.154 170.911C163.749 170.308 163.039 170.207 162.431 170.509L159.49 172.317L155.232 165.788L161.822 161.669C162.431 161.267 162.532 160.564 162.228 159.962C161.822 159.359 161.112 159.258 160.504 159.56L153.914 163.678L149.655 157.149L157.564 152.126C158.172 151.725 158.273 151.022 157.969 150.419C157.564 149.816 156.854 149.716 156.246 150.017L148.337 155.04L144.079 148.51L151.683 143.689C152.291 143.287 152.393 142.584 152.089 141.981C151.683 141.378 150.973 141.278 150.365 141.579L142.76 146.401L138.502 139.872L144.687 135.954C145.295 135.552 145.397 134.849 145.092 134.246C144.687 133.644 143.977 133.543 143.369 133.845L137.184 137.762L132.925 131.233L135.156 129.827C135.764 129.425 135.866 128.722 135.562 128.119C135.156 127.516 134.446 127.416 133.838 127.717L131.607 129.123L129.377 125.608C128.971 125.005 128.261 124.905 127.653 125.206C127.045 125.608 126.943 126.311 127.247 126.914L129.478 130.429L122.888 134.648L118.629 128.119L122.178 125.909C122.786 125.507 122.888 124.804 122.583 124.201C122.178 123.599 121.468 123.498 120.86 123.8L117.311 126.01L115.993 123.9C115.587 123.297 114.878 123.197 114.269 123.498C113.661 123.9 113.56 124.603 113.864 125.206L115.182 127.315L108.591 131.534L105.245 126.411C104.84 125.809 104.13 125.708 103.522 126.01C102.913 126.411 102.812 127.114 103.116 127.717L106.462 132.84L99.8716 137.059L96.5256 131.936C96.1201 131.333 95.4103 131.233 94.802 131.534C94.1936 131.936 94.0922 132.639 94.3964 133.242L97.7423 138.365L91.1518 142.584L90.1379 140.977C89.7323 140.374 89.0226 140.273 88.4142 140.575C87.8059 140.977 87.7045 141.68 88.0087 142.282L89.0226 143.89L85.5753 146.099C84.9669 146.501 84.8655 147.204 85.1697 147.807C85.3725 148.209 85.7781 148.41 86.1836 148.41C86.3864 148.41 86.5892 148.309 86.792 148.209L90.2393 145.999L94.4978 152.528L87.9073 156.747L85.6767 153.332C85.2711 152.729 84.5613 152.629 83.953 152.93C83.3446 153.332 83.2432 154.035 83.5474 154.638L85.778 158.053L83.6488 159.459C83.0405 159.861 82.9391 160.564 83.2432 161.167C83.446 161.569 83.8516 161.77 84.2572 161.77C84.46 161.77 84.6627 161.669 84.8655 161.569L86.9948 160.162L91.2532 166.692L85.1697 170.609C84.5613 171.011 84.46 171.714 84.7641 172.317C84.9669 172.719 85.3725 172.92 85.778 172.92C85.9808 172.92 86.1836 172.819 86.3864 172.719L92.4699 168.801L96.7284 175.33L88.7184 180.353C88.1101 180.755 88.0087 181.458 88.3129 182.06C88.5156 182.462 88.9212 182.663 89.3268 182.663C89.5296 182.663 89.7323 182.563 89.9351 182.462L97.9451 177.44L102.204 183.969L94.0922 189.092C93.4839 189.494 93.3825 190.197 93.6866 190.8C93.8894 191.201 94.295 191.402 94.7006 191.402C94.9034 191.402 95.1061 191.302 95.3089 191.201L103.42 186.078L107.679 192.608L101.19 196.726C100.581 197.128 100.48 197.831 100.784 198.434C100.987 198.836 101.392 199.036 101.798 199.036C102.001 199.036 102.204 198.936 102.406 198.836L108.895 194.717L113.154 201.246L110.315 203.054C109.707 203.456 109.605 204.159 109.909 204.762C110.112 205.164 110.518 205.365 110.923 205.365C111.126 205.365 111.329 205.264 111.532 205.164L114.371 203.356L117.311 207.876C117.514 208.278 117.919 208.479 118.325 208.479C118.528 208.479 118.731 208.378 118.933 208.278C119.542 207.876 119.643 207.173 119.339 206.57L116.398 202.05L122.989 197.831L127.247 204.36L122.583 207.374C121.975 207.776 121.874 208.479 122.178 209.081C122.381 209.483 122.786 209.684 123.192 209.684C123.395 209.684 123.597 209.584 123.8 209.483L128.464 206.47L130.492 209.584C130.695 209.986 131.1 210.186 131.506 210.186C131.709 210.186 131.912 210.086 132.114 209.985C132.723 209.584 132.824 208.881 132.52 208.278L130.492 205.164L137.083 200.945L141.037 207.173C141.24 207.575 141.645 207.776 142.051 207.776C142.254 207.776 142.456 207.675 142.659 207.575C143.267 207.173 143.369 206.47 143.065 205.867L139.11 199.639L145.701 195.42L149.655 201.648C149.858 202.05 150.263 202.251 150.669 202.251C150.872 202.251 151.075 202.15 151.277 202.05C151.886 201.648 151.987 200.945 151.683 200.342L147.729 194.114L154.319 189.896L156.347 193.01C156.55 193.411 156.955 193.612 157.361 193.612C157.564 193.612 157.767 193.512 157.969 193.411C158.578 193.009 158.679 192.306 158.375 191.704L156.347 188.59L161.112 185.576C161.721 185.174 161.822 184.471 161.518 183.869C161.112 183.266 160.403 183.165 159.794 183.467L155.029 186.48L152.089 179.851L158.679 175.632L161.619 180.252C161.822 180.654 162.228 180.855 162.633 180.855C162.836 180.855 163.039 180.755 163.242 180.654C163.85 180.252 163.951 179.549 163.647 178.947L160.808 174.426ZM151.886 165.084L145.295 169.303L141.037 162.774L147.627 158.555L151.886 165.084ZM122.381 171.614L118.122 165.084L124.713 160.866L128.971 167.395L122.381 171.614ZM130.289 169.504L134.548 176.033L127.957 180.252L123.699 173.723L130.289 169.504ZM116.804 162.975L112.546 156.446L119.136 152.227L123.395 158.756L116.804 162.975ZM126.842 159.56L133.432 155.341L137.691 161.87L131.1 166.089L126.842 159.56ZM125.524 157.551L121.265 151.022L127.856 146.803L132.114 153.332L125.524 157.551ZM119.947 148.912L115.689 142.383L122.279 138.164L126.538 144.693L119.947 148.912ZM117.919 150.218L111.329 154.437L107.07 147.908L113.661 143.689L117.919 150.218ZM109.2 155.642L102.609 159.861L98.3507 153.332L104.941 149.113L109.2 155.642ZM110.518 157.752L114.776 164.281L108.186 168.5L103.927 161.971L110.518 157.752ZM116.094 166.39L120.353 172.92L113.762 177.138L109.504 170.609L116.094 166.39ZM121.569 174.929L125.828 181.458L119.237 185.677L114.979 179.147L121.569 174.929ZM127.146 183.567L131.405 190.096L124.814 194.315L120.556 187.786L127.146 183.567ZM129.174 182.261L135.764 178.042L140.023 184.572L133.432 188.791L129.174 182.261ZM137.894 176.737L144.484 172.518L148.743 179.047L142.152 183.266L137.894 176.737ZM136.576 174.728L132.317 168.198L138.908 163.98L143.166 170.509L136.576 174.728ZM146.309 156.446L139.719 160.665L135.46 154.135L142.051 149.917L146.309 156.446ZM140.834 147.807L134.244 152.026L129.985 145.497L136.576 141.278L140.834 147.807ZM131.1 132.639L135.359 139.168L128.768 143.387L124.51 136.858L131.1 132.639ZM116.804 129.525L121.063 136.054L114.472 140.273L110.214 133.744L116.804 129.525ZM108.084 135.05L112.343 141.579L105.752 145.798L101.494 139.269L108.084 135.05ZM92.7741 144.693L99.3646 140.474L103.623 147.004L97.0326 151.222L92.7741 144.693ZM89.631 158.756L96.2214 154.537L100.48 161.066L93.8894 165.285L89.631 158.756ZM95.2075 167.395L101.798 163.176L106.056 169.705L99.466 173.924L95.2075 167.395ZM100.784 176.033L107.375 171.815L111.633 178.344L105.043 182.563L100.784 176.033ZM106.259 184.672L112.85 180.453L117.108 186.983L110.518 191.201L106.259 184.672ZM116.094 199.84L111.836 193.311L118.426 189.092L122.685 195.621L116.094 199.84ZM130.289 202.954L126.031 196.425L132.621 192.206L136.88 198.735L130.289 202.954ZM139.009 197.429L134.75 190.9L141.341 186.681L145.599 193.21L139.009 197.429ZM154.319 187.786L147.729 192.005L143.47 185.476L150.061 181.257L154.319 187.786ZM150.77 177.842L146.512 171.312L153.102 167.093L157.361 173.623L150.77 177.842Z" fill="#474747"/>
<path d="M71.7855 146.803L55.1572 130.831C53.3322 129.325 50.696 129.726 49.3779 131.635C48.1612 133.443 48.5667 135.854 50.3918 137.059L69.5549 150.017L71.7855 146.803Z" fill="white"/>
<path d="M47.3501 133.845C47.3501 132.84 47.6543 131.836 48.2626 130.932C49.0738 129.726 50.3919 128.923 51.8113 128.722C53.2308 128.521 54.7517 128.923 55.867 129.927C55.867 129.927 55.867 129.927 55.9684 130.028L72.5967 145.999C73.0023 146.401 73.1037 147.104 72.7995 147.606L70.5689 150.921C70.1633 151.524 69.4536 151.624 68.8452 151.223L49.6821 138.064C48.1612 137.059 47.3501 135.452 47.3501 133.845ZM54.3462 131.735C53.7378 131.233 53.0281 131.032 52.2169 131.133C51.4058 131.233 50.7974 131.635 50.2905 132.238C49.4793 133.443 49.7835 135.151 51.0002 136.055L69.1494 148.41L70.1633 147.004L54.3462 131.735Z" fill="#474747"/>
<path d="M73.4078 144.392L58.9087 125.206C57.4892 123.499 54.7516 123.699 53.5349 125.508C52.521 126.914 52.8252 128.822 54.1433 130.028L71.7855 146.803L73.4078 144.392Z" fill="white"/>
<path d="M51.71 127.416C51.71 126.512 52.0141 125.608 52.5211 124.804C53.3322 123.599 54.6503 122.896 56.0698 122.795C57.4893 122.695 58.9088 123.298 59.8213 124.402C59.8213 124.402 59.8213 124.402 59.8213 124.503L74.4218 143.689C74.726 144.091 74.726 144.693 74.4218 145.095L72.7995 147.506C72.5968 147.807 72.2926 148.008 71.887 148.008C71.4814 148.008 71.1773 147.908 70.8731 147.707L53.2308 130.932C52.2169 130.028 51.71 128.722 51.71 127.416ZM57.8949 126.01C57.4893 125.507 56.7796 125.206 56.1712 125.307C55.4615 125.307 54.8531 125.708 54.5489 126.211C53.9406 127.115 54.042 128.32 54.9545 129.023C54.9545 129.023 54.9545 129.023 55.0559 129.124L71.6842 144.894L71.9884 144.392L57.8949 126.01Z" fill="#474747"/>
<path d="M42.2806 149.314L65.6008 155.843L67.223 153.433L45.0182 143.187C43.4973 142.383 41.5708 142.785 40.5569 144.191C39.3402 145.999 40.1513 148.511 42.2806 149.314Z" fill="white"/>
<path d="M38.8333 146.1C38.8333 145.196 39.1374 144.292 39.6444 143.488C40.9625 141.579 43.5987 140.977 45.6265 142.082L67.73 152.328C68.0342 152.528 68.3384 152.729 68.4398 153.131C68.5412 153.432 68.4398 153.834 68.237 154.136L66.6147 156.546C66.3105 156.948 65.8036 157.149 65.2966 157.049L41.9764 150.519C41.9764 150.519 41.9764 150.519 41.875 150.519C40.5569 150.017 39.4416 149.013 39.036 147.606C38.8333 147.004 38.8333 146.602 38.8333 146.1ZM65.398 153.834L44.5112 144.191C44.5112 144.191 44.5112 144.191 44.4098 144.191C43.3959 143.689 42.1792 143.99 41.5708 144.894C41.1653 145.497 41.0639 146.1 41.2667 146.803C41.4694 147.406 41.9764 147.908 42.5848 148.109L64.9924 154.337L65.398 153.834Z" fill="#474747"/>
<path d="M67.2231 153.332L69.4537 150.017L50.2906 137.059C48.4655 135.854 46.0321 136.256 44.8154 138.064C43.4973 139.972 44.1056 142.584 46.1335 143.689L67.2231 153.332Z" fill="white"/>
<path d="M42.8889 140.374C42.8889 139.369 43.1931 138.365 43.8014 137.461C44.6126 136.356 45.7279 135.552 47.1474 135.351C48.4655 135.05 49.885 135.351 51.0003 136.155L70.1634 149.113C70.7718 149.515 70.8732 150.218 70.4676 150.821L68.237 154.136C67.9328 154.638 67.2231 154.839 66.7161 154.537L45.6265 144.894H45.5251C44.207 144.191 43.2945 142.986 42.9903 141.579C42.9903 141.178 42.8889 140.776 42.8889 140.374ZM67.8314 150.419L49.6822 138.064C49.0738 137.662 48.3641 137.461 47.6544 137.662C46.9446 137.762 46.3363 138.164 45.9307 138.767C45.5251 139.369 45.3223 140.173 45.5251 140.977C45.7279 141.68 46.1335 142.282 46.8432 142.684L66.9189 151.825L67.8314 150.419Z" fill="#474747"/>
<path d="M72.2927 160.062C75.3345 162.171 79.593 161.368 81.6208 158.354C83.7501 155.341 82.9389 151.122 79.8972 149.113L76.8554 147.104L69.251 158.153L72.2927 160.062Z" fill="white"/>
<path d="M68.0342 158.053C68.0342 157.852 68.1356 157.551 68.237 157.35L75.8414 146.3C76.247 145.698 76.9567 145.597 77.5651 145.999L80.6068 148.008C84.2569 150.419 85.1695 155.341 82.6347 158.957C80.2012 162.573 75.233 163.477 71.5829 160.966L68.5411 158.957C68.237 158.756 68.1356 158.455 68.0342 158.154C68.0342 158.154 68.0342 158.154 68.0342 158.053ZM77.2609 148.711L71.0759 157.752L73.1038 159.158C75.6386 160.866 79.0859 160.263 80.7082 157.752C82.4319 155.241 81.8235 151.825 79.2887 150.118L77.2609 148.711Z" fill="#474747"/>
<path d="M73.2995 144.529L65.6804 155.552L69.2777 157.993L76.8969 146.97L73.2995 144.529Z" fill="#F8CF00"/>
<path d="M64.4856 155.542C64.4856 155.341 64.587 155.04 64.6884 154.839L72.2928 143.789C72.4956 143.488 72.7997 143.387 73.1039 143.287C73.4081 143.187 73.7123 143.287 74.0165 143.488L77.6666 145.899C78.2749 146.3 78.3763 147.004 77.9707 147.606L70.3663 158.656C70.1636 158.957 69.8594 159.058 69.5552 159.158C69.251 159.258 68.9468 159.158 68.6427 158.957L64.9926 156.546C64.6884 156.345 64.4856 155.944 64.4856 155.542ZM73.6109 146.3L67.426 155.341L69.0482 156.446L75.2332 147.405L73.6109 146.3Z" fill="#474747"/>
</g>
</g>
<defs>
<clipPath id="clip0">
<rect width="200.148" height="276.136" fill="white" transform="translate(0 2.05469)"/>
</clipPath>
</defs>
</svg>
