<svg width="168" height="225" viewBox="0 0 168 225" fill="none" xmlns="http://www.w3.org/2000/svg">
<mask id="mask0" mask-type="alpha" maskUnits="userSpaceOnUse" x="0" y="1" width="168" height="225">
<rect y="1" width="168" height="225" rx="11" fill="#C4C4C4"/>
</mask>
<g mask="url(#mask0)">
<g clip-path="url(#clip0)">
<path d="M205.234 83.0713L177.071 63.6028L129.887 130.649L156.789 151.992L205.234 83.0713Z" fill="white"/>
<path d="M156.789 156.989C155.633 156.989 154.478 156.573 153.637 155.844L126.735 134.605C124.633 132.94 124.213 129.921 125.684 127.734L172.868 60.6877C174.444 58.3973 177.597 57.8767 179.908 59.4384L208.072 78.9068C209.228 79.6356 209.963 80.8849 210.173 82.1343C210.384 83.4877 210.068 84.8411 209.333 85.8822L160.888 154.803C160.047 155.948 158.786 156.677 157.42 156.885C157.315 156.989 157.105 156.989 156.789 156.989ZM136.823 129.712L155.739 144.704L198.194 84.3206L178.332 70.5781L136.823 129.712Z" fill="white"/>
<path d="M129.887 130.649L115.701 150.847L143.969 170.419L156.79 151.992L129.887 130.649Z" fill="white"/>
<path d="M143.969 175.416C142.918 175.416 141.867 175.104 141.027 174.479L112.863 155.011C110.551 153.449 110.026 150.326 111.602 148.036L125.789 127.838C126.63 126.693 127.786 125.964 129.257 125.756C130.623 125.548 132.094 125.964 133.145 126.797L160.047 148.036C162.149 149.701 162.569 152.721 161.098 154.803L148.172 173.23C147.437 174.375 146.176 175.104 144.915 175.312C144.494 175.416 144.179 175.416 143.969 175.416ZM122.847 149.597L142.708 163.34L149.959 152.929L131.043 137.937L122.847 149.597Z" fill="white"/>
<path d="M50.8621 168.129L113.704 215.498C114.755 216.331 116.226 216.435 117.382 215.811C121.48 213.416 124.423 211.438 127.681 207.482L48.4451 149.909C38.4618 158.134 50.8621 168.129 50.8621 168.129Z" fill="#EB794E"/>
<path d="M115.701 221.225C113.914 221.225 112.023 220.6 110.551 219.455L47.7095 172.189L47.6044 172.085C46.7637 171.46 39.5127 165.318 39.5127 157.301C39.5127 154.386 40.4585 150.014 45.1874 146.057C46.9739 144.6 49.601 144.496 51.4926 145.849L130.728 203.422C131.884 204.255 132.62 205.504 132.725 206.857C132.83 208.211 132.514 209.564 131.674 210.71C127.68 215.499 124.002 217.893 119.904 220.183C118.538 220.808 117.172 221.225 115.701 221.225ZM54.0147 164.173L115.806 210.71C117.382 209.773 118.748 208.94 119.904 208.003L49.7061 156.989V157.093C49.601 159.696 52.5435 162.923 54.0147 164.173Z" fill="white"/>
<path d="M143.233 166.567L119.694 147.515C118.328 146.37 116.226 146.578 115.07 147.931L110.866 152.929C107.188 157.614 104.982 156.573 104.982 156.573C97.8357 150.534 80.7066 146.682 80.7066 146.682C80.7066 146.682 58.8485 141.373 48.6551 149.701L48.55 149.805L127.785 207.378C137.033 196.134 142.918 180.83 145.44 173.542C146.071 171.044 145.335 168.233 143.233 166.567Z" fill="#EB794E"/>
<path d="M127.575 212.375C126.524 212.375 125.474 212.063 124.528 211.438L45.2924 153.866C44.0314 152.929 43.2958 151.471 43.1907 149.91C43.1907 148.348 43.8212 146.994 44.9771 145.953C45.0822 145.849 45.1873 145.849 45.2924 145.745C50.5467 141.477 58.3232 139.603 68.6217 140.019C75.5574 140.331 81.127 141.581 81.7575 141.789C83.6491 142.205 97.4154 145.433 105.822 150.951C106.138 150.638 106.453 150.326 106.873 149.805L106.978 149.701L111.182 144.704C114.124 141.268 119.379 140.748 122.952 143.663L146.491 162.715C150.169 165.734 151.64 170.731 150.064 175.208C147.227 183.433 141.132 198.945 131.569 210.605C130.518 211.751 129.152 212.375 127.575 212.375ZM58.3232 150.742L126.63 200.299C133.881 189.992 138.609 177.29 140.501 171.877C140.711 171.356 140.501 170.731 140.081 170.419L117.907 152.408L114.86 156.052C109.185 163.236 104.246 161.778 102.88 161.153C102.46 160.945 102.039 160.737 101.724 160.425C96.6798 156.156 84.0694 152.616 79.6558 151.575H79.5507C75.4523 150.638 65.7843 149.181 58.3232 150.742Z" fill="white"/>
<path d="M79.866 164.381C78.8152 164.381 77.7643 164.069 76.8185 163.34C74.6117 161.674 74.0863 158.551 75.7677 156.26L83.3339 146.266C85.0153 144.08 88.1679 143.559 90.4798 145.225C92.6866 146.89 93.2121 150.014 91.5307 152.304L83.9644 162.299C82.9136 163.652 81.3373 164.381 79.866 164.381Z" fill="white"/>
<path d="M90.2697 171.981C89.7443 171.981 89.2188 171.877 88.6934 171.773C86.0662 170.94 84.595 168.129 85.4357 165.422L90.3748 150.014C91.2155 147.411 94.0528 145.953 96.7851 146.786C99.4123 147.619 100.883 150.43 100.043 153.137L95.1037 168.545C94.4732 170.627 92.4765 171.981 90.2697 171.981Z" fill="white"/>
<path d="M102.46 174.688C99.6224 174.688 97.4155 172.397 97.4155 169.69V155.531C97.4155 152.72 99.7274 150.534 102.46 150.534C105.192 150.534 107.504 152.825 107.504 155.531V169.69C107.609 172.397 105.297 174.688 102.46 174.688Z" fill="white"/>
<path d="M98.6765 156.885C97.7307 156.885 96.6798 156.781 95.629 156.26C94.0527 155.532 93.317 155.219 93.0018 155.115L87.8525 154.282L89.3238 148.973C89.4288 148.452 89.8492 147.307 90.795 144.392L91.0051 143.871C91.1102 143.455 91.3204 143.038 91.4255 142.622C92.2662 140.436 94.7883 133.669 101.514 131.482C107.188 129.608 113.178 131.378 116.016 135.959C117.592 138.562 118.012 141.685 117.067 144.808C116.016 148.66 112.968 152.304 109.395 154.074C106.978 155.323 104.771 155.74 102.565 156.26C102.144 156.364 101.724 156.469 101.199 156.573C100.883 156.677 99.8324 156.885 98.6765 156.885ZM106.138 140.852C105.717 140.852 105.297 140.956 104.877 141.06C103.405 141.581 102.144 143.247 100.988 146.266C100.988 146.266 100.988 146.37 100.883 146.37C102.46 146.058 103.721 145.745 104.877 145.121C105.822 144.6 106.978 143.351 107.399 142.101C107.504 141.685 107.504 141.373 107.399 141.269C107.294 140.956 106.768 140.852 106.138 140.852Z" fill="white"/>
<path d="M97.7307 157.197L88.4831 153.345C87.117 152.72 86.0661 151.888 85.3305 151.263L85.1203 151.055C83.0186 149.285 81.4423 147.411 80.3914 145.225C77.6592 139.915 79.0253 132.731 83.4389 128.879C86.0661 126.485 89.7441 125.756 93.4222 126.797C96.785 127.734 99.4121 130.441 100.463 134.085C102.565 140.748 100.778 146.682 99.7274 150.118C99.6223 150.638 99.4121 151.055 99.307 151.471L97.7307 157.197ZM90.0594 136.584C89.1136 137.416 88.7984 139.603 89.4289 140.852C89.7441 141.477 90.2696 142.205 91.0052 142.83C91.3204 141.06 91.3204 139.186 90.6899 137.208C90.5848 136.896 90.4798 136.792 90.4798 136.688C90.1645 136.583 90.0594 136.584 90.0594 136.584Z" fill="white"/>
<path d="M205.235 83.071L177.071 63.6025L129.887 130.649L156.79 151.992L205.235 83.071Z" fill="white"/>
<path d="M156.79 153.241C156.474 153.241 156.264 153.137 155.949 152.929L129.047 131.69C128.521 131.274 128.416 130.545 128.837 130.025L176.02 62.978C176.441 62.4574 177.176 62.2492 177.807 62.6656L205.97 82.03C206.285 82.2382 206.391 82.5506 206.496 82.8629C206.601 83.1752 206.496 83.4875 206.285 83.7999L157.84 152.72C157.63 153.033 157.315 153.241 157 153.241C157 153.241 156.895 153.241 156.79 153.241ZM131.674 130.441L156.579 150.118L203.448 83.3834L177.282 65.3725L131.674 130.441Z" fill="#474747"/>
<path d="M129.887 130.649L115.701 150.846L143.969 170.419L156.79 151.992L129.887 130.649Z" fill="white"/>
<path d="M143.969 171.668C143.759 171.668 143.444 171.564 143.233 171.46L115.07 151.992C114.545 151.575 114.335 150.846 114.755 150.222L128.942 130.024C129.152 129.712 129.467 129.504 129.782 129.504C130.098 129.504 130.518 129.504 130.728 129.816L157.63 151.055C158.156 151.471 158.261 152.2 157.84 152.72L144.915 171.148C144.705 171.46 144.389 171.564 144.074 171.668H143.969ZM117.487 150.534L143.549 168.545L155.003 152.096L130.098 132.419L117.487 150.534Z" fill="#474747"/>
<path d="M50.8621 168.129L113.704 215.498C114.755 216.331 116.226 216.435 117.382 215.811C121.48 213.416 124.423 211.438 127.681 207.482L48.4451 149.909C38.4618 158.134 50.8621 168.129 50.8621 168.129Z" fill="#FF911A"/>
<path d="M115.701 217.476C114.65 217.476 113.704 217.164 112.863 216.539L50.0214 169.17C49.7062 168.961 43.2959 163.652 43.2959 157.197C43.2959 154.074 44.7671 151.263 47.6045 148.868C48.0248 148.452 48.6553 148.452 49.1808 148.868L128.416 206.441C128.731 206.649 128.837 206.961 128.942 207.274C128.942 207.586 128.837 208.002 128.626 208.211C125.053 212.583 121.796 214.561 117.907 216.852C117.277 217.268 116.436 217.476 115.701 217.476ZM51.5977 167.087L114.44 214.457C115.07 214.978 116.016 215.082 116.646 214.666C120.114 212.687 122.847 210.918 125.789 207.586L48.5502 151.471C46.7638 153.241 45.818 155.115 45.818 157.197C45.818 162.194 51.2825 166.879 51.5977 167.087Z" fill="#474747"/>
<path d="M143.233 166.567L119.694 147.515C118.328 146.37 116.226 146.578 115.07 147.931L110.867 152.928C107.189 157.613 104.982 156.572 104.982 156.572C97.836 150.534 80.7068 146.682 80.7068 146.682C80.7068 146.682 58.8488 141.372 48.6554 149.701L48.5503 149.805L127.786 207.378C137.033 196.134 142.918 180.83 145.44 173.542C146.071 171.044 145.335 168.233 143.233 166.567Z" fill="#8CBDF2"/>
<path d="M127.576 208.627C127.365 208.627 127.05 208.523 126.84 208.419L47.6045 150.846C47.2893 150.638 47.0791 150.222 47.0791 149.909C47.0791 149.493 47.1842 149.181 47.4995 148.868C47.6045 148.764 47.6045 148.764 47.6045 148.764C58.2183 140.123 79.8662 145.224 80.812 145.433C81.5476 145.537 97.9411 149.285 105.402 155.427C105.823 155.427 107.399 155.219 109.711 152.2L114.019 147.203C115.596 145.329 118.538 145.016 120.43 146.578L143.969 165.63C146.386 167.608 147.437 170.94 146.386 173.959C143.654 181.975 137.769 196.967 128.521 208.211C128.311 208.523 127.996 208.627 127.576 208.627ZM50.547 149.805L127.365 205.608C135.877 194.781 141.447 180.726 144.074 173.126C144.705 171.148 144.074 168.857 142.498 167.504L118.958 148.452C118.118 147.723 116.857 147.827 116.121 148.764L111.918 153.761C107.819 158.863 104.982 158.03 104.456 157.718C104.351 157.718 104.246 157.613 104.141 157.509C97.3106 151.679 80.6018 147.931 80.3916 147.827C80.1814 147.827 60.6353 143.246 50.547 149.805Z" fill="#474747"/>
<path d="M79.866 160.529C79.5508 160.529 79.3406 160.424 79.1304 160.32C78.605 159.904 78.4999 159.071 78.9203 158.55L86.4865 148.556C86.9069 148.035 87.7476 147.931 88.273 148.348C88.7984 148.764 88.9035 149.597 88.4832 150.118L80.9169 160.112C80.6017 160.424 80.1813 160.529 79.866 160.529Z" fill="#474747"/>
<path d="M90.2696 168.233C90.1645 168.233 90.0594 168.233 89.8492 168.129C89.2187 167.92 88.7984 167.192 89.0085 166.567L93.9476 151.159C94.1578 150.534 94.8934 150.118 95.5239 150.326C96.1544 150.534 96.5748 151.263 96.3646 151.888L91.4255 167.296C91.3204 167.92 90.9001 168.233 90.2696 168.233Z" fill="#474747"/>
<path d="M102.46 170.939C101.724 170.939 101.199 170.419 101.199 169.69V155.531C101.199 154.803 101.724 154.282 102.46 154.282C103.195 154.282 103.721 154.803 103.721 155.531V169.69C103.721 170.315 103.195 170.939 102.46 170.939Z" fill="#474747"/>
<path d="M98.5715 153.137C98.0461 153.137 97.6257 153.033 97.2054 152.929C94.7884 151.784 94.0528 151.575 93.9477 151.575L92.5815 151.367L92.8968 150.014C93.0019 149.493 93.6324 147.619 94.368 145.641L94.5782 145.121C94.6833 144.704 94.7884 144.392 94.9985 143.975C96.8901 139.082 99.4122 136.167 102.775 135.022C106.033 133.877 110.656 134.397 112.863 137.937C113.914 139.603 114.124 141.685 113.599 143.767C112.758 146.578 110.446 149.389 107.819 150.638C105.822 151.679 103.931 152.096 101.934 152.512C101.514 152.616 100.988 152.721 100.568 152.825C100.148 153.033 99.4122 153.137 98.5715 153.137ZM98.2562 150.638C98.5715 150.638 99.3071 150.638 99.8325 150.534C100.358 150.43 100.778 150.326 101.304 150.222C103.195 149.805 104.877 149.389 106.663 148.556C108.66 147.515 110.551 145.329 111.077 143.247C111.497 141.789 111.392 140.54 110.656 139.394C109.185 137 105.928 136.792 103.616 137.521C100.988 138.458 98.9918 140.748 97.4155 144.912C97.3104 145.225 97.2054 145.641 96.9952 145.953L96.785 146.474C96.5748 147.099 96.0494 148.556 95.7341 149.597C96.4697 149.805 97.3104 150.118 98.2562 150.638Z" fill="#474747"/>
<path d="M95.1036 151.992L89.9544 149.805C89.1137 149.493 88.3781 148.868 87.7476 148.348L87.5374 148.14C85.856 146.682 84.595 145.224 83.7543 143.559C81.8627 139.811 82.8085 134.501 85.856 131.794C87.5374 130.337 89.8493 129.92 92.2663 130.545C94.368 131.17 95.9443 132.835 96.785 135.23C98.4664 140.852 96.9952 145.849 96.0494 149.077C95.8392 149.597 95.7342 150.118 95.6291 150.534L95.1036 151.992ZM90.9002 147.515C91.1103 147.619 92.3714 148.14 93.4222 148.556V148.452C94.368 145.433 95.7342 140.956 94.2629 136.063C93.9477 135.126 93.2121 133.46 91.5307 133.044C90.5849 132.835 88.9035 132.523 87.5374 133.772C85.3306 135.75 84.595 139.811 85.9611 142.518C86.5916 143.871 87.7476 145.12 89.1137 146.266L89.4289 146.474C89.9544 146.89 90.4798 147.307 90.9002 147.515Z" fill="#474747"/>
</g>
</g>
<defs>
<clipPath id="clip0">
<rect width="210.384" height="234.247" fill="white" transform="translate(0 -9.27393)"/>
</clipPath>
</defs>
</svg>
